<svg width="187" height="19" viewBox="0 0 187 19" fill="none" xmlns="http://www.w3.org/2000/svg">
<path d="M17.6475 3.36458C17.4899 3.2262 17.2839 3.15598 17.0746 3.16934C16.8654 3.1827 16.6699 3.27854 16.5312 3.43583L15.0508 5.13792L14.5521 4.57583C14.4125 4.41836 14.216 4.32281 14.0059 4.31019C13.7958 4.29757 13.5893 4.36892 13.4319 4.50854C13.2744 4.64817 13.1788 4.84463 13.1662 5.05471C13.1536 5.26479 13.225 5.47128 13.3646 5.62875L14.465 6.86375C14.5399 6.94676 14.6315 7.01295 14.7339 7.05798C14.8362 7.10301 14.9469 7.12585 15.0587 7.125C15.1698 7.12374 15.2794 7.09913 15.3803 7.05275C15.4812 7.00638 15.5713 6.93929 15.6446 6.85583L17.7108 4.48083C17.8502 4.32429 17.9218 4.11887 17.9099 3.90962C17.898 3.70037 17.8037 3.50437 17.6475 3.36458ZM8.41667 8.70833C9.04297 8.70833 9.65522 8.52261 10.176 8.17465C10.6967 7.8267 11.1026 7.33213 11.3423 6.7535C11.582 6.17487 11.6447 5.53816 11.5225 4.92388C11.4003 4.30961 11.0987 3.74536 10.6558 3.3025C10.213 2.85963 9.64873 2.55803 9.03445 2.43585C8.42018 2.31366 7.78347 2.37637 7.20484 2.61605C6.6262 2.85573 6.13164 3.26161 5.78368 3.78236C5.43572 4.30312 5.25 4.91536 5.25 5.54167C5.25 6.38152 5.58363 7.18697 6.17749 7.78084C6.77136 8.37471 7.57681 8.70833 8.41667 8.70833ZM8.41667 3.95833C8.72982 3.95833 9.03594 4.0512 9.29632 4.22517C9.5567 4.39915 9.75964 4.64644 9.87948 4.93575C9.99931 5.22507 10.0307 5.54342 9.96958 5.85056C9.90848 6.1577 9.75768 6.43982 9.53625 6.66125C9.31482 6.88269 9.0327 7.03349 8.72556 7.09458C8.41842 7.15567 8.10007 7.12432 7.81075 7.00448C7.52143 6.88464 7.27415 6.6817 7.10017 6.42132C6.92619 6.16094 6.83333 5.85482 6.83333 5.54167C6.83333 5.12174 7.00015 4.71901 7.29708 4.42208C7.59401 4.12515 7.99674 3.95833 8.41667 3.95833ZM8.41667 10.2917C6.94693 10.2917 5.53738 10.8755 4.49812 11.9148C3.45885 12.954 2.875 14.3636 2.875 15.8333C2.875 16.0433 2.95841 16.2447 3.10687 16.3931C3.25534 16.5416 3.4567 16.625 3.66667 16.625C3.87663 16.625 4.07799 16.5416 4.22646 16.3931C4.37493 16.2447 4.45833 16.0433 4.45833 15.8333C4.45833 14.7835 4.87537 13.7767 5.6177 13.0344C6.36003 12.292 7.36685 11.875 8.41667 11.875C9.46648 11.875 10.4733 12.292 11.2156 13.0344C11.958 13.7767 12.375 14.7835 12.375 15.8333C12.375 16.0433 12.4584 16.2447 12.6069 16.3931C12.7553 16.5416 12.9567 16.625 13.1667 16.625C13.3766 16.625 13.578 16.5416 13.7265 16.3931C13.8749 16.2447 13.9583 16.0433 13.9583 15.8333C13.9583 14.3636 13.3745 12.954 12.3352 11.9148C11.296 10.8755 9.88641 10.2917 8.41667 10.2917Z" fill="black"/>
<path d="M32.2109 15L31.1797 12.0078H26.8828L25.8438 15H24.0469L28.1172 3.72656H30L34.0703 15H32.2109ZM28.9688 5.77344L27.3281 10.5391H30.7344L29.1016 5.77344H28.9688ZM40.2578 6.35156C42.4219 6.35156 43.7891 8.03906 43.7891 10.7422C43.7891 13.4453 42.4219 15.1406 40.2734 15.1406C39.0625 15.1406 38.1016 14.6094 37.6562 13.7109H37.5234V17.8281H35.8438V6.49219H37.4609V7.89844H37.5859C38.1016 6.92969 39.1016 6.35156 40.2578 6.35156ZM39.7812 13.6328C41.2109 13.6328 42.0625 12.5469 42.0625 10.7422C42.0625 8.94531 41.2109 7.85938 39.7891 7.85938C38.375 7.85938 37.4922 8.96875 37.4922 10.75C37.4922 12.5234 38.375 13.6328 39.7812 13.6328ZM50.2266 6.35156C52.3906 6.35156 53.7578 8.03906 53.7578 10.7422C53.7578 13.4453 52.3906 15.1406 50.2422 15.1406C49.0312 15.1406 48.0703 14.6094 47.625 13.7109H47.4922V17.8281H45.8125V6.49219H47.4297V7.89844H47.5547C48.0703 6.92969 49.0703 6.35156 50.2266 6.35156ZM49.75 13.6328C51.1797 13.6328 52.0312 12.5469 52.0312 10.7422C52.0312 8.94531 51.1797 7.85938 49.7578 7.85938C48.3438 7.85938 47.4609 8.96875 47.4609 10.75C47.4609 12.5234 48.3438 13.6328 49.75 13.6328ZM55.8594 15V3.17188H57.5391V15H55.8594ZM60.0938 15V6.49219H61.7656V15H60.0938ZM60.9297 5C60.3047 5 59.8438 4.55469 59.8438 3.97656C59.8438 3.39062 60.3047 2.94531 60.9297 2.94531C61.5547 2.94531 62.0156 3.39062 62.0156 3.97656C62.0156 4.55469 61.5547 5 60.9297 5ZM71.4375 9.27344H69.8047C69.6094 8.44531 68.9219 7.82812 67.7969 7.82812C66.3906 7.82812 65.5312 8.90625 65.5312 10.7188C65.5312 12.5625 66.3984 13.6641 67.7969 13.6641C68.8594 13.6641 69.5859 13.1797 69.8047 12.2656H71.4375C71.2188 13.9766 69.9062 15.1641 67.8047 15.1641C65.3281 15.1641 63.8125 13.4922 63.8125 10.7188C63.8125 7.99219 65.3203 6.32812 67.7969 6.32812C69.9297 6.32812 71.2188 7.57031 71.4375 9.27344ZM76.1406 13.7266C77.4062 13.7266 78.3438 12.9219 78.3438 11.8672V11.1562L76.2656 11.2891C75.0938 11.3672 74.5625 11.7656 74.5625 12.5156C74.5625 13.2812 75.2266 13.7266 76.1406 13.7266ZM75.7109 15.1406C74.0703 15.1406 72.875 14.1484 72.875 12.5938C72.875 11.0625 74.0156 10.1797 76.0391 10.0547L78.3438 9.92188V9.1875C78.3438 8.28906 77.75 7.78125 76.6016 7.78125C75.6641 7.78125 75.0156 8.125 74.8281 8.72656H73.2031C73.375 7.26562 74.75 6.32812 76.6797 6.32812C78.8125 6.32812 80.0156 7.39062 80.0156 9.1875V15H78.3984V13.8047H78.2656C77.7578 14.6562 76.8281 15.1406 75.7109 15.1406ZM82.4062 15V6.49219H84.0234V7.84375H84.1484C84.5625 6.89844 85.4062 6.32812 86.6875 6.32812C88.5859 6.32812 89.6328 7.46875 89.6328 9.49219V15H87.9531V9.91406C87.9531 8.54688 87.3594 7.86719 86.1172 7.86719C84.875 7.86719 84.0859 8.69531 84.0859 10.0234V15H82.4062ZM92.5938 4.375H94.2734V6.53125H96.1172V7.94531H94.2734V12.3203C94.2734 13.2109 94.6406 13.6016 95.4766 13.6016C95.7344 13.6016 95.8828 13.5859 96.1172 13.5625V14.9609C95.8438 15.0078 95.5312 15.0469 95.2031 15.0469C93.3359 15.0469 92.5938 14.3906 92.5938 12.75V7.94531H91.2422V6.53125H92.5938V4.375ZM97.7734 8.89844C97.7734 7.39062 99.1562 6.32812 101.078 6.32812C102.992 6.32812 104.242 7.21875 104.406 8.71875H102.797C102.641 8.09375 102.031 7.69531 101.078 7.69531C100.141 7.69531 99.4297 8.14062 99.4297 8.80469C99.4297 9.3125 99.8594 9.63281 100.781 9.84375L102.195 10.1719C103.812 10.5469 104.57 11.2422 104.57 12.4922C104.57 14.0938 103.078 15.1641 101.047 15.1641C99.0234 15.1641 97.7031 14.25 97.5547 12.7422H99.2344C99.4453 13.3984 100.07 13.8047 101.086 13.8047C102.133 13.8047 102.875 13.3359 102.875 12.6562C102.875 12.1484 102.477 11.8203 101.625 11.6172L100.141 11.2734C98.5234 10.8906 97.7734 10.1641 97.7734 8.89844ZM118.461 15L117.43 12.0078H113.133L112.094 15H110.297L114.367 3.72656H116.25L120.32 15H118.461ZM115.219 5.77344L113.578 10.5391H116.984L115.352 5.77344H115.219ZM126.508 6.35156C128.672 6.35156 130.039 8.03906 130.039 10.7422C130.039 13.4453 128.672 15.1406 126.523 15.1406C125.312 15.1406 124.352 14.6094 123.906 13.7109H123.773V17.8281H122.094V6.49219H123.711V7.89844H123.836C124.352 6.92969 125.352 6.35156 126.508 6.35156ZM126.031 13.6328C127.461 13.6328 128.312 12.5469 128.312 10.7422C128.312 8.94531 127.461 7.85938 126.039 7.85938C124.625 7.85938 123.742 8.96875 123.742 10.75C123.742 12.5234 124.625 13.6328 126.031 13.6328ZM136.477 6.35156C138.641 6.35156 140.008 8.03906 140.008 10.7422C140.008 13.4453 138.641 15.1406 136.492 15.1406C135.281 15.1406 134.32 14.6094 133.875 13.7109H133.742V17.8281H132.062V6.49219H133.68V7.89844H133.805C134.32 6.92969 135.32 6.35156 136.477 6.35156ZM136 13.6328C137.43 13.6328 138.281 12.5469 138.281 10.7422C138.281 8.94531 137.43 7.85938 136.008 7.85938C134.594 7.85938 133.711 8.96875 133.711 10.75C133.711 12.5234 134.594 13.6328 136 13.6328ZM142.109 15V3.17188H143.789V15H142.109ZM146.344 15V6.49219H148.016V15H146.344ZM147.18 5C146.555 5 146.094 4.55469 146.094 3.97656C146.094 3.39062 146.555 2.94531 147.18 2.94531C147.805 2.94531 148.266 3.39062 148.266 3.97656C148.266 4.55469 147.805 5 147.18 5ZM153.977 7.75781C152.734 7.75781 151.867 8.63281 151.773 9.96094H156.07C156.031 8.625 155.219 7.75781 153.977 7.75781ZM156.062 12.7031H157.68C157.297 14.2266 155.938 15.1641 153.992 15.1641C151.555 15.1641 150.062 13.4922 150.062 10.7734C150.062 8.05469 151.586 6.32812 153.984 6.32812C156.352 6.32812 157.781 7.94531 157.781 10.6172V11.2031H151.773V11.2969C151.828 12.7891 152.695 13.7344 154.039 13.7344C155.055 13.7344 155.75 13.3672 156.062 12.7031ZM162.906 15.1406C160.742 15.1406 159.375 13.4375 159.375 10.7422C159.375 8.05469 160.758 6.35156 162.906 6.35156C164.07 6.35156 165.055 6.90625 165.516 7.84375H165.641V3.17188H167.32V15H165.711V13.6562H165.578C165.07 14.5859 164.078 15.1406 162.906 15.1406ZM163.383 7.85938C161.969 7.85938 161.109 8.95312 161.109 10.7422C161.109 12.5469 161.961 13.6328 163.383 13.6328C164.797 13.6328 165.672 12.5312 165.672 10.75C165.672 8.97656 164.789 7.85938 163.383 7.85938Z" fill="#535760"/>
</svg>
