<svg width="190" height="77" viewBox="0 0 190 77" fill="none" xmlns="http://www.w3.org/2000/svg">
<path d="M12.1717 19.7073L14.0484 22.2004C17.329 26.5585 15.3254 32.8508 10.1289 34.5096L5.55882 35.9684C0.384206 37.6201 -0.0225811 44.7904 4.8698 47.1504C9.54158 49.404 9.35043 56.19 4.50967 58.0531C0.738638 59.5045 -0.503695 64.2229 2.06363 67.3432L5.1262 71.0653C8.28921 74.9096 13.9011 75.6208 17.923 72.6871L19.0647 71.8544C22.2583 69.5249 26.4629 69.1077 30.0521 70.7639L36.2754 73.6357C42.166 76.354 48.9418 76.4049 54.8726 73.7754L58.0713 72.3572C64.2277 69.6277 71.2365 69.5549 77.4482 72.156L84.2738 75.0141C88.5249 76.7941 93.4138 76.0537 96.9472 73.0947C100.602 70.0335 105.695 69.3552 110.024 71.3529L116.207 74.206C121.188 76.5043 127.01 76.013 131.535 72.9125L133.087 71.8492C136.512 69.5022 140.899 69.0676 144.718 70.697L154.199 74.7418C157.719 76.2438 161.63 73.6607 161.63 69.8331C161.63 65.8193 165.894 63.2421 169.448 65.1083L170.851 65.8452C173.364 67.1652 176.45 66.6394 178.385 64.5617L182.855 59.7604C186.246 56.1183 186.001 50.4057 182.31 47.0676C178.435 43.563 178.389 37.4936 182.209 33.9301L185.051 31.2797C187.583 28.9177 189.021 25.6102 189.021 22.1472V17.045C189.021 12.9993 187.242 9.15841 184.156 6.54199L182.536 5.16828C178.267 1.54824 171.992 1.5975 167.78 5.28411C164.109 8.49681 158.792 8.99289 154.59 6.51462L150.461 4.07898C144.989 0.851177 138.218 0.759022 132.66 3.83672L129.378 5.6538C123.825 8.7289 117.015 8.42112 111.761 4.85763C106.371 1.20132 99.3564 0.979891 93.7464 4.28898L91.3521 5.70127C86.1923 8.74484 79.7562 8.614 74.7243 5.36323L73.9843 4.88515C68.4755 1.32626 61.2732 1.85912 56.3481 6.18994C51.9098 10.0928 45.5619 10.9488 40.2483 8.36094L28.641 2.70797C23.9197 0.408587 18.261 1.3415 14.5277 5.03476L13.1413 6.40625C9.53586 9.97295 9.12164 15.6555 12.1717 19.7073Z" fill="#276655" stroke="#E4E4E4"/>
</svg>
