<svg width="214" height="82" viewBox="0 0 214 82" fill="none" xmlns="http://www.w3.org/2000/svg">
<path d="M13.9131 20.7372L15.8121 23.1246C19.523 27.79 17.356 34.728 11.6494 36.4519L6.34378 38.0547C0.743848 39.7463 0.287763 47.5009 5.60935 49.9302C10.7274 52.2666 10.4963 59.6611 5.20998 61.5866C1.06551 63.0961 -0.277452 68.2923 2.61658 71.621L6.32078 75.8815C9.71842 79.7894 15.5101 80.52 19.7717 77.5782L21.6457 76.2847C25.2676 73.7846 29.9247 73.3351 33.9578 75.0964L41.0374 78.1881C47.7004 81.0979 55.2643 81.1526 61.9687 78.3396L65.5911 76.8197C72.5519 73.8991 80.3796 73.8208 87.3973 76.6018L95.2093 79.6974C99.9671 81.5828 105.369 80.786 109.38 77.6072C113.53 74.3187 119.155 73.5877 124.007 75.7066L131.146 78.8243C136.75 81.2719 143.209 80.7426 148.341 77.4152L150.185 76.2193C154.009 73.7397 158.801 73.2793 163.027 74.9855L174.241 79.5132C178.068 81.0585 182.244 78.2413 182.244 74.1138C182.244 69.7912 186.788 66.9756 190.658 68.8994L192.72 69.9239C195.528 71.3195 198.915 70.7515 201.114 68.5162L206.122 63.4259C209.895 59.5905 209.629 53.3609 205.541 49.8623C201.256 46.1939 201.205 39.5827 205.434 35.8494L208.686 32.9797C211.493 30.5019 213.101 26.9379 213.101 23.1937V18.4995C213.101 13.7936 210.965 9.34196 207.295 6.39675L205.785 5.18509C200.919 1.28079 193.979 1.33474 189.175 5.31421C184.997 8.77494 179.122 9.31296 174.385 6.66864L169.657 4.0295C163.453 0.566186 155.92 0.466614 149.627 3.76473L145.869 5.73398C139.591 9.02383 132.031 8.69095 126.066 4.8621C119.945 0.932384 112.157 0.692577 105.805 4.23821L103.054 5.77375C97.209 9.03672 90.0586 8.89507 84.3471 5.40316L83.4238 4.83871C77.2038 1.0359 69.2531 1.61457 63.6492 6.27792C58.6028 10.4774 51.5917 11.4018 45.6293 8.65374L31.7749 2.26833C26.8035 -0.0229555 20.9397 0.92509 16.9436 4.6662L14.955 6.5279C10.9585 10.2694 10.5051 16.4527 13.9131 20.7372Z" fill="#B85844" stroke="#E4E4E4"/>
</svg>
