<svg width="29" height="27" viewBox="0 0 29 27" fill="none" xmlns="http://www.w3.org/2000/svg">
<rect width="29" height="27" rx="13.5" fill="#F7F7F7"/>
<path d="M13.75 19.5H13.375C10.5557 19.5 9.1465 19.5 8.20525 18.7575C8.05567 18.639 7.91665 18.5078 7.78975 18.3652C7 17.4802 7 16.1527 7 13.5C7 10.8473 7 9.5205 7.78975 8.63475C7.91625 8.49275 8.05475 8.36225 8.20525 8.24325C9.1465 7.5 10.5557 7.5 13.375 7.5H15.625C18.4442 7.5 19.8535 7.5 20.794 8.2425C20.945 8.3625 21.0837 8.49325 21.2102 8.63475C21.922 9.43275 21.9925 10.5885 22 12.75M7 11.25H22M16 18C16 18 16.75 18 17.5 19.5C17.5 19.5 19.8827 15.75 22 15" stroke="#143567" stroke-width="1.5" stroke-linecap="round" stroke-linejoin="round"/>
</svg>
