<svg width="56" height="56" viewBox="0 0 56 56" fill="none" xmlns="http://www.w3.org/2000/svg">
<rect width="56" height="56" rx="4" fill="#F5F5F5"/>
<path d="M31.545 33.345C31.646 33.4003 31.7615 33.4237 31.8761 33.4121C31.9907 33.4005 32.0991 33.3544 32.187 33.28L32.19 33.289C32.8767 32.679 33.57 32.0783 34.27 31.487C34.492 31.303 34.453 31.016 34.282 30.766L34.121 30.547C33.678 29.95 33.259 29.384 33.259 28.25V24.02L33.26 23.59C33.27 21.967 33.278 20.485 32.063 19.351C31.023 18.351 29.297 18 27.976 18C25.396 18 22.51 18.962 21.9 22.16C21.836 22.493 22.084 22.672 22.305 22.722L24.943 23.017C25.191 23.006 25.37 22.771 25.416 22.521C25.641 21.421 26.561 20.891 27.596 20.891C28.156 20.891 28.79 21.097 29.118 21.597C29.461 22.097 29.456 22.763 29.451 23.361L29.45 23.563V23.906C29.1935 23.934 28.9368 23.9607 28.68 23.986C27.249 24.13 25.59 24.296 24.347 24.844C22.644 25.577 21.453 27.077 21.453 29.279C21.453 32.1 23.228 33.509 25.514 33.509C27.442 33.509 28.499 33.054 29.988 31.536C30.0607 31.6407 30.1273 31.739 30.188 31.831C30.545 32.361 30.778 32.708 31.545 33.345ZM29.45 26.81C29.45 27.804 29.452 28.648 28.942 29.543C28.505 30.306 27.817 30.776 27.064 30.776C26.022 30.776 25.411 29.983 25.411 28.811C25.411 26.498 27.484 26.078 29.451 26.078L29.449 26.665L29.45 26.81ZM27.98 38C30.56 38 33.557 37.188 35.625 35.663C35.969 35.409 35.675 35.031 35.325 35.18C33.0678 36.1303 30.6451 36.6254 28.196 36.637C24.805 36.637 21.511 35.707 18.852 34.158C18.619 34.022 18.452 34.261 18.639 34.436C21.104 36.663 24.355 38 27.98 38Z" fill="black"/>
<path d="M34.092 34.595C34.766 34.516 36.225 34.345 36.485 34.679H36.494C36.759 35.017 36.2 36.414 35.95 37.036C35.867 37.226 36.03 37.301 36.2 37.159C37.31 36.231 37.595 34.286 37.369 34.006C37.142 33.726 35.209 33.488 34.021 34.319C33.839 34.446 33.869 34.622 34.073 34.598L34.092 34.595Z" fill="#F46400"/>
</svg>
