<svg width="144" height="25" viewBox="0 0 144 25" fill="none" xmlns="http://www.w3.org/2000/svg">
<path d="M8.5 14.4639C8.83152 14.4639 9.14946 14.3322 9.38388 14.0978C9.6183 13.8633 9.75 13.5454 9.75 13.2139C9.75 12.8823 9.6183 12.5644 9.38388 12.33C9.14946 12.0956 8.83152 11.9639 8.5 11.9639C8.16848 11.9639 7.85054 12.0956 7.61612 12.33C7.3817 12.5644 7.25 12.8823 7.25 13.2139C7.25 13.5454 7.3817 13.8633 7.61612 14.0978C7.85054 14.3322 8.16848 14.4639 8.5 14.4639ZM8.5 17.9639C8.83152 17.9639 9.14946 17.8322 9.38388 17.5978C9.6183 17.3633 9.75 17.0454 9.75 16.7139C9.75 16.3823 9.6183 16.0644 9.38388 15.83C9.14946 15.5956 8.83152 15.4639 8.5 15.4639C8.16848 15.4639 7.85054 15.5956 7.61612 15.83C7.3817 16.0644 7.25 16.3823 7.25 16.7139C7.25 17.0454 7.3817 17.3633 7.61612 17.5978C7.85054 17.8322 8.16848 17.9639 8.5 17.9639ZM13.25 13.2139C13.25 13.5454 13.1183 13.8633 12.8839 14.0978C12.6495 14.3322 12.3315 14.4639 12 14.4639C11.6685 14.4639 11.3505 14.3322 11.1161 14.0978C10.8817 13.8633 10.75 13.5454 10.75 13.2139C10.75 12.8823 10.8817 12.5644 11.1161 12.33C11.3505 12.0956 11.6685 11.9639 12 11.9639C12.3315 11.9639 12.6495 12.0956 12.8839 12.33C13.1183 12.5644 13.25 12.8823 13.25 13.2139ZM12 17.9639C12.3315 17.9639 12.6495 17.8322 12.8839 17.5978C13.1183 17.3633 13.25 17.0454 13.25 16.7139C13.25 16.3823 13.1183 16.0644 12.8839 15.83C12.6495 15.5956 12.3315 15.4639 12 15.4639C11.6685 15.4639 11.3505 15.5956 11.1161 15.83C10.8817 16.0644 10.75 16.3823 10.75 16.7139C10.75 17.0454 10.8817 17.3633 11.1161 17.5978C11.3505 17.8322 11.6685 17.9639 12 17.9639ZM16.75 13.2139C16.75 13.5454 16.6183 13.8633 16.3839 14.0978C16.1495 14.3322 15.8315 14.4639 15.5 14.4639C15.1685 14.4639 14.8505 14.3322 14.6161 14.0978C14.3817 13.8633 14.25 13.5454 14.25 13.2139C14.25 12.8823 14.3817 12.5644 14.6161 12.33C14.8505 12.0956 15.1685 11.9639 15.5 11.9639C15.8315 11.9639 16.1495 12.0956 16.3839 12.33C16.6183 12.5644 16.75 12.8823 16.75 13.2139Z" fill="black"/>
<path fill-rule="evenodd" clip-rule="evenodd" d="M8 3.71387C8.19891 3.71387 8.38968 3.79288 8.53033 3.93354C8.67098 4.07419 8.75 4.26495 8.75 4.46387V5.21387H15.25V4.46387C15.25 4.26495 15.329 4.07419 15.4697 3.93354C15.6103 3.79288 15.8011 3.71387 16 3.71387C16.1989 3.71387 16.3897 3.79288 16.5303 3.93354C16.671 4.07419 16.75 4.26495 16.75 4.46387V5.22187C16.902 5.22587 17.0437 5.2332 17.175 5.24387C17.555 5.27387 17.911 5.34187 18.248 5.51387C18.7656 5.77754 19.1863 6.19831 19.45 6.71587C19.622 7.05287 19.69 7.40887 19.72 7.78887C19.75 8.15387 19.75 8.59887 19.75 9.13387V16.7939C19.75 17.3289 19.75 17.7739 19.72 18.1389C19.69 18.5189 19.622 18.8749 19.45 19.2119C19.1866 19.7293 18.7662 20.15 18.249 20.4139C17.911 20.5859 17.555 20.6539 17.175 20.6839C16.81 20.7139 16.365 20.7139 15.831 20.7139H8.17C7.635 20.7139 7.19 20.7139 6.825 20.6839C6.445 20.6539 6.089 20.5859 5.752 20.4139C5.23475 20.1507 4.81401 19.7307 4.55 19.2139C4.378 18.8759 4.31 18.5199 4.28 18.1399C4.25 17.7749 4.25 17.3299 4.25 16.7959V9.13387C4.25 8.59887 4.25 8.15387 4.28 7.78887C4.31 7.40887 4.378 7.05287 4.55 6.71587C4.81367 6.19831 5.23445 5.77754 5.752 5.51387C6.089 5.34187 6.445 5.27387 6.825 5.24387C6.95633 5.2332 7.098 5.22587 7.25 5.22187V4.46387C7.25 4.36538 7.2694 4.26785 7.30709 4.17685C7.34478 4.08586 7.40003 4.00318 7.46967 3.93354C7.53931 3.86389 7.62199 3.80865 7.71299 3.77096C7.80398 3.73327 7.90151 3.71387 8 3.71387ZM7.25 6.96387V6.72187C7.14887 6.72498 7.04784 6.73065 6.947 6.73887C6.66 6.76187 6.523 6.80387 6.433 6.84987C6.19741 6.96978 6.00591 7.16128 5.886 7.39687C5.84 7.48687 5.798 7.62387 5.775 7.91087C5.751 8.20687 5.75 8.59087 5.75 9.16387V9.71387H18.25V9.16387C18.25 8.59187 18.25 8.20687 18.225 7.91087C18.202 7.62387 18.16 7.48687 18.114 7.39687C17.9941 7.16128 17.8026 6.96978 17.567 6.84987C17.477 6.80387 17.34 6.76187 17.052 6.73887C16.9515 6.73066 16.8508 6.72499 16.75 6.72187V6.96387C16.75 7.16278 16.671 7.35355 16.5303 7.4942C16.3897 7.63485 16.1989 7.71387 16 7.71387C15.8011 7.71387 15.6103 7.63485 15.4697 7.4942C15.329 7.35355 15.25 7.16278 15.25 6.96387V6.71387H8.75V6.96387C8.75 7.16278 8.67098 7.35355 8.53033 7.4942C8.38968 7.63485 8.19891 7.71387 8 7.71387C7.80109 7.71387 7.61032 7.63485 7.46967 7.4942C7.32902 7.35355 7.25 7.16278 7.25 6.96387ZM18.25 10.7139H5.75V16.7639C5.75 17.3359 5.75 17.7209 5.775 18.0159C5.798 18.3039 5.84 18.4409 5.886 18.5309C6.006 18.7669 6.197 18.9579 6.433 19.0779C6.523 19.1239 6.66 19.1659 6.947 19.1889C7.243 19.2129 7.627 19.2139 8.2 19.2139H15.8C16.372 19.2139 16.757 19.2139 17.052 19.1889C17.34 19.1659 17.477 19.1239 17.567 19.0779C17.8026 18.958 17.9941 18.7665 18.114 18.5309C18.16 18.4409 18.202 18.3039 18.225 18.0159C18.249 17.7209 18.25 17.3359 18.25 16.7639V10.7139Z" fill="black"/>
<path fill-rule="evenodd" clip-rule="evenodd" d="M9.75 8.21387C9.75 8.01495 9.82902 7.82419 9.96967 7.68354C10.1103 7.54288 10.3011 7.46387 10.5 7.46387H13.5C13.6989 7.46387 13.8897 7.54288 14.0303 7.68354C14.171 7.82419 14.25 8.01495 14.25 8.21387C14.25 8.41278 14.171 8.60354 14.0303 8.7442C13.8897 8.88485 13.6989 8.96387 13.5 8.96387H10.5C10.3011 8.96387 10.1103 8.88485 9.96967 8.7442C9.82902 8.60354 9.75 8.41278 9.75 8.21387Z" fill="black"/>
<path d="M33.3118 17.9639H31.343L34.9276 7.78205H37.2045L40.794 17.9639H38.8253L36.1058 9.87012H36.0263L33.3118 17.9639ZM33.3764 13.9717H38.7457V15.4532H33.3764V13.9717ZM42.0556 20.8275V10.3275H43.8255V11.5903H43.9299C44.0227 11.4047 44.1536 11.2075 44.3226 10.9987C44.4917 10.7865 44.7203 10.6059 45.0087 10.4568C45.2971 10.3043 45.665 10.2281 46.1124 10.2281C46.7024 10.2281 47.2343 10.3789 47.7083 10.6805C48.1855 10.9788 48.5634 11.4213 48.8418 12.0079C49.1235 12.5912 49.2644 13.3071 49.2644 14.1556C49.2644 14.9942 49.1268 15.7068 48.8517 16.2934C48.5766 16.8801 48.2021 17.3275 47.7282 17.6357C47.2542 17.944 46.7173 18.0981 46.1174 18.0981C45.6799 18.0981 45.3169 18.0252 45.0286 17.8794C44.7402 17.7335 44.5082 17.5579 44.3326 17.3524C44.1602 17.1436 44.026 16.9463 43.9299 16.7607H43.8553V20.8275H42.0556ZM43.8205 14.1457C43.8205 14.6395 43.8901 15.0721 44.0293 15.4433C44.1718 15.8145 44.3757 16.1045 44.6408 16.3133C44.9093 16.5188 45.2341 16.6215 45.6152 16.6215C46.013 16.6215 46.3461 16.5155 46.6145 16.3034C46.883 16.0879 47.0852 15.7946 47.2211 15.4234C47.3603 15.0489 47.4299 14.623 47.4299 14.1457C47.4299 13.6717 47.3619 13.2508 47.226 12.8829C47.0901 12.515 46.888 12.2267 46.6195 12.0178C46.351 11.809 46.0163 11.7046 45.6152 11.7046C45.2308 11.7046 44.9043 11.8057 44.6358 12.0079C44.3674 12.2101 44.1635 12.4935 44.0243 12.858C43.8884 13.2226 43.8205 13.6518 43.8205 14.1457ZM50.8056 20.8275V10.3275H52.5755V11.5903H52.6799C52.7727 11.4047 52.9036 11.2075 53.0726 10.9987C53.2417 10.7865 53.4703 10.6059 53.7587 10.4568C54.0471 10.3043 54.415 10.2281 54.8624 10.2281C55.4524 10.2281 55.9843 10.3789 56.4583 10.6805C56.9355 10.9788 57.3134 11.4213 57.5918 12.0079C57.8735 12.5912 58.0144 13.3071 58.0144 14.1556C58.0144 14.9942 57.8768 15.7068 57.6017 16.2934C57.3266 16.8801 56.9521 17.3275 56.4782 17.6357C56.0042 17.944 55.4673 18.0981 54.8674 18.0981C54.4299 18.0981 54.0669 18.0252 53.7786 17.8794C53.4902 17.7335 53.2582 17.5579 53.0826 17.3524C52.9102 17.1436 52.776 16.9463 52.6799 16.7607H52.6053V20.8275H50.8056ZM52.5705 14.1457C52.5705 14.6395 52.6401 15.0721 52.7793 15.4433C52.9218 15.8145 53.1257 16.1045 53.3908 16.3133C53.6593 16.5188 53.9841 16.6215 54.3652 16.6215C54.763 16.6215 55.0961 16.5155 55.3645 16.3034C55.633 16.0879 55.8352 15.7946 55.9711 15.4234C56.1103 15.0489 56.1799 14.623 56.1799 14.1457C56.1799 13.6717 56.1119 13.2508 55.976 12.8829C55.8401 12.515 55.638 12.2267 55.3695 12.0178C55.101 11.809 54.7663 11.7046 54.3652 11.7046C53.9808 11.7046 53.6543 11.8057 53.3858 12.0079C53.1174 12.2101 52.9135 12.4935 52.7743 12.858C52.6384 13.2226 52.5705 13.6518 52.5705 14.1457ZM61.3553 7.78205V17.9639H59.5556V7.78205H61.3553ZM63.206 17.9639V10.3275H65.0057V17.9639H63.206ZM64.1108 9.2437C63.8258 9.2437 63.5805 9.14924 63.375 8.96032C63.1695 8.76808 63.0668 8.53773 63.0668 8.26926C63.0668 7.99748 63.1695 7.76713 63.375 7.57821C63.5805 7.38598 63.8258 7.28986 64.1108 7.28986C64.3991 7.28986 64.6444 7.38598 64.8466 7.57821C65.0521 7.76713 65.1548 7.99748 65.1548 8.26926C65.1548 8.53773 65.0521 8.76808 64.8466 8.96032C64.6444 9.14924 64.3991 9.2437 64.1108 9.2437ZM70.1873 18.113C69.425 18.113 68.7704 17.9456 68.2235 17.6109C67.68 17.2761 67.2607 16.8138 66.9657 16.2238C66.6741 15.6305 66.5282 14.9478 66.5282 14.1755C66.5282 13.3999 66.6774 12.7155 66.9757 12.1222C67.274 11.5257 67.6949 11.0616 68.2385 10.7302C68.7853 10.3954 69.4316 10.2281 70.1774 10.2281C70.7972 10.2281 71.3457 10.3424 71.823 10.5711C72.3036 10.7965 72.6864 11.1163 72.9714 11.5306C73.2565 11.9416 73.4189 12.4222 73.4586 12.9724H71.7385C71.6689 12.6045 71.5031 12.2979 71.2413 12.0526C70.9828 11.8041 70.6364 11.6798 70.2022 11.6798C69.8343 11.6798 69.5112 11.7792 69.2328 11.9781C68.9544 12.1736 68.7373 12.4553 68.5815 12.8232C68.429 13.1911 68.3528 13.632 68.3528 14.1457C68.3528 14.666 68.429 15.1135 68.5815 15.488C68.734 15.8592 68.9477 16.1459 69.2228 16.3481C69.5012 16.547 69.8277 16.6464 70.2022 16.6464C70.4674 16.6464 70.7044 16.5967 70.9132 16.4972C71.1253 16.3945 71.3026 16.247 71.4451 16.0548C71.5877 15.8625 71.6854 15.6289 71.7385 15.3538H73.4586C73.4155 15.894 73.2565 16.373 72.9814 16.7906C72.7063 17.2049 72.3317 17.5297 71.8578 17.765C71.3838 17.997 70.827 18.113 70.1873 18.113ZM77.1339 18.118C76.65 18.118 76.2141 18.0318 75.8263 17.8595C75.4419 17.6838 75.137 17.4253 74.9116 17.0839C74.6895 16.7425 74.5785 16.3216 74.5785 15.8211C74.5785 15.3902 74.658 15.0339 74.8171 14.7522C74.9762 14.4705 75.1933 14.2451 75.4684 14.0761C75.7435 13.907 76.0534 13.7794 76.3981 13.6933C76.7461 13.6038 77.1057 13.5392 77.4769 13.4994C77.9244 13.453 78.2873 13.4115 78.5657 13.3751C78.8441 13.3353 79.0463 13.2757 79.1722 13.1961C79.3015 13.1133 79.3661 12.9856 79.3661 12.8133V12.7835C79.3661 12.4089 79.2551 12.1189 79.033 11.9134C78.811 11.7079 78.4911 11.6052 78.0735 11.6052C77.6327 11.6052 77.283 11.7013 77.0245 11.8936C76.7693 12.0858 76.5969 12.3128 76.5075 12.5747L74.8271 12.336C74.9596 11.872 75.1784 11.4842 75.4833 11.1727C75.7882 10.8578 76.1611 10.6225 76.6019 10.4667C77.0427 10.3076 77.5299 10.2281 78.0636 10.2281C78.4315 10.2281 78.7977 10.2712 79.1623 10.3573C79.5269 10.4435 79.86 10.586 80.1616 10.7849C80.4632 10.9804 80.7051 11.2472 80.8874 11.5853C81.073 11.9234 81.1658 12.346 81.1658 12.8531V17.9639H79.4357V16.9149H79.3761C79.2667 17.127 79.1126 17.3258 78.9137 17.5115C78.7182 17.6937 78.4712 17.8412 78.1729 17.9539C77.878 18.0633 77.5316 18.118 77.1339 18.118ZM77.6012 16.7955C77.9625 16.7955 78.2757 16.7243 78.5408 16.5818C78.806 16.4359 79.0098 16.2437 79.1523 16.0051C79.2982 15.7664 79.3711 15.5062 79.3711 15.2245V14.3247C79.3147 14.3711 79.2186 14.4142 79.0827 14.4539C78.9502 14.4937 78.801 14.5285 78.6353 14.5583C78.4696 14.5882 78.3055 14.6147 78.1431 14.6379C77.9807 14.6611 77.8398 14.681 77.7205 14.6975C77.4521 14.734 77.2118 14.7936 76.9996 14.8765C76.7875 14.9594 76.6201 15.0754 76.4975 15.2245C76.3749 15.3704 76.3136 15.5593 76.3136 15.7913C76.3136 16.1227 76.4345 16.373 76.6765 16.542C76.9184 16.711 77.2267 16.7955 77.6012 16.7955ZM86.7887 10.3275V11.7195H82.3988V10.3275H86.7887ZM83.4826 8.49796H85.2823V15.667C85.2823 15.9089 85.3188 16.0945 85.3917 16.2238C85.4679 16.3498 85.5674 16.4359 85.69 16.4823C85.8126 16.5287 85.9485 16.5519 86.0977 16.5519C86.2103 16.5519 86.3131 16.5436 86.4059 16.5271C86.502 16.5105 86.5749 16.4956 86.6246 16.4823L86.9279 17.8893C86.8318 17.9224 86.6942 17.9589 86.5153 17.9987C86.3396 18.0384 86.1242 18.0616 85.869 18.0683C85.4182 18.0815 85.0122 18.0136 84.6509 17.8644C84.2897 17.712 84.003 17.4767 83.7908 17.1585C83.582 16.8403 83.4793 16.4426 83.4826 15.9653V8.49796ZM88.2939 17.9639V10.3275H90.0936V17.9639H88.2939ZM89.1987 9.2437C88.9136 9.2437 88.6684 9.14924 88.4629 8.96032C88.2574 8.76808 88.1547 8.53773 88.1547 8.26926C88.1547 7.99748 88.2574 7.76713 88.4629 7.57821C88.6684 7.38598 88.9136 7.28986 89.1987 7.28986C89.487 7.28986 89.7323 7.38598 89.9345 7.57821C90.14 7.76713 90.2427 7.99748 90.2427 8.26926C90.2427 8.53773 90.14 8.76808 89.9345 8.96032C89.7323 9.14924 89.487 9.2437 89.1987 9.2437ZM95.2752 18.113C94.5295 18.113 93.8832 17.949 93.3363 17.6208C92.7894 17.2927 92.3652 16.8337 92.0636 16.2437C91.7653 15.6537 91.6161 14.9643 91.6161 14.1755C91.6161 13.3867 91.7653 12.6956 92.0636 12.1024C92.3652 11.5091 92.7894 11.0484 93.3363 10.7203C93.8832 10.3921 94.5295 10.2281 95.2752 10.2281C96.021 10.2281 96.6673 10.3921 97.2141 10.7203C97.761 11.0484 98.1836 11.5091 98.4819 12.1024C98.7835 12.6956 98.9343 13.3867 98.9343 14.1755C98.9343 14.9643 98.7835 15.6537 98.4819 16.2437C98.1836 16.8337 97.761 17.2927 97.2141 17.6208C96.6673 17.949 96.021 18.113 95.2752 18.113ZM95.2852 16.6713C95.6895 16.6713 96.0276 16.5602 96.2994 16.3382C96.5711 16.1128 96.7733 15.8112 96.9059 15.4333C97.0418 15.0555 97.1097 14.6346 97.1097 14.1705C97.1097 13.7032 97.0418 13.2806 96.9059 12.9028C96.7733 12.5216 96.5711 12.2184 96.2994 11.993C96.0276 11.7676 95.6895 11.6549 95.2852 11.6549C94.8709 11.6549 94.5262 11.7676 94.2511 11.993C93.9793 12.2184 93.7754 12.5216 93.6396 12.9028C93.507 13.2806 93.4407 13.7032 93.4407 14.1705C93.4407 14.6346 93.507 15.0555 93.6396 15.4333C93.7754 15.8112 93.9793 16.1128 94.2511 16.3382C94.5262 16.5602 94.8709 16.6713 95.2852 16.6713ZM102.262 13.4894V17.9639H100.462V10.3275H102.182V11.6251H102.271C102.447 11.1975 102.727 10.8578 103.112 10.6059C103.499 10.354 103.978 10.2281 104.548 10.2281C105.075 10.2281 105.535 10.3408 105.926 10.5661C106.32 10.7915 106.625 11.118 106.84 11.5455C107.059 11.9731 107.167 12.4918 107.164 13.1017V17.9639H105.364V13.3801C105.364 12.8696 105.231 12.4703 104.966 12.1819C104.704 11.8936 104.341 11.7494 103.877 11.7494C103.562 11.7494 103.282 11.819 103.037 11.9582C102.795 12.0941 102.605 12.2913 102.465 12.5498C102.329 12.8083 102.262 13.1215 102.262 13.4894ZM115.996 17.9639H112.545V7.78205H116.065C117.076 7.78205 117.944 7.98588 118.67 8.39355C119.399 8.79791 119.96 9.37959 120.351 10.1386C120.742 10.8976 120.937 11.8057 120.937 12.863C120.937 13.9236 120.74 14.8351 120.346 15.5974C119.955 16.3597 119.39 16.9447 118.65 17.3524C117.915 17.76 117.03 17.9639 115.996 17.9639ZM114.39 16.368H115.906C116.615 16.368 117.207 16.2387 117.681 15.9802C118.155 15.7184 118.511 15.3289 118.75 14.8119C118.988 14.2915 119.108 13.6419 119.108 12.863C119.108 12.0841 118.988 11.4378 118.75 10.9241C118.511 10.407 118.158 10.0209 117.691 9.76571C117.227 9.50719 116.65 9.37793 115.961 9.37793H114.39V16.368ZM124.808 18.118C124.324 18.118 123.888 18.0318 123.5 17.8595C123.116 17.6838 122.811 17.4253 122.585 17.0839C122.363 16.7425 122.252 16.3216 122.252 15.8211C122.252 15.3902 122.332 15.0339 122.491 14.7522C122.65 14.4705 122.867 14.2451 123.142 14.0761C123.417 13.907 123.727 13.7794 124.072 13.6933C124.42 13.6038 124.78 13.5392 125.151 13.4994C125.598 13.453 125.961 13.4115 126.24 13.3751C126.518 13.3353 126.72 13.2757 126.846 13.1961C126.975 13.1133 127.04 12.9856 127.04 12.8133V12.7835C127.04 12.4089 126.929 12.1189 126.707 11.9134C126.485 11.7079 126.165 11.6052 125.747 11.6052C125.307 11.6052 124.957 11.7013 124.698 11.8936C124.443 12.0858 124.271 12.3128 124.181 12.5747L122.501 12.336C122.633 11.872 122.852 11.4842 123.157 11.1727C123.462 10.8578 123.835 10.6225 124.276 10.4667C124.717 10.3076 125.204 10.2281 125.737 10.2281C126.105 10.2281 126.472 10.2712 126.836 10.3573C127.201 10.4435 127.534 10.586 127.835 10.7849C128.137 10.9804 128.379 11.2472 128.561 11.5853C128.747 11.9234 128.84 12.346 128.84 12.8531V17.9639H127.11V16.9149H127.05C126.941 17.127 126.786 17.3258 126.588 17.5115C126.392 17.6937 126.145 17.8412 125.847 17.9539C125.552 18.0633 125.205 18.118 124.808 18.118ZM125.275 16.7955C125.636 16.7955 125.95 16.7243 126.215 16.5818C126.48 16.4359 126.684 16.2437 126.826 16.0051C126.972 15.7664 127.045 15.5062 127.045 15.2245V14.3247C126.989 14.3711 126.892 14.4142 126.757 14.4539C126.624 14.4937 126.475 14.5285 126.309 14.5583C126.143 14.5882 125.979 14.6147 125.817 14.6379C125.655 14.6611 125.514 14.681 125.394 14.6975C125.126 14.734 124.886 14.7936 124.673 14.8765C124.461 14.9594 124.294 15.0754 124.171 15.2245C124.049 15.3704 123.987 15.5593 123.987 15.7913C123.987 16.1227 124.108 16.373 124.35 16.542C124.592 16.711 124.901 16.7955 125.275 16.7955ZM134.463 10.3275V11.7195H130.073V10.3275H134.463ZM131.156 8.49796H132.956V15.667C132.956 15.9089 132.993 16.0945 133.066 16.2238C133.142 16.3498 133.241 16.4359 133.364 16.4823C133.486 16.5287 133.622 16.5519 133.771 16.5519C133.884 16.5519 133.987 16.5436 134.08 16.5271C134.176 16.5105 134.249 16.4956 134.298 16.4823L134.602 17.8893C134.506 17.9224 134.368 17.9589 134.189 17.9987C134.013 18.0384 133.798 18.0616 133.543 18.0683C133.092 18.0815 132.686 18.0136 132.325 17.8644C131.963 17.712 131.677 17.4767 131.465 17.1585C131.256 16.8403 131.153 16.4426 131.156 15.9653V8.49796ZM139.266 18.113C138.501 18.113 137.839 17.9539 137.283 17.6357C136.729 17.3142 136.303 16.8602 136.005 16.2735C135.707 15.6836 135.558 14.9892 135.558 14.1904C135.558 13.4049 135.707 12.7155 136.005 12.1222C136.307 11.5257 136.728 11.0616 137.268 10.7302C137.808 10.3954 138.443 10.2281 139.172 10.2281C139.643 10.2281 140.087 10.3043 140.504 10.4568C140.925 10.6059 141.296 10.8379 141.618 11.1528C141.943 11.4677 142.198 11.8687 142.384 12.3559C142.569 12.8398 142.662 13.4165 142.662 14.086V14.6379H136.403V13.4248H140.937C140.933 13.0801 140.859 12.7735 140.713 12.5051C140.567 12.2333 140.363 12.0195 140.102 11.8637C139.843 11.7079 139.541 11.6301 139.197 11.6301C138.829 11.6301 138.506 11.7195 138.227 11.8985C137.949 12.0742 137.732 12.3062 137.576 12.5945C137.424 12.8796 137.346 13.1928 137.342 13.5342V14.5931C137.342 15.0373 137.424 15.4184 137.586 15.7366C137.748 16.0515 137.975 16.2934 138.267 16.4624C138.559 16.6282 138.9 16.711 139.291 16.711C139.553 16.711 139.79 16.6746 140.002 16.6017C140.214 16.5254 140.398 16.4144 140.554 16.2686C140.71 16.1227 140.827 15.9421 140.907 15.7267L142.587 15.9156C142.481 16.3597 142.279 16.7475 141.981 17.0789C141.686 17.407 141.308 17.6623 140.847 17.8445C140.387 18.0235 139.86 18.113 139.266 18.113Z" fill="black"/>
</svg>
