<svg width="56" height="56" viewBox="0 0 56 56" fill="none" xmlns="http://www.w3.org/2000/svg">
<rect width="56" height="56" rx="4" fill="#F5F5F5"/>
<g clip-path="url(#clip0_1_462)">
<path d="M21.256 16H34.744C37.6469 16 40 18.3531 40 21.256V34.744C40 37.6469 37.6469 40 34.744 40H21.256C18.3531 40 16 37.6469 16 34.744V21.256C16 18.3531 18.3531 16 21.256 16Z" fill="url(#paint0_linear_1_462)"/>
<path d="M23.6915 33.4197L23.6937 33.4204L22.8731 34.8417C22.5736 35.3605 21.9102 35.5382 21.3914 35.2387C20.8726 34.9392 20.6948 34.2758 20.9944 33.757L21.5989 32.71L21.6569 32.6095C21.7605 32.4606 22.0161 32.2036 22.5275 32.2519C22.5275 32.2519 23.731 32.3825 23.8181 33.008C23.8181 33.008 23.8299 33.2138 23.6915 33.4197ZM35.3299 29.7897H32.771C32.5968 29.778 32.5207 29.7157 32.4907 29.6795L32.4889 29.6762L29.7498 24.9319L29.7462 24.9343L29.5819 24.6988C29.3127 24.287 28.8852 25.34 28.8852 25.34C28.3747 26.5134 28.9577 27.8474 29.1608 28.2506L32.9654 34.8403C33.2648 35.359 33.9282 35.5368 34.4471 35.2372C34.9658 34.9377 35.1437 34.2743 34.844 33.7555L33.8928 32.1077C33.8743 32.0678 33.8422 31.9594 34.0373 31.959H35.3299C35.9289 31.959 36.4145 31.4733 36.4145 30.8743C36.4145 30.2752 35.9289 29.7897 35.3299 29.7897ZM30.3598 31.2641C30.3598 31.2641 30.4964 31.9589 29.9679 31.9589H20.5086C19.9096 31.9589 19.424 31.4732 19.424 30.8742C19.424 30.2751 19.9096 29.7895 20.5086 29.7895H22.9405C23.3331 29.7668 23.4261 29.5401 23.4261 29.5401L23.4284 29.5412L26.6028 24.043L26.6018 24.0428C26.6597 23.9366 26.6115 23.8362 26.6031 23.8203L25.5547 22.0045C25.2552 21.4858 25.433 20.8223 25.9518 20.5229C26.4706 20.2234 27.1339 20.401 27.4335 20.9198L27.9197 21.762L28.405 20.9213C28.7045 20.4026 29.3679 20.2247 29.8867 20.5244C30.4055 20.824 30.5833 21.4872 30.2838 22.006L25.8664 29.6569C25.8471 29.7035 25.8412 29.7766 25.9849 29.7895H28.6253L28.6259 29.8153C28.6259 29.8153 30.1519 29.839 30.3598 31.2641Z" fill="white"/>
</g>
<defs>
<linearGradient id="paint0_linear_1_462" x1="1216" y1="16" x2="1216" y2="2416" gradientUnits="userSpaceOnUse">
<stop stop-color="#17C9FB"/>
<stop offset="1" stop-color="#1A74E8"/>
</linearGradient>
<clipPath id="clip0_1_462">
<rect width="24" height="24" fill="white" transform="translate(16 16)"/>
</clipPath>
</defs>
</svg>
