<svg width="29" height="27" viewBox="0 0 29 27" fill="none" xmlns="http://www.w3.org/2000/svg">
<rect width="29" height="27" rx="13.5" fill="#F7F7F7"/>
<path d="M19.75 20.0625C19.9489 20.0625 20.1397 19.9835 20.2803 19.8428C20.421 19.7022 20.5 19.5114 20.5 19.3125V18.378C20.503 16.2735 17.5195 14.625 14.5 14.625C11.4805 14.625 8.5 16.2735 8.5 18.378V19.3125C8.5 19.5114 8.57902 19.7022 8.71967 19.8428C8.86032 19.9835 9.05109 20.0625 9.25 20.0625H19.75ZM17.203 9.6405C17.203 9.99546 17.1331 10.347 16.9972 10.6749C16.8614 11.0028 16.6623 11.3008 16.4113 11.5518C16.1603 11.8028 15.8623 12.0019 15.5344 12.1377C15.2065 12.2736 14.855 12.3435 14.5 12.3435C14.145 12.3435 13.7935 12.2736 13.4656 12.1377C13.1377 12.0019 12.8397 11.8028 12.5887 11.5518C12.3377 11.3008 12.1386 11.0028 12.0028 10.6749C11.8669 10.347 11.797 9.99546 11.797 9.6405C11.797 8.92362 12.0818 8.2361 12.5887 7.72919C13.0956 7.22228 13.7831 6.9375 14.5 6.9375C15.2169 6.9375 15.9044 7.22228 16.4113 7.72919C16.9182 8.2361 17.203 8.92362 17.203 9.6405Z" stroke="#143567" stroke-width="1.5" stroke-linecap="round" stroke-linejoin="round"/>
</svg>
