<svg width="72" height="73" viewBox="0 0 72 73" fill="none" xmlns="http://www.w3.org/2000/svg">
<rect y="0.419434" width="72" height="72" rx="36" fill="white"/>
<g clip-path="url(#clip0_1_561)">
<path opacity="0.2" d="M26.8076 45.6118C25.6571 44.4613 26.4202 42.0459 25.8346 40.6306C25.2275 39.1634 23 37.9825 23 36.4194C23 34.8562 25.2276 33.6754 25.8346 32.2083C26.4202 30.793 25.6571 28.3775 26.8076 27.227C27.9581 26.0765 30.3735 26.8396 31.7889 26.254C33.256 25.647 34.4369 23.4194 36 23.4194C37.5632 23.4194 38.744 25.647 40.2112 26.254C41.6265 26.8396 44.0419 26.0765 45.1924 27.227C46.3429 28.3775 45.5798 30.793 46.1654 32.2083C46.7725 33.6755 49 34.8563 49 36.4195C49 37.9826 46.7724 39.1634 46.1654 40.6306C45.5798 42.0459 46.3429 44.4613 45.1924 45.6118C44.0419 46.7623 41.6265 45.9992 40.2111 46.5848C38.744 47.1919 37.5631 49.4194 36 49.4194C34.4368 49.4194 33.256 47.1919 31.7888 46.5848C30.3735 45.9992 27.9581 46.7623 26.8076 45.6118Z" fill="#143567"/>
<path d="M26.8076 45.6118C25.6571 44.4613 26.4202 42.0459 25.8346 40.6306C25.2275 39.1634 23 37.9825 23 36.4194C23 34.8562 25.2276 33.6754 25.8346 32.2083C26.4202 30.793 25.6571 28.3775 26.8076 27.227C27.9581 26.0765 30.3735 26.8396 31.7889 26.254C33.256 25.647 34.4369 23.4194 36 23.4194C37.5632 23.4194 38.744 25.647 40.2112 26.254C41.6265 26.8396 44.0419 26.0765 45.1924 27.227C46.3429 28.3775 45.5798 30.793 46.1654 32.2083C46.7725 33.6755 49 34.8563 49 36.4195C49 37.9826 46.7724 39.1634 46.1654 40.6306C45.5798 42.0459 46.3429 44.4613 45.1924 45.6118C44.0419 46.7623 41.6265 45.9992 40.2111 46.5848C38.744 47.1919 37.5631 49.4194 36 49.4194C34.4368 49.4194 33.256 47.1919 31.7888 46.5848C30.3735 45.9992 27.9581 46.7623 26.8076 45.6118Z" stroke="#143567" stroke-width="2" stroke-linecap="round" stroke-linejoin="round"/>
<path d="M41.5 33.4194L34.1666 40.4194L30.5 36.9194" stroke="#143567" stroke-width="2" stroke-linecap="round" stroke-linejoin="round"/>
</g>
<defs>
<clipPath id="clip0_1_561">
<rect width="32" height="32" fill="white" transform="translate(20 20.4194)"/>
</clipPath>
</defs>
</svg>
