<svg width="862" height="105" viewBox="0 0 862 105" fill="none" xmlns="http://www.w3.org/2000/svg">
<path d="M0 52.5H247" stroke="#0A65CC"/>
<circle cx="299" cy="52.5" r="51.5" stroke="#0A65CC"/>
<circle cx="259" cy="12.5" r="11.5" stroke="#0A65CC"/>
<circle cx="267" cy="20.5" r="19.5" stroke="#0A65CC"/>
<circle cx="275" cy="28.5" r="27.5" stroke="#0A65CC"/>
<circle cx="283" cy="36.5" r="35.5" stroke="#0A65CC"/>
<circle cx="291" cy="44.5" r="43.5" stroke="#0A65CC"/>
<path d="M861.627 52.8536C861.823 52.6583 861.823 52.3417 861.627 52.1464L858.445 48.9645C858.25 48.7692 857.933 48.7692 857.738 48.9645C857.543 49.1597 857.543 49.4763 857.738 49.6716L860.567 52.5L857.738 55.3284C857.543 55.5237 857.543 55.8403 857.738 56.0355C857.933 56.2308 858.25 56.2308 858.445 56.0355L861.627 52.8536ZM351 53H861.274V52H351V53Z" fill="#0A65CC"/>
</svg>
