<svg width="39" height="39" viewBox="0 0 39 39" fill="none" xmlns="http://www.w3.org/2000/svg">
<circle cx="19.5703" cy="19.457" r="18.6" stroke="#DDDDDD" stroke-width="0.8"/>
<path fill-rule="evenodd" clip-rule="evenodd" d="M11.7185 19.9468C11.5892 19.8168 11.5166 19.6407 11.5166 19.457C11.5166 19.2733 11.5892 19.0972 11.7185 18.9672L17.2413 13.4225C17.3045 13.3544 17.3807 13.2998 17.4654 13.2619C17.5501 13.224 17.6415 13.2037 17.7342 13.202C17.8269 13.2004 17.9189 13.2175 18.0049 13.2524C18.0909 13.2872 18.1689 13.3391 18.2345 13.4049C18.3 13.4707 18.3517 13.5491 18.3864 13.6354C18.4212 13.7217 18.4382 13.8142 18.4366 13.9072C18.435 14.0003 18.4147 14.0921 18.3769 14.1771C18.3392 14.2621 18.2848 14.3386 18.217 14.4021L13.8724 18.7639H26.9338C27.1169 18.7639 27.2924 18.8369 27.4219 18.9669C27.5514 19.0969 27.6241 19.2732 27.6241 19.457C27.6241 19.6408 27.5514 19.8171 27.4219 19.9471C27.2924 20.0771 27.1169 20.1501 26.9338 20.1501H13.8724L18.217 24.5119C18.2848 24.5754 18.3392 24.6519 18.3769 24.7369C18.4147 24.8219 18.435 24.9137 18.4366 25.0068C18.4382 25.0998 18.4212 25.1923 18.3864 25.2786C18.3517 25.3649 18.3 25.4433 18.2345 25.5091C18.1689 25.5749 18.0909 25.6268 18.0049 25.6617C17.9189 25.6965 17.8269 25.7136 17.7342 25.712C17.6415 25.7103 17.5501 25.69 17.4654 25.6521C17.3807 25.6142 17.3045 25.5596 17.2413 25.4915L11.7185 19.9468Z" fill="#B1B1B1"/>
</svg>
