<svg width="72" height="73" viewBox="0 0 72 73" fill="none" xmlns="http://www.w3.org/2000/svg">
<rect y="0.5" width="72" height="72" rx="4" fill="#E7F0FA"/>
<g clip-path="url(#clip0_1_285)">
<path opacity="0.2" d="M36.0001 40.25C30.7341 40.2583 25.5596 38.8739 21.0013 36.2373V49C21.0013 49.1642 21.0336 49.3267 21.0964 49.4784C21.1592 49.6301 21.2513 49.7679 21.3674 49.8839C21.4835 50 21.6213 50.0921 21.7729 50.1549C21.9246 50.2177 22.0871 50.25 22.2513 50.25H49.7513C49.9154 50.25 50.078 50.2177 50.2296 50.1549C50.3813 50.0921 50.5191 50 50.6352 49.8839C50.7512 49.7679 50.8433 49.6301 50.9061 49.4784C50.9689 49.3267 51.0013 49.1642 51.0013 49V36.2358C46.4424 38.8734 41.267 40.2583 36.0001 40.25Z" fill="#143567"/>
<path d="M49.7513 27.75H22.2513C21.5609 27.75 21.0013 28.3096 21.0013 29V49C21.0013 49.6904 21.5609 50.25 22.2513 50.25H49.7513C50.4416 50.25 51.0013 49.6904 51.0013 49V29C51.0013 28.3096 50.4416 27.75 49.7513 27.75Z" stroke="#143567" stroke-width="2" stroke-linecap="round" stroke-linejoin="round"/>
<path d="M42.25 27.75V25.25C42.25 24.587 41.9866 23.9511 41.5178 23.4822C41.0489 23.0134 40.413 22.75 39.75 22.75H32.25C31.587 22.75 30.9511 23.0134 30.4822 23.4822C30.0134 23.9511 29.75 24.587 29.75 25.25V27.75" stroke="#143567" stroke-width="2" stroke-linecap="round" stroke-linejoin="round"/>
<path d="M51.0013 36.2358C46.4423 38.8734 41.2669 40.2583 36 40.25C30.734 40.2583 25.5594 38.8739 21.001 36.2372" stroke="#143567" stroke-width="2" stroke-linecap="round" stroke-linejoin="round"/>
<path d="M34.125 35.25H37.875" stroke="#143567" stroke-width="2" stroke-linecap="round" stroke-linejoin="round"/>
</g>
<defs>
<clipPath id="clip0_1_285">
<rect width="40" height="40" fill="white" transform="translate(16 16.5)"/>
</clipPath>
</defs>
</svg>
