<svg width="17" height="17" viewBox="0 0 17 17" fill="none" xmlns="http://www.w3.org/2000/svg">
<path fill-rule="evenodd" clip-rule="evenodd" d="M14.505 6.01317C15.2963 6.58317 15.8337 7.4665 15.8337 8.49984C15.8337 9.53317 15.2963 10.4172 14.505 10.9865C14.665 11.9478 14.4157 12.9585 13.687 13.6865C12.957 14.4165 11.947 14.6592 10.9897 14.5032C10.4223 15.2972 9.53099 15.8332 8.50033 15.8332C7.46699 15.8332 6.58166 15.2952 6.01299 14.5025C5.05433 14.6592 4.04366 14.4172 3.31299 13.6865C2.58299 12.9565 2.34033 11.9458 2.50166 10.9865C1.71099 10.4178 1.16699 9.53384 1.16699 8.49984C1.16699 7.46584 1.71099 6.58117 2.50166 6.01317C2.34033 5.05384 2.58299 4.04317 3.31366 3.31317C4.04233 2.58384 5.05366 2.33517 6.01833 2.49517C6.58366 1.7025 7.46899 1.1665 8.50033 1.1665C9.53033 1.1665 10.4203 1.70184 10.9883 2.49517C11.9497 2.33517 12.959 2.58517 13.687 3.31317C14.415 4.04117 14.6657 5.05184 14.505 6.01317ZM11.5543 5.95717C11.6256 6.00803 11.6861 6.07243 11.7325 6.1467C11.7789 6.22096 11.8102 6.30364 11.8246 6.39C11.839 6.47636 11.8363 6.56471 11.8166 6.65002C11.7969 6.73532 11.7605 6.81591 11.7097 6.88717L8.37633 11.5538C8.32006 11.6326 8.24729 11.6983 8.1631 11.7461C8.07891 11.7939 7.9853 11.8229 7.88879 11.8308C7.79229 11.8388 7.6952 11.8257 7.60428 11.7924C7.51336 11.7591 7.4308 11.7063 7.36233 11.6378L5.36233 9.63784C5.24089 9.5121 5.17369 9.3437 5.17521 9.1689C5.17673 8.9941 5.24684 8.8269 5.37045 8.70329C5.49405 8.57969 5.66126 8.50957 5.83606 8.50805C6.01086 8.50654 6.17926 8.57373 6.30499 8.69517L7.74833 10.1385L10.6243 6.11184C10.7271 5.96801 10.8829 5.87091 11.0573 5.8419C11.2317 5.8129 11.4105 5.85436 11.5543 5.95717Z" fill="#007BFF"/>
</svg>
