<svg width="137" height="20" viewBox="0 0 137 20" fill="none" xmlns="http://www.w3.org/2000/svg">
<path d="M15.0003 12.5H13.3337V14.1667H15.0003M15.0003 9.16667H13.3337V10.8333H15.0003M16.667 15.8333H10.0003V14.1667H11.667V12.5H10.0003V10.8333H11.667V9.16667H10.0003V7.5H16.667M8.33366 5.83333H6.66699V4.16667H8.33366M8.33366 9.16667H6.66699V7.5H8.33366M8.33366 12.5H6.66699V10.8333H8.33366M8.33366 15.8333H6.66699V14.1667H8.33366M5.00033 5.83333H3.33366V4.16667H5.00033M5.00033 9.16667H3.33366V7.5H5.00033M5.00033 12.5H3.33366V10.8333H5.00033M5.00033 15.8333H3.33366V14.1667H5.00033M10.0003 5.83333V2.5H1.66699V17.5H18.3337V5.83333H10.0003Z" fill="black"/>
<path d="M38.7195 8.75355H36.8601C36.8071 8.44863 36.7093 8.1785 36.5668 7.94318C36.4242 7.70455 36.2469 7.50237 36.0348 7.33665C35.8227 7.17093 35.5807 7.04664 35.3089 6.96378C35.0405 6.8776 34.7505 6.83452 34.4389 6.83452C33.8854 6.83452 33.3949 6.97372 32.9673 7.25213C32.5398 7.52722 32.205 7.93158 31.9631 8.4652C31.7211 8.9955 31.6001 9.64347 31.6001 10.4091C31.6001 11.188 31.7211 11.8442 31.9631 12.3778C32.2083 12.9081 32.5431 13.3092 32.9673 13.581C33.3949 13.8494 33.8838 13.9837 34.4339 13.9837C34.7389 13.9837 35.0239 13.9439 35.2891 13.8643C35.5575 13.7815 35.7978 13.6605 36.0099 13.5014C36.2254 13.3423 36.406 13.1468 36.5518 12.9148C36.701 12.6828 36.8037 12.4176 36.8601 12.1193L38.7195 12.1293C38.6499 12.6132 38.4991 13.0672 38.267 13.4915C38.0384 13.9157 37.7384 14.2902 37.3672 14.6151C36.996 14.9366 36.5618 15.1884 36.0646 15.3707C35.5675 15.5497 35.0156 15.6392 34.4091 15.6392C33.5142 15.6392 32.7154 15.4321 32.0128 15.0178C31.3101 14.6035 30.7566 14.0052 30.3523 13.223C29.9479 12.4408 29.7457 11.5028 29.7457 10.4091C29.7457 9.31203 29.9496 8.37405 30.3572 7.59517C30.7649 6.81297 31.3201 6.21473 32.0227 5.80043C32.7254 5.38613 33.5208 5.17898 34.4091 5.17898C34.9759 5.17898 35.5028 5.25852 35.9901 5.41761C36.4773 5.5767 36.9115 5.81037 37.2926 6.11861C37.6738 6.42353 37.987 6.79806 38.2322 7.24219C38.4808 7.683 38.6432 8.18679 38.7195 8.75355ZM43.66 15.6491C42.9142 15.6491 42.2679 15.4851 41.7211 15.157C41.1742 14.8288 40.7499 14.3698 40.4483 13.7798C40.15 13.1899 40.0009 12.5005 40.0009 11.7116C40.0009 10.9228 40.15 10.2318 40.4483 9.63849C40.7499 9.04522 41.1742 8.58452 41.7211 8.25639C42.2679 7.92827 42.9142 7.7642 43.66 7.7642C44.4057 7.7642 45.052 7.92827 45.5989 8.25639C46.1458 8.58452 46.5684 9.04522 46.8667 9.63849C47.1683 10.2318 47.3191 10.9228 47.3191 11.7116C47.3191 12.5005 47.1683 13.1899 46.8667 13.7798C46.5684 14.3698 46.1458 14.8288 45.5989 15.157C45.052 15.4851 44.4057 15.6491 43.66 15.6491ZM43.6699 14.2074C44.0743 14.2074 44.4123 14.0964 44.6841 13.8743C44.9559 13.6489 45.1581 13.3473 45.2907 12.9695C45.4266 12.5916 45.4945 12.1707 45.4945 11.7067C45.4945 11.2393 45.4266 10.8168 45.2907 10.4389C45.1581 10.0578 44.9559 9.7545 44.6841 9.52912C44.4123 9.30374 44.0743 9.19105 43.6699 9.19105C43.2556 9.19105 42.9109 9.30374 42.6358 9.52912C42.3641 9.7545 42.1602 10.0578 42.0243 10.4389C41.8917 10.8168 41.8255 11.2393 41.8255 11.7067C41.8255 12.1707 41.8917 12.5916 42.0243 12.9695C42.1602 13.3473 42.3641 13.6489 42.6358 13.8743C42.9109 14.0964 43.2556 14.2074 43.6699 14.2074ZM48.8466 15.5V7.86364H50.5668V9.16122H50.6562C50.8153 8.72372 51.0788 8.38234 51.4467 8.13707C51.8146 7.88849 52.2538 7.7642 52.7642 7.7642C53.2812 7.7642 53.7171 7.89015 54.0717 8.14205C54.4297 8.39062 54.6816 8.73035 54.8274 9.16122H54.907C55.076 8.73698 55.361 8.39891 55.7621 8.14702C56.1664 7.89181 56.6454 7.7642 57.1989 7.7642C57.9015 7.7642 58.4749 7.98627 58.919 8.4304C59.3632 8.87453 59.5852 9.52249 59.5852 10.3743V15.5H57.7805V10.6527C57.7805 10.1787 57.6546 9.83239 57.4027 9.61364C57.1508 9.39157 56.8426 9.28054 56.478 9.28054C56.0438 9.28054 55.7041 9.41643 55.4588 9.68821C55.2169 9.95668 55.0959 10.3063 55.0959 10.7372V15.5H53.331V10.5781C53.331 10.1837 53.2116 9.86884 52.973 9.63352C52.7377 9.3982 52.4295 9.28054 52.0483 9.28054C51.7898 9.28054 51.5545 9.34683 51.3423 9.4794C51.1302 9.60866 50.9612 9.79261 50.8352 10.0312C50.7093 10.2666 50.6463 10.5417 50.6463 10.8565V15.5H48.8466ZM61.411 18.3636V7.86364H63.1809V9.12642H63.2853C63.3781 8.94081 63.5091 8.74361 63.6781 8.5348C63.8471 8.32268 64.0758 8.14205 64.3642 7.9929C64.6525 7.84044 65.0204 7.7642 65.4679 7.7642C66.0578 7.7642 66.5898 7.91501 67.0637 8.21662C67.541 8.51491 67.9189 8.95739 68.1973 9.54403C68.479 10.1274 68.6199 10.8433 68.6199 11.6918C68.6199 12.5303 68.4823 13.2429 68.2072 13.8295C67.9321 14.4162 67.5576 14.8636 67.0836 15.1719C66.6097 15.4801 66.0727 15.6342 65.4728 15.6342C65.0353 15.6342 64.6724 15.5613 64.3841 15.4155C64.0957 15.2696 63.8637 15.094 63.688 14.8885C63.5157 14.6797 63.3815 14.4825 63.2853 14.2969H63.2108V18.3636H61.411ZM63.176 11.6818C63.176 12.1757 63.2456 12.6082 63.3848 12.9794C63.5273 13.3506 63.7311 13.6406 63.9963 13.8494C64.2647 14.0549 64.5895 14.1577 64.9707 14.1577C65.3684 14.1577 65.7015 14.0516 65.97 13.8395C66.2385 13.6241 66.4406 13.3307 66.5765 12.9595C66.7157 12.585 66.7853 12.1591 66.7853 11.6818C66.7853 11.2079 66.7174 10.7869 66.5815 10.419C66.4456 10.0511 66.2434 9.76278 65.975 9.55398C65.7065 9.34517 65.3717 9.24077 64.9707 9.24077C64.5862 9.24077 64.2598 9.34186 63.9913 9.54403C63.7228 9.74621 63.519 10.0296 63.3798 10.3942C63.2439 10.7588 63.176 11.188 63.176 11.6818ZM72.3585 15.6541C71.8746 15.6541 71.4387 15.5679 71.051 15.3956C70.6665 15.2199 70.3616 14.9614 70.1362 14.62C69.9141 14.2786 69.8031 13.8577 69.8031 13.3572C69.8031 12.9264 69.8826 12.5701 70.0417 12.2884C70.2008 12.0066 70.4179 11.7812 70.693 11.6122C70.9681 11.4432 71.278 11.3156 71.6227 11.2294C71.9707 11.1399 72.3303 11.0753 72.7015 11.0355C73.149 10.9891 73.5119 10.9477 73.7903 10.9112C74.0687 10.8714 74.2709 10.8118 74.3968 10.7322C74.5261 10.6494 74.5907 10.5218 74.5907 10.3494V10.3196C74.5907 9.94508 74.4797 9.65507 74.2576 9.44957C74.0356 9.24408 73.7157 9.14134 73.2981 9.14134C72.8573 9.14134 72.5076 9.23745 72.2491 9.42969C71.9939 9.62192 71.8216 9.84896 71.7321 10.1108L70.0517 9.87216C70.1842 9.40814 70.403 9.02036 70.7079 8.70881C71.0128 8.39394 71.3857 8.15862 71.8265 8.00284C72.2673 7.84375 72.7546 7.7642 73.2882 7.7642C73.6561 7.7642 74.0223 7.80729 74.3869 7.89347C74.7515 7.97964 75.0846 8.12216 75.3862 8.32102C75.6878 8.51657 75.9297 8.78338 76.112 9.12145C76.2976 9.45952 76.3904 9.8821 76.3904 10.3892V15.5H74.6603V14.451H74.6007C74.4913 14.6631 74.3372 14.862 74.1383 15.0476C73.9428 15.2299 73.6958 15.3774 73.3975 15.4901C73.1026 15.5994 72.7562 15.6541 72.3585 15.6541ZM72.8258 14.3317C73.1871 14.3317 73.5003 14.2604 73.7654 14.1179C74.0306 13.9721 74.2344 13.7798 74.377 13.5412C74.5228 13.3026 74.5957 13.0424 74.5957 12.7607V11.8608C74.5394 11.9072 74.4432 11.9503 74.3074 11.9901C74.1748 12.0298 74.0256 12.0646 73.8599 12.0945C73.6942 12.1243 73.5301 12.1508 73.3677 12.174C73.2053 12.1972 73.0645 12.2171 72.9451 12.2337C72.6767 12.2701 72.4364 12.3298 72.2243 12.4126C72.0121 12.4955 71.8448 12.6115 71.7221 12.7607C71.5995 12.9065 71.5382 13.0954 71.5382 13.3274C71.5382 13.6589 71.6592 13.9091 71.9011 14.0781C72.1431 14.2472 72.4513 14.3317 72.8258 14.3317ZM79.9998 11.0256V15.5H78.2001V7.86364H79.9203V9.16122H80.0098C80.1854 8.73366 80.4655 8.39394 80.85 8.14205C81.2377 7.89015 81.7167 7.7642 82.2868 7.7642C82.8137 7.7642 83.2728 7.87689 83.6639 8.10227C84.0583 8.32765 84.3632 8.65412 84.5787 9.08168C84.7974 9.50923 84.9051 10.0279 84.9018 10.6378V15.5H83.1021V10.9162C83.1021 10.4058 82.9695 10.0064 82.7044 9.71804C82.4425 9.42969 82.0796 9.28551 81.6156 9.28551C81.3007 9.28551 81.0207 9.35511 80.7754 9.49432C80.5334 9.63021 80.3429 9.82741 80.2037 10.0859C80.0678 10.3445 79.9998 10.6577 79.9998 11.0256ZM87.5765 18.3636C87.3313 18.3636 87.1042 18.3438 86.8954 18.304C86.6899 18.2675 86.5259 18.2244 86.4032 18.1747L86.8208 16.7727C87.0827 16.849 87.3163 16.8854 87.5218 16.8821C87.7273 16.8788 87.908 16.8142 88.0637 16.6882C88.2228 16.5656 88.3571 16.3601 88.4664 16.0717L88.6206 15.6591L85.8514 7.86364H87.7605L89.5204 13.6307H89.6L91.3649 7.86364H93.2789L90.2214 16.4247C90.0789 16.8291 89.89 17.1754 89.6547 17.4638C89.4193 17.7554 89.131 17.9775 88.7896 18.13C88.4515 18.2857 88.0472 18.3636 87.5765 18.3636ZM106.444 5.31818V15.5H104.803L100.006 8.56463H99.921V15.5H98.0765V5.31818H99.7271L104.52 12.2585H104.609V5.31818H106.444ZM110.571 15.6541C110.087 15.6541 109.652 15.5679 109.264 15.3956C108.879 15.2199 108.574 14.9614 108.349 14.62C108.127 14.2786 108.016 13.8577 108.016 13.3572C108.016 12.9264 108.096 12.5701 108.255 12.2884C108.414 12.0066 108.631 11.7812 108.906 11.6122C109.181 11.4432 109.491 11.3156 109.836 11.2294C110.184 11.1399 110.543 11.0753 110.914 11.0355C111.362 10.9891 111.725 10.9477 112.003 10.9112C112.282 10.8714 112.484 10.8118 112.61 10.7322C112.739 10.6494 112.804 10.5218 112.804 10.3494V10.3196C112.804 9.94508 112.693 9.65507 112.471 9.44957C112.248 9.24408 111.929 9.14134 111.511 9.14134C111.07 9.14134 110.721 9.23745 110.462 9.42969C110.207 9.62192 110.034 9.84896 109.945 10.1108L108.265 9.87216C108.397 9.40814 108.616 9.02036 108.921 8.70881C109.226 8.39394 109.599 8.15862 110.039 8.00284C110.48 7.84375 110.967 7.7642 111.501 7.7642C111.869 7.7642 112.235 7.80729 112.6 7.89347C112.964 7.97964 113.297 8.12216 113.599 8.32102C113.901 8.51657 114.143 8.78338 114.325 9.12145C114.511 9.45952 114.603 9.8821 114.603 10.3892V15.5H112.873V14.451H112.814C112.704 14.6631 112.55 14.862 112.351 15.0476C112.156 15.2299 111.909 15.3774 111.61 15.4901C111.315 15.5994 110.969 15.6541 110.571 15.6541ZM111.039 14.3317C111.4 14.3317 111.713 14.2604 111.978 14.1179C112.243 13.9721 112.447 13.7798 112.59 13.5412C112.736 13.3026 112.809 13.0424 112.809 12.7607V11.8608C112.752 11.9072 112.656 11.9503 112.52 11.9901C112.388 12.0298 112.239 12.0646 112.073 12.0945C111.907 12.1243 111.743 12.1508 111.581 12.174C111.418 12.1972 111.277 12.2171 111.158 12.2337C110.89 12.2701 110.649 12.3298 110.437 12.4126C110.225 12.4955 110.058 12.6115 109.935 12.7607C109.812 12.9065 109.751 13.0954 109.751 13.3274C109.751 13.6589 109.872 13.9091 110.114 14.0781C110.356 14.2472 110.664 14.3317 111.039 14.3317ZM116.413 15.5V7.86364H118.133V9.16122H118.223C118.382 8.72372 118.645 8.38234 119.013 8.13707C119.381 7.88849 119.82 7.7642 120.331 7.7642C120.848 7.7642 121.283 7.89015 121.638 8.14205C121.996 8.39062 122.248 8.73035 122.394 9.16122H122.473C122.642 8.73698 122.927 8.39891 123.328 8.14702C123.733 7.89181 124.212 7.7642 124.765 7.7642C125.468 7.7642 126.041 7.98627 126.485 8.4304C126.93 8.87453 127.152 9.52249 127.152 10.3743V15.5H125.347V10.6527C125.347 10.1787 125.221 9.83239 124.969 9.61364C124.717 9.39157 124.409 9.28054 124.044 9.28054C123.61 9.28054 123.27 9.41643 123.025 9.68821C122.783 9.95668 122.662 10.3063 122.662 10.7372V15.5H120.897V10.5781C120.897 10.1837 120.778 9.86884 120.539 9.63352C120.304 9.3982 119.996 9.28054 119.615 9.28054C119.356 9.28054 119.121 9.34683 118.909 9.4794C118.697 9.60866 118.528 9.79261 118.402 10.0312C118.276 10.2666 118.213 10.5417 118.213 10.8565V15.5H116.413ZM132.358 15.6491C131.593 15.6491 130.931 15.4901 130.374 15.1719C129.821 14.8504 129.395 14.3963 129.097 13.8097C128.798 13.2197 128.649 12.5253 128.649 11.7266C128.649 10.9411 128.798 10.2517 129.097 9.65838C129.398 9.06179 129.819 8.59777 130.36 8.26633C130.9 7.93158 131.535 7.7642 132.264 7.7642C132.734 7.7642 133.178 7.84044 133.596 7.9929C134.017 8.14205 134.388 8.37405 134.71 8.68892C135.035 9.00379 135.29 9.40483 135.475 9.89205C135.661 10.3759 135.754 10.9527 135.754 11.6222V12.174H129.494V10.9609H134.029C134.025 10.6162 133.951 10.3097 133.805 10.0412C133.659 9.76941 133.455 9.55563 133.193 9.39986C132.935 9.24408 132.633 9.16619 132.289 9.16619C131.921 9.16619 131.597 9.25568 131.319 9.43466C131.041 9.61032 130.824 9.84233 130.668 10.1307C130.515 10.4157 130.437 10.7289 130.434 11.0703V12.1293C130.434 12.5734 130.515 12.9545 130.678 13.2727C130.84 13.5876 131.067 13.8295 131.359 13.9986C131.651 14.1643 131.992 14.2472 132.383 14.2472C132.645 14.2472 132.882 14.2107 133.094 14.1378C133.306 14.0616 133.49 13.9505 133.646 13.8047C133.802 13.6589 133.919 13.4782 133.999 13.2628L135.679 13.4517C135.573 13.8958 135.371 14.2836 135.073 14.6151C134.778 14.9432 134.4 15.1984 133.939 15.3807C133.478 15.5597 132.951 15.6491 132.358 15.6491Z" fill="black"/>
</svg>
