<svg width="30" height="28" viewBox="0 0 30 28" fill="none" xmlns="http://www.w3.org/2000/svg">
<rect x="0.5" y="0.515625" width="29" height="27" rx="13.5" fill="#F7F7F7"/>
<path d="M18.6484 10.6641L19.3516 11.3672L13.5 17.2188L10.6484 14.3672L11.3516 13.6641L13.5 15.8125L18.6484 10.6641ZM15 6.01562C15.7344 6.01562 16.4427 6.10938 17.125 6.29688C17.8073 6.48438 18.4453 6.7526 19.0391 7.10156C19.6328 7.45052 20.1719 7.86719 20.6562 8.35156C21.1406 8.83594 21.5573 9.3776 21.9062 9.97656C22.2552 10.5755 22.5234 11.2135 22.7109 11.8906C22.8984 12.5677 22.9948 13.276 23 14.0156C23 14.75 22.9062 15.4583 22.7188 16.1406C22.5312 16.8229 22.263 17.4609 21.9141 18.0547C21.5651 18.6484 21.1484 19.1875 20.6641 19.6719C20.1797 20.1562 19.638 20.5729 19.0391 20.9219C18.4401 21.2708 17.8021 21.5391 17.125 21.7266C16.4479 21.9141 15.7396 22.0104 15 22.0156C14.2656 22.0156 13.5573 21.9219 12.875 21.7344C12.1927 21.5469 11.5547 21.2786 10.9609 20.9297C10.3672 20.5807 9.82812 20.1641 9.34375 19.6797C8.85938 19.1953 8.44271 18.6536 8.09375 18.0547C7.74479 17.4557 7.47656 16.8203 7.28906 16.1484C7.10156 15.4766 7.00521 14.7656 7 14.0156C7 13.2812 7.09375 12.5729 7.28125 11.8906C7.46875 11.2083 7.73698 10.5703 8.08594 9.97656C8.4349 9.38281 8.85156 8.84375 9.33594 8.35938C9.82031 7.875 10.362 7.45833 10.9609 7.10938C11.5599 6.76042 12.1953 6.49219 12.8672 6.30469C13.5391 6.11719 14.25 6.02083 15 6.01562ZM15 21.0156C15.6406 21.0156 16.2578 20.9323 16.8516 20.7656C17.4453 20.599 18.0026 20.3646 18.5234 20.0625C19.0443 19.7604 19.5182 19.3932 19.9453 18.9609C20.3724 18.5286 20.737 18.0573 21.0391 17.5469C21.3411 17.0365 21.5781 16.4792 21.75 15.875C21.9219 15.2708 22.0052 14.651 22 14.0156C22 13.375 21.9167 12.7578 21.75 12.1641C21.5833 11.5703 21.349 11.013 21.0469 10.4922C20.7448 9.97135 20.3776 9.4974 19.9453 9.07031C19.513 8.64323 19.0417 8.27865 18.5312 7.97656C18.0208 7.67448 17.4635 7.4375 16.8594 7.26562C16.2552 7.09375 15.6354 7.01042 15 7.01562C14.3594 7.01562 13.7422 7.09896 13.1484 7.26562C12.5547 7.43229 11.9974 7.66667 11.4766 7.96875C10.9557 8.27083 10.4818 8.63802 10.0547 9.07031C9.6276 9.5026 9.26302 9.97396 8.96094 10.4844C8.65885 10.9948 8.42188 11.5521 8.25 12.1562C8.07812 12.7604 7.99479 13.3802 8 14.0156C8 14.6562 8.08333 15.2734 8.25 15.8672C8.41667 16.4609 8.65104 17.0182 8.95312 17.5391C9.25521 18.0599 9.6224 18.5339 10.0547 18.9609C10.487 19.388 10.9583 19.7526 11.4688 20.0547C11.9792 20.3568 12.5365 20.5938 13.1406 20.7656C13.7448 20.9375 14.3646 21.0208 15 21.0156Z" fill="#1F4171"/>
</svg>
