<svg width="165" height="18" viewBox="0 0 165 18" fill="none" xmlns="http://www.w3.org/2000/svg">
<path d="M0.5 9.46418H5.30656L9.3541 16.3133C9.57639 16.6895 10.1403 16.6196 10.2641 16.2006L14.3319 2.4326C14.4394 2.06888 14.8968 1.95254 15.165 2.22072L22.4084 9.46418H25.9712" stroke="black" stroke-width="2"/>
<path d="M42.6911 8.21742H40.8318C40.7787 7.91249 40.681 7.64237 40.5384 7.40705C40.3959 7.16841 40.2186 6.96623 40.0065 6.80051C39.7944 6.63479 39.5524 6.51051 39.2806 6.42765C39.0122 6.34147 38.7222 6.29838 38.4106 6.29838C37.8571 6.29838 37.3666 6.43759 36.939 6.716C36.5115 6.99109 36.1767 7.39545 35.9347 7.92907C35.6928 8.45937 35.5718 9.10733 35.5718 9.87296C35.5718 10.6518 35.6928 11.3081 35.9347 11.8417C36.18 12.372 36.5148 12.7731 36.939 13.0448C37.3666 13.3133 37.8554 13.4475 38.4056 13.4475C38.7106 13.4475 38.9956 13.4078 39.2607 13.3282C39.5292 13.2454 39.7695 13.1244 39.9816 12.9653C40.1971 12.8062 40.3777 12.6106 40.5235 12.3786C40.6727 12.1466 40.7754 11.8815 40.8318 11.5832L42.6911 11.5931C42.6215 12.077 42.4707 12.5311 42.2387 12.9553C42.01 13.3796 41.7101 13.7541 41.3389 14.0789C40.9677 14.4004 40.5335 14.6523 40.0363 14.8346C39.5392 15.0136 38.9873 15.1031 38.3808 15.1031C37.4859 15.1031 36.6871 14.8959 35.9845 14.4816C35.2818 14.0673 34.7283 13.4691 34.324 12.6869C33.9196 11.9047 33.7174 10.9667 33.7174 9.87296C33.7174 8.77589 33.9213 7.83792 34.3289 7.05904C34.7366 6.27684 35.2918 5.67859 35.9944 5.26429C36.6971 4.84999 37.4925 4.64284 38.3808 4.64284C38.9475 4.64284 39.4745 4.72239 39.9617 4.88148C40.449 5.04057 40.8831 5.27424 41.2643 5.58248C41.6454 5.8874 41.9587 6.26193 42.2039 6.70605C42.4525 7.14687 42.6149 7.65066 42.6911 8.21742ZM45.7425 4.78205L48.3923 12.7963H48.4967L51.1416 4.78205H53.17L49.5805 14.9639H47.3035L43.719 4.78205H45.7425ZM57.9838 14.9639V4.78205H64.5065V6.32821H59.8282V9.09242H64.059V10.6386H59.8282V14.9639H57.9838ZM66.1073 14.9639V7.3275H67.907V14.9639H66.1073ZM67.0122 6.2437C66.7271 6.2437 66.4819 6.14924 66.2764 5.96032C66.0709 5.76808 65.9681 5.53773 65.9681 5.26926C65.9681 4.99748 66.0709 4.76713 66.2764 4.57821C66.4819 4.38598 66.7271 4.28986 67.0122 4.28986C67.3005 4.28986 67.5458 4.38598 67.748 4.57821C67.9535 4.76713 68.0562 4.99748 68.0562 5.26926C68.0562 5.53773 67.9535 5.76808 67.748 5.96032C67.5458 6.14924 67.3005 6.2437 67.0122 6.2437ZM71.5574 4.78205V14.9639H69.7577V4.78205H71.5574ZM77.2213 7.3275V8.71955H72.8314V7.3275H77.2213ZM73.9152 5.49796H75.7149V12.667C75.7149 12.9089 75.7514 13.0945 75.8243 13.2238C75.9005 13.3498 76 13.4359 76.1226 13.4823C76.2452 13.5287 76.3811 13.5519 76.5303 13.5519C76.643 13.5519 76.7457 13.5436 76.8385 13.5271C76.9346 13.5105 77.0075 13.4956 77.0573 13.4823L77.3605 14.8893C77.2644 14.9224 77.1269 14.9589 76.9479 14.9987C76.7722 15.0384 76.5568 15.0616 76.3016 15.0683C75.8508 15.0815 75.4448 15.0136 75.0835 14.8644C74.7223 14.712 74.4356 14.4767 74.2235 14.1585C74.0146 13.8403 73.9119 13.4426 73.9152 12.9653V5.49796ZM78.7265 14.9639V7.3275H80.4715V8.60023H80.551C80.6903 8.15942 80.9289 7.81969 81.267 7.58105C81.6083 7.3391 81.9978 7.21813 82.4353 7.21813C82.5347 7.21813 82.6457 7.2231 82.7684 7.23304C82.8943 7.23967 82.9987 7.25127 83.0816 7.26784V8.92338C83.0054 8.89687 82.8844 8.87367 82.7187 8.85378C82.5563 8.83058 82.3988 8.81898 82.2464 8.81898C81.9182 8.81898 81.6233 8.89024 81.3614 9.03276C81.1029 9.17196 80.8991 9.36586 80.7499 9.61444C80.6008 9.86301 80.5262 10.1497 80.5262 10.4745V14.9639H78.7265ZM86.338 15.118C85.8541 15.118 85.4182 15.0318 85.0305 14.8595C84.646 14.6838 84.3411 14.4253 84.1157 14.0839C83.8936 13.7425 83.7826 13.3216 83.7826 12.8211C83.7826 12.3902 83.8621 12.0339 84.0212 11.7522C84.1803 11.4705 84.3974 11.2451 84.6725 11.0761C84.9476 10.907 85.2575 10.7794 85.6022 10.6933C85.9502 10.6038 86.3098 10.5392 86.681 10.4994C87.1285 10.453 87.4914 10.4115 87.7698 10.3751C88.0482 10.3353 88.2504 10.2757 88.3763 10.1961C88.5056 10.1133 88.5702 9.98565 88.5702 9.8133V9.78347C88.5702 9.40894 88.4592 9.11893 88.2371 8.91344C88.0151 8.70795 87.6952 8.6052 87.2776 8.6052C86.8368 8.6052 86.4871 8.70132 86.2286 8.89355C85.9734 9.08579 85.801 9.31283 85.7116 9.57466L84.0312 9.33603C84.1637 8.87201 84.3825 8.48423 84.6874 8.17267C84.9923 7.85781 85.3652 7.62248 85.806 7.46671C86.2468 7.30762 86.734 7.22807 87.2677 7.22807C87.6356 7.22807 88.0018 7.27116 88.3664 7.35733C88.731 7.44351 89.0641 7.58603 89.3657 7.78489C89.6673 7.98044 89.9092 8.24725 90.0915 8.58532C90.2771 8.92338 90.3699 9.34597 90.3699 9.85307V14.9639H88.6398V13.9149H88.5802C88.4708 14.127 88.3167 14.3258 88.1178 14.5115C87.9223 14.6937 87.6753 14.8412 87.377 14.9539C87.0821 15.0633 86.7357 15.118 86.338 15.118ZM86.8053 13.7955C87.1666 13.7955 87.4798 13.7243 87.7449 13.5818C88.0101 13.4359 88.2139 13.2437 88.3564 13.0051C88.5023 12.7664 88.5752 12.5062 88.5752 12.2245V11.3247C88.5189 11.3711 88.4227 11.4142 88.2868 11.4539C88.1543 11.4937 88.0051 11.5285 87.8394 11.5583C87.6737 11.5882 87.5096 11.6147 87.3472 11.6379C87.1848 11.6611 87.0439 11.681 86.9246 11.6975C86.6562 11.734 86.4159 11.7936 86.2037 11.8765C85.9916 11.9594 85.8242 12.0754 85.7016 12.2245C85.579 12.3704 85.5177 12.5593 85.5177 12.7913C85.5177 13.1227 85.6386 13.373 85.8806 13.542C86.1225 13.711 86.4308 13.7955 86.8053 13.7955ZM95.9928 7.3275V8.71955H91.6029V7.3275H95.9928ZM92.6867 5.49796H94.4864V12.667C94.4864 12.9089 94.5229 13.0945 94.5958 13.2238C94.672 13.3498 94.7715 13.4359 94.8941 13.4823C95.0167 13.5287 95.1526 13.5519 95.3018 13.5519C95.4144 13.5519 95.5172 13.5436 95.61 13.5271C95.7061 13.5105 95.779 13.4956 95.8287 13.4823L96.132 14.8893C96.0359 14.9224 95.8983 14.9589 95.7194 14.9987C95.5437 15.0384 95.3283 15.0616 95.0731 15.0683C94.6223 15.0815 94.2163 15.0136 93.855 14.8644C93.4938 14.712 93.2071 14.4767 92.9949 14.1585C92.7861 13.8403 92.6834 13.4426 92.6867 12.9653V5.49796ZM97.498 14.9639V7.3275H99.2977V14.9639H97.498ZM98.4028 6.2437C98.1177 6.2437 97.8725 6.14924 97.667 5.96032C97.4615 5.76808 97.3588 5.53773 97.3588 5.26926C97.3588 4.99748 97.4615 4.76713 97.667 4.57821C97.8725 4.38598 98.1177 4.28986 98.4028 4.28986C98.6911 4.28986 98.9364 4.38598 99.1386 4.57821C99.3441 4.76713 99.4468 4.99748 99.4468 5.26926C99.4468 5.53773 99.3441 5.76808 99.1386 5.96032C98.9364 6.14924 98.6911 6.2437 98.4028 6.2437ZM104.479 15.113C103.734 15.113 103.087 14.949 102.54 14.6208C101.994 14.2927 101.569 13.8337 101.268 13.2437C100.969 12.6537 100.82 11.9643 100.82 11.1755C100.82 10.3867 100.969 9.69564 101.268 9.10236C101.569 8.50908 101.994 8.04838 102.54 7.72026C103.087 7.39213 103.734 7.22807 104.479 7.22807C105.225 7.22807 105.871 7.39213 106.418 7.72026C106.965 8.04838 107.388 8.50908 107.686 9.10236C107.988 9.69564 108.138 10.3867 108.138 11.1755C108.138 11.9643 107.988 12.6537 107.686 13.2437C107.388 13.8337 106.965 14.2927 106.418 14.6208C105.871 14.949 105.225 15.113 104.479 15.113ZM104.489 13.6713C104.894 13.6713 105.232 13.5602 105.503 13.3382C105.775 13.1128 105.977 12.8112 106.11 12.4333C106.246 12.0555 106.314 11.6346 106.314 11.1705C106.314 10.7032 106.246 10.2806 106.11 9.90279C105.977 9.52163 105.775 9.21837 105.503 8.99299C105.232 8.76761 104.894 8.65492 104.489 8.65492C104.075 8.65492 103.73 8.76761 103.455 8.99299C103.183 9.21837 102.98 9.52163 102.844 9.90279C102.711 10.2806 102.645 10.7032 102.645 11.1705C102.645 11.6346 102.711 12.0555 102.844 12.4333C102.98 12.8112 103.183 13.1128 103.455 13.3382C103.73 13.5602 104.075 13.6713 104.489 13.6713ZM111.466 10.4894V14.9639H109.666V7.3275H111.386V8.62509H111.476C111.651 8.19753 111.931 7.85781 112.316 7.60591C112.704 7.35402 113.182 7.22807 113.753 7.22807C114.28 7.22807 114.739 7.34076 115.13 7.56614C115.524 7.79152 115.829 8.11799 116.044 8.54554C116.263 8.9731 116.371 9.4918 116.368 10.1017V14.9639H114.568V10.3801C114.568 9.86964 114.435 9.47026 114.17 9.18191C113.908 8.89355 113.545 8.74938 113.081 8.74938C112.767 8.74938 112.486 8.81898 112.241 8.95819C111.999 9.09408 111.809 9.29128 111.669 9.5498C111.534 9.80833 111.466 10.1215 111.466 10.4894ZM127.283 7.58105C127.236 7.14687 127.041 6.8088 126.696 6.56685C126.355 6.3249 125.911 6.20392 125.364 6.20392C124.979 6.20392 124.649 6.26193 124.374 6.37793C124.099 6.49393 123.889 6.65137 123.743 6.85023C123.597 7.04909 123.523 7.27613 123.519 7.53134C123.519 7.74346 123.567 7.92741 123.663 8.08319C123.763 8.23896 123.897 8.37154 124.066 8.48091C124.235 8.58697 124.422 8.67646 124.628 8.74938C124.833 8.82229 125.041 8.88361 125.249 8.93333L126.204 9.17196C126.588 9.26145 126.958 9.38243 127.313 9.53489C127.671 9.68735 127.99 9.87959 128.272 10.1116C128.557 10.3436 128.783 10.6237 128.948 10.9518C129.114 11.2799 129.197 11.6644 129.197 12.1052C129.197 12.7018 129.044 13.2271 128.739 13.6812C128.435 14.132 127.994 14.4849 127.417 14.7401C126.844 14.992 126.149 15.118 125.334 15.118C124.542 15.118 123.854 14.9954 123.271 14.7501C122.691 14.5048 122.237 14.1469 121.908 13.6762C121.584 13.2056 121.408 12.6322 121.381 11.9561H123.196C123.223 12.3107 123.332 12.6057 123.524 12.841C123.716 13.0763 123.967 13.252 124.275 13.368C124.586 13.484 124.935 13.542 125.319 13.542C125.72 13.542 126.071 13.4823 126.373 13.363C126.678 13.2404 126.917 13.0713 127.089 12.8559C127.261 12.6372 127.349 12.382 127.352 12.0903C127.349 11.8251 127.271 11.6064 127.119 11.434C126.966 11.2584 126.752 11.1125 126.477 10.9965C126.206 10.8772 125.887 10.7712 125.523 10.6784L124.364 10.3801C123.526 10.1646 122.863 9.83816 122.376 9.40066C121.892 8.95984 121.65 8.37485 121.65 7.64568C121.65 7.04578 121.812 6.52045 122.137 6.06969C122.465 5.61893 122.911 5.26926 123.475 5.02068C124.038 4.76879 124.676 4.64284 125.389 4.64284C126.111 4.64284 126.744 4.76879 127.288 5.02068C127.835 5.26926 128.264 5.61562 128.575 6.05975C128.887 6.50056 129.048 7.00766 129.058 7.58105H127.283ZM134.575 7.3275V8.71955H130.185V7.3275H134.575ZM131.269 5.49796H133.068V12.667C133.068 12.9089 133.105 13.0945 133.178 13.2238C133.254 13.3498 133.353 13.4359 133.476 13.4823C133.599 13.5287 133.735 13.5519 133.884 13.5519C133.996 13.5519 134.099 13.5436 134.192 13.5271C134.288 13.5105 134.361 13.4956 134.411 13.4823L134.714 14.8893C134.618 14.9224 134.48 14.9589 134.301 14.9987C134.126 15.0384 133.91 15.0616 133.655 15.0683C133.204 15.0815 132.798 15.0136 132.437 14.8644C132.076 14.712 131.789 14.4767 131.577 14.1585C131.368 13.8403 131.265 13.4426 131.269 12.9653V5.49796ZM138.277 15.118C137.794 15.118 137.358 15.0318 136.97 14.8595C136.585 14.6838 136.281 14.4253 136.055 14.0839C135.833 13.7425 135.722 13.3216 135.722 12.8211C135.722 12.3902 135.802 12.0339 135.961 11.7522C136.12 11.4705 136.337 11.2451 136.612 11.0761C136.887 10.907 137.197 10.7794 137.542 10.6933C137.89 10.6038 138.249 10.5392 138.62 10.4994C139.068 10.453 139.431 10.4115 139.709 10.3751C139.988 10.3353 140.19 10.2757 140.316 10.1961C140.445 10.1133 140.51 9.98565 140.51 9.8133V9.78347C140.51 9.40894 140.399 9.11893 140.177 8.91344C139.955 8.70795 139.635 8.6052 139.217 8.6052C138.776 8.6052 138.427 8.70132 138.168 8.89355C137.913 9.08579 137.741 9.31283 137.651 9.57466L135.971 9.33603C136.103 8.87201 136.322 8.48423 136.627 8.17267C136.932 7.85781 137.305 7.62248 137.745 7.46671C138.186 7.30762 138.674 7.22807 139.207 7.22807C139.575 7.22807 139.941 7.27116 140.306 7.35733C140.67 7.44351 141.004 7.58603 141.305 7.78489C141.607 7.98044 141.849 8.24725 142.031 8.58532C142.217 8.92338 142.309 9.34597 142.309 9.85307V14.9639H140.579V13.9149H140.52C140.41 14.127 140.256 14.3258 140.057 14.5115C139.862 14.6937 139.615 14.8412 139.316 14.9539C139.022 15.0633 138.675 15.118 138.277 15.118ZM138.745 13.7955C139.106 13.7955 139.419 13.7243 139.684 13.5818C139.95 13.4359 140.153 13.2437 140.296 13.0051C140.442 12.7664 140.515 12.5062 140.515 12.2245V11.3247C140.458 11.3711 140.362 11.4142 140.226 11.4539C140.094 11.4937 139.945 11.5285 139.779 11.5583C139.613 11.5882 139.449 11.6147 139.287 11.6379C139.124 11.6611 138.983 11.681 138.864 11.6975C138.596 11.734 138.355 11.7936 138.143 11.8765C137.931 11.9594 137.764 12.0754 137.641 12.2245C137.518 12.3704 137.457 12.5593 137.457 12.7913C137.457 13.1227 137.578 13.373 137.82 13.542C138.062 13.711 138.37 13.7955 138.745 13.7955ZM147.932 7.3275V8.71955H143.542V7.3275H147.932ZM144.626 5.49796H146.426V12.667C146.426 12.9089 146.462 13.0945 146.535 13.2238C146.611 13.3498 146.711 13.4359 146.834 13.4823C146.956 13.5287 147.092 13.5519 147.241 13.5519C147.354 13.5519 147.457 13.5436 147.549 13.5271C147.646 13.5105 147.718 13.4956 147.768 13.4823L148.071 14.8893C147.975 14.9224 147.838 14.9589 147.659 14.9987C147.483 15.0384 147.268 15.0616 147.013 15.0683C146.562 15.0815 146.156 15.0136 145.794 14.8644C145.433 14.712 145.147 14.4767 144.934 14.1585C144.726 13.8403 144.623 13.4426 144.626 12.9653V5.49796ZM154.305 11.7522V7.3275H156.104V14.9639H154.359V13.6066H154.28C154.107 14.0342 153.824 14.3838 153.43 14.6556C153.039 14.9274 152.556 15.0633 151.983 15.0633C151.482 15.0633 151.04 14.9523 150.655 14.7302C150.274 14.5048 149.976 14.1784 149.761 13.7508C149.545 13.3199 149.437 12.7996 149.437 12.1897V7.3275H151.237V11.9113C151.237 12.3952 151.37 12.7797 151.635 13.0647C151.9 13.3498 152.248 13.4923 152.679 13.4923C152.944 13.4923 153.201 13.4276 153.449 13.2984C153.698 13.1691 153.902 12.9769 154.061 12.7217C154.223 12.4632 154.305 12.14 154.305 11.7522ZM163.991 9.34597L162.35 9.52495C162.303 9.35923 162.222 9.20345 162.106 9.05762C161.994 8.91178 161.841 8.79412 161.649 8.70463C161.457 8.61515 161.221 8.5704 160.943 8.5704C160.568 8.5704 160.254 8.6516 159.998 8.81401C159.746 8.97641 159.622 9.18688 159.625 9.4454C159.622 9.66747 159.703 9.8481 159.869 9.9873C160.038 10.1265 160.316 10.2409 160.704 10.3303L162.007 10.6088C162.729 10.7645 163.266 11.0115 163.618 11.3495C163.972 11.6876 164.151 12.1301 164.155 12.6769C164.151 13.1575 164.01 13.5818 163.732 13.9497C163.457 14.3142 163.074 14.5993 162.584 14.8048C162.093 15.0103 161.53 15.113 160.893 15.113C159.959 15.113 159.206 14.9175 158.636 14.5264C158.066 14.132 157.726 13.5834 157.617 12.8808L159.372 12.7117C159.451 13.0564 159.62 13.3166 159.879 13.4923C160.138 13.6679 160.474 13.7558 160.888 13.7558C161.316 13.7558 161.659 13.6679 161.917 13.4923C162.179 13.3166 162.31 13.0995 162.31 12.841C162.31 12.6222 162.226 12.4416 162.057 12.2991C161.891 12.1566 161.632 12.0472 161.281 11.971L159.978 11.6975C159.246 11.5451 158.704 11.2882 158.353 10.9269C158.001 10.5624 157.827 10.1017 157.831 9.54483C157.827 9.07419 157.955 8.66652 158.214 8.32182C158.475 7.97381 158.838 7.70534 159.302 7.51642C159.77 7.32419 160.308 7.22807 160.918 7.22807C161.813 7.22807 162.517 7.41865 163.031 7.7998C163.548 8.18096 163.868 8.69635 163.991 9.34597Z" fill="black"/>
</svg>
