<svg width="144" height="24" viewBox="0 0 144 24" fill="none" xmlns="http://www.w3.org/2000/svg">
<path d="M8.5 14C8.83152 14 9.14946 13.8683 9.38388 13.6339C9.6183 13.3995 9.75 13.0815 9.75 12.75C9.75 12.4185 9.6183 12.1005 9.38388 11.8661C9.14946 11.6317 8.83152 11.5 8.5 11.5C8.16848 11.5 7.85054 11.6317 7.61612 11.8661C7.3817 12.1005 7.25 12.4185 7.25 12.75C7.25 13.0815 7.3817 13.3995 7.61612 13.6339C7.85054 13.8683 8.16848 14 8.5 14ZM8.5 17.5C8.83152 17.5 9.14946 17.3683 9.38388 17.1339C9.6183 16.8995 9.75 16.5815 9.75 16.25C9.75 15.9185 9.6183 15.6005 9.38388 15.3661C9.14946 15.1317 8.83152 15 8.5 15C8.16848 15 7.85054 15.1317 7.61612 15.3661C7.3817 15.6005 7.25 15.9185 7.25 16.25C7.25 16.5815 7.3817 16.8995 7.61612 17.1339C7.85054 17.3683 8.16848 17.5 8.5 17.5ZM13.25 12.75C13.25 13.0815 13.1183 13.3995 12.8839 13.6339C12.6495 13.8683 12.3315 14 12 14C11.6685 14 11.3505 13.8683 11.1161 13.6339C10.8817 13.3995 10.75 13.0815 10.75 12.75C10.75 12.4185 10.8817 12.1005 11.1161 11.8661C11.3505 11.6317 11.6685 11.5 12 11.5C12.3315 11.5 12.6495 11.6317 12.8839 11.8661C13.1183 12.1005 13.25 12.4185 13.25 12.75ZM12 17.5C12.3315 17.5 12.6495 17.3683 12.8839 17.1339C13.1183 16.8995 13.25 16.5815 13.25 16.25C13.25 15.9185 13.1183 15.6005 12.8839 15.3661C12.6495 15.1317 12.3315 15 12 15C11.6685 15 11.3505 15.1317 11.1161 15.3661C10.8817 15.6005 10.75 15.9185 10.75 16.25C10.75 16.5815 10.8817 16.8995 11.1161 17.1339C11.3505 17.3683 11.6685 17.5 12 17.5ZM16.75 12.75C16.75 13.0815 16.6183 13.3995 16.3839 13.6339C16.1495 13.8683 15.8315 14 15.5 14C15.1685 14 14.8505 13.8683 14.6161 13.6339C14.3817 13.3995 14.25 13.0815 14.25 12.75C14.25 12.4185 14.3817 12.1005 14.6161 11.8661C14.8505 11.6317 15.1685 11.5 15.5 11.5C15.8315 11.5 16.1495 11.6317 16.3839 11.8661C16.6183 12.1005 16.75 12.4185 16.75 12.75Z" fill="black"/>
<path fill-rule="evenodd" clip-rule="evenodd" d="M8 3.25C8.19891 3.25 8.38968 3.32902 8.53033 3.46967C8.67098 3.61032 8.75 3.80109 8.75 4V4.75H15.25V4C15.25 3.80109 15.329 3.61032 15.4697 3.46967C15.6103 3.32902 15.8011 3.25 16 3.25C16.1989 3.25 16.3897 3.32902 16.5303 3.46967C16.671 3.61032 16.75 3.80109 16.75 4V4.758C16.902 4.762 17.0437 4.76933 17.175 4.78C17.555 4.81 17.911 4.878 18.248 5.05C18.7656 5.31367 19.1863 5.73445 19.45 6.252C19.622 6.589 19.69 6.945 19.72 7.325C19.75 7.69 19.75 8.135 19.75 8.67V16.33C19.75 16.865 19.75 17.31 19.72 17.675C19.69 18.055 19.622 18.411 19.45 18.748C19.1866 19.2654 18.7662 19.6862 18.249 19.95C17.911 20.122 17.555 20.19 17.175 20.22C16.81 20.25 16.365 20.25 15.831 20.25H8.17C7.635 20.25 7.19 20.25 6.825 20.22C6.445 20.19 6.089 20.122 5.752 19.95C5.23475 19.6869 4.81401 19.2668 4.55 18.75C4.378 18.412 4.31 18.056 4.28 17.676C4.25 17.311 4.25 16.866 4.25 16.332V8.67C4.25 8.135 4.25 7.69 4.28 7.325C4.31 6.945 4.378 6.589 4.55 6.252C4.81367 5.73445 5.23445 5.31367 5.752 5.05C6.089 4.878 6.445 4.81 6.825 4.78C6.95633 4.76933 7.098 4.762 7.25 4.758V4C7.25 3.90151 7.2694 3.80398 7.30709 3.71299C7.34478 3.62199 7.40003 3.53931 7.46967 3.46967C7.53931 3.40003 7.62199 3.34478 7.71299 3.30709C7.80398 3.2694 7.90151 3.25 8 3.25ZM7.25 6.5V6.258C7.14887 6.26111 7.04784 6.26678 6.947 6.275C6.66 6.298 6.523 6.34 6.433 6.386C6.19741 6.50591 6.00591 6.69741 5.886 6.933C5.84 7.023 5.798 7.16 5.775 7.447C5.751 7.743 5.75 8.127 5.75 8.7V9.25H18.25V8.7C18.25 8.128 18.25 7.743 18.225 7.447C18.202 7.16 18.16 7.023 18.114 6.933C17.9941 6.69741 17.8026 6.50591 17.567 6.386C17.477 6.34 17.34 6.298 17.052 6.275C16.9515 6.2668 16.8508 6.26113 16.75 6.258V6.5C16.75 6.69891 16.671 6.88968 16.5303 7.03033C16.3897 7.17098 16.1989 7.25 16 7.25C15.8011 7.25 15.6103 7.17098 15.4697 7.03033C15.329 6.88968 15.25 6.69891 15.25 6.5V6.25H8.75V6.5C8.75 6.69891 8.67098 6.88968 8.53033 7.03033C8.38968 7.17098 8.19891 7.25 8 7.25C7.80109 7.25 7.61032 7.17098 7.46967 7.03033C7.32902 6.88968 7.25 6.69891 7.25 6.5ZM18.25 10.25H5.75V16.3C5.75 16.872 5.75 17.257 5.775 17.552C5.798 17.84 5.84 17.977 5.886 18.067C6.006 18.303 6.197 18.494 6.433 18.614C6.523 18.66 6.66 18.702 6.947 18.725C7.243 18.749 7.627 18.75 8.2 18.75H15.8C16.372 18.75 16.757 18.75 17.052 18.725C17.34 18.702 17.477 18.66 17.567 18.614C17.8026 18.4941 17.9941 18.3026 18.114 18.067C18.16 17.977 18.202 17.84 18.225 17.552C18.249 17.257 18.25 16.872 18.25 16.3V10.25Z" fill="black"/>
<path fill-rule="evenodd" clip-rule="evenodd" d="M9.75 7.75C9.75 7.55109 9.82902 7.36032 9.96967 7.21967C10.1103 7.07902 10.3011 7 10.5 7H13.5C13.6989 7 13.8897 7.07902 14.0303 7.21967C14.171 7.36032 14.25 7.55109 14.25 7.75C14.25 7.94891 14.171 8.13968 14.0303 8.28033C13.8897 8.42098 13.6989 8.5 13.5 8.5H10.5C10.3011 8.5 10.1103 8.42098 9.96967 8.28033C9.82902 8.13968 9.75 7.94891 9.75 7.75Z" fill="black"/>
<path d="M33.3118 17.5H31.343L34.9276 7.31818H37.2045L40.794 17.5H38.8253L36.1058 9.40625H36.0263L33.3118 17.5ZM33.3764 13.5078H38.7457V14.9893H33.3764V13.5078ZM42.0556 20.3636V9.86364H43.8255V11.1264H43.9299C44.0227 10.9408 44.1536 10.7436 44.3226 10.5348C44.4917 10.3227 44.7203 10.142 45.0087 9.9929C45.2971 9.84044 45.665 9.7642 46.1124 9.7642C46.7024 9.7642 47.2343 9.91501 47.7083 10.2166C48.1855 10.5149 48.5634 10.9574 48.8418 11.544C49.1235 12.1274 49.2644 12.8433 49.2644 13.6918C49.2644 14.5303 49.1268 15.2429 48.8517 15.8295C48.5766 16.4162 48.2021 16.8636 47.7282 17.1719C47.2542 17.4801 46.7173 17.6342 46.1174 17.6342C45.6799 17.6342 45.3169 17.5613 45.0286 17.4155C44.7402 17.2696 44.5082 17.094 44.3326 16.8885C44.1602 16.6797 44.026 16.4825 43.9299 16.2969H43.8553V20.3636H42.0556ZM43.8205 13.6818C43.8205 14.1757 43.8901 14.6082 44.0293 14.9794C44.1718 15.3506 44.3757 15.6406 44.6408 15.8494C44.9093 16.0549 45.2341 16.1577 45.6152 16.1577C46.013 16.1577 46.3461 16.0516 46.6145 15.8395C46.883 15.6241 47.0852 15.3307 47.2211 14.9595C47.3603 14.585 47.4299 14.1591 47.4299 13.6818C47.4299 13.2079 47.3619 12.7869 47.226 12.419C47.0901 12.0511 46.888 11.7628 46.6195 11.554C46.351 11.3452 46.0163 11.2408 45.6152 11.2408C45.2308 11.2408 44.9043 11.3419 44.6358 11.544C44.3674 11.7462 44.1635 12.0296 44.0243 12.3942C43.8884 12.7588 43.8205 13.188 43.8205 13.6818ZM50.8056 20.3636V9.86364H52.5755V11.1264H52.6799C52.7727 10.9408 52.9036 10.7436 53.0726 10.5348C53.2417 10.3227 53.4703 10.142 53.7587 9.9929C54.0471 9.84044 54.415 9.7642 54.8624 9.7642C55.4524 9.7642 55.9843 9.91501 56.4583 10.2166C56.9355 10.5149 57.3134 10.9574 57.5918 11.544C57.8735 12.1274 58.0144 12.8433 58.0144 13.6918C58.0144 14.5303 57.8768 15.2429 57.6017 15.8295C57.3266 16.4162 56.9521 16.8636 56.4782 17.1719C56.0042 17.4801 55.4673 17.6342 54.8674 17.6342C54.4299 17.6342 54.0669 17.5613 53.7786 17.4155C53.4902 17.2696 53.2582 17.094 53.0826 16.8885C52.9102 16.6797 52.776 16.4825 52.6799 16.2969H52.6053V20.3636H50.8056ZM52.5705 13.6818C52.5705 14.1757 52.6401 14.6082 52.7793 14.9794C52.9218 15.3506 53.1257 15.6406 53.3908 15.8494C53.6593 16.0549 53.9841 16.1577 54.3652 16.1577C54.763 16.1577 55.0961 16.0516 55.3645 15.8395C55.633 15.6241 55.8352 15.3307 55.9711 14.9595C56.1103 14.585 56.1799 14.1591 56.1799 13.6818C56.1799 13.2079 56.1119 12.7869 55.976 12.419C55.8401 12.0511 55.638 11.7628 55.3695 11.554C55.101 11.3452 54.7663 11.2408 54.3652 11.2408C53.9808 11.2408 53.6543 11.3419 53.3858 11.544C53.1174 11.7462 52.9135 12.0296 52.7743 12.3942C52.6384 12.7588 52.5705 13.188 52.5705 13.6818ZM61.3553 7.31818V17.5H59.5556V7.31818H61.3553ZM63.206 17.5V9.86364H65.0057V17.5H63.206ZM64.1108 8.77983C63.8258 8.77983 63.5805 8.68537 63.375 8.49645C63.1695 8.30421 63.0668 8.07386 63.0668 7.8054C63.0668 7.53362 63.1695 7.30327 63.375 7.11435C63.5805 6.92211 63.8258 6.82599 64.1108 6.82599C64.3991 6.82599 64.6444 6.92211 64.8466 7.11435C65.0521 7.30327 65.1548 7.53362 65.1548 7.8054C65.1548 8.07386 65.0521 8.30421 64.8466 8.49645C64.6444 8.68537 64.3991 8.77983 64.1108 8.77983ZM70.1873 17.6491C69.425 17.6491 68.7704 17.4818 68.2235 17.147C67.68 16.8123 67.2607 16.3499 66.9657 15.7599C66.6741 15.1667 66.5282 14.4839 66.5282 13.7116C66.5282 12.9361 66.6774 12.2517 66.9757 11.6584C67.274 11.0618 67.6949 10.5978 68.2385 10.2663C68.7853 9.93158 69.4316 9.7642 70.1774 9.7642C70.7972 9.7642 71.3457 9.87855 71.823 10.1072C72.3036 10.3326 72.6864 10.6525 72.9714 11.0668C73.2565 11.4777 73.4189 11.9583 73.4586 12.5085H71.7385C71.6689 12.1406 71.5031 11.834 71.2413 11.5888C70.9828 11.3402 70.6364 11.2159 70.2022 11.2159C69.8343 11.2159 69.5112 11.3153 69.2328 11.5142C68.9544 11.7098 68.7373 11.9915 68.5815 12.3594C68.429 12.7273 68.3528 13.1681 68.3528 13.6818C68.3528 14.2022 68.429 14.6496 68.5815 15.0241C68.734 15.3954 68.9477 15.6821 69.2228 15.8842C69.5012 16.0831 69.8277 16.1825 70.2022 16.1825C70.4674 16.1825 70.7044 16.1328 70.9132 16.0334C71.1253 15.9306 71.3026 15.7831 71.4451 15.5909C71.5877 15.3987 71.6854 15.165 71.7385 14.8899H73.4586C73.4155 15.4302 73.2565 15.9091 72.9814 16.3267C72.7063 16.741 72.3317 17.0658 71.8578 17.3011C71.3838 17.5331 70.827 17.6491 70.1873 17.6491ZM77.1339 17.6541C76.65 17.6541 76.2141 17.5679 75.8263 17.3956C75.4419 17.2199 75.137 16.9614 74.9116 16.62C74.6895 16.2786 74.5785 15.8577 74.5785 15.3572C74.5785 14.9264 74.658 14.5701 74.8171 14.2884C74.9762 14.0066 75.1933 13.7812 75.4684 13.6122C75.7435 13.4432 76.0534 13.3156 76.3981 13.2294C76.7461 13.1399 77.1057 13.0753 77.4769 13.0355C77.9244 12.9891 78.2873 12.9477 78.5657 12.9112C78.8441 12.8714 79.0463 12.8118 79.1722 12.7322C79.3015 12.6494 79.3661 12.5218 79.3661 12.3494V12.3196C79.3661 11.9451 79.2551 11.6551 79.033 11.4496C78.811 11.2441 78.4911 11.1413 78.0735 11.1413C77.6327 11.1413 77.283 11.2375 77.0245 11.4297C76.7693 11.6219 76.5969 11.849 76.5075 12.1108L74.8271 11.8722C74.9596 11.4081 75.1784 11.0204 75.4833 10.7088C75.7882 10.3939 76.1611 10.1586 76.6019 10.0028C77.0427 9.84375 77.5299 9.7642 78.0636 9.7642C78.4315 9.7642 78.7977 9.80729 79.1623 9.89347C79.5269 9.97964 79.86 10.1222 80.1616 10.321C80.4632 10.5166 80.7051 10.7834 80.8874 11.1214C81.073 11.4595 81.1658 11.8821 81.1658 12.3892V17.5H79.4357V16.451H79.3761C79.2667 16.6631 79.1126 16.862 78.9137 17.0476C78.7182 17.2299 78.4712 17.3774 78.1729 17.4901C77.878 17.5994 77.5316 17.6541 77.1339 17.6541ZM77.6012 16.3317C77.9625 16.3317 78.2757 16.2604 78.5408 16.1179C78.806 15.9721 79.0098 15.7798 79.1523 15.5412C79.2982 15.3026 79.3711 15.0424 79.3711 14.7607V13.8608C79.3147 13.9072 79.2186 13.9503 79.0827 13.9901C78.9502 14.0298 78.801 14.0646 78.6353 14.0945C78.4696 14.1243 78.3055 14.1508 78.1431 14.174C77.9807 14.1972 77.8398 14.2171 77.7205 14.2337C77.4521 14.2701 77.2118 14.3298 76.9996 14.4126C76.7875 14.4955 76.6201 14.6115 76.4975 14.7607C76.3749 14.9065 76.3136 15.0954 76.3136 15.3274C76.3136 15.6589 76.4345 15.9091 76.6765 16.0781C76.9184 16.2472 77.2267 16.3317 77.6012 16.3317ZM86.7887 9.86364V11.2557H82.3988V9.86364H86.7887ZM83.4826 8.03409H85.2823V15.2031C85.2823 15.4451 85.3188 15.6307 85.3917 15.7599C85.4679 15.8859 85.5674 15.9721 85.69 16.0185C85.8126 16.0649 85.9485 16.0881 86.0977 16.0881C86.2103 16.0881 86.3131 16.0798 86.4059 16.0632C86.502 16.0466 86.5749 16.0317 86.6246 16.0185L86.9279 17.4254C86.8318 17.4586 86.6942 17.495 86.5153 17.5348C86.3396 17.5746 86.1242 17.5978 85.869 17.6044C85.4182 17.6177 85.0122 17.5497 84.6509 17.4006C84.2897 17.2481 84.003 17.0128 83.7908 16.6946C83.582 16.3764 83.4793 15.9787 83.4826 15.5014V8.03409ZM88.2939 17.5V9.86364H90.0936V17.5H88.2939ZM89.1987 8.77983C88.9136 8.77983 88.6684 8.68537 88.4629 8.49645C88.2574 8.30421 88.1547 8.07386 88.1547 7.8054C88.1547 7.53362 88.2574 7.30327 88.4629 7.11435C88.6684 6.92211 88.9136 6.82599 89.1987 6.82599C89.487 6.82599 89.7323 6.92211 89.9345 7.11435C90.14 7.30327 90.2427 7.53362 90.2427 7.8054C90.2427 8.07386 90.14 8.30421 89.9345 8.49645C89.7323 8.68537 89.487 8.77983 89.1987 8.77983ZM95.2752 17.6491C94.5295 17.6491 93.8832 17.4851 93.3363 17.157C92.7894 16.8288 92.3652 16.3698 92.0636 15.7798C91.7653 15.1899 91.6161 14.5005 91.6161 13.7116C91.6161 12.9228 91.7653 12.2318 92.0636 11.6385C92.3652 11.0452 92.7894 10.5845 93.3363 10.2564C93.8832 9.92827 94.5295 9.7642 95.2752 9.7642C96.021 9.7642 96.6673 9.92827 97.2141 10.2564C97.761 10.5845 98.1836 11.0452 98.4819 11.6385C98.7835 12.2318 98.9343 12.9228 98.9343 13.7116C98.9343 14.5005 98.7835 15.1899 98.4819 15.7798C98.1836 16.3698 97.761 16.8288 97.2141 17.157C96.6673 17.4851 96.021 17.6491 95.2752 17.6491ZM95.2852 16.2074C95.6895 16.2074 96.0276 16.0964 96.2994 15.8743C96.5711 15.6489 96.7733 15.3473 96.9059 14.9695C97.0418 14.5916 97.1097 14.1707 97.1097 13.7067C97.1097 13.2393 97.0418 12.8168 96.9059 12.4389C96.7733 12.0578 96.5711 11.7545 96.2994 11.5291C96.0276 11.3037 95.6895 11.1911 95.2852 11.1911C94.8709 11.1911 94.5262 11.3037 94.2511 11.5291C93.9793 11.7545 93.7754 12.0578 93.6396 12.4389C93.507 12.8168 93.4407 13.2393 93.4407 13.7067C93.4407 14.1707 93.507 14.5916 93.6396 14.9695C93.7754 15.3473 93.9793 15.6489 94.2511 15.8743C94.5262 16.0964 94.8709 16.2074 95.2852 16.2074ZM102.262 13.0256V17.5H100.462V9.86364H102.182V11.1612H102.271C102.447 10.7337 102.727 10.3939 103.112 10.142C103.499 9.89015 103.978 9.7642 104.548 9.7642C105.075 9.7642 105.535 9.87689 105.926 10.1023C106.32 10.3277 106.625 10.6541 106.84 11.0817C107.059 11.5092 107.167 12.0279 107.164 12.6378V17.5H105.364V12.9162C105.364 12.4058 105.231 12.0064 104.966 11.718C104.704 11.4297 104.341 11.2855 103.877 11.2855C103.562 11.2855 103.282 11.3551 103.037 11.4943C102.795 11.6302 102.605 11.8274 102.465 12.0859C102.329 12.3445 102.262 12.6577 102.262 13.0256ZM115.996 17.5H112.545V7.31818H116.065C117.076 7.31818 117.944 7.52202 118.67 7.92969C119.399 8.33404 119.96 8.91572 120.351 9.67472C120.742 10.4337 120.937 11.3419 120.937 12.3991C120.937 13.4598 120.74 14.3712 120.346 15.1335C119.955 15.8958 119.39 16.4808 118.65 16.8885C117.915 17.2962 117.03 17.5 115.996 17.5ZM114.39 15.9041H115.906C116.615 15.9041 117.207 15.7749 117.681 15.5163C118.155 15.2545 118.511 14.8651 118.75 14.348C118.988 13.8277 119.108 13.178 119.108 12.3991C119.108 11.6203 118.988 10.974 118.75 10.4602C118.511 9.94318 118.158 9.55706 117.691 9.30185C117.227 9.04332 116.65 8.91406 115.961 8.91406H114.39V15.9041ZM124.808 17.6541C124.324 17.6541 123.888 17.5679 123.5 17.3956C123.116 17.2199 122.811 16.9614 122.585 16.62C122.363 16.2786 122.252 15.8577 122.252 15.3572C122.252 14.9264 122.332 14.5701 122.491 14.2884C122.65 14.0066 122.867 13.7812 123.142 13.6122C123.417 13.4432 123.727 13.3156 124.072 13.2294C124.42 13.1399 124.78 13.0753 125.151 13.0355C125.598 12.9891 125.961 12.9477 126.24 12.9112C126.518 12.8714 126.72 12.8118 126.846 12.7322C126.975 12.6494 127.04 12.5218 127.04 12.3494V12.3196C127.04 11.9451 126.929 11.6551 126.707 11.4496C126.485 11.2441 126.165 11.1413 125.747 11.1413C125.307 11.1413 124.957 11.2375 124.698 11.4297C124.443 11.6219 124.271 11.849 124.181 12.1108L122.501 11.8722C122.633 11.4081 122.852 11.0204 123.157 10.7088C123.462 10.3939 123.835 10.1586 124.276 10.0028C124.717 9.84375 125.204 9.7642 125.737 9.7642C126.105 9.7642 126.472 9.80729 126.836 9.89347C127.201 9.97964 127.534 10.1222 127.835 10.321C128.137 10.5166 128.379 10.7834 128.561 11.1214C128.747 11.4595 128.84 11.8821 128.84 12.3892V17.5H127.11V16.451H127.05C126.941 16.6631 126.786 16.862 126.588 17.0476C126.392 17.2299 126.145 17.3774 125.847 17.4901C125.552 17.5994 125.205 17.6541 124.808 17.6541ZM125.275 16.3317C125.636 16.3317 125.95 16.2604 126.215 16.1179C126.48 15.9721 126.684 15.7798 126.826 15.5412C126.972 15.3026 127.045 15.0424 127.045 14.7607V13.8608C126.989 13.9072 126.892 13.9503 126.757 13.9901C126.624 14.0298 126.475 14.0646 126.309 14.0945C126.143 14.1243 125.979 14.1508 125.817 14.174C125.655 14.1972 125.514 14.2171 125.394 14.2337C125.126 14.2701 124.886 14.3298 124.673 14.4126C124.461 14.4955 124.294 14.6115 124.171 14.7607C124.049 14.9065 123.987 15.0954 123.987 15.3274C123.987 15.6589 124.108 15.9091 124.35 16.0781C124.592 16.2472 124.901 16.3317 125.275 16.3317ZM134.463 9.86364V11.2557H130.073V9.86364H134.463ZM131.156 8.03409H132.956V15.2031C132.956 15.4451 132.993 15.6307 133.066 15.7599C133.142 15.8859 133.241 15.9721 133.364 16.0185C133.486 16.0649 133.622 16.0881 133.771 16.0881C133.884 16.0881 133.987 16.0798 134.08 16.0632C134.176 16.0466 134.249 16.0317 134.298 16.0185L134.602 17.4254C134.506 17.4586 134.368 17.495 134.189 17.5348C134.013 17.5746 133.798 17.5978 133.543 17.6044C133.092 17.6177 132.686 17.5497 132.325 17.4006C131.963 17.2481 131.677 17.0128 131.465 16.6946C131.256 16.3764 131.153 15.9787 131.156 15.5014V8.03409ZM139.266 17.6491C138.501 17.6491 137.839 17.4901 137.283 17.1719C136.729 16.8504 136.303 16.3963 136.005 15.8097C135.707 15.2197 135.558 14.5253 135.558 13.7266C135.558 12.9411 135.707 12.2517 136.005 11.6584C136.307 11.0618 136.728 10.5978 137.268 10.2663C137.808 9.93158 138.443 9.7642 139.172 9.7642C139.643 9.7642 140.087 9.84044 140.504 9.9929C140.925 10.142 141.296 10.3741 141.618 10.6889C141.943 11.0038 142.198 11.4048 142.384 11.892C142.569 12.3759 142.662 12.9527 142.662 13.6222V14.174H136.403V12.9609H140.937C140.933 12.6162 140.859 12.3097 140.713 12.0412C140.567 11.7694 140.363 11.5556 140.102 11.3999C139.843 11.2441 139.541 11.1662 139.197 11.1662C138.829 11.1662 138.506 11.2557 138.227 11.4347C137.949 11.6103 137.732 11.8423 137.576 12.1307C137.424 12.4157 137.346 12.7289 137.342 13.0703V14.1293C137.342 14.5734 137.424 14.9545 137.586 15.2727C137.748 15.5876 137.975 15.8295 138.267 15.9986C138.559 16.1643 138.9 16.2472 139.291 16.2472C139.553 16.2472 139.79 16.2107 140.002 16.1378C140.214 16.0616 140.398 15.9505 140.554 15.8047C140.71 15.6589 140.827 15.4782 140.907 15.2628L142.587 15.4517C142.481 15.8958 142.279 16.2836 141.981 16.6151C141.686 16.9432 141.308 17.1984 140.847 17.3807C140.387 17.5597 139.86 17.6491 139.266 17.6491Z" fill="black"/>
</svg>
