<svg width="181" height="25" viewBox="0 0 181 25" fill="none" xmlns="http://www.w3.org/2000/svg">
<path d="M9.23242 14.4639C9.56394 14.4639 9.88188 14.3322 10.1163 14.0978C10.3507 13.8633 10.4824 13.5454 10.4824 13.2139C10.4824 12.8823 10.3507 12.5644 10.1163 12.33C9.88188 12.0956 9.56394 11.9639 9.23242 11.9639C8.9009 11.9639 8.58296 12.0956 8.34854 12.33C8.11412 12.5644 7.98242 12.8823 7.98242 13.2139C7.98242 13.5454 8.11412 13.8633 8.34854 14.0978C8.58296 14.3322 8.9009 14.4639 9.23242 14.4639ZM9.23242 17.9639C9.56394 17.9639 9.88188 17.8322 10.1163 17.5978C10.3507 17.3633 10.4824 17.0454 10.4824 16.7139C10.4824 16.3823 10.3507 16.0644 10.1163 15.83C9.88188 15.5956 9.56394 15.4639 9.23242 15.4639C8.9009 15.4639 8.58296 15.5956 8.34854 15.83C8.11412 16.0644 7.98242 16.3823 7.98242 16.7139C7.98242 17.0454 8.11412 17.3633 8.34854 17.5978C8.58296 17.8322 8.9009 17.9639 9.23242 17.9639ZM13.9824 13.2139C13.9824 13.5454 13.8507 13.8633 13.6163 14.0978C13.3819 14.3322 13.0639 14.4639 12.7324 14.4639C12.4009 14.4639 12.083 14.3322 11.8485 14.0978C11.6141 13.8633 11.4824 13.5454 11.4824 13.2139C11.4824 12.8823 11.6141 12.5644 11.8485 12.33C12.083 12.0956 12.4009 11.9639 12.7324 11.9639C13.0639 11.9639 13.3819 12.0956 13.6163 12.33C13.8507 12.5644 13.9824 12.8823 13.9824 13.2139ZM12.7324 17.9639C13.0639 17.9639 13.3819 17.8322 13.6163 17.5978C13.8507 17.3633 13.9824 17.0454 13.9824 16.7139C13.9824 16.3823 13.8507 16.0644 13.6163 15.83C13.3819 15.5956 13.0639 15.4639 12.7324 15.4639C12.4009 15.4639 12.083 15.5956 11.8485 15.83C11.6141 16.0644 11.4824 16.3823 11.4824 16.7139C11.4824 17.0454 11.6141 17.3633 11.8485 17.5978C12.083 17.8322 12.4009 17.9639 12.7324 17.9639ZM17.4824 13.2139C17.4824 13.5454 17.3507 13.8633 17.1163 14.0978C16.8819 14.3322 16.5639 14.4639 16.2324 14.4639C15.9009 14.4639 15.583 14.3322 15.3485 14.0978C15.1141 13.8633 14.9824 13.5454 14.9824 13.2139C14.9824 12.8823 15.1141 12.5644 15.3485 12.33C15.583 12.0956 15.9009 11.9639 16.2324 11.9639C16.5639 11.9639 16.8819 12.0956 17.1163 12.33C17.3507 12.5644 17.4824 12.8823 17.4824 13.2139Z" fill="black"/>
<path fill-rule="evenodd" clip-rule="evenodd" d="M8.73242 3.71387C8.93133 3.71387 9.1221 3.79288 9.26275 3.93354C9.4034 4.07419 9.48242 4.26495 9.48242 4.46387V5.21387H15.9824V4.46387C15.9824 4.26495 16.0614 4.07419 16.2021 3.93354C16.3427 3.79288 16.5335 3.71387 16.7324 3.71387C16.9313 3.71387 17.1221 3.79288 17.2628 3.93354C17.4034 4.07419 17.4824 4.26495 17.4824 4.46387V5.22187C17.6344 5.22587 17.7761 5.2332 17.9074 5.24387C18.2874 5.27387 18.6434 5.34187 18.9804 5.51387C19.498 5.77754 19.9188 6.19831 20.1824 6.71587C20.3544 7.05287 20.4224 7.40887 20.4524 7.78887C20.4824 8.15387 20.4824 8.59887 20.4824 9.13387V16.7939C20.4824 17.3289 20.4824 17.7739 20.4524 18.1389C20.4224 18.5189 20.3544 18.8749 20.1824 19.2119C19.919 19.7293 19.4986 20.15 18.9814 20.4139C18.6434 20.5859 18.2874 20.6539 17.9074 20.6839C17.5424 20.7139 17.0974 20.7139 16.5634 20.7139H8.90242C8.36742 20.7139 7.92242 20.7139 7.55742 20.6839C7.17742 20.6539 6.82142 20.5859 6.48442 20.4139C5.96717 20.1507 5.54643 19.7307 5.28242 19.2139C5.11042 18.8759 5.04242 18.5199 5.01242 18.1399C4.98242 17.7749 4.98242 17.3299 4.98242 16.7959V9.13387C4.98242 8.59887 4.98242 8.15387 5.01242 7.78887C5.04242 7.40887 5.11042 7.05287 5.28242 6.71587C5.54609 6.19831 5.96687 5.77754 6.48442 5.51387C6.82142 5.34187 7.17742 5.27387 7.55742 5.24387C7.68876 5.2332 7.83042 5.22587 7.98242 5.22187V4.46387C7.98242 4.36538 8.00182 4.26785 8.03951 4.17685C8.0772 4.08586 8.13245 4.00318 8.20209 3.93354C8.27174 3.86389 8.35442 3.80865 8.44541 3.77096C8.5364 3.73327 8.63393 3.71387 8.73242 3.71387ZM7.98242 6.96387V6.72187C7.88129 6.72498 7.78026 6.73065 7.67942 6.73887C7.39242 6.76187 7.25542 6.80387 7.16542 6.84987C6.92984 6.96978 6.73833 7.16128 6.61842 7.39687C6.57242 7.48687 6.53042 7.62387 6.50742 7.91087C6.48342 8.20687 6.48242 8.59087 6.48242 9.16387V9.71387H18.9824V9.16387C18.9824 8.59187 18.9824 8.20687 18.9574 7.91087C18.9344 7.62387 18.8924 7.48687 18.8464 7.39687C18.7265 7.16128 18.535 6.96978 18.2994 6.84987C18.2094 6.80387 18.0724 6.76187 17.7844 6.73887C17.6839 6.73066 17.5832 6.72499 17.4824 6.72187V6.96387C17.4824 7.16278 17.4034 7.35355 17.2628 7.4942C17.1221 7.63485 16.9313 7.71387 16.7324 7.71387C16.5335 7.71387 16.3427 7.63485 16.2021 7.4942C16.0614 7.35355 15.9824 7.16278 15.9824 6.96387V6.71387H9.48242V6.96387C9.48242 7.16278 9.4034 7.35355 9.26275 7.4942C9.1221 7.63485 8.93133 7.71387 8.73242 7.71387C8.53351 7.71387 8.34274 7.63485 8.20209 7.4942C8.06144 7.35355 7.98242 7.16278 7.98242 6.96387ZM18.9824 10.7139H6.48242V16.7639C6.48242 17.3359 6.48242 17.7209 6.50742 18.0159C6.53042 18.3039 6.57242 18.4409 6.61842 18.5309C6.73842 18.7669 6.92942 18.9579 7.16542 19.0779C7.25542 19.1239 7.39242 19.1659 7.67942 19.1889C7.97542 19.2129 8.35942 19.2139 8.93242 19.2139H16.5324C17.1044 19.2139 17.4894 19.2139 17.7844 19.1889C18.0724 19.1659 18.2094 19.1239 18.2994 19.0779C18.535 18.958 18.7265 18.7665 18.8464 18.5309C18.8924 18.4409 18.9344 18.3039 18.9574 18.0159C18.9814 17.7209 18.9824 17.3359 18.9824 16.7639V10.7139Z" fill="black"/>
<path fill-rule="evenodd" clip-rule="evenodd" d="M10.4824 8.21387C10.4824 8.01495 10.5614 7.82419 10.7021 7.68354C10.8427 7.54288 11.0335 7.46387 11.2324 7.46387H14.2324C14.4313 7.46387 14.6221 7.54288 14.7628 7.68354C14.9034 7.82419 14.9824 8.01495 14.9824 8.21387C14.9824 8.41278 14.9034 8.60354 14.7628 8.7442C14.6221 8.88485 14.4313 8.96387 14.2324 8.96387H11.2324C11.0335 8.96387 10.8427 8.88485 10.7021 8.7442C10.5614 8.60354 10.4824 8.41278 10.4824 8.21387Z" fill="black"/>
<path d="M34.5811 7.78205V17.9639H32.7367V7.78205H34.5811ZM38.2987 13.4894V17.9639H36.4989V10.3275H38.2191V11.6251H38.3086C38.4843 11.1975 38.7643 10.8578 39.1488 10.6059C39.5366 10.354 40.0155 10.2281 40.5856 10.2281C41.1126 10.2281 41.5716 10.3408 41.9627 10.5661C42.3571 10.7915 42.6621 11.118 42.8775 11.5455C43.0962 11.9731 43.204 12.4918 43.2006 13.1017V17.9639H41.4009V13.3801C41.4009 12.8696 41.2683 12.4703 41.0032 12.1819C40.7414 11.8936 40.3784 11.7494 39.9144 11.7494C39.5996 11.7494 39.3195 11.819 39.0742 11.9582C38.8323 12.0941 38.6417 12.2913 38.5025 12.5498C38.3666 12.8083 38.2987 13.1215 38.2987 13.4894ZM48.8434 10.3275V11.7195H44.4535V10.3275H48.8434ZM45.5373 8.49796H47.337V15.667C47.337 15.9089 47.3735 16.0945 47.4464 16.2238C47.5226 16.3498 47.622 16.4359 47.7447 16.4823C47.8673 16.5287 48.0032 16.5519 48.1523 16.5519C48.265 16.5519 48.3678 16.5436 48.4606 16.5271C48.5567 16.5105 48.6296 16.4956 48.6793 16.4823L48.9826 17.8893C48.8865 17.9224 48.7489 17.9589 48.57 17.9987C48.3943 18.0384 48.1789 18.0616 47.9237 18.0683C47.4729 18.0815 47.0669 18.0136 46.7056 17.8644C46.3443 17.712 46.0576 17.4767 45.8455 17.1585C45.6367 16.8403 45.534 16.4426 45.5373 15.9653V8.49796ZM53.6472 18.113C52.8816 18.113 52.2203 17.9539 51.6635 17.6357C51.11 17.3142 50.6841 16.8602 50.3858 16.2735C50.0875 15.6836 49.9384 14.9892 49.9384 14.1904C49.9384 13.4049 50.0875 12.7155 50.3858 12.1222C50.6874 11.5257 51.1084 11.0616 51.6486 10.7302C52.1889 10.3954 52.8236 10.2281 53.5527 10.2281C54.0234 10.2281 54.4675 10.3043 54.8851 10.4568C55.306 10.6059 55.6773 10.8379 55.9988 11.1528C56.3236 11.4677 56.5788 11.8687 56.7644 12.3559C56.95 12.8398 57.0428 13.4165 57.0428 14.086V14.6379H50.7836V13.4248H55.3176C55.3143 13.0801 55.2398 12.7735 55.0939 12.5051C54.9481 12.2333 54.7443 12.0195 54.4824 11.8637C54.2239 11.7079 53.9223 11.6301 53.5776 11.6301C53.2097 11.6301 52.8865 11.7195 52.6081 11.8985C52.3297 12.0742 52.1126 12.3062 51.9569 12.5945C51.8044 12.8796 51.7265 13.1928 51.7232 13.5342V14.5931C51.7232 15.0373 51.8044 15.4184 51.9668 15.7366C52.1292 16.0515 52.3562 16.2934 52.6479 16.4624C52.9396 16.6282 53.281 16.711 53.6721 16.711C53.9339 16.711 54.1709 16.6746 54.383 16.6017C54.5951 16.5254 54.7791 16.4144 54.9348 16.2686C55.0906 16.1227 55.2083 15.9421 55.2878 15.7267L56.9682 15.9156C56.8622 16.3597 56.66 16.7475 56.3617 17.0789C56.0667 17.407 55.6889 17.6623 55.2282 17.8445C54.7675 18.0235 54.2405 18.113 53.6472 18.113ZM58.5653 17.9639V10.3275H60.3104V11.6002H60.3899C60.5291 11.1594 60.7678 10.8197 61.1058 10.5811C61.4472 10.3391 61.8366 10.2181 62.2741 10.2181C62.3736 10.2181 62.4846 10.2231 62.6072 10.233C62.7332 10.2397 62.8376 10.2513 62.9205 10.2678V11.9234C62.8442 11.8969 62.7232 11.8737 62.5575 11.8538C62.3951 11.8306 62.2377 11.819 62.0852 11.819C61.7571 11.819 61.4621 11.8902 61.2003 12.0328C60.9418 12.172 60.7379 12.3659 60.5888 12.6144C60.4396 12.863 60.3651 13.1497 60.3651 13.4745V17.9639H58.5653ZM71.1696 10.3275L68.4501 17.9639H66.4615L63.742 10.3275H65.661L67.416 16.0001H67.4956L69.2555 10.3275H71.1696ZM72.415 17.9639V10.3275H74.2147V17.9639H72.415ZM73.3198 9.2437C73.0347 9.2437 72.7895 9.14924 72.584 8.96032C72.3785 8.76808 72.2757 8.53773 72.2757 8.26926C72.2757 7.99748 72.3785 7.76713 72.584 7.57821C72.7895 7.38598 73.0347 7.28986 73.3198 7.28986C73.6081 7.28986 73.8534 7.38598 74.0556 7.57821C74.2611 7.76713 74.3638 7.99748 74.3638 8.26926C74.3638 8.53773 74.2611 8.76808 74.0556 8.96032C73.8534 9.14924 73.6081 9.2437 73.3198 9.2437ZM79.446 18.113C78.6804 18.113 78.0192 17.9539 77.4624 17.6357C76.9089 17.3142 76.483 16.8602 76.1847 16.2735C75.8864 15.6836 75.7372 14.9892 75.7372 14.1904C75.7372 13.4049 75.8864 12.7155 76.1847 12.1222C76.4863 11.5257 76.9072 11.0616 77.4474 10.7302C77.9877 10.3954 78.6224 10.2281 79.3516 10.2281C79.8222 10.2281 80.2663 10.3043 80.6839 10.4568C81.1049 10.6059 81.4761 10.8379 81.7976 11.1528C82.1224 11.4677 82.3776 11.8687 82.5632 12.3559C82.7488 12.8398 82.8416 13.4165 82.8416 14.086V14.6379H76.5824V13.4248H81.1165C81.1132 13.0801 81.0386 12.7735 80.8928 12.5051C80.7469 12.2333 80.5431 12.0195 80.2812 11.8637C80.0227 11.7079 79.7211 11.6301 79.3764 11.6301C79.0085 11.6301 78.6854 11.7195 78.407 11.8985C78.1286 12.0742 77.9115 12.3062 77.7557 12.5945C77.6032 12.8796 77.5253 13.1928 77.522 13.5342V14.5931C77.522 15.0373 77.6032 15.4184 77.7656 15.7366C77.928 16.0515 78.1551 16.2934 78.4467 16.4624C78.7384 16.6282 79.0798 16.711 79.4709 16.711C79.7327 16.711 79.9697 16.6746 80.1818 16.6017C80.3939 16.5254 80.5779 16.4144 80.7337 16.2686C80.8894 16.1227 81.0071 15.9421 81.0866 15.7267L82.767 15.9156C82.661 16.3597 82.4588 16.7475 82.1605 17.0789C81.8655 17.407 81.4877 17.6623 81.027 17.8445C80.5663 18.0235 80.0393 18.113 79.446 18.113ZM85.8991 17.9639L83.7415 10.3275H85.576L86.9183 15.6968H86.9879L88.3601 10.3275H90.1747L91.5469 15.667H91.6214L92.9439 10.3275H94.7834L92.6207 17.9639H90.7464L89.3146 12.8034H89.2102L87.7784 17.9639H85.8991ZM103.042 17.9639H99.5922V7.78205H103.112C104.123 7.78205 104.991 7.98588 105.717 8.39355C106.446 8.79791 107.006 9.37959 107.398 10.1386C107.789 10.8976 107.984 11.8057 107.984 12.863C107.984 13.9236 107.787 14.8351 107.393 15.5974C107.001 16.3597 106.436 16.9447 105.697 17.3524C104.961 17.76 104.077 17.9639 103.042 17.9639ZM101.437 16.368H102.953C103.662 16.368 104.254 16.2387 104.728 15.9802C105.202 15.7184 105.558 15.3289 105.797 14.8119C106.035 14.2915 106.155 13.6419 106.155 12.863C106.155 12.0841 106.035 11.4378 105.797 10.9241C105.558 10.407 105.205 10.0209 104.738 9.76571C104.274 9.50719 103.697 9.37793 103.008 9.37793H101.437V16.368ZM111.855 18.118C111.371 18.118 110.935 18.0318 110.547 17.8595C110.163 17.6838 109.858 17.4253 109.632 17.0839C109.41 16.7425 109.299 16.3216 109.299 15.8211C109.299 15.3902 109.379 15.0339 109.538 14.7522C109.697 14.4705 109.914 14.2451 110.189 14.0761C110.464 13.907 110.774 13.7794 111.119 13.6933C111.467 13.6038 111.826 13.5392 112.198 13.4994C112.645 13.453 113.008 13.4115 113.286 13.3751C113.565 13.3353 113.767 13.2757 113.893 13.1961C114.022 13.1133 114.087 12.9856 114.087 12.8133V12.7835C114.087 12.4089 113.976 12.1189 113.754 11.9134C113.532 11.7079 113.212 11.6052 112.794 11.6052C112.353 11.6052 112.004 11.7013 111.745 11.8936C111.49 12.0858 111.318 12.3128 111.228 12.5747L109.548 12.336C109.68 11.872 109.899 11.4842 110.204 11.1727C110.509 10.8578 110.882 10.6225 111.323 10.4667C111.763 10.3076 112.251 10.2281 112.784 10.2281C113.152 10.2281 113.518 10.2712 113.883 10.3573C114.248 10.4435 114.581 10.586 114.882 10.7849C115.184 10.9804 115.426 11.2472 115.608 11.5853C115.794 11.9234 115.887 12.346 115.887 12.8531V17.9639H114.156V16.9149H114.097C113.987 17.127 113.833 17.3258 113.634 17.5115C113.439 17.6937 113.192 17.8412 112.894 17.9539C112.599 18.0633 112.252 18.118 111.855 18.118ZM112.322 16.7955C112.683 16.7955 112.996 16.7243 113.262 16.5818C113.527 16.4359 113.731 16.2437 113.873 16.0051C114.019 15.7664 114.092 15.5062 114.092 15.2245V14.3247C114.035 14.3711 113.939 14.4142 113.803 14.4539C113.671 14.4937 113.522 14.5285 113.356 14.5583C113.19 14.5882 113.026 14.6147 112.864 14.6379C112.701 14.6611 112.561 14.681 112.441 14.6975C112.173 14.734 111.932 14.7936 111.72 14.8765C111.508 14.9594 111.341 15.0754 111.218 15.2245C111.096 15.3704 111.034 15.5593 111.034 15.7913C111.034 16.1227 111.155 16.373 111.397 16.542C111.639 16.711 111.947 16.7955 112.322 16.7955ZM121.509 10.3275V11.7195H117.119V10.3275H121.509ZM118.203 8.49796H120.003V15.667C120.003 15.9089 120.039 16.0945 120.112 16.2238C120.189 16.3498 120.288 16.4359 120.411 16.4823C120.533 16.5287 120.669 16.5519 120.818 16.5519C120.931 16.5519 121.034 16.5436 121.127 16.5271C121.223 16.5105 121.296 16.4956 121.345 16.4823L121.649 17.8893C121.552 17.9224 121.415 17.9589 121.236 17.9987C121.06 18.0384 120.845 18.0616 120.59 18.0683C120.139 18.0815 119.733 18.0136 119.372 17.8644C119.01 17.712 118.724 17.4767 118.512 17.1585C118.303 16.8403 118.2 16.4426 118.203 15.9653V8.49796ZM126.313 18.113C125.548 18.113 124.886 17.9539 124.33 17.6357C123.776 17.3142 123.35 16.8602 123.052 16.2735C122.754 15.6836 122.604 14.9892 122.604 14.1904C122.604 13.4049 122.754 12.7155 123.052 12.1222C123.353 11.5257 123.774 11.0616 124.315 10.7302C124.855 10.3954 125.49 10.2281 126.219 10.2281C126.689 10.2281 127.134 10.3043 127.551 10.4568C127.972 10.6059 128.343 10.8379 128.665 11.1528C128.99 11.4677 129.245 11.8687 129.43 12.3559C129.616 12.8398 129.709 13.4165 129.709 14.086V14.6379H123.45V13.4248H127.984C127.98 13.0801 127.906 12.7735 127.76 12.5051C127.614 12.2333 127.41 12.0195 127.148 11.8637C126.89 11.7079 126.588 11.6301 126.244 11.6301C125.876 11.6301 125.553 11.7195 125.274 11.8985C124.996 12.0742 124.779 12.3062 124.623 12.5945C124.47 12.8796 124.393 13.1928 124.389 13.5342V14.5931C124.389 15.0373 124.47 15.4184 124.633 15.7366C124.795 16.0515 125.022 16.2934 125.314 16.4624C125.606 16.6282 125.947 16.711 126.338 16.711C126.6 16.711 126.837 16.6746 127.049 16.6017C127.261 16.5254 127.445 16.4144 127.601 16.2686C127.757 16.1227 127.874 15.9421 127.954 15.7267L129.634 15.9156C129.528 16.3597 129.326 16.7475 129.028 17.0789C128.733 17.407 128.355 17.6623 127.894 17.8445C127.433 18.0235 126.906 18.113 126.313 18.113ZM137.747 18.113C137.051 18.113 136.452 17.9871 135.952 17.7352C135.451 17.4833 135.065 17.1436 134.794 16.716C134.525 16.2851 134.391 15.7996 134.391 15.2593C134.391 14.8517 134.474 14.4904 134.639 14.1755C134.808 13.8606 135.04 13.569 135.335 13.3005C135.634 13.032 135.978 12.7652 136.369 12.5001L138.174 11.2721C138.439 11.0998 138.64 10.9175 138.776 10.7252C138.915 10.533 138.985 10.3076 138.985 10.0491C138.985 9.83034 138.892 9.62319 138.706 9.42765C138.524 9.2321 138.272 9.13432 137.95 9.13432C137.735 9.13432 137.544 9.18569 137.379 9.28844C137.216 9.38787 137.089 9.51879 136.996 9.6812C136.906 9.8436 136.862 10.016 136.862 10.1982C136.862 10.4203 136.923 10.6457 137.046 10.8744C137.172 11.1031 137.334 11.3401 137.533 11.5853C137.735 11.8306 137.95 12.0908 138.179 12.3659L142.957 17.9639H141.008L137.041 13.4198C136.746 13.0751 136.461 12.7354 136.186 12.4007C135.914 12.0659 135.69 11.7179 135.514 11.3566C135.342 10.992 135.256 10.5976 135.256 10.1734C135.256 9.6928 135.367 9.26358 135.589 8.88574C135.811 8.50459 136.121 8.20463 136.519 7.98588C136.92 7.76713 137.389 7.65776 137.926 7.65776C138.463 7.65776 138.923 7.76382 139.308 7.97594C139.692 8.18806 139.989 8.46979 140.198 8.82111C140.406 9.17244 140.511 9.55525 140.511 9.96955C140.511 10.4501 140.392 10.881 140.153 11.2622C139.914 11.64 139.583 11.983 139.159 12.2913L137.1 13.7977C136.762 14.0429 136.52 14.2915 136.374 14.5434C136.229 14.792 136.156 15.0041 136.156 15.1798C136.156 15.4482 136.224 15.6919 136.36 15.9106C136.495 16.1294 136.686 16.305 136.931 16.4376C137.18 16.5669 137.47 16.6315 137.801 16.6315C138.166 16.6315 138.526 16.5503 138.88 16.3879C139.235 16.2222 139.558 15.9868 139.85 15.6819C140.141 15.377 140.373 15.0124 140.546 14.5882C140.718 14.1606 140.804 13.6866 140.804 13.1663H142.35C142.35 13.8093 142.279 14.3694 142.137 14.8467C141.994 15.3206 141.81 15.7217 141.585 16.0498C141.359 16.3746 141.121 16.6348 140.869 16.8303C140.789 16.8867 140.713 16.943 140.64 16.9994C140.567 17.0557 140.491 17.1121 140.411 17.1684C140.053 17.4932 139.634 17.7319 139.154 17.8843C138.676 18.0368 138.207 18.113 137.747 18.113ZM147.092 9.32821V7.78205H155.216V9.32821H152.069V17.9639H150.239V9.32821H147.092ZM156.702 17.9639V10.3275H158.502V17.9639H156.702ZM157.607 9.2437C157.322 9.2437 157.077 9.14924 156.871 8.96032C156.666 8.76808 156.563 8.53773 156.563 8.26926C156.563 7.99748 156.666 7.76713 156.871 7.57821C157.077 7.38598 157.322 7.28986 157.607 7.28986C157.895 7.28986 158.141 7.38598 158.343 7.57821C158.548 7.76713 158.651 7.99748 158.651 8.26926C158.651 8.53773 158.548 8.76808 158.343 8.96032C158.141 9.14924 157.895 9.2437 157.607 9.2437ZM160.352 17.9639V10.3275H162.073V11.6251H162.162C162.321 11.1876 162.585 10.8462 162.953 10.6009C163.32 10.3524 163.76 10.2281 164.27 10.2281C164.787 10.2281 165.223 10.354 165.578 10.6059C165.936 10.8545 166.187 11.1942 166.333 11.6251H166.413C166.582 11.2008 166.867 10.8628 167.268 10.6109C167.672 10.3557 168.151 10.2281 168.705 10.2281C169.407 10.2281 169.981 10.4501 170.425 10.8943C170.869 11.3384 171.091 11.9864 171.091 12.8382V17.9639H169.286V13.1166C169.286 12.6426 169.16 12.2963 168.909 12.0775C168.657 11.8554 168.348 11.7444 167.984 11.7444C167.55 11.7444 167.21 11.8803 166.965 12.1521C166.723 12.4205 166.602 12.7702 166.602 13.2011V17.9639H164.837V13.042C164.837 12.6476 164.718 12.3327 164.479 12.0974C164.244 11.8621 163.935 11.7444 163.554 11.7444C163.296 11.7444 163.06 11.8107 162.848 11.9433C162.636 12.0725 162.467 12.2565 162.341 12.4951C162.215 12.7304 162.152 13.0055 162.152 13.3204V17.9639H160.352ZM176.298 18.113C175.532 18.113 174.871 17.9539 174.314 17.6357C173.76 17.3142 173.335 16.8602 173.036 16.2735C172.738 15.6836 172.589 14.9892 172.589 14.1904C172.589 13.4049 172.738 12.7155 173.036 12.1222C173.338 11.5257 173.759 11.0616 174.299 10.7302C174.839 10.3954 175.474 10.2281 176.203 10.2281C176.674 10.2281 177.118 10.3043 177.536 10.4568C177.956 10.6059 178.328 10.8379 178.649 11.1528C178.974 11.4677 179.229 11.8687 179.415 12.3559C179.6 12.8398 179.693 13.4165 179.693 14.086V14.6379H173.434V13.4248H177.968C177.965 13.0801 177.89 12.7735 177.744 12.5051C177.598 12.2333 177.395 12.0195 177.133 11.8637C176.874 11.7079 176.573 11.6301 176.228 11.6301C175.86 11.6301 175.537 11.7195 175.259 11.8985C174.98 12.0742 174.763 12.3062 174.607 12.5945C174.455 12.8796 174.377 13.1928 174.374 13.5342V14.5931C174.374 15.0373 174.455 15.4184 174.617 15.7366C174.78 16.0515 175.007 16.2934 175.298 16.4624C175.59 16.6282 175.931 16.711 176.322 16.711C176.584 16.711 176.821 16.6746 177.033 16.6017C177.246 16.5254 177.429 16.4144 177.585 16.2686C177.741 16.1227 177.859 15.9421 177.938 15.7267L179.619 15.9156C179.513 16.3597 179.31 16.7475 179.012 17.0789C178.717 17.407 178.339 17.6623 177.879 17.8445C177.418 18.0235 176.891 18.113 176.298 18.113Z" fill="black"/>
</svg>
