<svg width="24" height="25" viewBox="0 0 24 25" fill="none" xmlns="http://www.w3.org/2000/svg">
<path fill-rule="evenodd" clip-rule="evenodd" d="M18.412 7.45026L17.611 21.0673C17.5812 21.5766 17.3577 22.0553 16.9865 22.4054C16.6153 22.7554 16.1243 22.9504 15.614 22.9503H8.386C7.87575 22.9504 7.38475 22.7554 7.0135 22.4054C6.64226 22.0553 6.41885 21.5766 6.389 21.0673L5.59 7.45026H3.5V6.45026C3.5 6.31765 3.55268 6.19047 3.64645 6.0967C3.74021 6.00293 3.86739 5.95026 4 5.95026H20C20.1326 5.95026 20.2598 6.00293 20.3536 6.0967C20.4473 6.19047 20.5 6.31765 20.5 6.45026V7.45026H18.412ZM10 3.45026H14C14.1326 3.45026 14.2598 3.50293 14.3536 3.5967C14.4473 3.69047 14.5 3.81765 14.5 3.95026V4.95026H9.5V3.95026C9.5 3.81765 9.55268 3.69047 9.64645 3.5967C9.74021 3.50293 9.86739 3.45026 10 3.45026ZM9 9.95026L9.5 18.9503H11L10.6 9.95026H9ZM13.5 9.95026L13 18.9503H14.5L15 9.95026H13.5Z" fill="#F02E2E"/>
</svg>
