<svg width="25" height="25" viewBox="0 0 25 25" fill="none" xmlns="http://www.w3.org/2000/svg">
<g clip-path="url(#clip0_128_255)">
<path d="M8.86055 0.853886C6.46258 1.68576 4.39457 3.2647 2.96029 5.35876C1.526 7.45283 0.801037 9.95166 0.891883 12.4882C0.982728 15.0247 1.88459 17.4653 3.46501 19.4514C5.04543 21.4375 7.22109 22.8644 9.67243 23.5226C11.6598 24.0354 13.7419 24.058 15.7399 23.5883C17.5499 23.1817 19.2233 22.3121 20.5962 21.0645C22.0251 19.7264 23.0622 18.0242 23.5962 16.1408C24.1765 14.0926 24.2798 11.9388 23.8981 9.84451H12.7381V14.4739H19.2012C19.072 15.2122 18.7952 15.9169 18.3873 16.5458C17.9795 17.1747 17.4489 17.7148 16.8274 18.1339C16.0382 18.6559 15.1485 19.0072 14.2156 19.1651C13.2798 19.3391 12.32 19.3391 11.3843 19.1651C10.4359 18.9691 9.53874 18.5776 8.74993 18.0158C7.48271 17.1187 6.5312 15.8444 6.03118 14.3745C5.52271 12.8771 5.52271 11.2538 6.03118 9.75639C6.3871 8.70679 6.97549 7.75114 7.75243 6.96076C8.64154 6.03966 9.76718 5.38125 11.0058 5.05778C12.2445 4.7343 13.5484 4.75826 14.7743 5.12701C15.732 5.42099 16.6078 5.93464 17.3318 6.62701C18.0606 5.90201 18.7881 5.17514 19.5143 4.44639C19.8893 4.05451 20.2981 3.68139 20.6674 3.28014C19.5622 2.25165 18.265 1.45137 16.8499 0.925136C14.2731 -0.0105084 11.4536 -0.035653 8.86055 0.853886Z" fill="white"/>
<path d="M8.8607 0.85382C11.4536 -0.0363229 14.2731 -0.0118403 16.8501 0.923195C18.2654 1.453 19.562 2.25714 20.6657 3.28945C20.2907 3.6907 19.8951 4.0657 19.5126 4.4557C18.7851 5.18195 18.0582 5.9057 17.332 6.62695C16.6079 5.93458 15.7321 5.42093 14.7745 5.12695C13.5489 4.7569 12.2451 4.73156 11.0061 5.05371C9.76712 5.37586 8.64079 6.03306 7.7507 6.9532C6.97377 7.74357 6.38538 8.69923 6.02945 9.74882L2.14258 6.73944C3.53384 3.9805 5.94273 1.87012 8.8607 0.85382Z" fill="#E33629"/>
<path d="M1.11116 9.72051C1.32007 8.68512 1.66691 7.68243 2.14241 6.73926L6.02928 9.75613C5.52081 11.2535 5.52081 12.8769 6.02928 14.3743C4.73428 15.3743 3.43866 16.3793 2.14241 17.3893C0.952064 15.0199 0.589031 12.3202 1.11116 9.72051Z" fill="#F8BD00"/>
<path d="M12.7381 9.84277H23.8981C24.2799 11.937 24.1766 14.0909 23.5963 16.139C23.0623 18.0224 22.0252 19.7247 20.5963 21.0628C19.3419 20.084 18.0819 19.1128 16.8275 18.134C17.4494 17.7145 17.9802 17.1738 18.3881 16.5443C18.796 15.9147 19.0726 15.2093 19.2013 14.4703H12.7381C12.7363 12.929 12.7381 11.3859 12.7381 9.84277Z" fill="#587DBD"/>
<path d="M2.14062 17.3895C3.43687 16.3895 4.7325 15.3845 6.0275 14.3745C6.52851 15.8449 7.48138 17.1193 8.75 18.0158C9.54127 18.575 10.4404 18.9633 11.39 19.1558C12.3257 19.3298 13.2855 19.3298 14.2213 19.1558C15.1542 18.9978 16.0439 18.6466 16.8331 18.1245C18.0875 19.1033 19.3475 20.0745 20.6019 21.0533C19.2292 22.3015 17.5558 23.1718 15.7456 23.5789C13.7476 24.0486 11.6655 24.0261 9.67813 23.5133C8.10632 23.0936 6.63814 22.3538 5.36563 21.3401C4.01874 20.2708 2.91867 18.9232 2.14062 17.3895Z" fill="#319F43"/>
</g>
<defs>
<clipPath id="clip0_128_255">
<rect width="24" height="24" fill="white" transform="translate(0.5 0.0644531)"/>
</clipPath>
</defs>
</svg>
