<svg width="34" height="34" viewBox="0 0 34 34" fill="none" xmlns="http://www.w3.org/2000/svg">
<path d="M30.8125 1.31103H3.1875C2.56071 1.30484 1.95698 1.54024 1.5088 1.96557C1.06062 2.39091 0.804581 2.97144 0.796875 3.57978V30.5006C0.805975 31.108 1.06262 31.6872 1.51065 32.1114C1.95869 32.5357 2.56162 32.7704 3.1875 32.7642H30.8125C31.4393 32.769 32.0426 32.5328 32.4906 32.1072C32.9386 31.6816 33.1947 31.1012 33.2031 30.4928V3.57205C33.1919 2.96549 32.9346 2.38773 32.4869 1.96434C32.0393 1.54096 31.4375 1.30618 30.8125 1.31103Z" fill="#0076B2"/>
<path d="M5.59417 13.1008H10.4046V28.1235H5.59417V13.1008ZM8.00073 5.62424C8.55247 5.62424 9.09181 5.78307 9.55053 6.08063C10.0092 6.3782 10.3667 6.80113 10.5777 7.29593C10.7888 7.79072 10.8438 8.33515 10.736 8.86033C10.6282 9.38552 10.3623 9.86786 9.97196 10.2463C9.58163 10.6248 9.08442 10.8824 8.54322 10.9866C8.00202 11.0908 7.44115 11.0368 6.93156 10.8315C6.42198 10.6262 5.98657 10.2788 5.68042 9.83334C5.37427 9.38783 5.21115 8.8642 5.21167 8.32869C5.21238 7.61119 5.50653 6.92331 6.02951 6.4162C6.55248 5.90909 7.26149 5.62424 8.00073 5.62424ZM13.4221 13.1008H18.0334V15.1633H18.0971C18.74 13.9825 20.3071 12.7373 22.6473 12.7373C27.5189 12.727 28.422 15.8388 28.422 19.8735V28.1235H23.6115V20.8146C23.6115 19.0743 23.5796 16.8339 21.112 16.8339C18.6443 16.8339 18.2246 18.7314 18.2246 20.7011V28.1235H13.4221V13.1008Z" fill="white"/>
</svg>
