<svg width="33" height="34" viewBox="0 0 33 34" fill="none" xmlns="http://www.w3.org/2000/svg">
<path d="M30.0737 1.78284H2.92863C1.99885 1.78284 1.24512 2.53657 1.24512 3.46635V30.6114C1.24512 31.5412 1.99885 32.2949 2.92863 32.2949H30.0737C31.0035 32.2949 31.7572 31.5412 31.7572 30.6114V3.46635C31.7572 2.53657 31.0035 1.78284 30.0737 1.78284Z" fill="#3D5A98"/>
<path d="M22.2957 32.2924V20.4768H26.2608L26.8538 15.8723H22.2957V12.9332C22.2957 11.6003 22.6669 10.6903 24.5773 10.6903H27.0162V6.56527C25.8352 6.44241 24.6484 6.38388 23.461 6.38995C19.9496 6.38995 17.5313 8.5298 17.5313 12.4769V15.8723H13.5662V20.4768H17.5313V32.2924H22.2957Z" fill="white"/>
</svg>
