<svg width="19" height="18" viewBox="0 0 19 18" fill="none" xmlns="http://www.w3.org/2000/svg">
<path fill-rule="evenodd" clip-rule="evenodd" d="M9.87061 18C11.4965 18.0001 13.092 17.5598 14.4877 16.7259C15.8834 15.8919 17.0272 14.6955 17.7974 13.2636C18.5676 11.8318 18.9356 10.218 18.8622 8.59378C18.7888 6.96956 18.2768 5.39556 17.3806 4.039L10.2256 11.989C9.8914 12.3604 9.43027 12.5933 8.93299 12.6418C8.4357 12.6903 7.93827 12.5509 7.53861 12.251L4.27061 9.8C4.05844 9.64087 3.91817 9.40397 3.88066 9.14142C3.84315 8.87887 3.91148 8.61217 4.07061 8.4C4.22974 8.18783 4.46664 8.04756 4.72919 8.01005C4.99174 7.97254 5.25844 8.04087 5.47061 8.2L8.73861 10.651L16.0846 2.49C15.0204 1.47411 13.7234 0.734601 12.3071 0.336222C10.8908 -0.0621564 9.39849 -0.107256 7.96074 0.204872C6.52299 0.517001 5.18368 1.17684 4.06008 2.12661C2.93648 3.07639 2.06285 4.28713 1.51569 5.65284C0.968524 7.01855 0.76451 8.49757 0.92151 9.96041C1.07851 11.4233 1.59174 12.8253 2.41625 14.0438C3.24077 15.2623 4.35142 16.2601 5.65098 16.9498C6.95054 17.6395 8.39937 18.0001 9.87061 18Z" fill="#008A3E"/>
</svg>
