<svg width="70" height="25" viewBox="0 0 70 25" fill="none" xmlns="http://www.w3.org/2000/svg">
<path d="M22 6.46387C22 5.36387 21.1 4.46387 20 4.46387H4C2.9 4.46387 2 5.36387 2 6.46387V18.4639C2 19.5639 2.9 20.4639 4 20.4639H20C21.1 20.4639 22 19.5639 22 18.4639V6.46387ZM20 6.46387L12 11.4639L4 6.46387H20ZM20 18.4639H4V8.46387L12 13.4639L20 8.46387V18.4639Z" fill="black"/>
<path d="M34.0043 17.9639V7.78205H40.6264V9.32821H35.8487V12.0924H40.2834V13.6386H35.8487V16.4177H40.6662V17.9639H34.0043ZM42.4286 17.9639V10.3275H44.1488V11.6251H44.2383C44.3974 11.1876 44.6609 10.8462 45.0288 10.6009C45.3967 10.3524 45.8358 10.2281 46.3462 10.2281C46.8633 10.2281 47.2991 10.354 47.6538 10.6059C48.0117 10.8545 48.2636 11.1942 48.4094 11.6251H48.489C48.658 11.2008 48.9431 10.8628 49.3441 10.6109C49.7485 10.3557 50.2274 10.2281 50.7809 10.2281C51.4835 10.2281 52.0569 10.4501 52.5011 10.8943C52.9452 11.3384 53.1673 11.9864 53.1673 12.8382V17.9639H51.3626V13.1166C51.3626 12.6426 51.2366 12.2963 50.9847 12.0775C50.7328 11.8554 50.4246 11.7444 50.06 11.7444C49.6258 11.7444 49.2861 11.8803 49.0408 12.1521C48.7989 12.4205 48.6779 12.7702 48.6779 13.2011V17.9639H46.913V13.042C46.913 12.6476 46.7937 12.3327 46.555 12.0974C46.3197 11.8621 46.0115 11.7444 45.6303 11.7444C45.3718 11.7444 45.1365 11.8107 44.9244 11.9433C44.7122 12.0725 44.5432 12.2565 44.4173 12.4951C44.2913 12.7304 44.2283 13.0055 44.2283 13.3204V17.9639H42.4286ZM57.1905 18.118C56.7066 18.118 56.2708 18.0318 55.883 17.8595C55.4985 17.6838 55.1936 17.4253 54.9682 17.0839C54.7462 16.7425 54.6351 16.3216 54.6351 15.8211C54.6351 15.3902 54.7147 15.0339 54.8738 14.7522C55.0328 14.4705 55.2499 14.2451 55.525 14.0761C55.8001 13.907 56.11 13.7794 56.4547 13.6933C56.8027 13.6038 57.1623 13.5392 57.5336 13.4994C57.981 13.453 58.3439 13.4115 58.6223 13.3751C58.9007 13.3353 59.1029 13.2757 59.2289 13.1961C59.3581 13.1133 59.4228 12.9856 59.4228 12.8133V12.7835C59.4228 12.4089 59.3117 12.1189 59.0897 11.9134C58.8676 11.7079 58.5478 11.6052 58.1301 11.6052C57.6893 11.6052 57.3397 11.7013 57.0811 11.8936C56.8259 12.0858 56.6536 12.3128 56.5641 12.5747L54.8837 12.336C55.0163 11.872 55.235 11.4842 55.54 11.1727C55.8449 10.8578 56.2177 10.6225 56.6586 10.4667C57.0994 10.3076 57.5866 10.2281 58.1202 10.2281C58.4881 10.2281 58.8543 10.2712 59.2189 10.3573C59.5835 10.4435 59.9166 10.586 60.2182 10.7849C60.5198 10.9804 60.7618 11.2472 60.9441 11.5853C61.1297 11.9234 61.2225 12.346 61.2225 12.8531V17.9639H59.4924V16.9149H59.4327C59.3233 17.127 59.1692 17.3258 58.9703 17.5115C58.7748 17.6937 58.5279 17.8412 58.2296 17.9539C57.9346 18.0633 57.5882 18.118 57.1905 18.118ZM57.6578 16.7955C58.0191 16.7955 58.3323 16.7243 58.5975 16.5818C58.8626 16.4359 59.0665 16.2437 59.209 16.0051C59.3548 15.7664 59.4277 15.5062 59.4277 15.2245V14.3247C59.3714 14.3711 59.2753 14.4142 59.1394 14.4539C59.0068 14.4937 58.8577 14.5285 58.6919 14.5583C58.5262 14.5882 58.3622 14.6147 58.1998 14.6379C58.0373 14.6611 57.8965 14.681 57.7772 14.6975C57.5087 14.734 57.2684 14.7936 57.0563 14.8765C56.8442 14.9594 56.6768 15.0754 56.5542 15.2245C56.4315 15.3704 56.3702 15.5593 56.3702 15.7913C56.3702 16.1227 56.4912 16.373 56.7331 16.542C56.9751 16.711 57.2833 16.7955 57.6578 16.7955ZM63.0321 17.9639V10.3275H64.8319V17.9639H63.0321ZM63.937 9.2437C63.6519 9.2437 63.4067 9.14924 63.2012 8.96032C62.9957 8.76808 62.8929 8.53773 62.8929 8.26926C62.8929 7.99748 62.9957 7.76713 63.2012 7.57821C63.4067 7.38598 63.6519 7.28986 63.937 7.28986C64.2253 7.28986 64.4706 7.38598 64.6728 7.57821C64.8783 7.76713 64.981 7.99748 64.981 8.26926C64.981 8.53773 64.8783 8.76808 64.6728 8.96032C64.4706 9.14924 64.2253 9.2437 63.937 9.2437ZM68.4822 7.78205V17.9639H66.6825V7.78205H68.4822Z" fill="black"/>
</svg>
