<svg width="25" height="25" viewBox="0 0 25 25" fill="none" xmlns="http://www.w3.org/2000/svg">
<path d="M8.78271 10.5C8.78271 9.63805 9.12512 8.8114 9.73462 8.2019C10.3441 7.59241 11.1708 7.25 12.0327 7.25C12.8947 7.25 13.7213 7.59241 14.3308 8.2019C14.9403 8.8114 15.2827 9.63805 15.2827 10.5C15.2827 11.362 14.9403 12.1886 14.3308 12.7981C13.7213 13.4076 12.8947 13.75 12.0327 13.75C11.1708 13.75 10.3441 13.4076 9.73462 12.7981C9.12512 12.1886 8.78271 11.362 8.78271 10.5Z" fill="black"/>
<path fill-rule="evenodd" clip-rule="evenodd" d="M3.80654 9.377C3.97288 7.36675 4.88877 5.49247 6.37251 4.12598C7.85625 2.7595 9.79943 2.00066 11.8165 2H12.2485C14.2657 2.00066 16.2088 2.7595 17.6926 4.12598C19.1763 5.49247 20.0922 7.36675 20.2585 9.377C20.4431 11.6214 19.7502 13.8499 18.3255 15.594L13.5325 21.456C13.3509 21.6783 13.1221 21.8575 12.8626 21.9806C12.6032 22.1036 12.3197 22.1675 12.0325 22.1675C11.7454 22.1675 11.4619 22.1036 11.2025 21.9806C10.943 21.8575 10.7142 21.6783 10.5325 21.456L5.74055 15.594C4.31551 13.8501 3.62224 11.6215 3.80654 9.377ZM12.0325 5.75C10.7728 5.75 9.56459 6.25045 8.67379 7.14124C7.78299 8.03204 7.28254 9.24022 7.28254 10.5C7.28254 11.7598 7.78299 12.968 8.67379 13.8588C9.56459 14.7496 10.7728 15.25 12.0325 15.25C13.2923 15.25 14.5005 14.7496 15.3913 13.8588C16.2821 12.968 16.7825 11.7598 16.7825 10.5C16.7825 9.24022 16.2821 8.03204 15.3913 7.14124C14.5005 6.25045 13.2923 5.75 12.0325 5.75Z" fill="black"/>
</svg>
