<svg width="20" height="20" viewBox="0 0 20 20" fill="none" xmlns="http://www.w3.org/2000/svg">
<path d="M18.4023 9.49592C17.7157 8.04944 16.8987 6.86975 15.9512 5.95686L14.9574 6.95061C15.7678 7.72503 16.4736 8.73811 17.084 9.99983C15.459 13.3631 13.1523 14.9608 9.99999 14.9608C9.05377 14.9608 8.18222 14.8151 7.38534 14.5237L6.30858 15.6004C7.41536 16.1115 8.64582 16.367 9.99999 16.367C13.7539 16.367 16.5547 14.4119 18.4023 10.5018C18.4766 10.3445 18.5151 10.1728 18.5151 9.99885C18.5151 9.82494 18.4766 9.65318 18.4023 9.49592ZM17.1607 3.23342L16.3281 2.39983C16.3136 2.3853 16.2964 2.37378 16.2774 2.36591C16.2584 2.35805 16.2381 2.354 16.2176 2.354C16.197 2.354 16.1767 2.35805 16.1577 2.36591C16.1388 2.37378 16.1215 2.3853 16.107 2.39983L13.9709 4.53499C12.7932 3.93342 11.4695 3.63264 9.99999 3.63264C6.24608 3.63264 3.4453 5.58772 1.59765 9.49788C1.52338 9.65514 1.48486 9.82689 1.48486 10.0008C1.48486 10.1747 1.52338 10.3465 1.59765 10.5037C2.3358 12.0584 3.22447 13.3046 4.26366 14.2422L2.19687 16.3084C2.16759 16.3377 2.15114 16.3775 2.15114 16.4189C2.15114 16.4603 2.16759 16.5 2.19687 16.5293L3.03065 17.3631C3.05995 17.3924 3.09968 17.4088 3.1411 17.4088C3.18253 17.4088 3.22225 17.3924 3.25155 17.3631L17.1607 3.45452C17.1753 3.44001 17.1868 3.42277 17.1946 3.40381C17.2025 3.38484 17.2066 3.3645 17.2066 3.34397C17.2066 3.32344 17.2025 3.3031 17.1946 3.28414C17.1868 3.26517 17.1753 3.24794 17.1607 3.23342ZM2.91601 9.99983C4.54296 6.63655 6.8496 5.03889 9.99999 5.03889C11.0652 5.03889 12.0338 5.22171 12.9125 5.59338L11.5394 6.96643C10.8892 6.61948 10.1446 6.49072 9.41563 6.59914C8.68662 6.70755 8.01176 7.04741 7.4906 7.56856C6.96944 8.08972 6.62959 8.76458 6.52117 9.49359C6.41276 10.2226 6.54152 10.9672 6.88847 11.6174L5.25917 13.2467C4.35741 12.4508 3.58007 11.3725 2.91601 9.99983ZM7.73437 9.99983C7.73471 9.65543 7.81629 9.31596 7.97247 9.009C8.12866 8.70205 8.35505 8.43627 8.63326 8.23325C8.91146 8.03023 9.23363 7.89569 9.5736 7.84058C9.91356 7.78546 10.2617 7.81132 10.5898 7.91604L7.83808 10.6678C7.7691 10.4519 7.73412 10.2265 7.73437 9.99983Z" fill="#8A8A8A"/>
<path d="M9.9219 12.1874C9.85432 12.1874 9.78772 12.1843 9.7217 12.1782L8.69006 13.2099C9.31055 13.4475 9.98659 13.5003 10.6365 13.3619C11.2863 13.2235 11.8822 12.8998 12.352 12.43C12.8218 11.9602 13.1455 11.3643 13.2839 10.7145C13.4223 10.0646 13.3695 9.38856 13.1319 8.76807L12.1002 9.79971C12.1063 9.86572 12.1094 9.93232 12.1094 9.9999C12.1096 10.2872 12.0531 10.5717 11.9432 10.8372C11.8333 11.1027 11.6722 11.3439 11.469 11.547C11.2659 11.7502 11.0247 11.9113 10.7592 12.0212C10.4937 12.1311 10.2092 12.1876 9.9219 12.1874Z" fill="#8A8A8A"/>
</svg>
