<svg width="535" height="546" viewBox="0 0 535 546" fill="none" xmlns="http://www.w3.org/2000/svg">
<rect x="42" width="447" height="546" rx="63.3063" fill="#002E5B"/>
<rect x="89" y="47" width="353" height="55" rx="14.8956" fill="url(#paint0_linear_34_340)"/>
<rect y="129" width="535" height="83" rx="14.8956" fill="#F4A120"/>
<path d="M81.6166 175H79.7243V169.629H73.4366V175H71.5359V162.756H73.4366V167.898H79.7243V162.756H81.6166V175ZM88.2692 167.134C86.92 167.134 85.9781 168.084 85.8763 169.527H90.5433C90.5008 168.076 89.6183 167.134 88.2692 167.134ZM90.5348 172.505H92.2913C91.8755 174.16 90.399 175.178 88.2861 175.178C85.6387 175.178 84.018 173.362 84.018 170.409C84.018 167.456 85.6726 165.581 88.2776 165.581C90.8487 165.581 92.4016 167.338 92.4016 170.24V170.876H85.8763V170.978C85.9357 172.599 86.8775 173.625 88.337 173.625C89.4402 173.625 90.1954 173.227 90.5348 172.505ZM97.6116 173.617C98.9863 173.617 100.005 172.743 100.005 171.597V170.825L97.7474 170.969C96.4746 171.054 95.8976 171.487 95.8976 172.302C95.8976 173.133 96.6188 173.617 97.6116 173.617ZM97.1449 175.153C95.363 175.153 94.0647 174.075 94.0647 172.386C94.0647 170.723 95.3036 169.764 97.5013 169.629L100.005 169.484V168.687C100.005 167.711 99.3596 167.159 98.1123 167.159C97.094 167.159 96.3897 167.533 96.1861 168.186H94.4211C94.6078 166.599 96.1012 165.581 98.1971 165.581C100.514 165.581 101.82 166.735 101.82 168.687V175H100.064V173.702H99.9197C99.3681 174.627 98.3584 175.153 97.1449 175.153ZM107.794 175.153C105.444 175.153 103.959 173.303 103.959 170.375C103.959 167.456 105.461 165.607 107.794 165.607C109.059 165.607 110.128 166.209 110.628 167.227H110.764V162.153H112.588V175H110.84V173.541H110.696C110.145 174.55 109.067 175.153 107.794 175.153ZM108.312 167.244C106.776 167.244 105.843 168.432 105.843 170.375C105.843 172.336 106.767 173.515 108.312 173.515C109.848 173.515 110.798 172.319 110.798 170.384C110.798 168.458 109.839 167.244 108.312 167.244ZM115.363 175V165.759H117.179V175H115.363ZM116.271 164.139C115.592 164.139 115.092 163.655 115.092 163.027C115.092 162.391 115.592 161.907 116.271 161.907C116.95 161.907 117.451 162.391 117.451 163.027C117.451 163.655 116.95 164.139 116.271 164.139ZM119.86 175V165.759H121.617V167.227H121.753C122.202 166.201 123.119 165.581 124.51 165.581C126.572 165.581 127.71 166.82 127.71 169.018V175H125.885V169.476C125.885 167.991 125.24 167.253 123.891 167.253C122.542 167.253 121.685 168.152 121.685 169.595V175H119.86ZM134.15 173.286C135.711 173.286 136.653 172.115 136.653 170.265C136.653 168.424 135.703 167.244 134.15 167.244C132.58 167.244 131.698 168.424 131.698 170.265C131.698 172.106 132.58 173.286 134.15 173.286ZM134.175 178.53C131.867 178.53 130.374 177.495 130.179 175.925H132.046C132.198 176.595 132.97 177.028 134.201 177.028C135.72 177.028 136.619 176.307 136.619 175.085V173.311H136.483C135.923 174.313 134.905 174.864 133.632 174.864C131.273 174.864 129.814 173.04 129.814 170.274C129.814 167.456 131.29 165.607 133.649 165.607C134.922 165.607 136.034 166.235 136.551 167.236H136.696V165.759H138.444V175.076C138.444 177.189 136.789 178.53 134.175 178.53Z" fill="white"/>
<path d="M208.955 176V166.529H208.821L205.969 168.546V166.742L208.963 164.63H210.72V176H208.955ZM218.442 176V167.419H220.073V168.783H220.199C220.617 167.829 221.468 167.254 222.76 167.254C224.675 167.254 225.731 168.404 225.731 170.445V176H224.036V170.871C224.036 169.492 223.438 168.806 222.185 168.806C220.932 168.806 220.136 169.641 220.136 170.981V176H218.442ZM231.64 168.696C230.387 168.696 229.513 169.578 229.418 170.918H233.752C233.712 169.57 232.893 168.696 231.64 168.696ZM233.744 173.683H235.375C234.989 175.22 233.618 176.165 231.656 176.165C229.197 176.165 227.693 174.479 227.693 171.737C227.693 168.995 229.229 167.254 231.648 167.254C234.035 167.254 235.477 168.885 235.477 171.58V172.171H229.418V172.265C229.473 173.77 230.348 174.724 231.703 174.724C232.727 174.724 233.429 174.353 233.744 173.683ZM248.62 167.419L246.264 176H244.507L242.734 169.681H242.6L240.835 176H239.094L236.73 167.419H238.448L239.984 173.967H240.11L241.875 167.419H243.498L245.263 173.967H245.397L246.926 167.419H248.62ZM256.499 167.419V176.355C256.499 178.112 255.593 178.931 253.734 178.931C253.671 178.931 253.395 178.931 253.356 178.923V177.505C253.379 177.505 253.568 177.505 253.592 177.505C254.498 177.505 254.813 177.166 254.813 176.339V167.419H256.499ZM255.656 165.914C255.026 165.914 254.561 165.465 254.561 164.882C254.561 164.291 255.026 163.842 255.656 163.842C256.287 163.842 256.752 164.291 256.752 164.882C256.752 165.465 256.287 165.914 255.656 165.914ZM262.614 176.165C260.1 176.165 258.564 174.487 258.564 171.706C258.564 168.94 260.108 167.254 262.614 167.254C265.111 167.254 266.656 168.94 266.656 171.706C266.656 174.487 265.119 176.165 262.614 176.165ZM262.614 174.661C264.079 174.661 264.915 173.573 264.915 171.706C264.915 169.846 264.079 168.759 262.614 168.759C261.14 168.759 260.313 169.846 260.313 171.706C260.313 173.581 261.14 174.661 262.614 174.661ZM273.243 176.142C272.045 176.142 271.045 175.59 270.532 174.645H270.406V176H268.775V164.071H270.469V168.783H270.603C271.06 167.845 272.069 167.278 273.243 167.278C275.418 167.278 276.789 168.98 276.789 171.706C276.789 174.424 275.41 176.142 273.243 176.142ZM272.754 168.798C271.336 168.798 270.446 169.917 270.438 171.714C270.446 173.51 271.328 174.621 272.754 174.621C274.188 174.621 275.047 173.526 275.047 171.706C275.047 169.901 274.188 168.798 272.754 168.798ZM283.849 176V168.885H282.438V167.459H283.849V166.537C283.849 164.835 284.715 163.992 286.496 163.992C286.882 163.992 287.213 164.023 287.505 164.079V165.41C287.347 165.379 287.118 165.363 286.851 165.363C285.905 165.363 285.519 165.788 285.519 166.639V167.459H287.434V168.885H285.543V176H283.849ZM292.65 176.165C290.136 176.165 288.6 174.487 288.6 171.706C288.6 168.94 290.144 167.254 292.65 167.254C295.148 167.254 296.692 168.94 296.692 171.706C296.692 174.487 295.155 176.165 292.65 176.165ZM292.65 174.661C294.115 174.661 294.951 173.573 294.951 171.706C294.951 169.846 294.115 168.759 292.65 168.759C291.176 168.759 290.349 169.846 290.349 171.706C290.349 173.581 291.176 174.661 292.65 174.661ZM298.733 176V167.419H300.364V168.735H300.49C300.734 167.892 301.687 167.278 302.806 167.278C303.058 167.278 303.381 167.301 303.563 167.348V169.019C303.421 168.972 302.917 168.916 302.617 168.916C301.333 168.916 300.427 169.728 300.427 170.934V176H298.733ZM310.213 176V168.885H308.802V167.459H310.213V166.537C310.213 164.835 311.08 163.992 312.86 163.992C313.246 163.992 313.577 164.023 313.869 164.079V165.41C313.711 165.379 313.483 165.363 313.215 165.363C312.269 165.363 311.883 165.788 311.883 166.639V167.459H313.798V168.885H311.907V176H310.213ZM315.72 176V167.419H317.352V168.735H317.478C317.722 167.892 318.675 167.278 319.794 167.278C320.046 167.278 320.369 167.301 320.551 167.348V169.019C320.409 168.972 319.904 168.916 319.605 168.916C318.321 168.916 317.415 169.728 317.415 170.934V176H315.72ZM325.585 176.165C323.072 176.165 321.535 174.487 321.535 171.706C321.535 168.94 323.08 167.254 325.585 167.254C328.083 167.254 329.628 168.94 329.628 171.706C329.628 174.487 328.091 176.165 325.585 176.165ZM325.585 174.661C327.051 174.661 327.886 173.573 327.886 171.706C327.886 169.846 327.051 168.759 325.585 168.759C324.112 168.759 323.285 169.846 323.285 171.706C323.285 173.581 324.112 174.661 325.585 174.661ZM331.668 176V167.419H333.299V168.783H333.425C333.843 167.829 334.694 167.254 335.986 167.254C337.901 167.254 338.957 168.404 338.957 170.445V176H337.263V170.871C337.263 169.492 336.664 168.806 335.411 168.806C334.158 168.806 333.362 169.641 333.362 170.981V176H331.668ZM341.943 165.284H343.637V167.459H345.497V168.885H343.637V173.297C343.637 174.196 344.007 174.59 344.85 174.59C345.11 174.59 345.26 174.574 345.497 174.55V175.961C345.221 176.008 344.906 176.047 344.575 176.047C342.691 176.047 341.943 175.385 341.943 173.731V168.885H340.58V167.459H341.943V165.284ZM355.424 168.696C354.172 168.696 353.297 169.578 353.203 170.918H357.536C357.497 169.57 356.677 168.696 355.424 168.696ZM357.528 173.683H359.159C358.773 175.22 357.402 176.165 355.44 176.165C352.982 176.165 351.477 174.479 351.477 171.737C351.477 168.995 353.013 167.254 355.432 167.254C357.82 167.254 359.262 168.885 359.262 171.58V172.171H353.203V172.265C353.258 173.77 354.132 174.724 355.488 174.724C356.512 174.724 357.213 174.353 357.528 173.683ZM361.295 176V167.419H362.926V168.783H363.052C363.469 167.829 364.32 167.254 365.612 167.254C367.527 167.254 368.583 168.404 368.583 170.445V176H366.889V170.871C366.889 169.492 366.29 168.806 365.037 168.806C363.784 168.806 362.989 169.641 362.989 170.981V176H361.295ZM374.106 176.142C371.924 176.142 370.545 174.424 370.545 171.706C370.545 168.995 371.94 167.278 374.106 167.278C375.28 167.278 376.273 167.837 376.738 168.783H376.864V164.071H378.558V176H376.935V174.645H376.801C376.289 175.582 375.288 176.142 374.106 176.142ZM374.587 168.798C373.161 168.798 372.294 169.901 372.294 171.706C372.294 173.526 373.153 174.621 374.587 174.621C376.013 174.621 376.896 173.51 376.896 171.714C376.896 169.925 376.005 168.798 374.587 168.798ZM386.138 171.249C386.138 168.381 386.879 166.025 388.415 164.071H389.912C388.778 165.52 387.887 168.546 387.887 171.241C387.887 173.951 388.77 176.977 389.912 178.427H388.415C386.879 176.473 386.138 174.117 386.138 171.249ZM392.568 176V168.885H391.157V167.459H392.568V166.537C392.568 164.835 393.434 163.992 395.215 163.992C395.601 163.992 395.932 164.023 396.224 164.079V165.41C396.066 165.379 395.838 165.363 395.57 165.363C394.624 165.363 394.238 165.788 394.238 166.639V167.459H396.153V168.885H394.262V176H392.568ZM405.309 167.419V176H403.678V174.637H403.544C403.126 175.614 402.251 176.165 400.951 176.165C399.052 176.165 397.997 175.007 397.997 172.99V167.419H399.691V172.549C399.691 173.936 400.25 174.597 401.495 174.597C402.866 174.597 403.615 173.786 403.615 172.439V167.419H405.309ZM407.846 176V164.071H409.54V176H407.846ZM412.164 176V164.071H413.858V176H412.164ZM417.002 165.284H418.696V167.459H420.555V168.885H418.696V173.297C418.696 174.196 419.066 174.59 419.909 174.59C420.169 174.59 420.319 174.574 420.555 174.55V175.961C420.279 176.008 419.964 176.047 419.633 176.047C417.75 176.047 417.002 175.385 417.002 173.731V168.885H415.638V167.459H417.002V165.284ZM422.58 176V167.419H424.266V176H422.58ZM423.423 165.914C422.793 165.914 422.328 165.465 422.328 164.882C422.328 164.291 422.793 163.842 423.423 163.842C424.054 163.842 424.518 164.291 424.518 164.882C424.518 165.465 424.054 165.914 423.423 165.914ZM426.756 176V167.419H428.387V168.798H428.513C428.891 167.829 429.758 167.254 430.901 167.254C432.075 167.254 432.886 167.861 433.265 168.798H433.398C433.832 167.861 434.817 167.254 436.007 167.254C437.74 167.254 438.749 168.302 438.749 170.09V176H437.054V170.532C437.054 169.373 436.503 168.806 435.392 168.806C434.297 168.806 433.58 169.594 433.58 170.603V176H431.917V170.366C431.917 169.397 431.271 168.806 430.262 168.806C429.23 168.806 428.45 169.649 428.45 170.752V176H426.756ZM442.444 176.134C441.782 176.134 441.286 175.622 441.286 174.96C441.286 174.298 441.782 173.786 442.444 173.786C443.114 173.786 443.602 174.298 443.602 174.96C443.602 175.622 443.114 176.134 442.444 176.134ZM447.534 176.134C446.872 176.134 446.376 175.622 446.376 174.96C446.376 174.298 446.872 173.786 447.534 173.786C448.204 173.786 448.692 174.298 448.692 174.96C448.692 175.622 448.204 176.134 447.534 176.134Z" fill="white"/>
<rect x="20" y="158" width="26" height="26" rx="10.1104" fill="url(#paint1_linear_34_340)"/>
<path d="M28.5499 171.513L31.4463 173.996L37.239 167.789" stroke="#FFFEFF" stroke-width="1.86195" stroke-linecap="round" stroke-linejoin="round"/>
<rect y="370" width="535" height="83" rx="14.8956" fill="#F4A120"/>
<path d="M73.4366 416H71.5359V403.756H79.1813V405.487H73.4366V409.246H78.6976V410.926H73.4366V416ZM89.228 406.759V416H87.4715V414.532H87.3273C86.8775 415.584 85.9357 416.178 84.5356 416.178C82.4906 416.178 81.3535 414.931 81.3535 412.759V406.759H83.1779V412.283C83.1779 413.777 83.7804 414.49 85.1211 414.49C86.5975 414.49 87.4036 413.616 87.4036 412.165V406.759H89.228ZM91.9603 416V403.153H93.7847V416H91.9603ZM96.6104 416V403.153H98.4347V416H96.6104ZM107.989 416H106.14V403.756H107.854L114.141 412.453H114.277V403.756H116.127V416H114.413L108.125 407.302H107.989V416ZM122.016 414.617C123.39 414.617 124.409 413.743 124.409 412.597V411.825L122.152 411.969C120.879 412.054 120.302 412.487 120.302 413.302C120.302 414.133 121.023 414.617 122.016 414.617ZM121.549 416.153C119.767 416.153 118.469 415.075 118.469 413.386C118.469 411.723 119.708 410.764 121.905 410.629L124.409 410.484V409.687C124.409 408.711 123.764 408.159 122.516 408.159C121.498 408.159 120.794 408.533 120.59 409.186H118.825C119.012 407.599 120.505 406.581 122.601 406.581C124.918 406.581 126.225 407.735 126.225 409.687V416H124.468V414.702H124.324C123.772 415.627 122.762 416.153 121.549 416.153ZM128.821 416V406.759H130.578V408.244H130.713C131.121 407.201 132.054 406.581 133.284 406.581C134.549 406.581 135.423 407.235 135.83 408.244H135.974C136.441 407.235 137.502 406.581 138.783 406.581C140.65 406.581 141.736 407.71 141.736 409.636V416H139.912V410.111C139.912 408.864 139.318 408.253 138.121 408.253C136.942 408.253 136.17 409.101 136.17 410.187V416H134.379V409.933C134.379 408.889 133.683 408.253 132.597 408.253C131.486 408.253 130.645 409.161 130.645 410.349V416H128.821ZM148.092 408.134C146.742 408.134 145.8 409.084 145.699 410.527H150.366C150.323 409.076 149.441 408.134 148.092 408.134ZM150.357 413.505H152.114C151.698 415.16 150.221 416.178 148.109 416.178C145.461 416.178 143.84 414.362 143.84 411.409C143.84 408.456 145.495 406.581 148.1 406.581C150.671 406.581 152.224 408.338 152.224 411.24V411.876H145.699V411.978C145.758 413.599 146.7 414.625 148.159 414.625C149.263 414.625 150.018 414.227 150.357 413.505Z" fill="white"/>
<path d="M208.191 406.182V410.161H210.728C212.091 410.161 212.879 409.437 212.879 408.168C212.879 406.931 212.044 406.182 210.681 406.182H208.191ZM208.191 411.666V416H206.426V404.63H210.925C213.218 404.63 214.692 405.993 214.692 408.129C214.692 409.657 213.872 410.902 212.485 411.375L215.038 416H212.998L210.681 411.666H208.191ZM220.38 416.165C217.867 416.165 216.33 414.487 216.33 411.706C216.33 408.94 217.875 407.254 220.38 407.254C222.878 407.254 224.423 408.94 224.423 411.706C224.423 414.487 222.886 416.165 220.38 416.165ZM220.38 414.661C221.846 414.661 222.681 413.573 222.681 411.706C222.681 409.846 221.846 408.759 220.38 408.759C218.907 408.759 218.08 409.846 218.08 411.706C218.08 413.581 218.907 414.661 220.38 414.661ZM231.01 416.142C229.812 416.142 228.811 415.59 228.299 414.645H228.173V416H226.542V404.071H228.236V408.783H228.37C228.827 407.845 229.836 407.278 231.01 407.278C233.184 407.278 234.555 408.98 234.555 411.706C234.555 414.424 233.177 416.142 231.01 416.142ZM230.521 408.798C229.103 408.798 228.213 409.917 228.205 411.714C228.213 413.51 229.095 414.621 230.521 414.621C231.955 414.621 232.814 413.526 232.814 411.706C232.814 409.901 231.955 408.798 230.521 408.798ZM240.118 408.696C238.865 408.696 237.991 409.578 237.896 410.918H242.23C242.19 409.57 241.371 408.696 240.118 408.696ZM242.222 413.683H243.853C243.467 415.22 242.096 416.165 240.134 416.165C237.676 416.165 236.171 414.479 236.171 411.737C236.171 408.995 237.707 407.254 240.126 407.254C242.514 407.254 243.955 408.885 243.955 411.58V412.171H237.896V412.265C237.951 413.77 238.826 414.724 240.181 414.724C241.206 414.724 241.907 414.353 242.222 413.683ZM245.988 416V407.419H247.619V408.735H247.745C247.99 407.892 248.943 407.278 250.062 407.278C250.314 407.278 250.637 407.301 250.818 407.348V409.019C250.677 408.972 250.172 408.916 249.873 408.916C248.589 408.916 247.682 409.728 247.682 410.934V416H245.988ZM253.489 405.284H255.184V407.459H257.043V408.885H255.184V413.297C255.184 414.196 255.554 414.59 256.397 414.59C256.657 414.59 256.807 414.574 257.043 414.55V415.961C256.767 416.008 256.452 416.047 256.121 416.047C254.238 416.047 253.489 415.385 253.489 413.731V408.885H252.126V407.459H253.489V405.284ZM270.091 407.656L267.657 416H265.986L262.921 404.63H264.757L266.845 413.337H266.955L269.327 404.63H270.966L273.353 413.337H273.464L275.544 404.63H277.38L274.307 416H272.644L270.202 407.656H270.091ZM279.349 416V407.419H281.036V416H279.349ZM280.193 405.914C279.562 405.914 279.097 405.465 279.097 404.882C279.097 404.291 279.562 403.842 280.193 403.842C280.823 403.842 281.288 404.291 281.288 404.882C281.288 405.465 280.823 405.914 280.193 405.914ZM283.604 416V404.071H285.298V416H283.604ZM287.922 416V404.071H289.616V416H287.922ZM292.193 416V407.419H293.879V416H292.193ZM293.036 405.914C292.406 405.914 291.941 405.465 291.941 404.882C291.941 404.291 292.406 403.842 293.036 403.842C293.666 403.842 294.131 404.291 294.131 404.882C294.131 405.465 293.666 405.914 293.036 405.914ZM299.174 414.716C300.45 414.716 301.396 413.904 301.396 412.84V412.123L299.3 412.257C298.118 412.336 297.582 412.738 297.582 413.494C297.582 414.267 298.252 414.716 299.174 414.716ZM298.741 416.142C297.086 416.142 295.88 415.141 295.88 413.573C295.88 412.029 297.031 411.138 299.071 411.012L301.396 410.878V410.138C301.396 409.232 300.797 408.719 299.639 408.719C298.693 408.719 298.039 409.066 297.85 409.673H296.211C296.385 408.199 297.771 407.254 299.718 407.254C301.869 407.254 303.082 408.326 303.082 410.138V416H301.451V414.794H301.317C300.805 415.653 299.867 416.142 298.741 416.142ZM305.493 416V407.419H307.124V408.798H307.25C307.628 407.829 308.495 407.254 309.638 407.254C310.812 407.254 311.623 407.861 312.001 408.798H312.135C312.569 407.861 313.554 407.254 314.743 407.254C316.477 407.254 317.485 408.302 317.485 410.09V416H315.791V410.532C315.791 409.373 315.24 408.806 314.129 408.806C313.034 408.806 312.317 409.594 312.317 410.603V416H310.654V410.366C310.654 409.397 310.008 408.806 308.999 408.806C307.967 408.806 307.187 409.649 307.187 410.752V416H305.493ZM323.939 412.943H325.688C325.838 414.022 326.893 414.708 328.414 414.708C329.832 414.708 330.872 413.975 330.872 412.966C330.872 412.1 330.211 411.58 328.706 411.225L327.24 410.871C325.184 410.39 324.246 409.397 324.246 407.727C324.246 405.702 325.901 404.354 328.383 404.354C330.691 404.354 332.377 405.702 332.48 407.616H330.762C330.597 406.568 329.683 405.914 328.359 405.914C326.964 405.914 326.035 406.584 326.035 407.609C326.035 408.42 326.633 408.885 328.115 409.232L329.368 409.539C331.7 410.083 332.661 411.028 332.661 412.738C332.661 414.913 330.975 416.276 328.28 416.276C325.759 416.276 324.065 414.976 323.939 412.943ZM334.789 416V407.419H336.42V408.798H336.546C336.924 407.829 337.791 407.254 338.933 407.254C340.107 407.254 340.919 407.861 341.297 408.798H341.431C341.864 407.861 342.849 407.254 344.039 407.254C345.772 407.254 346.781 408.302 346.781 410.09V416H345.087V410.532C345.087 409.373 344.535 408.806 343.424 408.806C342.329 408.806 341.612 409.594 341.612 410.603V416H339.949V410.366C339.949 409.397 339.303 408.806 338.295 408.806C337.263 408.806 336.483 409.649 336.483 410.752V416H334.789ZM349.192 416V407.419H350.878V416H349.192ZM350.035 405.914C349.405 405.914 348.94 405.465 348.94 404.882C348.94 404.291 349.405 403.842 350.035 403.842C350.665 403.842 351.13 404.291 351.13 404.882C351.13 405.465 350.665 405.914 350.035 405.914ZM353.967 405.284H355.661V407.459H357.52V408.885H355.661V413.297C355.661 414.196 356.031 414.59 356.874 414.59C357.134 414.59 357.284 414.574 357.52 414.55V415.961C357.245 416.008 356.929 416.047 356.599 416.047C354.715 416.047 353.967 415.385 353.967 413.731V408.885H352.604V407.459H353.967V405.284ZM359.593 416V404.071H361.271V408.798H361.405C361.823 407.837 362.729 407.262 364.021 407.262C365.849 407.262 366.976 408.42 366.976 410.461V416H365.282V410.878C365.282 409.507 364.643 408.814 363.446 408.814C362.059 408.814 361.287 409.689 361.287 410.989V416H359.593Z" fill="white"/>
<rect x="20" y="399" width="26" height="26" rx="10.1104" fill="url(#paint2_linear_34_340)"/>
<path d="M28.5499 412.325L31.4463 414.808L37.239 408.601" stroke="#FFFEFF" stroke-width="1.86195" stroke-linecap="round" stroke-linejoin="round"/>
<rect x="87" y="241" width="26" height="26" rx="10.1104" fill="url(#paint3_linear_34_340)"/>
<path d="M95.58 254.68L98.4764 257.163L104.269 250.956" stroke="#FFFEFF" stroke-width="1.86195" stroke-linecap="round" stroke-linejoin="round"/>
<rect x="87" y="317" width="26" height="26" rx="10.1104" fill="url(#paint4_linear_34_340)"/>
<path d="M95.58 330.4L98.4764 332.882L104.269 326.676" stroke="#FFFEFF" stroke-width="1.86195" stroke-linecap="round" stroke-linejoin="round"/>
<rect x="297" y="311" width="26" height="26" rx="10.1104" fill="url(#paint5_linear_34_340)"/>
<path d="M305.36 324.193L308.256 326.676L314.049 320.469" stroke="#FFFEFF" stroke-width="1.86195" stroke-linecap="round" stroke-linejoin="round"/>
<rect x="295" y="239" width="26" height="26" rx="10.1104" fill="url(#paint6_linear_34_340)"/>
<path d="M304.118 252.198L307.015 254.68L312.808 248.474" stroke="#FFFEFF" stroke-width="1.86195" stroke-linecap="round" stroke-linejoin="round"/>
<rect x="86" y="472" width="26" height="26" rx="10.1104" fill="url(#paint7_linear_34_340)"/>
<path d="M94.3387 485.562L97.2351 488.045L103.028 481.838" stroke="#FFFEFF" stroke-width="1.86195" stroke-linecap="round" stroke-linejoin="round"/>
<circle cx="407.5" cy="74.5" r="14.5" fill="white"/>
<rect x="112" y="68" width="12" height="2" fill="white"/>
<rect x="112" y="73" width="12" height="2" fill="white"/>
<rect x="112" y="78" width="12" height="2" fill="white"/>
<rect x="130" y="250" width="146" height="10" rx="5" fill="#EAE9E9"/>
<rect x="129" y="325" width="146" height="10" rx="5" fill="#EAE9E9"/>
<rect x="124" y="481" width="146" height="10" rx="5" fill="#EAE9E9"/>
<rect x="295" y="349" width="146" height="10" rx="5" fill="#EAE9E9"/>
<rect x="297" y="273" width="146" height="10" rx="5" fill="url(#paint8_linear_34_340)"/>
<rect x="290" y="481" width="146" height="10" rx="5" fill="#EAE9E9"/>
<defs>
<linearGradient id="paint0_linear_34_340" x1="265.5" y1="47" x2="265.5" y2="102" gradientUnits="userSpaceOnUse">
<stop stop-color="#21D1F7"/>
<stop offset="0.505208" stop-color="#0A66C2"/>
<stop offset="1" stop-color="#1EA4CE"/>
</linearGradient>
<linearGradient id="paint1_linear_34_340" x1="33" y1="158" x2="33" y2="184" gradientUnits="userSpaceOnUse">
<stop stop-color="#21D1F7"/>
<stop offset="0.505208" stop-color="#0A66C2"/>
<stop offset="1" stop-color="#002D59"/>
</linearGradient>
<linearGradient id="paint2_linear_34_340" x1="33" y1="399" x2="33" y2="425" gradientUnits="userSpaceOnUse">
<stop stop-color="#21D1F7"/>
<stop offset="0.505208" stop-color="#0A66C2"/>
<stop offset="1" stop-color="#002D59"/>
</linearGradient>
<linearGradient id="paint3_linear_34_340" x1="100" y1="241" x2="100" y2="267" gradientUnits="userSpaceOnUse">
<stop stop-color="#21D1F7"/>
<stop offset="0.505208" stop-color="#0A66C2"/>
<stop offset="1" stop-color="#002D59"/>
</linearGradient>
<linearGradient id="paint4_linear_34_340" x1="100" y1="317" x2="100" y2="343" gradientUnits="userSpaceOnUse">
<stop stop-color="#21D1F7"/>
<stop offset="0.505208" stop-color="#0A66C2"/>
<stop offset="1" stop-color="#002D59"/>
</linearGradient>
<linearGradient id="paint5_linear_34_340" x1="310" y1="311" x2="310" y2="337" gradientUnits="userSpaceOnUse">
<stop stop-color="#21D1F7"/>
<stop offset="0.505208" stop-color="#0A66C2"/>
<stop offset="1" stop-color="#002D59"/>
</linearGradient>
<linearGradient id="paint6_linear_34_340" x1="308" y1="239" x2="308" y2="265" gradientUnits="userSpaceOnUse">
<stop stop-color="#21D1F7"/>
<stop offset="0.505208" stop-color="#0A66C2"/>
<stop offset="1" stop-color="#002D59"/>
</linearGradient>
<linearGradient id="paint7_linear_34_340" x1="99" y1="472" x2="99" y2="498" gradientUnits="userSpaceOnUse">
<stop stop-color="#21D1F7"/>
<stop offset="0.505208" stop-color="#0A66C2"/>
<stop offset="1" stop-color="#002D59"/>
</linearGradient>
<linearGradient id="paint8_linear_34_340" x1="370" y1="273" x2="370" y2="283" gradientUnits="userSpaceOnUse">
<stop stop-color="#21D1F7"/>
<stop offset="0.505208" stop-color="#0A66C2"/>
<stop offset="1" stop-color="#1EA4CE"/>
</linearGradient>
</defs>
</svg>
