<svg width="176" height="48" viewBox="0 0 176 48" fill="none" xmlns="http://www.w3.org/2000/svg">
<g filter="url(#filter0_dd_896_1744)">
<rect x="1" y="1" width="174" height="46" rx="5" fill="#445985"/>
<path d="M41.5004 23C39.0004 23 37.0004 25 37.0004 27.5C37.0004 28.38 37.2504 29.21 37.6904 29.9L34.6104 33L36.0004 34.39L39.1204 31.32C39.8104 31.75 40.6304 32 41.5004 32C44.0004 32 46.0004 30 46.0004 27.5C46.0004 25 44.0004 23 41.5004 23ZM41.5004 30C40.8373 30 40.2014 29.7366 39.7326 29.2678C39.2637 28.7989 39.0004 28.163 39.0004 27.5C39.0004 26.837 39.2637 26.2011 39.7326 25.7322C40.2014 25.2634 40.8373 25 41.5004 25C42.1634 25 42.7993 25.2634 43.2681 25.7322C43.737 26.2011 44.0004 26.837 44.0004 27.5C44.0004 28.163 43.737 28.7989 43.2681 29.2678C42.7993 29.7366 42.1634 30 41.5004 30ZM57.0004 17V31C57.0004 32.11 56.1104 33 55.0004 33H44.9504C45.7604 32.5 46.4504 31.81 46.9704 31H55.0004V21H47.0004V17H37.0004V22.82C35.7704 24 35.0004 25.66 35.0004 27.5V17C35.0004 15.9 35.9004 15 37.0004 15H55.0004C55.5308 15 56.0395 15.2107 56.4146 15.5858C56.7896 15.9609 57.0004 16.4696 57.0004 17Z" fill="white"/>
<path d="M71.4062 30H69.3906V18.7266H76.5781V20.4688H71.4062V23.75H76.1328V25.4297H71.4062V30ZM78.9528 30V21.4531H80.8825V30H78.9528ZM79.9137 20.0625C79.2106 20.0625 78.7184 19.6094 78.7184 18.9922C78.7184 18.375 79.2106 17.9219 79.9137 17.9219C80.6247 17.9219 81.1091 18.375 81.1091 18.9922C81.1091 19.6094 80.6247 20.0625 79.9137 20.0625ZM83.6088 30V21.4531H85.4759V22.8203H85.6088C86.015 21.8672 86.8744 21.2812 88.1478 21.2812C90.0541 21.2812 91.0931 22.4297 91.0931 24.4688V30H89.1556V24.9297C89.1556 23.625 88.6088 22.9688 87.4291 22.9688C86.2728 22.9688 85.5463 23.7656 85.5463 25.0234V30H83.6088ZM96.8037 30.1406C94.6397 30.1406 93.2881 28.4375 93.2881 25.7188C93.2881 23.0156 94.6475 21.3125 96.8037 21.3125C97.9756 21.3125 98.9444 21.875 99.3975 22.8125H99.5303V18.1484H101.468V30H99.5928V28.6484H99.46C98.9756 29.5859 97.9912 30.1406 96.8037 30.1406ZM97.4053 22.9609C96.085 22.9609 95.2725 24.0078 95.2725 25.7266C95.2725 27.4531 96.0772 28.4922 97.4053 28.4922C98.7412 28.4922 99.5537 27.4453 99.5537 25.7266C99.5537 24.0234 98.7334 22.9609 97.4053 22.9609ZM110.772 21.4531V30.3203C110.772 32.0703 109.811 32.9219 107.897 32.9219C107.795 32.9219 107.483 32.9062 107.428 32.8984V31.375C107.452 31.375 107.639 31.3828 107.678 31.3828C108.537 31.3828 108.842 31.0625 108.842 30.2891V21.4531H110.772ZM109.803 20.0625C109.1 20.0625 108.608 19.6094 108.608 18.9922C108.608 18.375 109.1 17.9219 109.803 17.9219C110.514 17.9219 110.998 18.375 110.998 18.9922C110.998 19.6094 110.514 20.0625 109.803 20.0625ZM117.186 30.1719C114.623 30.1719 113.076 28.5 113.076 25.7266C113.076 22.9688 114.647 21.2812 117.186 21.2812C119.732 21.2812 121.295 22.9609 121.295 25.7266C121.295 28.5 119.74 30.1719 117.186 30.1719ZM117.186 28.5469C118.537 28.5469 119.303 27.5156 119.303 25.7266C119.303 23.9453 118.529 22.9062 117.186 22.9062C115.834 22.9062 115.061 23.9453 115.061 25.7266C115.061 27.5156 115.834 28.5469 117.186 28.5469ZM128.318 30.1406C127.123 30.1406 126.131 29.5859 125.646 28.6484H125.513V30H123.646V18.1484H125.584V22.8125H125.717C126.162 21.8828 127.146 21.3125 128.318 21.3125C130.482 21.3125 131.826 22.9922 131.826 25.7266C131.826 28.4453 130.474 30.1406 128.318 30.1406ZM127.709 22.9609C126.388 22.9609 125.553 24.0234 125.553 25.7266C125.553 27.4297 126.381 28.4922 127.709 28.4922C129.037 28.4922 129.834 27.4453 129.834 25.7266C129.834 24.0078 129.029 22.9609 127.709 22.9609ZM133.896 23.8984C133.896 22.3516 135.302 21.2812 137.318 21.2812C139.349 21.2812 140.622 22.1797 140.763 23.7344H138.943C138.802 23.1328 138.232 22.75 137.326 22.75C136.443 22.75 135.779 23.1719 135.779 23.7891C135.779 24.2734 136.185 24.5703 137.044 24.7656L138.552 25.1094C140.185 25.4766 140.943 26.1797 140.943 27.4375C140.943 29.0781 139.435 30.1719 137.302 30.1719C135.169 30.1719 133.826 29.25 133.677 27.6953H135.591C135.779 28.3281 136.38 28.7031 137.349 28.7031C138.326 28.7031 139.005 28.2734 139.005 27.6406C139.005 27.1562 138.638 26.8516 137.826 26.6719L136.31 26.3203C134.669 25.9453 133.896 25.1875 133.896 23.8984Z" fill="white"/>
</g>
<defs>
<filter id="filter0_dd_896_1744" x="0.2608" y="0.2608" width="175.478" height="47.4784" filterUnits="userSpaceOnUse" color-interpolation-filters="sRGB">
<feFlood flood-opacity="0" result="BackgroundImageFix"/>
<feColorMatrix in="SourceAlpha" type="matrix" values="0 0 0 0 0 0 0 0 0 0 0 0 0 0 0 0 0 0 127 0" result="hardAlpha"/>
<feOffset/>
<feGaussianBlur stdDeviation="0.1848"/>
<feColorMatrix type="matrix" values="0 0 0 0 0.266667 0 0 0 0 0.34902 0 0 0 0 0.521569 0 0 0 1 0"/>
<feBlend mode="normal" in2="BackgroundImageFix" result="effect1_dropShadow_896_1744"/>
<feColorMatrix in="SourceAlpha" type="matrix" values="0 0 0 0 0 0 0 0 0 0 0 0 0 0 0 0 0 0 127 0" result="hardAlpha"/>
<feOffset/>
<feGaussianBlur stdDeviation="0.3696"/>
<feColorMatrix type="matrix" values="0 0 0 0 0.266667 0 0 0 0 0.34902 0 0 0 0 0.521569 0 0 0 1 0"/>
<feBlend mode="normal" in2="effect1_dropShadow_896_1744" result="effect2_dropShadow_896_1744"/>
<feBlend mode="normal" in="SourceGraphic" in2="effect2_dropShadow_896_1744" result="shape"/>
</filter>
</defs>
</svg>
