<svg width="42" height="45" viewBox="0 0 42 45" fill="none" xmlns="http://www.w3.org/2000/svg">
<rect x="0.97876" width="41" height="45" rx="5" fill="#0C2E82" fill-opacity="0.1"/>
<path d="M24.9788 14.5C24.7135 14.5 24.4592 14.3946 24.2717 14.2071C24.0841 14.0196 23.9788 13.7652 23.9788 13.5C23.9788 13.2348 24.0841 12.9804 24.2717 12.7929C24.4592 12.6054 24.7135 12.5 24.9788 12.5H28.9788C29.244 12.5 29.4983 12.6054 29.6859 12.7929C29.8734 12.9804 29.9788 13.2348 29.9788 13.5V17.5C29.9788 17.7652 29.8734 18.0196 29.6859 18.2071C29.4983 18.3946 29.244 18.5 28.9788 18.5C28.7135 18.5 28.4592 18.3946 28.2717 18.2071C28.0841 18.0196 27.9788 17.7652 27.9788 17.5V15.914L22.1858 21.707C21.9982 21.8945 21.7439 21.9998 21.4788 21.9998C21.2136 21.9998 20.9593 21.8945 20.7718 21.707L17.9788 18.914L12.6858 24.207C12.4972 24.3892 12.2446 24.49 11.9824 24.4877C11.7202 24.4854 11.4693 24.3802 11.2839 24.1948C11.0985 24.0094 10.9934 23.7586 10.9911 23.4964C10.9888 23.2342 11.0896 22.9816 11.2718 22.793L17.2718 16.793C17.4593 16.6055 17.7136 16.5002 17.9788 16.5002C18.2439 16.5002 18.4982 16.6055 18.6858 16.793L21.4788 19.586L26.5648 14.5H24.9788ZM12.9788 28.5V31.5C12.9788 31.7652 12.8734 32.0196 12.6859 32.2071C12.4983 32.3946 12.244 32.5 11.9788 32.5C11.7135 32.5 11.4592 32.3946 11.2717 32.2071C11.0841 32.0196 10.9788 31.7652 10.9788 31.5V28.5C10.9788 28.2348 11.0841 27.9804 11.2717 27.7929C11.4592 27.6054 11.7135 27.5 11.9788 27.5C12.244 27.5 12.4983 27.6054 12.6859 27.7929C12.8734 27.9804 12.9788 28.2348 12.9788 28.5ZM17.9788 24.5C17.9788 24.2348 17.8734 23.9804 17.6859 23.7929C17.4983 23.6054 17.244 23.5 16.9788 23.5C16.7135 23.5 16.4592 23.6054 16.2717 23.7929C16.0841 23.9804 15.9788 24.2348 15.9788 24.5V31.5C15.9788 31.7652 16.0841 32.0196 16.2717 32.2071C16.4592 32.3946 16.7135 32.5 16.9788 32.5C17.244 32.5 17.4983 32.3946 17.6859 32.2071C17.8734 32.0196 17.9788 31.7652 17.9788 31.5V24.5ZM21.9788 25.5C22.244 25.5 22.4983 25.6054 22.6859 25.7929C22.8734 25.9804 22.9788 26.2348 22.9788 26.5V31.5C22.9788 31.7652 22.8734 32.0196 22.6859 32.2071C22.4983 32.3946 22.244 32.5 21.9788 32.5C21.7135 32.5 21.4592 32.3946 21.2717 32.2071C21.0841 32.0196 20.9788 31.7652 20.9788 31.5V26.5C20.9788 26.2348 21.0841 25.9804 21.2717 25.7929C21.4592 25.6054 21.7135 25.5 21.9788 25.5ZM27.9788 21.5C27.9788 21.2348 27.8734 20.9804 27.6859 20.7929C27.4983 20.6054 27.244 20.5 26.9788 20.5C26.7135 20.5 26.4592 20.6054 26.2717 20.7929C26.0841 20.9804 25.9788 21.2348 25.9788 21.5V31.5C25.9788 31.7652 26.0841 32.0196 26.2717 32.2071C26.4592 32.3946 26.7135 32.5 26.9788 32.5C27.244 32.5 27.4983 32.3946 27.6859 32.2071C27.8734 32.0196 27.9788 31.7652 27.9788 31.5V21.5Z" fill="#0C2E82"/>
</svg>
