<svg width="56" height="56" viewBox="0 0 56 56" fill="none" xmlns="http://www.w3.org/2000/svg">
<rect width="56" height="56" rx="4" fill="#F5F5F5"/>
<g clip-path="url(#clip0_1_404)">
<path d="M24.3606 16.7894C21.9626 17.6213 19.8946 19.2002 18.4603 21.2943C17.0261 23.3883 16.3011 25.8871 16.3919 28.4237C16.4828 30.9602 17.3847 33.4008 18.9651 35.3869C20.5455 37.373 22.7211 38.7999 25.1725 39.4581C27.1598 39.9709 29.242 39.9934 31.24 39.5237C33.05 39.1172 34.7233 38.2476 36.0962 37C37.5251 35.6619 38.5623 33.9596 39.0962 32.0762C39.6766 30.0281 39.7799 27.8742 39.3981 25.78H28.2381V30.4094H34.7012C34.5721 31.1477 34.2953 31.8524 33.8874 32.4813C33.4795 33.1102 32.949 33.6503 32.3275 34.0694C31.5383 34.5914 30.6486 34.9427 29.7156 35.1006C28.7799 35.2746 27.8201 35.2746 26.8844 35.1006C25.936 34.9045 25.0388 34.5131 24.25 33.9512C22.9828 33.0542 22.0313 31.7799 21.5312 30.31C21.0228 28.8126 21.0228 27.1893 21.5312 25.6919C21.8872 24.6423 22.4756 23.6866 23.2525 22.8962C24.1416 21.9751 25.2672 21.3167 26.5059 20.9933C27.7446 20.6698 29.0484 20.6937 30.2744 21.0625C31.2321 21.3565 32.1078 21.8701 32.8319 22.5625C33.5606 21.8375 34.2881 21.1106 35.0144 20.3819C35.3894 19.99 35.7981 19.6169 36.1675 19.2156C35.0623 18.1871 33.765 17.3869 32.35 16.8606C29.7732 15.925 26.9537 15.8998 24.3606 16.7894Z" fill="white"/>
<path d="M24.3606 16.7894C26.9535 15.8992 29.773 15.9237 32.35 16.8587C33.7653 17.3885 35.062 18.1927 36.1656 19.225C35.7906 19.6262 35.395 20.0012 35.0125 20.3912C34.285 21.1175 33.5581 21.8412 32.8319 22.5625C32.1078 21.8701 31.2321 21.3565 30.2744 21.0625C29.0488 20.6924 27.745 20.6671 26.506 20.9893C25.267 21.3114 24.1407 21.9686 23.2506 22.8887C22.4737 23.6791 21.8853 24.6348 21.5294 25.6844L17.6425 22.675C19.0338 19.916 21.4426 17.8057 24.3606 16.7894Z" fill="#E33629"/>
<path d="M16.6112 25.6562C16.8202 24.6209 17.167 23.6182 17.6425 22.675L21.5294 25.6919C21.0209 27.1892 21.0209 28.8126 21.5294 30.31C20.2344 31.31 18.9387 32.315 17.6425 33.325C16.4522 30.9556 16.0891 28.2559 16.6112 25.6562Z" fill="#F8BD00"/>
<path d="M28.2381 25.7781H39.3981C39.7799 27.8724 39.6766 30.0263 39.0963 32.0744C38.5623 33.9578 37.5252 35.66 36.0963 36.9981C34.8419 36.0194 33.5819 35.0481 32.3275 34.0694C32.9494 33.6499 33.4802 33.1092 33.8881 32.4796C34.296 31.8501 34.5726 31.1447 34.7013 30.4056H28.2381C28.2363 28.8644 28.2381 27.3213 28.2381 25.7781Z" fill="#587DBD"/>
<path d="M17.6406 33.325C18.9369 32.325 20.2325 31.32 21.5275 30.31C22.0285 31.7804 22.9814 33.0548 24.25 33.9512C25.0413 34.5105 25.9404 34.8987 26.89 35.0912C27.8257 35.2652 28.7855 35.2652 29.7213 35.0912C30.6542 34.9333 31.5439 34.5821 32.3331 34.06C33.5875 35.0387 34.8475 36.01 36.1019 36.9887C34.7292 38.237 33.0558 39.1073 31.2456 39.5144C29.2476 39.9841 27.1655 39.9616 25.1781 39.4487C23.6063 39.0291 22.1381 38.2892 20.8656 37.2756C19.5187 36.2063 18.4187 34.8587 17.6406 33.325Z" fill="#319F43"/>
</g>
<defs>
<clipPath id="clip0_1_404">
<rect width="24" height="24" fill="white" transform="translate(16 16)"/>
</clipPath>
</defs>
</svg>
