<svg width="104" height="38" viewBox="0 0 104 38" fill="none" xmlns="http://www.w3.org/2000/svg">
<rect y="0.683594" width="104" height="37" rx="5" fill="#F3F3F6"/>
<path d="M34.9102 20.665C34.9102 23.9082 32.7568 25.9912 29.4346 25.9912C25.8398 25.9912 23.5723 23.4336 23.5723 19.3379C23.5723 15.2949 25.8662 12.6934 29.417 12.6934C32.2998 12.6934 34.3916 14.3281 34.8223 16.8945H32.8447C32.3525 15.3652 31.1484 14.5303 29.417 14.5303C27.0703 14.5303 25.585 16.3848 25.585 19.3203C25.585 22.3086 27.0791 24.1543 29.4609 24.1543C31.5352 24.1543 32.959 22.8887 32.9766 21.0078V20.7354H29.707V19.083H34.9102V20.665ZM41.4492 25.8682C38.6455 25.8682 36.9316 23.9961 36.9316 20.8936C36.9316 17.8086 38.6543 15.9277 41.4492 15.9277C44.2354 15.9277 45.958 17.8086 45.958 20.8936C45.958 23.9961 44.2441 25.8682 41.4492 25.8682ZM41.4492 24.1895C43.084 24.1895 44.0156 22.9766 44.0156 20.8936C44.0156 18.8193 43.084 17.6064 41.4492 17.6064C39.8057 17.6064 38.8828 18.8193 38.8828 20.8936C38.8828 22.9854 39.8057 24.1895 41.4492 24.1895ZM53.376 13.001H58.3418C60.8203 13.001 62.5254 14.7148 62.5254 17.2285C62.5254 19.707 60.7676 21.4121 58.2803 21.4121H55.3447V25.6836H53.376V13.001ZM55.3447 14.7412V19.6807H57.8232C59.5195 19.6807 60.5127 18.8018 60.5127 17.2285C60.5127 15.6201 59.5547 14.7412 57.8232 14.7412H55.3447ZM64.8457 25.6836V16.1123H66.665V17.5801H66.8057C67.0781 16.6396 68.1416 15.9541 69.3896 15.9541C69.6709 15.9541 70.0312 15.9805 70.2334 16.0332V17.8965C70.0752 17.8438 69.5127 17.7822 69.1787 17.7822C67.7461 17.7822 66.7354 18.6875 66.7354 20.0322V25.6836H64.8457ZM75.8496 25.8682C73.0459 25.8682 71.332 23.9961 71.332 20.8936C71.332 17.8086 73.0547 15.9277 75.8496 15.9277C78.6357 15.9277 80.3584 17.8086 80.3584 20.8936C80.3584 23.9961 78.6445 25.8682 75.8496 25.8682ZM75.8496 24.1895C77.4844 24.1895 78.416 22.9766 78.416 20.8936C78.416 18.8193 77.4844 17.6064 75.8496 17.6064C74.2061 17.6064 73.2832 18.8193 73.2832 20.8936C73.2832 22.9854 74.2061 24.1895 75.8496 24.1895Z" fill="black"/>
</svg>
