<svg width="42" height="45" viewBox="0 0 42 45" fill="none" xmlns="http://www.w3.org/2000/svg">
<rect x="0.97876" width="41" height="45" rx="5" fill="#0C2E82" fill-opacity="0.1"/>
<path fill-rule="evenodd" clip-rule="evenodd" d="M20.0189 9.94757C20.559 9.5762 21.1783 9.37988 21.8097 9.37988C22.4411 9.37988 23.0604 9.5762 23.6005 9.94757L24.8722 10.8312C26.6565 12.0702 28.6886 12.3461 30.7301 12.6241C31.39 12.7142 32.0505 12.8035 32.7041 12.9262C32.7041 12.9262 32.7185 14.2269 32.7035 14.8169L32.573 19.8884C32.4606 24.238 30.7582 28.362 27.8377 31.3591C26.4598 32.7725 25.0345 34.0498 23.397 35.1107C22.9143 35.4206 22.3733 35.5944 21.8192 35.6174C21.2652 35.6405 20.7144 35.5122 20.213 35.2434C18.322 34.2221 16.6476 32.9271 15.1187 31.3591C12.1982 28.362 10.4957 24.238 10.384 19.8884L10.2541 14.8333C10.2385 14.2347 10.2541 12.9262 10.2541 12.9262C10.7848 12.8553 11.3254 12.7964 11.8705 12.7376C14.2759 12.478 16.7613 12.2099 18.8002 10.7944L20.0189 9.94757ZM20.2243 20.7274V15.763H22.7215V20.7274H27.0916V23.5642H22.7215V28.5286H20.2243V23.5642H15.8541V20.7274H20.2243Z" fill="#0C2E82"/>
</svg>
