<svg width="25" height="24" viewBox="0 0 25 24" fill="none" xmlns="http://www.w3.org/2000/svg">
<path d="M19.9626 11.0002H8.79257L13.6726 6.12016C14.0626 5.73016 14.0626 5.09016 13.6726 4.70016C13.5801 4.60746 13.4702 4.53391 13.3492 4.48373C13.2282 4.43354 13.0985 4.40771 12.9676 4.40771C12.8366 4.40771 12.7069 4.43354 12.5859 4.48373C12.465 4.53391 12.3551 4.60746 12.2626 4.70016L5.67257 11.2902C5.57987 11.3827 5.50632 11.4926 5.45614 11.6135C5.40596 11.7345 5.38013 11.8642 5.38013 11.9952C5.38013 12.1261 5.40596 12.2558 5.45614 12.3768C5.50632 12.4978 5.57987 12.6076 5.67257 12.7002L12.2626 19.2902C12.3552 19.3827 12.4651 19.4562 12.586 19.5063C12.707 19.5564 12.8366 19.5822 12.9676 19.5822C13.0985 19.5822 13.2282 19.5564 13.3491 19.5063C13.4701 19.4562 13.58 19.3827 13.6726 19.2902C13.7652 19.1976 13.8386 19.0877 13.8887 18.9667C13.9388 18.8457 13.9646 18.7161 13.9646 18.5852C13.9646 18.4542 13.9388 18.3246 13.8887 18.2036C13.8386 18.0827 13.7652 17.9727 13.6726 17.8802L8.79257 13.0002H19.9626C20.5126 13.0002 20.9626 12.5502 20.9626 12.0002C20.9626 11.4502 20.5126 11.0002 19.9626 11.0002Z" fill="#676767"/>
</svg>
