<svg width="25" height="24" viewBox="0 0 25 24" fill="none" xmlns="http://www.w3.org/2000/svg">
<circle cx="12.8711" cy="11" r="10" fill="#D7DADF"/>
<mask id="path-2-inside-1_1300_4092" fill="white">
<path d="M6.15358 4.28249C5.95832 4.08722 5.9575 3.76961 6.16228 3.58435C7.19573 2.6494 8.41468 1.93949 9.74179 1.50224C11.2274 1.01276 12.8072 0.878607 14.354 1.11057C15.9009 1.34253 17.3718 1.93414 18.6486 2.83784C19.9253 3.74155 20.9722 4.93215 21.7052 6.31397C22.4382 7.69578 22.8368 9.23028 22.869 10.7941C22.9012 12.358 22.5661 13.9076 21.8906 15.3184C21.2151 16.7292 20.2181 17.9619 18.9797 18.9174C17.8734 19.771 16.602 20.382 15.2483 20.7133C14.9801 20.779 14.7176 20.6002 14.6654 20.329L14.486 19.3961C14.4339 19.125 14.6119 18.8644 14.8793 18.7955C15.9337 18.5239 16.9237 18.0407 17.7885 17.3735C18.7854 16.6044 19.588 15.612 20.1318 14.4763C20.6756 13.3406 20.9453 12.0932 20.9194 10.8343C20.8935 9.57537 20.5726 8.3401 19.9826 7.22773C19.3925 6.11536 18.5497 5.15693 17.522 4.42944C16.4942 3.70196 15.3101 3.22571 14.0649 3.03898C12.8196 2.85225 11.5479 2.96024 10.352 3.35428C9.31463 3.69607 8.35935 4.24481 7.54318 4.96541C7.33617 5.14818 7.02057 5.14948 6.82531 4.95422L6.15358 4.28249Z"/>
</mask>
<path d="M6.15358 4.28249C5.95832 4.08722 5.9575 3.76961 6.16228 3.58435C7.19573 2.6494 8.41468 1.93949 9.74179 1.50224C11.2274 1.01276 12.8072 0.878607 14.354 1.11057C15.9009 1.34253 17.3718 1.93414 18.6486 2.83784C19.9253 3.74155 20.9722 4.93215 21.7052 6.31397C22.4382 7.69578 22.8368 9.23028 22.869 10.7941C22.9012 12.358 22.5661 13.9076 21.8906 15.3184C21.2151 16.7292 20.2181 17.9619 18.9797 18.9174C17.8734 19.771 16.602 20.382 15.2483 20.7133C14.9801 20.779 14.7176 20.6002 14.6654 20.329L14.486 19.3961C14.4339 19.125 14.6119 18.8644 14.8793 18.7955C15.9337 18.5239 16.9237 18.0407 17.7885 17.3735C18.7854 16.6044 19.588 15.612 20.1318 14.4763C20.6756 13.3406 20.9453 12.0932 20.9194 10.8343C20.8935 9.57537 20.5726 8.3401 19.9826 7.22773C19.3925 6.11536 18.5497 5.15693 17.522 4.42944C16.4942 3.70196 15.3101 3.22571 14.0649 3.03898C12.8196 2.85225 11.5479 2.96024 10.352 3.35428C9.31463 3.69607 8.35935 4.24481 7.54318 4.96541C7.33617 5.14818 7.02057 5.14948 6.82531 4.95422L6.15358 4.28249Z" stroke="#0C2E82" stroke-width="2" mask="url(#path-2-inside-1_1300_4092)"/>
<path d="M10.2148 9.96191C10.2148 8.40332 11.3926 7.31348 13.0566 7.31348C14.6621 7.31348 15.8457 8.33301 15.8457 9.72754C15.8457 10.624 15.4121 11.3564 13.9941 12.792L12.1133 14.6963V14.7959H15.9805V15.9736H10.2852V15.0244L13.1445 12.0479C14.2754 10.8701 14.5508 10.4248 14.5508 9.80371C14.5508 9.03027 13.8887 8.4502 13.0156 8.4502C12.084 8.4502 11.457 9.05957 11.457 9.96191V9.97949H10.2148V9.96191Z" fill="black"/>
</svg>
