<svg width="87" height="20" viewBox="0 0 87 20" fill="none" xmlns="http://www.w3.org/2000/svg">
<path d="M2.5 8.33329C2.5 5.19079 2.5 3.61913 3.47667 2.64329C4.45333 1.66746 6.02417 1.66663 9.16667 1.66663H10.8333C13.9758 1.66663 15.5475 1.66663 16.5233 2.64329C17.4992 3.61996 17.5 5.19079 17.5 8.33329V11.6666C17.5 14.8091 17.5 16.3808 16.5233 17.3566C15.5467 18.3325 13.9758 18.3333 10.8333 18.3333H9.16667C6.02417 18.3333 4.4525 18.3333 3.47667 17.3566C2.50083 16.38 2.5 14.8091 2.5 11.6666V8.33329Z" stroke="black" stroke-width="1.5"/>
<path d="M6.66699 8.33325H13.3337M6.66699 11.6666H10.8337" stroke="black" stroke-width="1.5" stroke-linecap="round"/>
<path d="M33.0213 5.31818H34.8509V12.4773C34.8475 13.1335 34.7083 13.6986 34.4332 14.1726C34.1581 14.6432 33.7737 15.0062 33.2798 15.2614C32.7893 15.5133 32.2176 15.6392 31.5646 15.6392C30.968 15.6392 30.4311 15.5331 29.9538 15.321C29.4799 15.1056 29.1037 14.7874 28.8253 14.3665C28.5469 13.9455 28.4077 13.4219 28.4077 12.7955H30.2422C30.2455 13.0705 30.3052 13.3075 30.4212 13.5064C30.5405 13.7053 30.7045 13.8577 30.9134 13.9638C31.1222 14.0698 31.3625 14.1229 31.6342 14.1229C31.9292 14.1229 32.1795 14.0616 32.3849 13.9389C32.5904 13.813 32.7462 13.6274 32.8523 13.3821C32.9616 13.1368 33.018 12.8352 33.0213 12.4773V5.31818ZM40.1033 15.6491C39.3576 15.6491 38.7113 15.4851 38.1644 15.157C37.6175 14.8288 37.1933 14.3698 36.8917 13.7798C36.5934 13.1899 36.4442 12.5005 36.4442 11.7116C36.4442 10.9228 36.5934 10.2318 36.8917 9.63849C37.1933 9.04522 37.6175 8.58452 38.1644 8.25639C38.7113 7.92827 39.3576 7.7642 40.1033 7.7642C40.8491 7.7642 41.4954 7.92827 42.0423 8.25639C42.5891 8.58452 43.0117 9.04522 43.31 9.63849C43.6116 10.2318 43.7624 10.9228 43.7624 11.7116C43.7624 12.5005 43.6116 13.1899 43.31 13.7798C43.0117 14.3698 42.5891 14.8288 42.0423 15.157C41.4954 15.4851 40.8491 15.6491 40.1033 15.6491ZM40.1133 14.2074C40.5176 14.2074 40.8557 14.0964 41.1275 13.8743C41.3993 13.6489 41.6014 13.3473 41.734 12.9695C41.8699 12.5916 41.9379 12.1707 41.9379 11.7067C41.9379 11.2393 41.8699 10.8168 41.734 10.4389C41.6014 10.0578 41.3993 9.7545 41.1275 9.52912C40.8557 9.30374 40.5176 9.19105 40.1133 9.19105C39.699 9.19105 39.3543 9.30374 39.0792 9.52912C38.8074 9.7545 38.6036 10.0578 38.4677 10.4389C38.3351 10.8168 38.2688 11.2393 38.2688 11.7067C38.2688 12.1707 38.3351 12.5916 38.4677 12.9695C38.6036 13.3473 38.8074 13.6489 39.0792 13.8743C39.3543 14.0964 39.699 14.2074 40.1133 14.2074ZM45.3695 15.5V5.31818H47.1692V9.12642H47.2438C47.3366 8.94081 47.4675 8.74361 47.6365 8.5348C47.8056 8.32268 48.0343 8.14205 48.3226 7.9929C48.611 7.84044 48.9789 7.7642 49.4263 7.7642C50.0163 7.7642 50.5482 7.91501 51.0222 8.21662C51.4995 8.51491 51.8773 8.95739 52.1557 9.54403C52.4374 10.1274 52.5783 10.8433 52.5783 11.6918C52.5783 12.5303 52.4408 13.2429 52.1657 13.8295C51.8906 14.4162 51.516 14.8636 51.0421 15.1719C50.5681 15.4801 50.0312 15.6342 49.4313 15.6342C48.9938 15.6342 48.6309 15.5613 48.3425 15.4155C48.0542 15.2696 47.8221 15.094 47.6465 14.8885C47.4741 14.6797 47.3399 14.4825 47.2438 14.2969H47.1394V15.5H45.3695ZM47.1344 11.6818C47.1344 12.1757 47.204 12.6082 47.3432 12.9794C47.4857 13.3506 47.6896 13.6406 47.9547 13.8494C48.2232 14.0549 48.548 14.1577 48.9292 14.1577C49.3269 14.1577 49.66 14.0516 49.9284 13.8395C50.1969 13.6241 50.3991 13.3307 50.535 12.9595C50.6742 12.585 50.7438 12.1591 50.7438 11.6818C50.7438 11.2079 50.6758 10.7869 50.54 10.419C50.4041 10.0511 50.2019 9.76278 49.9334 9.55398C49.665 9.34517 49.3302 9.24077 48.9292 9.24077C48.5447 9.24077 48.2182 9.34186 47.9498 9.54403C47.6813 9.74621 47.4775 10.0296 47.3382 10.3942C47.2024 10.7588 47.1344 11.188 47.1344 11.6818ZM57.2131 6.86435V5.31818H65.3366V6.86435H62.1896V15.5H60.3601V6.86435H57.2131ZM66.8232 15.5V7.86364H68.6229V15.5H66.8232ZM67.728 6.77983C67.4429 6.77983 67.1977 6.68537 66.9922 6.49645C66.7867 6.30421 66.6839 6.07386 66.6839 5.8054C66.6839 5.53362 66.7867 5.30327 66.9922 5.11435C67.1977 4.92211 67.4429 4.82599 67.728 4.82599C68.0163 4.82599 68.2616 4.92211 68.4638 5.11435C68.6693 5.30327 68.772 5.53362 68.772 5.8054C68.772 6.07386 68.6693 6.30421 68.4638 6.49645C68.2616 6.68537 68.0163 6.77983 67.728 6.77983ZM74.2868 7.86364V9.25568H69.8968V7.86364H74.2868ZM70.9806 6.03409H72.7804V13.2031C72.7804 13.4451 72.8168 13.6307 72.8897 13.7599C72.966 13.8859 73.0654 13.9721 73.188 14.0185C73.3107 14.0649 73.4466 14.0881 73.5957 14.0881C73.7084 14.0881 73.8111 14.0798 73.9039 14.0632C74.0001 14.0466 74.073 14.0317 74.1227 14.0185L74.426 15.4254C74.3298 15.4586 74.1923 15.495 74.0133 15.5348C73.8377 15.5746 73.6222 15.5978 73.367 15.6044C72.9163 15.6177 72.5102 15.5497 72.149 15.4006C71.7877 15.2481 71.501 15.0128 71.2889 14.6946C71.0801 14.3764 70.9773 13.9787 70.9806 13.5014V6.03409ZM77.7557 5.31818V15.5H75.956V5.31818H77.7557ZM82.987 15.6491C82.2214 15.6491 81.5602 15.4901 81.0034 15.1719C80.4499 14.8504 80.024 14.3963 79.7257 13.8097C79.4274 13.2197 79.2782 12.5253 79.2782 11.7266C79.2782 10.9411 79.4274 10.2517 79.7257 9.65838C80.0273 9.06179 80.4482 8.59777 80.9885 8.26633C81.5287 7.93158 82.1634 7.7642 82.8926 7.7642C83.3632 7.7642 83.8074 7.84044 84.225 7.9929C84.6459 8.14205 85.0171 8.37405 85.3386 8.68892C85.6634 9.00379 85.9186 9.40483 86.1042 9.89205C86.2898 10.3759 86.3826 10.9527 86.3826 11.6222V12.174H80.1234V10.9609H84.6575C84.6542 10.6162 84.5796 10.3097 84.4338 10.0412C84.2879 9.76941 84.0841 9.55563 83.8223 9.39986C83.5637 9.24408 83.2621 9.16619 82.9174 9.16619C82.5495 9.16619 82.2264 9.25568 81.948 9.43466C81.6696 9.61032 81.4525 9.84233 81.2967 10.1307C81.1442 10.4157 81.0663 10.7289 81.063 11.0703V12.1293C81.063 12.5734 81.1442 12.9545 81.3066 13.2727C81.469 13.5876 81.6961 13.8295 81.9877 13.9986C82.2794 14.1643 82.6208 14.2472 83.0119 14.2472C83.2737 14.2472 83.5107 14.2107 83.7228 14.1378C83.935 14.0616 84.1189 13.9505 84.2747 13.8047C84.4305 13.6589 84.5481 13.4782 84.6277 13.2628L86.3081 13.4517C86.202 13.8958 85.9998 14.2836 85.7015 14.6151C85.4065 14.9432 85.0287 15.1984 84.568 15.3807C84.1073 15.5597 83.5803 15.6491 82.987 15.6491Z" fill="black"/>
</svg>
