<svg width="25" height="25" viewBox="0 0 25 25" fill="none" xmlns="http://www.w3.org/2000/svg">
<path d="M7.78735 18.7375C5.95835 19.1495 4.78735 19.7815 4.78735 20.4915C4.78735 21.7315 8.36935 22.7375 12.7874 22.7375C17.2054 22.7375 20.7874 21.7315 20.7874 20.4915C20.7874 19.7815 19.6164 19.1495 17.7874 18.7375M15.2874 9.73755C15.2874 10.4006 15.024 11.0365 14.5551 11.5053C14.0863 11.9742 13.4504 12.2375 12.7874 12.2375C12.1243 12.2375 11.4884 11.9742 11.0196 11.5053C10.5507 11.0365 10.2874 10.4006 10.2874 9.73755C10.2874 9.07451 10.5507 8.43862 11.0196 7.96978C11.4884 7.50094 12.1243 7.23755 12.7874 7.23755C13.4504 7.23755 14.0863 7.50094 14.5551 7.96978C15.024 8.43862 15.2874 9.07451 15.2874 9.73755Z" stroke="black" stroke-width="1.5" stroke-linecap="round" stroke-linejoin="round"/>
<path d="M14.0443 18.2315C13.7066 18.5565 13.2561 18.7381 12.7873 18.7381C12.3186 18.7381 11.8681 18.5565 11.5303 18.2315C8.44135 15.2385 4.30235 11.8955 6.32035 7.04155C7.41335 4.41655 10.0333 2.73755 12.7873 2.73755C15.5413 2.73755 18.1623 4.41755 19.2543 7.04155C21.2703 11.8885 17.1413 15.2485 14.0443 18.2315Z" stroke="black" stroke-width="1.5" stroke-linecap="round" stroke-linejoin="round"/>
</svg>
