<svg width="24" height="25" viewBox="0 0 24 25" fill="none" xmlns="http://www.w3.org/2000/svg">
<path d="M12 17.9503C12.5304 17.9503 13.0391 17.7395 13.4142 17.3645C13.7893 16.9894 14 16.4807 14 15.9503C14 15.4198 13.7893 14.9111 13.4142 14.536C13.0391 14.161 12.5304 13.9503 12 13.9503C11.4696 13.9503 10.9609 14.161 10.5858 14.536C10.2107 14.9111 10 15.4198 10 15.9503C10 16.4807 10.2107 16.9894 10.5858 17.3645C10.9609 17.7395 11.4696 17.9503 12 17.9503ZM18 8.95026C18.5304 8.95026 19.0391 9.16097 19.4142 9.53604C19.7893 9.91112 20 10.4198 20 10.9503V20.9503C20 21.4807 19.7893 21.9894 19.4142 22.3645C19.0391 22.7395 18.5304 22.9503 18 22.9503H6C5.46957 22.9503 4.96086 22.7395 4.58579 22.3645C4.21071 21.9894 4 21.4807 4 20.9503V10.9503C4 10.4198 4.21071 9.91112 4.58579 9.53604C4.96086 9.16097 5.46957 8.95026 6 8.95026H7V6.95026C7 5.62417 7.52678 4.3524 8.46447 3.41472C9.40215 2.47704 10.6739 1.95026 12 1.95026C12.6566 1.95026 13.3068 2.07959 13.9134 2.33086C14.52 2.58213 15.0712 2.95043 15.5355 3.41472C15.9998 3.87902 16.3681 4.43021 16.6194 5.03684C16.8707 5.64347 17 6.29365 17 6.95026V8.95026H18ZM12 3.95026C11.2044 3.95026 10.4413 4.26633 9.87868 4.82894C9.31607 5.39155 9 6.15461 9 6.95026V8.95026H15V6.95026C15 6.15461 14.6839 5.39155 14.1213 4.82894C13.5587 4.26633 12.7956 3.95026 12 3.95026Z" fill="black"/>
</svg>
