<svg width="85" height="19" viewBox="0 0 85 19" fill="none" xmlns="http://www.w3.org/2000/svg">
<path d="M11.988 1.30371C10.9628 1.30371 10.1355 1.30371 9.48527 1.39146C8.81027 1.48146 8.24177 1.67646 7.79027 2.12721C7.39727 2.52096 7.19777 3.00471 7.09352 3.57321C6.99227 4.12596 6.97277 4.80171 6.96827 5.61321C6.96747 5.76239 7.02597 5.90579 7.1309 6.01184C7.23583 6.11789 7.37859 6.17792 7.52777 6.17871C7.67695 6.17951 7.82034 6.12101 7.9264 6.01608C8.03245 5.91115 8.09247 5.7684 8.09327 5.61921C8.09777 4.79946 8.11877 4.21821 8.19977 3.77646C8.27852 3.35196 8.40377 3.10521 8.58602 2.92296C8.79377 2.71521 9.08552 2.58021 9.63602 2.50596C10.2023 2.43021 10.953 2.42871 12.0293 2.42871H12.7793C13.8563 2.42871 14.607 2.43021 15.1733 2.50596C15.7238 2.58021 16.0148 2.71596 16.2233 2.92296C16.4303 3.13071 16.5653 3.42171 16.6395 3.97296C16.716 4.53846 16.7168 5.28996 16.7168 6.36621V12.3662C16.7168 13.4425 16.716 14.1932 16.6395 14.7602C16.5653 15.3107 16.4303 15.6017 16.2225 15.8095C16.0148 16.0172 15.7238 16.1522 15.1733 16.2265C14.607 16.3022 13.8563 16.3037 12.7793 16.3037H12.0293C10.953 16.3037 10.2023 16.3022 9.63527 16.2265C9.08552 16.1522 8.79377 16.0165 8.58602 15.8095C8.40377 15.6265 8.27852 15.3805 8.19977 14.956C8.11877 14.5142 8.09777 13.933 8.09327 13.1132C8.09288 13.0393 8.07794 12.9663 8.0493 12.8982C8.02067 12.8301 7.97891 12.7683 7.9264 12.7163C7.87388 12.6644 7.81165 12.6233 7.74326 12.5954C7.67486 12.5675 7.60164 12.5533 7.52777 12.5537C7.4539 12.5541 7.38083 12.569 7.31274 12.5977C7.24464 12.6263 7.18286 12.6681 7.1309 12.7206C7.07895 12.7731 7.03784 12.8353 7.00994 12.9037C6.98204 12.9721 6.96788 13.0453 6.96827 13.1192C6.97277 13.9307 6.99227 14.6065 7.09352 15.1592C7.19852 15.7277 7.39727 16.2115 7.79102 16.6052C8.24177 17.0567 8.81102 17.2502 9.48602 17.3417C10.1355 17.4287 10.9628 17.4287 11.988 17.4287H12.8205C13.8465 17.4287 14.673 17.4287 15.3233 17.3417C15.9983 17.2502 16.5668 17.0567 17.0183 16.6052C17.4698 16.1537 17.6633 15.5852 17.7548 14.9102C17.8418 14.26 17.8418 13.4327 17.8418 12.4075V6.32496C17.8418 5.29971 17.8418 4.47246 17.7548 3.82221C17.664 3.14721 17.4698 2.57871 17.0183 2.12721C16.5668 1.67571 15.9983 1.48221 15.3233 1.39146C14.673 1.30371 13.8458 1.30371 12.8205 1.30371H11.988Z" fill="#F02E2E"/>
<path d="M12.0292 8.80374C12.1784 8.80374 12.3215 8.863 12.427 8.96849C12.5325 9.07398 12.5917 9.21705 12.5917 9.36624C12.5917 9.51542 12.5325 9.6585 12.427 9.76399C12.3215 9.86948 12.1784 9.92874 12.0292 9.92874H3.79948L5.27023 11.1887C5.38361 11.2858 5.45378 11.4239 5.46532 11.5728C5.47685 11.7216 5.4288 11.8689 5.33173 11.9822C5.23466 12.0956 5.09652 12.1658 4.94771 12.1773C4.7989 12.1889 4.65161 12.1408 4.53823 12.0437L1.91323 9.79374C1.85148 9.74093 1.8019 9.67537 1.7679 9.60157C1.73391 9.52778 1.71631 9.44749 1.71631 9.36624C1.71631 9.28499 1.73391 9.2047 1.7679 9.1309C1.8019 9.0571 1.85148 8.99155 1.91323 8.93874L4.53823 6.68874C4.59437 6.64068 4.65942 6.60414 4.72968 6.58122C4.79994 6.5583 4.87403 6.54944 4.94771 6.55515C5.0214 6.56086 5.09323 6.58103 5.15912 6.6145C5.22501 6.64798 5.28366 6.6941 5.33173 6.75024C5.37979 6.80638 5.41633 6.87144 5.43925 6.9417C5.46217 7.01196 5.47103 7.08604 5.46532 7.15973C5.4596 7.23341 5.43944 7.30525 5.40596 7.37114C5.37249 7.43702 5.32637 7.49567 5.27023 7.54374L3.80023 8.80374H12.0292Z" fill="#F02E2E"/>
<path d="M41.6411 13.0586V14.3662H35.9282V5.20654H37.3501V13.0586H41.6411ZM45.8877 14.4995C43.8628 14.4995 42.625 13.1475 42.625 10.9067C42.625 8.67871 43.8691 7.32031 45.8877 7.32031C47.8999 7.32031 49.144 8.67871 49.144 10.9067C49.144 13.1475 47.9062 14.4995 45.8877 14.4995ZM45.8877 13.2871C47.0684 13.2871 47.7412 12.4111 47.7412 10.9067C47.7412 9.40869 47.0684 8.53271 45.8877 8.53271C44.7007 8.53271 44.0342 9.40869 44.0342 10.9067C44.0342 12.4175 44.7007 13.2871 45.8877 13.2871ZM53.6826 13.084C54.8506 13.084 55.5552 12.208 55.5552 10.8242C55.5552 9.44678 54.8442 8.56445 53.6826 8.56445C52.5083 8.56445 51.8481 9.44678 51.8481 10.8242C51.8481 12.2017 52.5083 13.084 53.6826 13.084ZM53.7017 17.0068C51.9751 17.0068 50.8579 16.2324 50.7119 15.0581H52.1084C52.2227 15.5596 52.8003 15.8833 53.7207 15.8833C54.8569 15.8833 55.5298 15.3438 55.5298 14.4297V13.103H55.4282C55.0093 13.8521 54.2476 14.2646 53.2954 14.2646C51.5308 14.2646 50.439 12.8999 50.439 10.8306C50.439 8.72314 51.5435 7.33936 53.3081 7.33936C54.2603 7.33936 55.0918 7.80908 55.479 8.55811H55.5869V7.45361H56.8945V14.4233C56.8945 16.0039 55.6567 17.0068 53.7017 17.0068ZM66.4922 4.98438C69.1328 4.98438 70.7578 6.83154 70.7578 9.7832C70.7578 12.7285 69.1455 14.5884 66.4922 14.5884C63.8325 14.5884 62.2139 12.7349 62.2139 9.7832C62.2139 6.8252 63.8643 4.98438 66.4922 4.98438ZM66.4922 6.31104C64.7656 6.31104 63.6675 7.65674 63.6675 9.7832C63.6675 11.897 64.7339 13.2617 66.4922 13.2617C68.2314 13.2617 69.3042 11.897 69.3042 9.7832C69.3042 7.65674 68.2314 6.31104 66.4922 6.31104ZM78.3496 7.45361V14.3662H77.0356V13.2681H76.9277C76.5913 14.0552 75.8867 14.4995 74.8394 14.4995C73.3096 14.4995 72.459 13.5664 72.459 11.9414V7.45361H73.8237V11.5859C73.8237 12.7031 74.2744 13.2363 75.2773 13.2363C76.3818 13.2363 76.9849 12.5825 76.9849 11.4971V7.45361H78.3496ZM80.8125 5.7334H82.1772V7.48535H83.6753V8.63428H82.1772V12.189C82.1772 12.9126 82.4756 13.23 83.1548 13.23C83.3643 13.23 83.4849 13.2173 83.6753 13.1982V14.3345C83.4531 14.3726 83.1992 14.4043 82.9326 14.4043C81.4155 14.4043 80.8125 13.8711 80.8125 12.5381V8.63428H79.7144V7.48535H80.8125V5.7334Z" fill="#F02E2E"/>
</svg>
