<svg width="311" height="75" viewBox="0 0 311 75" fill="none" xmlns="http://www.w3.org/2000/svg">
<path d="M141.5 27.1064C140.537 27.1064 139.714 26.7829 139.029 26.1357C138.344 25.4886 138.001 24.7097 138 23.7991V3.95483C138 3.04531 138.343 2.26697 139.029 1.61983C139.715 0.972686 140.539 0.648563 141.5 0.647461H169.5C170.462 0.647461 171.287 0.971583 171.973 1.61983C172.659 2.26807 173.001 3.04641 173 3.95483V23.7991C173 24.7086 172.658 25.4875 171.973 26.1357C171.288 26.784 170.464 27.1075 169.5 27.1064H141.5ZM155.5 15.5306L169.5 7.26221V3.95483L155.5 12.2233L141.5 3.95483V7.26221L155.5 15.5306Z" fill="#143567"/>
<path d="M10.25 68.1064H7.36719L1.32031 51.1963H4.17969L8.73828 64.8252H8.9375L13.4727 51.1963H16.2617L10.25 68.1064ZM22.8945 57.2432C21.0312 57.2432 19.7305 58.5557 19.5898 60.5479H26.0352C25.9766 58.5439 24.7578 57.2432 22.8945 57.2432ZM26.0234 64.6611H28.4492C27.875 66.9463 25.8359 68.3525 22.918 68.3525C19.2617 68.3525 17.0234 65.8447 17.0234 61.7666C17.0234 57.6885 19.3086 55.0986 22.9062 55.0986C26.457 55.0986 28.6016 57.5244 28.6016 61.5322V62.4111H19.5898V62.5518C19.6719 64.79 20.9727 66.208 22.9883 66.208C24.5117 66.208 25.5547 65.6572 26.0234 64.6611ZM31.625 68.1064V55.3447H34.0508V57.3018H34.2383C34.6016 56.0479 36.0195 55.1338 37.6836 55.1338C38.0586 55.1338 38.5391 55.1689 38.8086 55.2393V57.7236C38.5977 57.6533 37.8477 57.5713 37.4023 57.5713C35.4922 57.5713 34.1445 58.7783 34.1445 60.5713V68.1064H31.625ZM41.2812 68.1064V55.3447H43.7891V68.1064H41.2812ZM42.5352 53.1064C41.5977 53.1064 40.9062 52.4385 40.9062 51.5713C40.9062 50.6924 41.5977 50.0244 42.5352 50.0244C43.4727 50.0244 44.1641 50.6924 44.1641 51.5713C44.1641 52.4385 43.4727 53.1064 42.5352 53.1064ZM48.3945 68.1064V57.5244H46.2969V55.4033H48.3945V54.0322C48.3945 51.501 49.6836 50.2471 52.332 50.2471C52.9062 50.2471 53.3984 50.2939 53.832 50.376V52.3564C53.5977 52.3096 53.2578 52.2861 52.8594 52.2861C51.4531 52.2861 50.8789 52.9189 50.8789 54.1846V55.4033H53.7266V57.5244H50.9141V68.1064H48.3945ZM57.8516 72.7354C57.6406 72.7354 57.043 72.7119 56.8086 72.6768V70.5088C57.0078 70.5439 57.3945 70.5557 57.6289 70.5557C58.8242 70.5557 59.5039 70.0635 59.9375 68.7744L60.125 68.1533L55.5078 55.3447H58.25L61.4492 65.4814H61.6484L64.8359 55.3447H67.5078L62.75 68.6338C61.6602 71.7393 60.4531 72.7354 57.8516 72.7354ZM77.9141 72.7354C77.7031 72.7354 77.1055 72.7119 76.8711 72.6768V70.5088C77.0703 70.5439 77.457 70.5557 77.6914 70.5557C78.8867 70.5557 79.5664 70.0635 80 68.7744L80.1875 68.1533L75.5703 55.3447H78.3125L81.5117 65.4814H81.7109L84.8984 55.3447H87.5703L82.8125 68.6338C81.7227 71.7393 80.5156 72.7354 77.9141 72.7354ZM95.0469 68.3525C91.3086 68.3525 89.0234 65.8564 89.0234 61.7197C89.0234 57.6064 91.3203 55.0986 95.0469 55.0986C98.7617 55.0986 101.059 57.6064 101.059 61.7197C101.059 65.8564 98.7734 68.3525 95.0469 68.3525ZM95.0469 66.1143C97.2266 66.1143 98.4688 64.4971 98.4688 61.7197C98.4688 58.9541 97.2266 57.3369 95.0469 57.3369C92.8555 57.3369 91.625 58.9541 91.625 61.7197C91.625 64.5088 92.8555 66.1143 95.0469 66.1143ZM114.852 55.3447V68.1064H112.426V66.0791H112.227C111.605 67.5322 110.305 68.3525 108.371 68.3525C105.547 68.3525 103.977 66.6299 103.977 63.6299V55.3447H106.496V62.9736C106.496 65.0361 107.328 66.0205 109.18 66.0205C111.219 66.0205 112.332 64.8135 112.332 62.8096V55.3447H114.852ZM118.508 68.1064V55.3447H120.934V57.3018H121.121C121.484 56.0479 122.902 55.1338 124.566 55.1338C124.941 55.1338 125.422 55.1689 125.691 55.2393V57.7236C125.48 57.6533 124.73 57.5713 124.285 57.5713C122.375 57.5713 121.027 58.7783 121.027 60.5713V68.1064H118.508ZM139.918 57.2432C138.055 57.2432 136.754 58.5557 136.613 60.5479H143.059C143 58.5439 141.781 57.2432 139.918 57.2432ZM143.047 64.6611H145.473C144.898 66.9463 142.859 68.3525 139.941 68.3525C136.285 68.3525 134.047 65.8447 134.047 61.7666C134.047 57.6885 136.332 55.0986 139.93 55.0986C143.48 55.0986 145.625 57.5244 145.625 61.5322V62.4111H136.613V62.5518C136.695 64.79 137.996 66.208 140.012 66.208C141.535 66.208 142.578 65.6572 143.047 64.6611ZM148.648 68.1064V55.3447H151.074V57.3955H151.262C151.824 55.9541 153.113 55.0986 154.812 55.0986C156.559 55.0986 157.766 56.001 158.328 57.3955H158.527C159.172 56.001 160.637 55.0986 162.406 55.0986C164.984 55.0986 166.484 56.6572 166.484 59.3174V68.1064H163.965V59.9736C163.965 58.251 163.145 57.4072 161.492 57.4072C159.863 57.4072 158.797 58.5791 158.797 60.0791V68.1064H156.324V59.7275C156.324 58.2861 155.363 57.4072 153.863 57.4072C152.328 57.4072 151.168 58.6611 151.168 60.3018V68.1064H148.648ZM174.195 66.1963C176.094 66.1963 177.5 64.9893 177.5 63.4072V62.3408L174.383 62.54C172.625 62.6572 171.828 63.2549 171.828 64.3799C171.828 65.5283 172.824 66.1963 174.195 66.1963ZM173.551 68.3174C171.09 68.3174 169.297 66.8291 169.297 64.4971C169.297 62.2002 171.008 60.876 174.043 60.6885L177.5 60.4893V59.3877C177.5 58.04 176.609 57.2783 174.887 57.2783C173.48 57.2783 172.508 57.7939 172.227 58.6963H169.789C170.047 56.5049 172.109 55.0986 175.004 55.0986C178.203 55.0986 180.008 56.6924 180.008 59.3877V68.1064H177.582V66.3135H177.383C176.621 67.5908 175.227 68.3174 173.551 68.3174ZM183.641 68.1064V55.3447H186.148V68.1064H183.641ZM184.895 53.1064C183.957 53.1064 183.266 52.4385 183.266 51.5713C183.266 50.6924 183.957 50.0244 184.895 50.0244C185.832 50.0244 186.523 50.6924 186.523 51.5713C186.523 52.4385 185.832 53.1064 184.895 53.1064ZM189.969 68.1064V50.3643H192.488V68.1064H189.969ZM214.074 68.1064L212.527 63.6182H206.082L204.523 68.1064H201.828L207.934 51.1963H210.758L216.863 68.1064H214.074ZM209.211 54.2666L206.75 61.415H211.859L209.41 54.2666H209.211ZM223.484 68.3174C220.238 68.3174 218.188 65.7627 218.188 61.7197C218.188 57.6885 220.262 55.1338 223.484 55.1338C225.23 55.1338 226.707 55.9658 227.398 57.3721H227.586V50.3643H230.105V68.1064H227.691V66.0908H227.492C226.73 67.4854 225.242 68.3174 223.484 68.3174ZM224.199 57.3955C222.078 57.3955 220.789 59.0361 220.789 61.7197C220.789 64.4268 222.066 66.0557 224.199 66.0557C226.32 66.0557 227.633 64.4033 227.633 61.7314C227.633 59.0713 226.309 57.3955 224.199 57.3955ZM238.555 68.3174C235.309 68.3174 233.258 65.7627 233.258 61.7197C233.258 57.6885 235.332 55.1338 238.555 55.1338C240.301 55.1338 241.777 55.9658 242.469 57.3721H242.656V50.3643H245.176V68.1064H242.762V66.0908H242.562C241.801 67.4854 240.312 68.3174 238.555 68.3174ZM239.27 57.3955C237.148 57.3955 235.859 59.0361 235.859 61.7197C235.859 64.4268 237.137 66.0557 239.27 66.0557C241.391 66.0557 242.703 64.4033 242.703 61.7314C242.703 59.0713 241.379 57.3955 239.27 57.3955ZM248.961 68.1064V55.3447H251.387V57.3018H251.574C251.938 56.0479 253.355 55.1338 255.02 55.1338C255.395 55.1338 255.875 55.1689 256.145 55.2393V57.7236C255.934 57.6533 255.184 57.5713 254.738 57.5713C252.828 57.5713 251.48 58.7783 251.48 60.5713V68.1064H248.961ZM263.48 57.2432C261.617 57.2432 260.316 58.5557 260.176 60.5479H266.621C266.562 58.5439 265.344 57.2432 263.48 57.2432ZM266.609 64.6611H269.035C268.461 66.9463 266.422 68.3525 263.504 68.3525C259.848 68.3525 257.609 65.8447 257.609 61.7666C257.609 57.6885 259.895 55.0986 263.492 55.0986C267.043 55.0986 269.188 57.5244 269.188 61.5322V62.4111H260.176V62.5518C260.258 64.79 261.559 66.208 263.574 66.208C265.098 66.208 266.141 65.6572 266.609 64.6611ZM271.918 58.9541C271.918 56.6924 273.992 55.0986 276.875 55.0986C279.746 55.0986 281.621 56.4346 281.867 58.6846H279.453C279.219 57.7471 278.305 57.1494 276.875 57.1494C275.469 57.1494 274.402 57.8174 274.402 58.8135C274.402 59.5752 275.047 60.0557 276.43 60.3721L278.551 60.8643C280.977 61.4268 282.113 62.4697 282.113 64.3447C282.113 66.7471 279.875 68.3525 276.828 68.3525C273.793 68.3525 271.812 66.9814 271.59 64.7197H274.109C274.426 65.7041 275.363 66.3135 276.887 66.3135C278.457 66.3135 279.57 65.6104 279.57 64.5908C279.57 63.8291 278.973 63.3369 277.695 63.0322L275.469 62.5166C273.043 61.9424 271.918 60.8525 271.918 58.9541ZM284.621 58.9541C284.621 56.6924 286.695 55.0986 289.578 55.0986C292.449 55.0986 294.324 56.4346 294.57 58.6846H292.156C291.922 57.7471 291.008 57.1494 289.578 57.1494C288.172 57.1494 287.105 57.8174 287.105 58.8135C287.105 59.5752 287.75 60.0557 289.133 60.3721L291.254 60.8643C293.68 61.4268 294.816 62.4697 294.816 64.3447C294.816 66.7471 292.578 68.3525 289.531 68.3525C286.496 68.3525 284.516 66.9814 284.293 64.7197H286.812C287.129 65.7041 288.066 66.3135 289.59 66.3135C291.16 66.3135 292.273 65.6104 292.273 64.5908C292.273 63.8291 291.676 63.3369 290.398 63.0322L288.172 62.5166C285.746 61.9424 284.621 60.8525 284.621 58.9541Z" fill="black"/>
</svg>
