<svg width="25" height="25" viewBox="0 0 25 25" fill="none" xmlns="http://www.w3.org/2000/svg">
<path d="M12.5 2.06445C11.1868 2.06445 9.88642 2.32311 8.67317 2.82566C7.45991 3.3282 6.35752 4.0648 5.42893 4.99339C3.55357 6.86875 2.5 9.41229 2.5 12.0645C2.5 16.4845 5.37 20.2345 9.34 21.5645C9.84 21.6445 10 21.3345 10 21.0645V19.3745C7.23 19.9745 6.64 18.0345 6.64 18.0345C6.18 16.8745 5.53 16.5645 5.53 16.5645C4.62 15.9445 5.6 15.9645 5.6 15.9645C6.6 16.0345 7.13 16.9945 7.13 16.9945C8 18.5145 9.47 18.0645 10.04 17.8245C10.13 17.1745 10.39 16.7345 10.67 16.4845C8.45 16.2345 6.12 15.3745 6.12 11.5645C6.12 10.4545 6.5 9.56445 7.15 8.85445C7.05 8.60445 6.7 7.56445 7.25 6.21445C7.25 6.21445 8.09 5.94445 10 7.23445C10.79 7.01445 11.65 6.90445 12.5 6.90445C13.35 6.90445 14.21 7.01445 15 7.23445C16.91 5.94445 17.75 6.21445 17.75 6.21445C18.3 7.56445 17.95 8.60445 17.85 8.85445C18.5 9.56445 18.88 10.4545 18.88 11.5645C18.88 15.3845 16.54 16.2245 14.31 16.4745C14.67 16.7845 15 17.3945 15 18.3245V21.0645C15 21.3345 15.16 21.6545 15.67 21.5645C19.64 20.2245 22.5 16.4845 22.5 12.0645C22.5 10.7512 22.2413 9.45087 21.7388 8.23762C21.2362 7.02436 20.4997 5.92197 19.5711 4.99339C18.6425 4.0648 17.5401 3.3282 16.3268 2.82566C15.1136 2.32311 13.8132 2.06445 12.5 2.06445Z" fill="black"/>
</svg>
