<svg width="72" height="73" viewBox="0 0 72 73" fill="none" xmlns="http://www.w3.org/2000/svg">
<rect y="0.5" width="72" height="72" rx="4" fill="#E7F0FA"/>
<g clip-path="url(#clip0_1_313)">
<path opacity="0.2" d="M29.7501 41.5C34.2374 41.5 37.8751 37.8623 37.8751 33.375C37.8751 28.8877 34.2374 25.25 29.7501 25.25C25.2627 25.25 21.6251 28.8877 21.6251 33.375C21.6251 37.8623 25.2627 41.5 29.7501 41.5Z" fill="#143567"/>
<path d="M29.7501 41.5C34.2374 41.5 37.8751 37.8623 37.8751 33.375C37.8751 28.8877 34.2374 25.25 29.7501 25.25C25.2627 25.25 21.6251 28.8877 21.6251 33.375C21.6251 37.8623 25.2627 41.5 29.7501 41.5Z" stroke="#143567" stroke-width="2" stroke-miterlimit="10"/>
<path d="M40.2833 25.5526C41.4009 25.2377 42.5729 25.166 43.7205 25.3422C44.8681 25.5184 45.9646 25.9386 46.9361 26.5743C47.9077 27.2099 48.7317 28.0465 49.3528 29.0274C49.9738 30.0084 50.3774 31.1111 50.5364 32.2612C50.6954 33.4113 50.6061 34.5821 50.2745 35.6948C49.9429 36.8075 49.3767 37.8362 48.614 38.7116C47.8514 39.5871 46.91 40.2889 45.8533 40.7699C44.7965 41.2508 43.649 41.4998 42.488 41.4999" stroke="#143567" stroke-width="2" stroke-linecap="round" stroke-linejoin="round"/>
<path d="M18.4993 47.3432C19.7683 45.5382 21.4529 44.065 23.411 43.048C25.369 42.031 27.543 41.5001 29.7495 41.5C31.9559 41.4999 34.1299 42.0307 36.0881 43.0476C38.0462 44.0644 39.7309 45.5375 41 47.3424" stroke="#143567" stroke-width="2" stroke-linecap="round" stroke-linejoin="round"/>
<path d="M42.4879 41.5C44.6945 41.4984 46.8691 42.0285 48.8273 43.0455C50.7856 44.0625 52.4701 45.5364 53.738 47.3424" stroke="#143567" stroke-width="2" stroke-linecap="round" stroke-linejoin="round"/>
</g>
<defs>
<clipPath id="clip0_1_313">
<rect width="40" height="40" fill="white" transform="translate(16 16.5)"/>
</clipPath>
</defs>
</svg>
