<svg width="517" height="43" viewBox="0 0 517 43" fill="none" xmlns="http://www.w3.org/2000/svg">
<rect y="0.820068" width="517" height="10.1292" rx="5" fill="#D1D1D1"/>
<rect y="0.820068" width="303.305" height="10.1292" rx="5" fill="#DDAB6A"/>
<path d="M0.772461 36.2969H2.29004C2.41992 37.2334 3.33594 37.8281 4.65527 37.8281C5.88574 37.8281 6.78809 37.1924 6.78809 36.3174C6.78809 35.5654 6.21387 35.1143 4.9082 34.8066L3.63672 34.499C1.85254 34.082 1.03906 33.2207 1.03906 31.7715C1.03906 30.0146 2.47461 28.8457 4.62793 28.8457C6.63086 28.8457 8.09375 30.0146 8.18262 31.6758H6.69238C6.54883 30.7666 5.75586 30.1992 4.60742 30.1992C3.39746 30.1992 2.59082 30.7803 2.59082 31.6689C2.59082 32.373 3.11035 32.7764 4.39551 33.0771L5.48242 33.3438C7.50586 33.8154 8.33984 34.6357 8.33984 36.1191C8.33984 38.0059 6.87695 39.1885 4.53906 39.1885C2.35156 39.1885 0.881836 38.0605 0.772461 36.2969ZM10.7051 29.6523H12.1748V31.5391H13.7881V32.7764H12.1748V36.6045C12.1748 37.3838 12.4961 37.7256 13.2275 37.7256C13.4531 37.7256 13.583 37.7119 13.7881 37.6914V38.915C13.5488 38.9561 13.2754 38.9902 12.9883 38.9902C11.3545 38.9902 10.7051 38.416 10.7051 36.9805V32.7764H9.52246V31.5391H10.7051V29.6523ZM15.5176 38.9492V31.5049H16.9326V32.6465H17.042C17.2539 31.915 18.0811 31.3818 19.0518 31.3818C19.2705 31.3818 19.5508 31.4023 19.708 31.4434V32.8926C19.585 32.8516 19.1475 32.8037 18.8877 32.8037C17.7734 32.8037 16.9873 33.5078 16.9873 34.5537V38.9492H15.5176ZM23.9873 32.6123C22.9004 32.6123 22.1416 33.3779 22.0596 34.54H25.8193C25.7852 33.3711 25.0742 32.6123 23.9873 32.6123ZM25.8125 36.9395H27.2275C26.8926 38.2725 25.7031 39.0928 24.001 39.0928C21.8682 39.0928 20.5625 37.6299 20.5625 35.251C20.5625 32.8721 21.8955 31.3613 23.9941 31.3613C26.0654 31.3613 27.3164 32.7764 27.3164 35.1143V35.627H22.0596V35.709C22.1074 37.0146 22.8662 37.8418 24.042 37.8418C24.9307 37.8418 25.5391 37.5205 25.8125 36.9395ZM29.0801 38.9492V31.5049H30.4951V32.6875H30.6045C30.9668 31.8604 31.7051 31.3613 32.8262 31.3613C34.4873 31.3613 35.4033 32.3594 35.4033 34.1299V38.9492H33.9336V34.499C33.9336 33.3027 33.4141 32.708 32.3271 32.708C31.2402 32.708 30.5498 33.4326 30.5498 34.5947V38.9492H29.0801ZM40.5918 37.5684C41.8496 37.5684 42.6084 36.625 42.6084 35.1348C42.6084 33.6514 41.8428 32.7012 40.5918 32.7012C39.3271 32.7012 38.6162 33.6514 38.6162 35.1348C38.6162 36.6182 39.3271 37.5684 40.5918 37.5684ZM40.6123 41.793C38.7529 41.793 37.5498 40.959 37.3926 39.6943H38.8965C39.0195 40.2344 39.6416 40.583 40.6328 40.583C41.8564 40.583 42.5811 40.002 42.5811 39.0176V37.5889H42.4717C42.0205 38.3955 41.2002 38.8398 40.1748 38.8398C38.2744 38.8398 37.0986 37.3701 37.0986 35.1416C37.0986 32.8721 38.2881 31.3818 40.1885 31.3818C41.2139 31.3818 42.1094 31.8877 42.5264 32.6943H42.6426V31.5049H44.0508V39.0107C44.0508 40.7129 42.7178 41.793 40.6123 41.793ZM46.7031 29.6523H48.1729V31.5391H49.7861V32.7764H48.1729V36.6045C48.1729 37.3838 48.4941 37.7256 49.2256 37.7256C49.4512 37.7256 49.5811 37.7119 49.7861 37.6914V38.915C49.5469 38.9561 49.2734 38.9902 48.9863 38.9902C47.3525 38.9902 46.7031 38.416 46.7031 36.9805V32.7764H45.5205V31.5391H46.7031V29.6523ZM51.584 38.9492V28.5996H53.04V32.7012H53.1562C53.5186 31.8672 54.3047 31.3682 55.4258 31.3682C57.0117 31.3682 57.9893 32.373 57.9893 34.1436V38.9492H56.5195V34.5059C56.5195 33.3164 55.9658 32.7148 54.9268 32.7148C53.7236 32.7148 53.0537 33.4736 53.0537 34.6016V38.9492H51.584Z" fill="black"/>
<path d="M63.8887 38.9492V31.5049H65.3037V32.7012H65.4131C65.7412 31.8604 66.4932 31.3613 67.4844 31.3613C68.5029 31.3613 69.207 31.8877 69.5352 32.7012H69.6514C70.0273 31.8877 70.8818 31.3613 71.9141 31.3613C73.418 31.3613 74.293 32.2705 74.293 33.8223V38.9492H72.8232V34.2051C72.8232 33.2002 72.3447 32.708 71.3809 32.708C70.4307 32.708 69.8086 33.3916 69.8086 34.2666V38.9492H68.3662V34.0615C68.3662 33.2207 67.8057 32.708 66.9307 32.708C66.0352 32.708 65.3584 33.4395 65.3584 34.3965V38.9492H63.8887ZM79.502 39.0928C77.3213 39.0928 75.9883 37.6367 75.9883 35.2236C75.9883 32.8242 77.3281 31.3613 79.502 31.3613C81.6689 31.3613 83.0088 32.8242 83.0088 35.2236C83.0088 37.6367 81.6758 39.0928 79.502 39.0928ZM79.502 37.7871C80.7734 37.7871 81.498 36.8438 81.498 35.2236C81.498 33.6104 80.7734 32.667 79.502 32.667C78.2236 32.667 77.5059 33.6104 77.5059 35.2236C77.5059 36.8506 78.2236 37.7871 79.502 37.7871ZM87.5 39.0723C85.6064 39.0723 84.4102 37.582 84.4102 35.2236C84.4102 32.8721 85.6201 31.3818 87.5 31.3818C88.5186 31.3818 89.3799 31.8672 89.7832 32.6875H89.8926V28.5996H91.3623V38.9492H89.9541V37.7734H89.8379C89.3936 38.5869 88.5254 39.0723 87.5 39.0723ZM87.917 32.7012C86.6797 32.7012 85.9277 33.6582 85.9277 35.2236C85.9277 36.8027 86.6729 37.7529 87.917 37.7529C89.1543 37.7529 89.9199 36.7891 89.9199 35.2305C89.9199 33.6787 89.1475 32.7012 87.917 32.7012ZM96.626 32.6123C95.5391 32.6123 94.7803 33.3779 94.6982 34.54H98.458C98.4238 33.3711 97.7129 32.6123 96.626 32.6123ZM98.4512 36.9395H99.8662C99.5312 38.2725 98.3418 39.0928 96.6396 39.0928C94.5068 39.0928 93.2012 37.6299 93.2012 35.251C93.2012 32.8721 94.5342 31.3613 96.6328 31.3613C98.7041 31.3613 99.9551 32.7764 99.9551 35.1143V35.627H94.6982V35.709C94.7461 37.0146 95.5049 37.8418 96.6807 37.8418C97.5693 37.8418 98.1777 37.5205 98.4512 36.9395ZM101.719 38.9492V31.5049H103.134V32.6465H103.243C103.455 31.915 104.282 31.3818 105.253 31.3818C105.472 31.3818 105.752 31.4023 105.909 31.4434V32.8926C105.786 32.8516 105.349 32.8037 105.089 32.8037C103.975 32.8037 103.188 33.5078 103.188 34.5537V38.9492H101.719ZM109.703 37.835C110.811 37.835 111.631 37.1309 111.631 36.208V35.5859L109.812 35.7021C108.787 35.7705 108.322 36.1191 108.322 36.7754C108.322 37.4453 108.903 37.835 109.703 37.835ZM109.327 39.0723C107.892 39.0723 106.846 38.2041 106.846 36.8438C106.846 35.5039 107.844 34.7314 109.614 34.6221L111.631 34.5059V33.8633C111.631 33.0771 111.111 32.6328 110.106 32.6328C109.286 32.6328 108.719 32.9336 108.555 33.46H107.133C107.283 32.1816 108.486 31.3613 110.175 31.3613C112.041 31.3613 113.094 32.291 113.094 33.8633V38.9492H111.679V37.9033H111.562C111.118 38.6484 110.305 39.0723 109.327 39.0723ZM115.705 29.6523H117.175V31.5391H118.788V32.7764H117.175V36.6045C117.175 37.3838 117.496 37.7256 118.228 37.7256C118.453 37.7256 118.583 37.7119 118.788 37.6914V38.915C118.549 38.9561 118.275 38.9902 117.988 38.9902C116.354 38.9902 115.705 38.416 115.705 36.9805V32.7764H114.522V31.5391H115.705V29.6523ZM123.491 32.6123C122.404 32.6123 121.646 33.3779 121.563 34.54H125.323C125.289 33.3711 124.578 32.6123 123.491 32.6123ZM125.316 36.9395H126.731C126.396 38.2725 125.207 39.0928 123.505 39.0928C121.372 39.0928 120.066 37.6299 120.066 35.251C120.066 32.8721 121.399 31.3613 123.498 31.3613C125.569 31.3613 126.82 32.7764 126.82 35.1143V35.627H121.563V35.709C121.611 37.0146 122.37 37.8418 123.546 37.8418C124.435 37.8418 125.043 37.5205 125.316 36.9395Z" fill="#DDAB6A"/>
</svg>
