<svg width="164" height="25" viewBox="0 0 164 25" fill="none" xmlns="http://www.w3.org/2000/svg">
<path d="M3 13.4639C3 11.0139 4.76 8.99387 7.08 8.55387L5.59 10.0539L7 11.4639L11 7.45387L7 3.46387L5.59 4.87387L7.17 6.45387V6.51387C5.47001 6.7184 3.90375 7.53831 2.76699 8.81878C1.63023 10.0992 1.00167 11.7516 1 13.4639C1 17.3339 4.13 20.4639 8 20.4639H11V18.4639H8C5.24 18.4639 3 16.2239 3 13.4639ZM13 13.4639V20.4639H22V13.4639H13ZM20 18.4639H15V15.4639H20V18.4639ZM13 4.46387H22V11.4639H13V4.46387Z" fill="black"/>
<path d="M32.3722 12.873C32.3722 11.6301 32.5362 10.4883 32.8643 9.44753C33.1958 8.4035 33.688 7.43901 34.3409 6.55407H36.0362C35.7843 6.88219 35.549 7.28489 35.3303 7.76216C35.1115 8.23612 34.9209 8.75648 34.7585 9.32324C34.5994 9.88669 34.4735 10.4717 34.3807 11.0782C34.2912 11.6847 34.2464 12.283 34.2464 12.873C34.2464 13.6585 34.3243 14.4539 34.4801 15.2593C34.6392 16.0647 34.853 16.8121 35.1214 17.5015C35.3932 18.1876 35.6982 18.7494 36.0362 19.1869H34.3409C33.688 18.3019 33.1958 17.3391 32.8643 16.2984C32.5362 15.2544 32.3722 14.1125 32.3722 12.873ZM37.514 7.78205H39.7711L42.7939 15.1599H42.9132L45.9359 7.78205H48.193V17.9639H46.4231V10.9688H46.3287L43.5147 17.934H42.1923L39.3784 10.9539H39.2839V17.9639H37.514V7.78205ZM53.4529 18.113C52.7072 18.113 52.0609 17.949 51.514 17.6208C50.9672 17.2927 50.5429 16.8337 50.2413 16.2437C49.943 15.6537 49.7939 14.9643 49.7939 14.1755C49.7939 13.3867 49.943 12.6956 50.2413 12.1024C50.5429 11.5091 50.9672 11.0484 51.514 10.7203C52.0609 10.3921 52.7072 10.2281 53.4529 10.2281C54.1987 10.2281 54.845 10.3921 55.3919 10.7203C55.9387 11.0484 56.3613 11.5091 56.6596 12.1024C56.9612 12.6956 57.112 13.3867 57.112 14.1755C57.112 14.9643 56.9612 15.6537 56.6596 16.2437C56.3613 16.8337 55.9387 17.2927 55.3919 17.6208C54.845 17.949 54.1987 18.113 53.4529 18.113ZM53.4629 16.6713C53.8672 16.6713 54.2053 16.5602 54.4771 16.3382C54.7489 16.1128 54.9511 15.8112 55.0836 15.4333C55.2195 15.0555 55.2875 14.6346 55.2875 14.1705C55.2875 13.7032 55.2195 13.2806 55.0836 12.9028C54.9511 12.5216 54.7489 12.2184 54.4771 11.993C54.2053 11.7676 53.8672 11.6549 53.4629 11.6549C53.0486 11.6549 52.7039 11.7676 52.4288 11.993C52.157 12.2184 51.9532 12.5216 51.8173 12.9028C51.6847 13.2806 51.6184 13.7032 51.6184 14.1705C51.6184 14.6346 51.6847 15.0555 51.8173 15.4333C51.9532 15.8112 52.157 16.1128 52.4288 16.3382C52.7039 16.5602 53.0486 16.6713 53.4629 16.6713ZM65.2008 10.3275L62.4814 17.9639H60.4927L57.7733 10.3275H59.6923L61.4473 16.0001H61.5268L63.2868 10.3275H65.2008ZM69.5671 18.113C68.8015 18.113 68.1403 17.9539 67.5835 17.6357C67.0299 17.3142 66.604 16.8602 66.3058 16.2735C66.0075 15.6836 65.8583 14.9892 65.8583 14.1904C65.8583 13.4049 66.0075 12.7155 66.3058 12.1222C66.6074 11.5257 67.0283 11.0616 67.5685 10.7302C68.1088 10.3954 68.7435 10.2281 69.4727 10.2281C69.9433 10.2281 70.3874 10.3043 70.805 10.4568C71.226 10.6059 71.5972 10.8379 71.9187 11.1528C72.2435 11.4677 72.4987 11.8687 72.6843 12.3559C72.8699 12.8398 72.9627 13.4165 72.9627 14.086V14.6379H66.7035V13.4248H71.2376C71.2343 13.0801 71.1597 12.7735 71.0138 12.5051C70.868 12.2333 70.6642 12.0195 70.4023 11.8637C70.1438 11.7079 69.8422 11.6301 69.4975 11.6301C69.1296 11.6301 68.8065 11.7195 68.5281 11.8985C68.2496 12.0742 68.0326 12.3062 67.8768 12.5945C67.7243 12.8796 67.6464 13.1928 67.6431 13.5342V14.5931C67.6431 15.0373 67.7243 15.4184 67.8867 15.7366C68.0491 16.0515 68.2762 16.2934 68.5678 16.4624C68.8595 16.6282 69.2009 16.711 69.592 16.711C69.8538 16.711 70.0908 16.6746 70.3029 16.6017C70.515 16.5254 70.699 16.4144 70.8548 16.2686C71.0105 16.1227 71.1282 15.9421 71.2077 15.7267L72.8881 15.9156C72.7821 16.3597 72.5799 16.7475 72.2816 17.0789C71.9866 17.407 71.6088 17.6623 71.1481 17.8445C70.6874 18.0235 70.1604 18.113 69.5671 18.113ZM81.7711 10.3275V11.7195H77.3812V10.3275H81.7711ZM78.465 8.49796H80.2647V15.667C80.2647 15.9089 80.3012 16.0945 80.3741 16.2238C80.4503 16.3498 80.5498 16.4359 80.6724 16.4823C80.795 16.5287 80.9309 16.5519 81.0801 16.5519C81.1928 16.5519 81.2955 16.5436 81.3883 16.5271C81.4844 16.5105 81.5574 16.4956 81.6071 16.4823L81.9103 17.8893C81.8142 17.9224 81.6767 17.9589 81.4977 17.9987C81.322 18.0384 81.1066 18.0616 80.8514 18.0683C80.4006 18.0815 79.9946 18.0136 79.6333 17.8644C79.2721 17.712 78.9854 17.4767 78.7733 17.1585C78.5645 16.8403 78.4617 16.4426 78.465 15.9653V8.49796ZM86.5252 18.113C85.7795 18.113 85.1332 17.949 84.5863 17.6208C84.0394 17.2927 83.6152 16.8337 83.3136 16.2437C83.0153 15.6537 82.8661 14.9643 82.8661 14.1755C82.8661 13.3867 83.0153 12.6956 83.3136 12.1024C83.6152 11.5091 84.0394 11.0484 84.5863 10.7203C85.1332 10.3921 85.7795 10.2281 86.5252 10.2281C87.271 10.2281 87.9173 10.3921 88.4641 10.7203C89.011 11.0484 89.4336 11.5091 89.7319 12.1024C90.0335 12.6956 90.1843 13.3867 90.1843 14.1755C90.1843 14.9643 90.0335 15.6537 89.7319 16.2437C89.4336 16.8337 89.011 17.2927 88.4641 17.6208C87.9173 17.949 87.271 18.113 86.5252 18.113ZM86.5352 16.6713C86.9395 16.6713 87.2776 16.5602 87.5494 16.3382C87.8211 16.1128 88.0233 15.8112 88.1559 15.4333C88.2918 15.0555 88.3597 14.6346 88.3597 14.1705C88.3597 13.7032 88.2918 13.2806 88.1559 12.9028C88.0233 12.5216 87.8211 12.2184 87.5494 11.993C87.2776 11.7676 86.9395 11.6549 86.5352 11.6549C86.1209 11.6549 85.7762 11.7676 85.5011 11.993C85.2293 12.2184 85.0254 12.5216 84.8896 12.9028C84.757 13.2806 84.6907 13.7032 84.6907 14.1705C84.6907 14.6346 84.757 15.0555 84.8896 15.4333C85.0254 15.8112 85.2293 16.1128 85.5011 16.3382C85.7762 16.5602 86.1209 16.6713 86.5352 16.6713ZM97.1085 7.78205V17.9639H95.264V7.78205H97.1085ZM100.826 13.4894V17.9639H99.0263V10.3275H100.746V11.6251H100.836C101.012 11.1975 101.292 10.8578 101.676 10.6059C102.064 10.354 102.543 10.2281 103.113 10.2281C103.64 10.2281 104.099 10.3408 104.49 10.5661C104.884 10.7915 105.189 11.118 105.405 11.5455C105.624 11.9731 105.731 12.4918 105.728 13.1017V17.9639H103.928V13.3801C103.928 12.8696 103.796 12.4703 103.531 12.1819C103.269 11.8936 102.906 11.7494 102.442 11.7494C102.127 11.7494 101.847 11.819 101.602 11.9582C101.36 12.0941 101.169 12.2913 101.03 12.5498C100.894 12.8083 100.826 13.1215 100.826 13.4894ZM111.371 10.3275V11.7195H106.981V10.3275H111.371ZM108.065 8.49796H109.864V15.667C109.864 15.9089 109.901 16.0945 109.974 16.2238C110.05 16.3498 110.149 16.4359 110.272 16.4823C110.395 16.5287 110.531 16.5519 110.68 16.5519C110.792 16.5519 110.895 16.5436 110.988 16.5271C111.084 16.5105 111.157 16.4956 111.207 16.4823L111.51 17.8893C111.414 17.9224 111.276 17.9589 111.097 17.9987C110.922 18.0384 110.706 18.0616 110.451 18.0683C110 18.0815 109.594 18.0136 109.233 17.8644C108.872 17.712 108.585 17.4767 108.373 17.1585C108.164 16.8403 108.061 16.4426 108.065 15.9653V8.49796ZM116.175 18.113C115.409 18.113 114.748 17.9539 114.191 17.6357C113.637 17.3142 113.211 16.8602 112.913 16.2735C112.615 15.6836 112.466 14.9892 112.466 14.1904C112.466 13.4049 112.615 12.7155 112.913 12.1222C113.215 11.5257 113.636 11.0616 114.176 10.7302C114.716 10.3954 115.351 10.2281 116.08 10.2281C116.551 10.2281 116.995 10.3043 117.412 10.4568C117.833 10.6059 118.205 10.8379 118.526 11.1528C118.851 11.4677 119.106 11.8687 119.292 12.3559C119.477 12.8398 119.57 13.4165 119.57 14.086V14.6379H113.311V13.4248H117.845C117.842 13.0801 117.767 12.7735 117.621 12.5051C117.475 12.2333 117.272 12.0195 117.01 11.8637C116.751 11.7079 116.45 11.6301 116.105 11.6301C115.737 11.6301 115.414 11.7195 115.135 11.8985C114.857 12.0742 114.64 12.3062 114.484 12.5945C114.332 12.8796 114.254 13.1928 114.251 13.5342V14.5931C114.251 15.0373 114.332 15.4184 114.494 15.7366C114.657 16.0515 114.884 16.2934 115.175 16.4624C115.467 16.6282 115.808 16.711 116.199 16.711C116.461 16.711 116.698 16.6746 116.91 16.6017C117.122 16.5254 117.306 16.4144 117.462 16.2686C117.618 16.1227 117.736 15.9421 117.815 15.7267L119.496 15.9156C119.39 16.3597 119.187 16.7475 118.889 17.0789C118.594 17.407 118.216 17.6623 117.756 17.8445C117.295 18.0235 116.768 18.113 116.175 18.113ZM121.093 17.9639V10.3275H122.838V11.6002H122.917C123.056 11.1594 123.295 10.8197 123.633 10.5811C123.975 10.3391 124.364 10.2181 124.801 10.2181C124.901 10.2181 125.012 10.2231 125.135 10.233C125.261 10.2397 125.365 10.2513 125.448 10.2678V11.9234C125.372 11.8969 125.251 11.8737 125.085 11.8538C124.922 11.8306 124.765 11.819 124.613 11.819C124.284 11.819 123.989 11.8902 123.728 12.0328C123.469 12.172 123.265 12.3659 123.116 12.6144C122.967 12.863 122.892 13.1497 122.892 13.4745V17.9639H121.093ZM133.697 10.3275L130.977 17.9639H128.989L126.269 10.3275H128.188L129.943 16.0001H130.023L131.783 10.3275H133.697ZM134.942 17.9639V10.3275H136.742V17.9639H134.942ZM135.847 9.2437C135.562 9.2437 135.317 9.14924 135.111 8.96032C134.906 8.76808 134.803 8.53773 134.803 8.26926C134.803 7.99748 134.906 7.76713 135.111 7.57821C135.317 7.38598 135.562 7.28986 135.847 7.28986C136.135 7.28986 136.381 7.38598 136.583 7.57821C136.788 7.76713 136.891 7.99748 136.891 8.26926C136.891 8.53773 136.788 8.76808 136.583 8.96032C136.381 9.14924 136.135 9.2437 135.847 9.2437ZM141.973 18.113C141.208 18.113 140.547 17.9539 139.99 17.6357C139.436 17.3142 139.01 16.8602 138.712 16.2735C138.414 15.6836 138.265 14.9892 138.265 14.1904C138.265 13.4049 138.414 12.7155 138.712 12.1222C139.014 11.5257 139.435 11.0616 139.975 10.7302C140.515 10.3954 141.15 10.2281 141.879 10.2281C142.35 10.2281 142.794 10.3043 143.211 10.4568C143.632 10.6059 144.003 10.8379 144.325 11.1528C144.65 11.4677 144.905 11.8687 145.091 12.3559C145.276 12.8398 145.369 13.4165 145.369 14.086V14.6379H139.11V13.4248H143.644C143.641 13.0801 143.566 12.7735 143.42 12.5051C143.274 12.2333 143.07 12.0195 142.809 11.8637C142.55 11.7079 142.248 11.6301 141.904 11.6301C141.536 11.6301 141.213 11.7195 140.934 11.8985C140.656 12.0742 140.439 12.3062 140.283 12.5945C140.131 12.8796 140.053 13.1928 140.049 13.5342V14.5931C140.049 15.0373 140.131 15.4184 140.293 15.7366C140.455 16.0515 140.682 16.2934 140.974 16.4624C141.266 16.6282 141.607 16.711 141.998 16.711C142.26 16.711 142.497 16.6746 142.709 16.6017C142.921 16.5254 143.105 16.4144 143.261 16.2686C143.417 16.1227 143.534 15.9421 143.614 15.7267L145.294 15.9156C145.188 16.3597 144.986 16.7475 144.688 17.0789C144.393 17.407 144.015 17.6623 143.554 17.8445C143.094 18.0235 142.567 18.113 141.973 18.113ZM148.426 17.9639L146.269 10.3275H148.103L149.446 15.6968H149.515L150.887 10.3275H152.702L154.074 15.667H154.149L155.471 10.3275H157.311L155.148 17.9639H153.274L151.842 12.8034H151.738L150.306 17.9639H148.426ZM161.779 13.8126C161.779 15.0522 161.613 16.194 161.282 17.238C160.954 18.2787 160.463 19.2416 159.81 20.1265H158.115C158.37 19.7984 158.605 19.3973 158.821 18.9234C159.04 18.4494 159.229 17.9291 159.388 17.3623C159.55 16.7955 159.676 16.2089 159.765 15.6024C159.858 14.9958 159.905 14.3992 159.905 13.8126C159.905 13.0271 159.825 12.2316 159.666 11.4262C159.51 10.6208 159.296 9.87343 159.025 9.18404C158.756 8.49464 158.453 7.9312 158.115 7.4937H159.81C160.463 8.37864 160.954 9.34313 161.282 10.3872C161.613 11.4279 161.779 12.5697 161.779 13.8126Z" fill="black"/>
</svg>
