<svg width="88" height="21" viewBox="0 0 88 21" fill="none" xmlns="http://www.w3.org/2000/svg">
<g clip-path="url(#clip0_817_1209)">
<path d="M5.6543 7.75909H4.9043M8.6543 7.75909H7.9043M5.6543 5.29481H4.9043M8.6543 5.29481H7.9043M14.6543 12.6877H13.9043M14.6543 9.40195H13.9043M11.2793 6.93767V18.4377H14.2793C15.6938 18.4377 16.4003 18.4377 16.8398 17.9563C17.2793 17.4749 17.2793 16.7012 17.2793 15.1519V10.2234C17.2793 8.67416 17.2793 7.90038 16.8398 7.41902C16.4003 6.93767 15.6938 6.93767 14.2793 6.93767H11.2793ZM11.2793 6.93767C11.2793 4.61467 11.2793 3.45234 10.62 2.73113C9.96155 2.00909 8.9003 2.00909 6.7793 2.00909C4.6583 2.00909 3.59705 2.00909 2.93855 2.73113C2.2793 3.45234 2.2793 4.61467 2.2793 6.93767V8.58052M6.79805 11.8293C6.80241 12.0481 6.76683 12.2656 6.69338 12.4691C6.61993 12.6726 6.5101 12.858 6.37033 13.0144C6.23056 13.1708 6.06368 13.295 5.87947 13.3798C5.69527 13.4645 5.49746 13.5081 5.29765 13.508C5.09785 13.5079 4.90008 13.4641 4.71595 13.3791C4.53183 13.2941 4.36506 13.1697 4.22543 13.0132C4.08581 12.8567 3.97614 12.6712 3.90288 12.4676C3.82962 12.264 3.79423 12.0464 3.7988 11.8276C3.80776 11.3984 3.96979 10.99 4.2502 10.69C4.53062 10.39 4.90714 10.2221 5.29916 10.2223C5.69117 10.2225 6.06754 10.3908 6.34768 10.6912C6.62782 10.9915 6.78948 11.4 6.79805 11.8293ZM2.3318 16.9673C3.1253 15.63 4.38605 15.1289 5.29805 15.1298C6.21005 15.1306 7.4333 15.63 8.22755 16.9673C8.27855 17.0536 8.2928 17.1603 8.2463 17.2499C8.06105 17.6105 7.4843 18.326 7.0688 18.3736C6.58955 18.4295 5.33855 18.4377 5.2988 18.4377C5.25905 18.4377 3.96905 18.4295 3.4913 18.3736C3.0743 18.3251 2.4983 17.6105 2.3123 17.2499C2.29143 17.2054 2.28221 17.1555 2.28565 17.1056C2.28909 17.0557 2.30506 17.0079 2.3318 16.9673Z" stroke="black" stroke-width="1.5" stroke-linecap="round" stroke-linejoin="round"/>
</g>
<path d="M45.1958 15.2233H43.8755V8.60907H43.7866L41.1016 14.9567H40.0225L37.3374 8.60907H37.2485V15.2233H35.9282V6.06366H37.5913L40.5049 13.0207H40.6128L43.5327 6.06366H45.1958V15.2233ZM48.0205 17.7307C47.9062 17.7307 47.5825 17.718 47.4556 17.6989V16.5246C47.5635 16.5436 47.7729 16.55 47.8999 16.55C48.5474 16.55 48.9155 16.2834 49.1504 15.5851L49.252 15.2487L46.751 8.31073H48.2363L49.9692 13.8015H50.0771L51.8037 8.31073H53.251L50.6738 15.509C50.0835 17.1911 49.4297 17.7307 48.0205 17.7307ZM57.7324 12.843H59.1289C59.1479 13.5983 59.7002 14.1061 60.5127 14.1061C61.4204 14.1061 61.9346 13.5602 61.9346 12.5383V6.06366H63.3564V12.5446C63.3564 14.3854 62.29 15.4455 60.5254 15.4455C58.8687 15.4455 57.7324 14.4172 57.7324 12.843ZM68.3457 15.3566C66.3208 15.3566 65.083 14.0046 65.083 11.7639C65.083 9.53583 66.3271 8.17743 68.3457 8.17743C70.3579 8.17743 71.6021 9.53583 71.6021 11.7639C71.6021 14.0046 70.3643 15.3566 68.3457 15.3566ZM68.3457 14.1442C69.5264 14.1442 70.1992 13.2682 70.1992 11.7639C70.1992 10.2658 69.5264 9.38983 68.3457 9.38983C67.1587 9.38983 66.4922 10.2658 66.4922 11.7639C66.4922 13.2746 67.1587 14.1442 68.3457 14.1442ZM76.9087 15.3376C75.9438 15.3376 75.1377 14.8932 74.7251 14.1315H74.6235V15.2233H73.3096V5.61298H74.6743V9.40887H74.7822C75.1504 8.6535 75.9629 8.19647 76.9087 8.19647C78.6606 8.19647 79.7651 9.56757 79.7651 11.7639C79.7651 13.9538 78.6543 15.3376 76.9087 15.3376ZM76.5151 9.42157C75.3726 9.42157 74.6553 10.3229 74.6489 11.7702C74.6553 13.2175 75.3662 14.1125 76.5151 14.1125C77.6704 14.1125 78.3623 13.2302 78.3623 11.7639C78.3623 10.3102 77.6704 9.42157 76.5151 9.42157ZM81.2505 10.2658C81.2505 9.04071 82.374 8.17743 83.9355 8.17743C85.4907 8.17743 86.5063 8.90106 86.6396 10.1198H85.332C85.2051 9.612 84.71 9.28827 83.9355 9.28827C83.1738 9.28827 82.5962 9.65009 82.5962 10.1896C82.5962 10.6022 82.9453 10.8625 83.6943 11.0339L84.8433 11.3005C86.1572 11.6052 86.7729 12.1701 86.7729 13.1857C86.7729 14.487 85.5605 15.3566 83.9102 15.3566C82.2661 15.3566 81.1934 14.614 81.0728 13.3889H82.4375C82.6089 13.9221 83.1167 14.2521 83.9419 14.2521C84.7925 14.2521 85.3955 13.8713 85.3955 13.319C85.3955 12.9064 85.0718 12.6398 84.3799 12.4748L83.1738 12.1955C81.8599 11.8845 81.2505 11.2941 81.2505 10.2658Z" fill="#5A5A5A"/>
<defs>
<clipPath id="clip0_817_1209">
<rect width="18" height="19.7143" fill="white" transform="translate(0.779297 0.366211)"/>
</clipPath>
</defs>
</svg>
