<svg width="68" height="21" viewBox="0 0 68 21" fill="none" xmlns="http://www.w3.org/2000/svg">
<path d="M2.5 8.79753C2.5 5.65503 2.5 4.08336 3.47667 3.10753C4.45333 2.13169 6.02417 2.13086 9.16667 2.13086H10.8333C13.9758 2.13086 15.5475 2.13086 16.5233 3.10753C17.4992 4.08419 17.5 5.65503 17.5 8.79753V12.1309C17.5 15.2734 17.5 16.845 16.5233 17.8209C15.5467 18.7967 13.9758 18.7975 10.8333 18.7975H9.16667C6.02417 18.7975 4.4525 18.7975 3.47667 17.8209C2.50083 16.8442 2.5 15.2734 2.5 12.1309V8.79753Z" stroke="black" stroke-width="1.5"/>
<path d="M6.66699 8.79785H13.3337M6.66699 12.1312H10.8337" stroke="black" stroke-width="1.5" stroke-linecap="round"/>
<path d="M37.3714 5.78205V15.9639H35.7308L30.9332 9.0285H30.8487V15.9639H29.0043V5.78205H30.6548L35.4474 12.7224H35.5369V5.78205H37.3714ZM41.4991 16.118C41.0152 16.118 40.5794 16.0318 40.1916 15.8595C39.8071 15.6838 39.5022 15.4253 39.2768 15.0839C39.0547 14.7425 38.9437 14.3216 38.9437 13.8211C38.9437 13.3902 39.0233 13.0339 39.1824 12.7522C39.3414 12.4705 39.5585 12.2451 39.8336 12.0761C40.1087 11.907 40.4186 11.7794 40.7633 11.6933C41.1113 11.6038 41.4709 11.5392 41.8422 11.4994C42.2896 11.453 42.6525 11.4115 42.9309 11.3751C43.2093 11.3353 43.4115 11.2757 43.5375 11.1961C43.6667 11.1133 43.7314 10.9856 43.7314 10.8133V10.7835C43.7314 10.4089 43.6203 10.1189 43.3983 9.91344C43.1762 9.70795 42.8564 9.6052 42.4387 9.6052C41.9979 9.6052 41.6483 9.70132 41.3897 9.89355C41.1345 10.0858 40.9622 10.3128 40.8727 10.5747L39.1923 10.336C39.3249 9.87201 39.5436 9.48423 39.8485 9.17267C40.1535 8.85781 40.5263 8.62248 40.9672 8.46671C41.408 8.30762 41.8952 8.22807 42.4288 8.22807C42.7967 8.22807 43.1629 8.27116 43.5275 8.35733C43.8921 8.44351 44.2252 8.58603 44.5268 8.78489C44.8284 8.98044 45.0704 9.24725 45.2527 9.58532C45.4383 9.92338 45.5311 10.346 45.5311 10.8531V15.9639H43.801V14.9149H43.7413C43.6319 15.127 43.4778 15.3258 43.2789 15.5115C43.0834 15.6937 42.8365 15.8412 42.5382 15.9539C42.2432 16.0633 41.8968 16.118 41.4991 16.118ZM41.9664 14.7955C42.3277 14.7955 42.6409 14.7243 42.9061 14.5818C43.1712 14.4359 43.3751 14.2437 43.5176 14.0051C43.6634 13.7664 43.7363 13.5062 43.7363 13.2245V12.3247C43.68 12.3711 43.5839 12.4142 43.448 12.4539C43.3154 12.4937 43.1663 12.5285 43.0005 12.5583C42.8348 12.5882 42.6708 12.6147 42.5083 12.6379C42.3459 12.6611 42.2051 12.681 42.0858 12.6975C41.8173 12.734 41.577 12.7936 41.3649 12.8765C41.1528 12.9594 40.9854 13.0754 40.8627 13.2245C40.7401 13.3704 40.6788 13.5593 40.6788 13.7913C40.6788 14.1227 40.7998 14.373 41.0417 14.542C41.2837 14.711 41.5919 14.7955 41.9664 14.7955ZM47.3407 15.9639V8.3275H49.0609V9.62509H49.1504C49.3095 9.18759 49.573 8.84621 49.9409 8.60094C50.3088 8.35236 50.7479 8.22807 51.2583 8.22807C51.7754 8.22807 52.2112 8.35402 52.5659 8.60591C52.9238 8.85449 53.1757 9.19422 53.3216 9.62509H53.4011C53.5701 9.20085 53.8552 8.86278 54.2562 8.61088C54.6606 8.35568 55.1395 8.22807 55.693 8.22807C56.3957 8.22807 56.969 8.45014 57.4132 8.89426C57.8573 9.33839 58.0794 9.98636 58.0794 10.8382V15.9639H56.2747V11.1166C56.2747 10.6426 56.1487 10.2963 55.8968 10.0775C55.6449 9.85544 55.3367 9.74441 54.9721 9.74441C54.5379 9.74441 54.1982 9.8803 53.9529 10.1521C53.711 10.4205 53.59 10.7702 53.59 11.2011V15.9639H51.8251V11.042C51.8251 10.6476 51.7058 10.3327 51.4672 10.0974C51.2318 9.86207 50.9236 9.74441 50.5424 9.74441C50.2839 9.74441 50.0486 9.81069 49.8365 9.94327C49.6243 10.0725 49.4553 10.2565 49.3294 10.4951C49.2034 10.7304 49.1404 11.0055 49.1404 11.3204V15.9639H47.3407ZM63.2859 16.113C62.5202 16.113 61.859 15.9539 61.3022 15.6357C60.7487 15.3142 60.3228 14.8602 60.0245 14.2735C59.7262 13.6836 59.5771 12.9892 59.5771 12.1904C59.5771 11.4049 59.7262 10.7155 60.0245 10.1222C60.3261 9.52566 60.747 9.06164 61.2873 8.7302C61.8275 8.39545 62.4622 8.22807 63.1914 8.22807C63.6621 8.22807 64.1062 8.3043 64.5238 8.45676C64.9447 8.60591 65.3159 8.83792 65.6374 9.15279C65.9622 9.46765 66.2174 9.8687 66.4031 10.3559C66.5887 10.8398 66.6815 11.4165 66.6815 12.086V12.6379H60.4222V11.4248H64.9563C64.953 11.0801 64.8784 10.7735 64.7326 10.5051C64.5868 10.2333 64.3829 10.0195 64.1211 9.86373C63.8626 9.70795 63.561 9.63006 63.2163 9.63006C62.8484 9.63006 62.5252 9.71955 62.2468 9.89853C61.9684 10.0742 61.7513 10.3062 61.5955 10.5945C61.4431 10.8796 61.3652 11.1928 61.3619 11.5342V12.5931C61.3619 13.0373 61.4431 13.4184 61.6055 13.7366C61.7679 14.0515 61.9949 14.2934 62.2866 14.4624C62.5782 14.6282 62.9196 14.711 63.3107 14.711C63.5726 14.711 63.8095 14.6746 64.0217 14.6017C64.2338 14.5254 64.4177 14.4144 64.5735 14.2686C64.7293 14.1227 64.8469 13.9421 64.9265 13.7267L66.6069 13.9156C66.5008 14.3597 66.2987 14.7475 66.0004 15.0789C65.7054 15.407 65.3275 15.6623 64.8668 15.8445C64.4061 16.0235 63.8791 16.113 63.2859 16.113Z" fill="black"/>
</svg>
