<svg width="14" height="11" viewBox="0 0 14 11" fill="none" xmlns="http://www.w3.org/2000/svg">
<path d="M7.793 0.293031C7.98053 0.105559 8.23484 0.000244141 8.5 0.000244141C8.76516 0.000244141 9.01947 0.105559 9.207 0.293031L13.707 4.79303C13.8945 4.98056 13.9998 5.23487 13.9998 5.50003C13.9998 5.76519 13.8945 6.0195 13.707 6.20703L9.207 10.707C9.0184 10.8892 8.7658 10.99 8.5036 10.9877C8.2414 10.9854 7.99059 10.8803 7.80518 10.6948C7.61977 10.5094 7.5146 10.2586 7.51233 9.99643C7.51005 9.73423 7.61084 9.48163 7.793 9.29303L10.5 6.50003H1C0.734784 6.50003 0.48043 6.39467 0.292893 6.20714C0.105357 6.0196 0 5.76525 0 5.50003C0 5.23481 0.105357 4.98046 0.292893 4.79292C0.48043 4.60539 0.734784 4.50003 1 4.50003H10.5L7.793 1.70703C7.60553 1.5195 7.50021 1.26519 7.50021 1.00003C7.50021 0.734866 7.60553 0.480558 7.793 0.293031Z" fill="black"/>
</svg>
