<svg width="39" height="39" viewBox="0 0 39 39" fill="none" xmlns="http://www.w3.org/2000/svg">
<circle cx="19.5703" cy="19.457" r="18.5" stroke="#A8A8A8"/>
<path fill-rule="evenodd" clip-rule="evenodd" d="M27.4221 18.9673C27.5514 19.0972 27.624 19.2734 27.624 19.4571C27.624 19.6407 27.5514 19.8169 27.4221 19.9468L21.8993 25.4915C21.8361 25.5596 21.7599 25.6143 21.6752 25.6521C21.5906 25.69 21.4992 25.7104 21.4065 25.712C21.3138 25.7137 21.2217 25.6966 21.1357 25.6617C21.0498 25.6268 20.9717 25.575 20.9061 25.5091C20.8406 25.4433 20.7889 25.3649 20.7542 25.2786C20.7195 25.1923 20.7024 25.0999 20.704 25.0068C20.7057 24.9138 20.726 24.822 20.7637 24.737C20.8014 24.6519 20.8558 24.5754 20.9237 24.512L25.2682 20.1501H12.2069C12.0238 20.1501 11.8482 20.0771 11.7187 19.9471C11.5892 19.8172 11.5165 19.6409 11.5165 19.4571C11.5165 19.2732 11.5892 19.0969 11.7187 18.967C11.8482 18.837 12.0238 18.764 12.2069 18.764H25.2682L20.9237 14.4021C20.8558 14.3387 20.8014 14.2622 20.7637 14.1771C20.726 14.0921 20.7057 14.0003 20.704 13.9073C20.7024 13.8142 20.7195 13.7218 20.7542 13.6355C20.7889 13.5492 20.8406 13.4708 20.9061 13.405C20.9717 13.3392 21.0498 13.2873 21.1357 13.2524C21.2217 13.2175 21.3138 13.2004 21.4065 13.2021C21.4992 13.2037 21.5906 13.2241 21.6752 13.262C21.7599 13.2998 21.8361 13.3545 21.8993 13.4226L27.4221 18.9673Z" fill="#939393"/>
</svg>
