<svg width="18" height="22" viewBox="0 0 18 22" fill="none" xmlns="http://www.w3.org/2000/svg">
<path d="M5.645 19.4503C5.86103 20.1722 6.30417 20.8052 6.90858 21.2552C7.513 21.7052 8.24645 21.9483 9 21.9483C9.75355 21.9483 10.487 21.7052 11.0914 21.2552C11.6958 20.8052 12.139 20.1722 12.355 19.4503H5.645ZM0 18.4503H18V15.4503L16 12.4503V7.45026C16 6.531 15.8189 5.62075 15.4672 4.77147C15.1154 3.92219 14.5998 3.15052 13.9497 2.50051C13.2997 1.8505 12.5281 1.33488 11.6788 0.9831C10.8295 0.631317 9.91925 0.450256 9 0.450256C8.08075 0.450256 7.17049 0.631317 6.32122 0.9831C5.47194 1.33488 4.70026 1.8505 4.05025 2.50051C3.40024 3.15052 2.88463 3.92219 2.53284 4.77147C2.18106 5.62075 2 6.531 2 7.45026V12.4503L0 15.4503V18.4503Z" fill="black"/>
</svg>
