<svg width="24" height="23" viewBox="0 0 24 23" fill="none" xmlns="http://www.w3.org/2000/svg">
<g clip-path="url(#clip0_1716_1819)">
<path d="M12.2777 21.901C12.6801 21.8917 13.0663 21.7404 13.368 21.4739C13.6696 21.2073 13.8673 20.8426 13.926 20.4443H10.5654C10.6258 20.8534 10.8327 21.2267 11.1477 21.4946C11.4626 21.7626 11.8642 21.907 12.2777 21.901Z" fill="black"/>
<path d="M21.5473 17.7803C20.9312 17.2311 20.3918 16.6014 19.9436 15.9083C19.4539 14.9518 19.1606 13.9069 19.0811 12.8353V9.67917C19.0783 9.29582 19.0441 8.91334 18.9789 8.53556C18.4759 8.43548 17.9926 8.25422 17.5478 7.99889C17.7173 8.54507 17.8035 9.11369 17.8034 9.68556V12.8417C17.8809 14.149 18.2405 15.424 18.8575 16.5792C19.2988 17.278 19.8221 17.9215 20.4164 18.4958H4.05447C4.64877 17.9215 5.17212 17.278 5.61336 16.5792C6.2304 15.424 6.59002 14.149 6.66753 12.8417V9.67917C6.66417 8.93978 6.80669 8.20698 7.08692 7.52274C7.36716 6.8385 7.77962 6.21626 8.30067 5.69165C8.82172 5.16704 9.44114 4.75036 10.1235 4.46546C10.8058 4.18057 11.5376 4.03307 12.277 4.03139C13.3592 4.03188 14.4171 4.35193 15.3181 4.95139C15.2188 4.58657 15.163 4.21127 15.152 3.83334V3.43084C14.4848 3.1029 13.7682 2.88705 13.0309 2.79195V1.98695C13.0309 1.76074 12.941 1.5438 12.781 1.38385C12.6211 1.22389 12.4042 1.13403 12.1779 1.13403C11.9517 1.13403 11.7348 1.22389 11.5748 1.38385C11.4149 1.5438 11.325 1.76074 11.325 1.98695V2.82389C9.67396 3.0568 8.1629 3.87917 7.07081 5.13918C5.97872 6.39919 5.37936 8.01176 5.38336 9.67917V12.8353C5.30386 13.9069 5.01059 14.9518 4.52086 15.9083C4.08059 16.5998 3.54988 17.2294 2.94281 17.7803C2.87466 17.8402 2.82004 17.9138 2.78259 17.9965C2.74513 18.0791 2.7257 18.1687 2.72559 18.2594V19.1283C2.72559 19.2978 2.7929 19.4603 2.91271 19.5801C3.03253 19.6999 3.19503 19.7672 3.36447 19.7672H21.1256C21.295 19.7672 21.4575 19.6999 21.5773 19.5801C21.6972 19.4603 21.7645 19.2978 21.7645 19.1283V18.2594C21.7644 18.1687 21.7449 18.0791 21.7075 17.9965C21.67 17.9138 21.6154 17.8402 21.5473 17.7803Z" fill="black"/>
<path d="M19.9444 7.0278C21.7087 7.0278 23.1389 5.5976 23.1389 3.83336C23.1389 2.06912 21.7087 0.638916 19.9444 0.638916C18.1802 0.638916 16.75 2.06912 16.75 3.83336C16.75 5.5976 18.1802 7.0278 19.9444 7.0278Z" fill="#143567"/>
</g>
<defs>
<clipPath id="clip0_1716_1819">
<rect width="23" height="23" fill="white" transform="translate(0.777344)"/>
</clipPath>
</defs>
</svg>
