<svg width="21" height="21" viewBox="0 0 21 21" fill="none" xmlns="http://www.w3.org/2000/svg">
<path d="M18.9023 9.93147C18.2157 8.48499 17.3987 7.3053 16.4512 6.39241L15.4574 7.38616C16.2678 8.16057 16.9736 9.17366 17.584 10.4354C15.959 13.7987 13.6523 15.3963 10.5 15.3963C9.55377 15.3963 8.68222 15.2506 7.88534 14.9592L6.80858 16.036C7.91536 16.547 9.14582 16.8026 10.5 16.8026C14.2539 16.8026 17.0547 14.8475 18.9023 10.9373C18.9766 10.7801 19.0151 10.6083 19.0151 10.4344C19.0151 10.2605 18.9766 10.0887 18.9023 9.93147ZM17.6607 3.66897L16.8281 2.83538C16.8136 2.82085 16.7964 2.80932 16.7774 2.80146C16.7584 2.7936 16.7381 2.78955 16.7176 2.78955C16.697 2.78955 16.6767 2.7936 16.6577 2.80146C16.6388 2.80932 16.6215 2.82085 16.607 2.83538L14.4709 4.97053C13.2932 4.36897 11.9695 4.06819 10.5 4.06819C6.74608 4.06819 3.9453 6.02327 2.09765 9.93342C2.02338 10.0907 1.98486 10.2624 1.98486 10.4364C1.98486 10.6103 2.02338 10.782 2.09765 10.9393C2.8358 12.494 3.72447 13.7401 4.76366 14.6778L2.69687 16.744C2.66759 16.7733 2.65114 16.813 2.65114 16.8544C2.65114 16.8958 2.66759 16.9356 2.69687 16.9649L3.53065 17.7987C3.55995 17.8279 3.59968 17.8444 3.6411 17.8444C3.68253 17.8444 3.72225 17.8279 3.75155 17.7987L17.6607 3.89006C17.6753 3.87555 17.6868 3.85832 17.6946 3.83935C17.7025 3.82038 17.7066 3.80005 17.7066 3.77952C17.7066 3.75898 17.7025 3.73865 17.6946 3.71968C17.6868 3.70071 17.6753 3.68348 17.6607 3.66897ZM3.41601 10.4354C5.04296 7.0721 7.3496 5.47444 10.5 5.47444C11.5652 5.47444 12.5338 5.65725 13.4125 6.02893L12.0394 7.40198C11.3892 7.05503 10.6446 6.92627 9.91563 7.03469C9.18662 7.1431 8.51176 7.48295 7.9906 8.00411C7.46944 8.52527 7.12959 9.20013 7.02117 9.92914C6.91276 10.6581 7.04152 11.4027 7.38847 12.053L5.75917 13.6823C4.85741 12.8864 4.08007 11.808 3.41601 10.4354ZM8.23437 10.4354C8.23471 10.091 8.31629 9.7515 8.47247 9.44455C8.62866 9.1376 8.85505 8.87181 9.13326 8.66879C9.41146 8.46577 9.73363 8.33124 10.0736 8.27612C10.4136 8.22101 10.7617 8.24686 11.0898 8.35159L8.33808 11.1033C8.2691 10.8874 8.23412 10.6621 8.23437 10.4354Z" fill="#8A8A8A"/>
<path d="M10.4218 12.6229C10.3542 12.6229 10.2876 12.6198 10.2216 12.6138L9.18994 13.6454C9.81043 13.883 10.4865 13.9358 11.1363 13.7974C11.7862 13.659 12.382 13.3354 12.8519 12.8655C13.3217 12.3957 13.6454 11.7999 13.7838 11.15C13.9222 10.5001 13.8694 9.8241 13.6317 9.20361L12.6001 10.2353C12.6062 10.3013 12.6093 10.3679 12.6093 10.4354C12.6094 10.7228 12.553 11.0073 12.4431 11.2728C12.3332 11.5382 12.1721 11.7794 11.9689 11.9826C11.7658 12.1857 11.5245 12.3469 11.2591 12.4568C10.9936 12.5666 10.7091 12.6231 10.4218 12.6229Z" fill="#8A8A8A"/>
</svg>
