<svg width="30" height="28" viewBox="0 0 30 28" fill="none" xmlns="http://www.w3.org/2000/svg">
<rect x="0.5" y="0.515625" width="29" height="27" rx="13.5" fill="#F7F7F7"/>
<g clip-path="url(#clip0_896_1770)">
<path d="M18.75 14.0156C16.68 14.0156 15 15.6956 15 17.7656C15 19.8356 16.68 21.5156 18.75 21.5156C20.82 21.5156 22.5 19.8356 22.5 17.7656C22.5 15.6956 20.82 14.0156 18.75 14.0156ZM19.9875 19.5281L18.375 17.9156V15.5156H19.125V17.6081L20.5125 18.9956L19.9875 19.5281ZM19.5 7.26562H17.115C16.8 6.39562 15.975 5.76562 15 5.76562C14.025 5.76562 13.2 6.39562 12.885 7.26562H10.5C9.675 7.26562 9 7.94062 9 8.76562V20.0156C9 20.8406 9.675 21.5156 10.5 21.5156H15.0825C14.6382 21.0854 14.2772 20.5769 14.0175 20.0156H10.5V8.76562H12V11.0156H18V8.76562H19.5V12.5756C20.0325 12.6506 20.535 12.8081 21 13.0256V8.76562C21 7.94062 20.325 7.26562 19.5 7.26562ZM15 8.76562C14.5875 8.76562 14.25 8.42812 14.25 8.01562C14.25 7.60312 14.5875 7.26562 15 7.26562C15.4125 7.26562 15.75 7.60312 15.75 8.01562C15.75 8.42812 15.4125 8.76562 15 8.76562Z" fill="#1F4171"/>
</g>
<defs>
<clipPath id="clip0_896_1770">
<rect width="18" height="18" fill="white" transform="translate(6 5.01562)"/>
</clipPath>
</defs>
</svg>
