<svg width="85" height="21" viewBox="0 0 85 21" fill="none" xmlns="http://www.w3.org/2000/svg">
<path d="M7.05601 12.6876H11.9846M2.12744 8.37514H18.1453M14.4489 12.6876H15.681M3.35958 4.67871C2.74351 4.67871 2.12744 5.29478 2.12744 5.91085V14.5359C2.12744 15.1519 2.74351 15.768 3.35958 15.768H16.9132C17.5292 15.768 18.1453 15.1519 18.1453 14.5359V5.91085C18.1453 5.29478 17.5292 4.67871 16.9132 4.67871H3.35958Z" stroke="black" stroke-width="1.23214" stroke-linecap="round" stroke-linejoin="round"/>
<path d="M37.1426 6.06348H40.729C42.519 6.06348 43.7505 7.30127 43.7505 9.1167C43.7505 10.9067 42.481 12.1382 40.6846 12.1382H38.5645V15.2231H37.1426V6.06348ZM38.5645 7.32031V10.8877H40.3545C41.5796 10.8877 42.2969 10.2529 42.2969 9.1167C42.2969 7.95508 41.605 7.32031 40.3545 7.32031H38.5645ZM45.4897 15.2231V5.61279H46.8545V15.2231H45.4897ZM51.1646 14.1885C52.1929 14.1885 52.9546 13.5347 52.9546 12.6777V12.1001L51.2661 12.208C50.314 12.2715 49.8823 12.5952 49.8823 13.2046C49.8823 13.8267 50.4219 14.1885 51.1646 14.1885ZM50.8154 15.3374C49.4824 15.3374 48.5112 14.5312 48.5112 13.2681C48.5112 12.0239 49.438 11.3066 51.082 11.2051L52.9546 11.0972V10.5005C52.9546 9.77051 52.4722 9.35791 51.5391 9.35791C50.7773 9.35791 50.2505 9.63721 50.0981 10.126H48.7778C48.9175 8.93896 50.0347 8.17725 51.6025 8.17725C53.3354 8.17725 54.313 9.04053 54.313 10.5005V15.2231H52.999V14.252H52.8911C52.4785 14.9438 51.7231 15.3374 50.8154 15.3374ZM56.2554 15.2231V8.31055H57.5693V9.40869H57.6709C58.0073 8.64062 58.6929 8.17725 59.7339 8.17725C61.2764 8.17725 62.127 9.104 62.127 10.748V15.2231H60.7622V11.0908C60.7622 9.97998 60.2798 9.42773 59.2705 9.42773C58.2612 9.42773 57.6201 10.1006 57.6201 11.1797V15.2231H56.2554Z" fill="#5A5A5A"/>
</svg>
