<svg width="517" height="43" viewBox="0 0 517 43" fill="none" xmlns="http://www.w3.org/2000/svg">
<rect y="0.0993652" width="517" height="10.1292" rx="5" fill="#D1D1D1"/>
<rect y="0.0993652" width="151.193" height="10.1292" rx="5" fill="#CF6660"/>
<path d="M0.772461 35.5762H2.29004C2.41992 36.5127 3.33594 37.1074 4.65527 37.1074C5.88574 37.1074 6.78809 36.4717 6.78809 35.5967C6.78809 34.8447 6.21387 34.3936 4.9082 34.0859L3.63672 33.7783C1.85254 33.3613 1.03906 32.5 1.03906 31.0508C1.03906 29.2939 2.47461 28.125 4.62793 28.125C6.63086 28.125 8.09375 29.2939 8.18262 30.9551H6.69238C6.54883 30.0459 5.75586 29.4785 4.60742 29.4785C3.39746 29.4785 2.59082 30.0596 2.59082 30.9482C2.59082 31.6523 3.11035 32.0557 4.39551 32.3564L5.48242 32.623C7.50586 33.0947 8.33984 33.915 8.33984 35.3984C8.33984 37.2852 6.87695 38.4678 4.53906 38.4678C2.35156 38.4678 0.881836 37.3398 0.772461 35.5762ZM10.7051 28.9316H12.1748V30.8184H13.7881V32.0557H12.1748V35.8838C12.1748 36.6631 12.4961 37.0049 13.2275 37.0049C13.4531 37.0049 13.583 36.9912 13.7881 36.9707V38.1943C13.5488 38.2354 13.2754 38.2695 12.9883 38.2695C11.3545 38.2695 10.7051 37.6953 10.7051 36.2598V32.0557H9.52246V30.8184H10.7051V28.9316ZM15.5176 38.2285V30.7842H16.9326V31.9258H17.042C17.2539 31.1943 18.0811 30.6611 19.0518 30.6611C19.2705 30.6611 19.5508 30.6816 19.708 30.7227V32.1719C19.585 32.1309 19.1475 32.083 18.8877 32.083C17.7734 32.083 16.9873 32.7871 16.9873 33.833V38.2285H15.5176ZM23.9873 31.8916C22.9004 31.8916 22.1416 32.6572 22.0596 33.8193H25.8193C25.7852 32.6504 25.0742 31.8916 23.9873 31.8916ZM25.8125 36.2188H27.2275C26.8926 37.5518 25.7031 38.3721 24.001 38.3721C21.8682 38.3721 20.5625 36.9092 20.5625 34.5303C20.5625 32.1514 21.8955 30.6406 23.9941 30.6406C26.0654 30.6406 27.3164 32.0557 27.3164 34.3936V34.9062H22.0596V34.9883C22.1074 36.2939 22.8662 37.1211 24.042 37.1211C24.9307 37.1211 25.5391 36.7998 25.8125 36.2188ZM29.0801 38.2285V30.7842H30.4951V31.9668H30.6045C30.9668 31.1396 31.7051 30.6406 32.8262 30.6406C34.4873 30.6406 35.4033 31.6387 35.4033 33.4092V38.2285H33.9336V33.7783C33.9336 32.582 33.4141 31.9873 32.3271 31.9873C31.2402 31.9873 30.5498 32.7119 30.5498 33.874V38.2285H29.0801ZM40.5918 36.8477C41.8496 36.8477 42.6084 35.9043 42.6084 34.4141C42.6084 32.9307 41.8428 31.9805 40.5918 31.9805C39.3271 31.9805 38.6162 32.9307 38.6162 34.4141C38.6162 35.8975 39.3271 36.8477 40.5918 36.8477ZM40.6123 41.0723C38.7529 41.0723 37.5498 40.2383 37.3926 38.9736H38.8965C39.0195 39.5137 39.6416 39.8623 40.6328 39.8623C41.8564 39.8623 42.5811 39.2812 42.5811 38.2969V36.8682H42.4717C42.0205 37.6748 41.2002 38.1191 40.1748 38.1191C38.2744 38.1191 37.0986 36.6494 37.0986 34.4209C37.0986 32.1514 38.2881 30.6611 40.1885 30.6611C41.2139 30.6611 42.1094 31.167 42.5264 31.9736H42.6426V30.7842H44.0508V38.29C44.0508 39.9922 42.7178 41.0723 40.6123 41.0723ZM46.7031 28.9316H48.1729V30.8184H49.7861V32.0557H48.1729V35.8838C48.1729 36.6631 48.4941 37.0049 49.2256 37.0049C49.4512 37.0049 49.5811 36.9912 49.7861 36.9707V38.1943C49.5469 38.2354 49.2734 38.2695 48.9863 38.2695C47.3525 38.2695 46.7031 37.6953 46.7031 36.2598V32.0557H45.5205V30.8184H46.7031V28.9316ZM51.584 38.2285V27.8789H53.04V31.9805H53.1562C53.5186 31.1465 54.3047 30.6475 55.4258 30.6475C57.0117 30.6475 57.9893 31.6523 57.9893 33.4229V38.2285H56.5195V33.7852C56.5195 32.5957 55.9658 31.9941 54.9268 31.9941C53.7236 31.9941 53.0537 32.7529 53.0537 33.8809V38.2285H51.584Z" fill="black"/>
<path d="M67.751 30.6611C69.6445 30.6611 70.8408 32.1377 70.8408 34.5029C70.8408 36.8682 69.6445 38.3516 67.7646 38.3516C66.7051 38.3516 65.8643 37.8867 65.4746 37.1006H65.3584V40.7031H63.8887V30.7842H65.3037V32.0146H65.4131C65.8643 31.167 66.7393 30.6611 67.751 30.6611ZM67.334 37.0322C68.585 37.0322 69.3301 36.082 69.3301 34.5029C69.3301 32.9307 68.585 31.9805 67.3408 31.9805C66.1035 31.9805 65.3311 32.9512 65.3311 34.5098C65.3311 36.0615 66.1035 37.0322 67.334 37.0322ZM75.7559 38.3721C73.5752 38.3721 72.2422 36.916 72.2422 34.5029C72.2422 32.1035 73.582 30.6406 75.7559 30.6406C77.9229 30.6406 79.2627 32.1035 79.2627 34.5029C79.2627 36.916 77.9297 38.3721 75.7559 38.3721ZM75.7559 37.0664C77.0273 37.0664 77.752 36.123 77.752 34.5029C77.752 32.8896 77.0273 31.9463 75.7559 31.9463C74.4775 31.9463 73.7598 32.8896 73.7598 34.5029C73.7598 36.1299 74.4775 37.0664 75.7559 37.0664ZM84.1777 38.3721C81.9971 38.3721 80.6641 36.916 80.6641 34.5029C80.6641 32.1035 82.0039 30.6406 84.1777 30.6406C86.3447 30.6406 87.6846 32.1035 87.6846 34.5029C87.6846 36.916 86.3516 38.3721 84.1777 38.3721ZM84.1777 37.0664C85.4492 37.0664 86.1738 36.123 86.1738 34.5029C86.1738 32.8896 85.4492 31.9463 84.1777 31.9463C82.8994 31.9463 82.1816 32.8896 82.1816 34.5029C82.1816 36.1299 82.8994 37.0664 84.1777 37.0664ZM89.4551 38.2285V30.7842H90.8701V31.9258H90.9795C91.1914 31.1943 92.0186 30.6611 92.9893 30.6611C93.208 30.6611 93.4883 30.6816 93.6455 30.7227V32.1719C93.5225 32.1309 93.085 32.083 92.8252 32.083C91.7109 32.083 90.9248 32.7871 90.9248 33.833V38.2285H89.4551Z" fill="#CF6660"/>
</svg>
