<svg width="29" height="27" viewBox="0 0 29 27" fill="none" xmlns="http://www.w3.org/2000/svg">
<rect width="29" height="27" rx="13.5" fill="#F7F7F7"/>
<g clip-path="url(#clip0_1244_4026)">
<path d="M20.9688 18.4746C21.3555 18.668 21.7041 18.9053 22.0146 19.1865C22.3252 19.4678 22.5889 19.7812 22.8057 20.127C23.0225 20.4727 23.1924 20.8477 23.3154 21.252C23.4385 21.6562 23.5 22.0723 23.5 22.5H22.375C22.375 22.0371 22.2871 21.6006 22.1113 21.1904C21.9355 20.7803 21.6953 20.4229 21.3906 20.1182C21.0859 19.8135 20.7256 19.5703 20.3096 19.3887C19.8936 19.207 19.457 19.1191 19 19.125C18.5312 19.125 18.0947 19.2129 17.6904 19.3887C17.2861 19.5645 16.9287 19.8047 16.6182 20.1094C16.3076 20.4141 16.0645 20.7744 15.8887 21.1904C15.7129 21.6064 15.625 22.043 15.625 22.5H14.5C14.5 22.0723 14.5586 21.6562 14.6758 21.252C14.793 20.8477 14.9629 20.4727 15.1855 20.127C15.4082 19.7812 15.6748 19.4678 15.9854 19.1865C16.2959 18.9053 16.6445 18.668 17.0312 18.4746C16.5918 18.1582 16.249 17.7627 16.0029 17.2881C15.7568 16.8135 15.6309 16.3008 15.625 15.75C15.625 15.2871 15.7129 14.8506 15.8887 14.4404C16.0645 14.0303 16.3047 13.6729 16.6094 13.3682C16.9141 13.0635 17.2715 12.8203 17.6816 12.6387C18.0918 12.457 18.5312 12.3691 19 12.375C19.4629 12.375 19.8994 12.4629 20.3096 12.6387C20.7197 12.8145 21.0771 13.0547 21.3818 13.3594C21.6865 13.6641 21.9297 14.0244 22.1113 14.4404C22.293 14.8564 22.3809 15.293 22.375 15.75C22.375 16.3008 22.252 16.8135 22.0059 17.2881C21.7598 17.7627 21.4141 18.1582 20.9688 18.4746ZM19 18C19.3105 18 19.6006 17.9414 19.8701 17.8242C20.1396 17.707 20.3799 17.5459 20.5908 17.3408C20.8018 17.1357 20.9629 16.8984 21.0742 16.6289C21.1855 16.3594 21.2441 16.0664 21.25 15.75C21.25 15.4395 21.1914 15.1494 21.0742 14.8799C20.957 14.6104 20.7959 14.3701 20.5908 14.1592C20.3857 13.9482 20.1484 13.7871 19.8789 13.6758C19.6094 13.5645 19.3164 13.5059 19 13.5C18.6895 13.5 18.3994 13.5586 18.1299 13.6758C17.8604 13.793 17.6201 13.9541 17.4092 14.1592C17.1982 14.3643 17.0371 14.6016 16.9258 14.8711C16.8145 15.1406 16.7559 15.4336 16.75 15.75C16.75 16.0605 16.8086 16.3506 16.9258 16.6201C17.043 16.8896 17.2041 17.1299 17.4092 17.3408C17.6143 17.5518 17.8516 17.7129 18.1211 17.8242C18.3906 17.9355 18.6836 17.9941 19 18ZM14.5 18.7031C14.3125 18.9199 14.1426 19.1455 13.9902 19.3799C13.8379 19.6143 13.7031 19.8662 13.5859 20.1357C13.2754 19.8135 12.9004 19.5645 12.4609 19.3887C12.0215 19.2129 11.5762 19.125 11.125 19.125H7.75V7.875H6.625V20.25H13.542C13.46 20.4316 13.3926 20.6162 13.3398 20.8037C13.2871 20.9912 13.2432 21.1816 13.208 21.375H5.5V6.75H7.75V5.625H11.125C11.6406 5.625 12.1357 5.7041 12.6104 5.8623C13.085 6.02051 13.5273 6.25781 13.9375 6.57422C14.3418 6.25781 14.7812 6.02051 15.2559 5.8623C15.7305 5.7041 16.2285 5.625 16.75 5.625H20.125V6.75H22.375V12.375C22.0352 12.041 21.6602 11.7627 21.25 11.54V7.875H20.125V11.1182C19.9375 11.0654 19.75 11.0273 19.5625 11.0039C19.375 10.9805 19.1875 10.9688 19 10.9688V6.75H16.75C16.3398 6.75 15.9414 6.82031 15.5547 6.96094C15.168 7.10156 14.8164 7.30957 14.5 7.58496V18.7031ZM13.375 18.5889V7.58496C13.0586 7.31543 12.707 7.11035 12.3203 6.96973C11.9336 6.8291 11.5352 6.75586 11.125 6.75H8.875V18H11.125C11.5176 18 11.9043 18.0498 12.2852 18.1494C12.666 18.249 13.0293 18.3955 13.375 18.5889Z" fill="#143567"/>
</g>
<defs>
<clipPath id="clip0_1244_4026">
<rect width="18" height="18" fill="white" transform="translate(5.5 4.5)"/>
</clipPath>
</defs>
</svg>
