<svg width="25" height="25" viewBox="0 0 25 25" fill="none" xmlns="http://www.w3.org/2000/svg">
<g clip-path="url(#clip0_34_224)">
<path d="M19.6916 2.23755H13.9292C13.7501 2.23742 13.5782 2.3082 13.4511 2.43443L1.93111 13.9516C1.67892 14.205 1.53735 14.548 1.53735 14.9055C1.53735 15.263 1.67892 15.606 1.93111 15.8594L7.41548 21.3438C7.66898 21.596 8.01203 21.7376 8.36962 21.7376C8.72722 21.7376 9.07026 21.596 9.32376 21.3438L20.8405 9.8313C20.9667 9.7042 21.0375 9.5323 21.0374 9.35318V3.58755C21.0382 3.41038 21.004 3.23479 20.9368 3.07088C20.8695 2.90698 20.7705 2.758 20.6454 2.63252C20.5203 2.50704 20.3716 2.40755 20.2079 2.33976C20.0442 2.27198 19.8687 2.23724 19.6916 2.23755Z" stroke="black" stroke-linecap="round" stroke-linejoin="round"/>
<path d="M17.2874 7.48755C16.9907 7.48755 16.7007 7.39958 16.454 7.23475C16.2073 7.06993 16.0151 6.83566 15.9015 6.56157C15.788 6.28749 15.7583 5.98589 15.8162 5.69491C15.8741 5.40394 16.0169 5.13667 16.2267 4.92689C16.4365 4.71711 16.7037 4.57425 16.9947 4.51637C17.2857 4.45849 17.5873 4.4882 17.8614 4.60173C18.1355 4.71526 18.3697 4.90752 18.5346 5.15419C18.6994 5.40087 18.7874 5.69088 18.7874 5.98755C18.7874 6.38537 18.6293 6.76691 18.348 7.04821C18.0667 7.32951 17.6852 7.48755 17.2874 7.48755Z" fill="black"/>
<path d="M11.5686 23.2375L23.8499 10.9563C23.9109 10.8947 23.959 10.8215 23.9912 10.741C24.0234 10.6604 24.0391 10.5743 24.0374 10.4875V4.48755" stroke="black" stroke-linecap="round" stroke-linejoin="round"/>
</g>
<defs>
<clipPath id="clip0_34_224">
<rect width="24" height="24" fill="white" transform="translate(0.787354 0.737549)"/>
</clipPath>
</defs>
</svg>
