<svg width="25" height="25" viewBox="0 0 25 25" fill="none" xmlns="http://www.w3.org/2000/svg">
<path d="M11.75 5.75C11.5511 5.75 11.3603 5.82902 11.2197 5.96967C11.079 6.11032 11 6.30109 11 6.5C11 6.69891 11.079 6.88968 11.2197 7.03033C11.3603 7.17098 11.5511 7.25 11.75 7.25C13.0098 7.25 14.218 7.75045 15.1088 8.64124C15.9996 9.53204 16.5 10.7402 16.5 12C16.5 12.1989 16.579 12.3897 16.7197 12.5303C16.8603 12.671 17.0511 12.75 17.25 12.75C17.4489 12.75 17.6397 12.671 17.7803 12.5303C17.921 12.3897 18 12.1989 18 12C18 11.1792 17.8383 10.3663 17.5242 9.608C17.21 8.84965 16.7495 8.16061 16.1691 7.58023C15.5886 6.99985 14.8995 6.5395 14.1411 6.22547C13.3827 5.91143 12.5698 5.74987 11.749 5.75" fill="#4D4D4D"/>
<path fill-rule="evenodd" clip-rule="evenodd" d="M2.5 11.999C2.5 6.89 6.642 2.75 11.75 2.75C16.858 2.75 21 6.89 21 11.998C21.0042 14.1934 20.2232 16.318 18.798 17.988L22.279 21.468C22.3507 21.5372 22.4078 21.6199 22.4472 21.7114C22.4865 21.8029 22.5073 21.9013 22.5082 22.0008C22.5091 22.1004 22.4902 22.1992 22.4525 22.2914C22.4148 22.3836 22.3592 22.4673 22.2888 22.5378C22.2184 22.6082 22.1347 22.664 22.0425 22.7017C21.9504 22.7395 21.8516 22.7585 21.7521 22.7577C21.6525 22.7569 21.554 22.7362 21.4625 22.697C21.371 22.6577 21.2882 22.6006 21.219 22.529L17.737 19.048C16.0672 20.4711 13.9439 21.2506 11.75 21.246C6.642 21.246 2.5 17.107 2.5 11.999ZM11.75 4.25C10.722 4.23348 9.70108 4.42169 8.74657 4.80365C7.79207 5.18561 6.92312 5.75369 6.19033 6.47479C5.45755 7.1959 4.87558 8.05561 4.47834 9.00386C4.08109 9.9521 3.87651 10.9699 3.87651 11.998C3.87651 13.0261 4.08109 14.0439 4.47834 14.9921C4.87558 15.9404 5.45755 16.8001 6.19033 17.5212C6.92312 18.2423 7.79207 18.8104 8.74657 19.1924C9.70108 19.5743 10.722 19.7625 11.75 19.746C12.778 19.7625 13.7989 19.5743 14.7534 19.1924C15.7079 18.8104 16.5769 18.2423 17.3097 17.5212C18.0425 16.8001 18.6244 15.9404 19.0217 14.9921C19.4189 14.0439 19.6235 13.0261 19.6235 11.998C19.6235 10.9699 19.4189 9.9521 19.0217 9.00386C18.6244 8.05561 18.0425 7.1959 17.3097 6.47479C16.5769 5.75369 15.7079 5.18561 14.7534 4.80365C13.7989 4.42169 12.778 4.23348 11.75 4.25Z" fill="#4D4D4D"/>
</svg>
