<svg width="88" height="19" viewBox="0 0 88 19" fill="none" xmlns="http://www.w3.org/2000/svg">
<path d="M11.3384 1.20551C11.4575 1.20551 11.5735 1.24331 11.6697 1.31346C11.7659 1.38362 11.8374 1.4825 11.8739 1.59588L12.4926 3.51851C12.7525 3.64563 13.0011 3.78851 13.2385 3.94938L15.214 3.52413C15.3305 3.49926 15.4518 3.51201 15.5606 3.56053C15.6694 3.60905 15.7599 3.69085 15.8192 3.79413L17.3785 6.49301C17.438 6.59623 17.4633 6.7157 17.4505 6.83418C17.4378 6.95267 17.3877 7.06404 17.3076 7.15226L15.952 8.64851C15.9717 8.93542 15.9717 9.22334 15.952 9.51026L17.3076 11.0088C17.3877 11.097 17.4378 11.2083 17.4505 11.3268C17.4633 11.4453 17.438 11.5648 17.3785 11.668L15.8192 14.368C15.7598 14.4711 15.6691 14.5526 15.5604 14.601C15.4516 14.6493 15.3303 14.6619 15.214 14.6369L13.2385 14.2116C13.0022 14.3714 12.7525 14.5154 12.4937 14.6425L11.8739 16.5651C11.8374 16.6785 11.7659 16.7774 11.6697 16.8475C11.5735 16.9177 11.4575 16.9555 11.3384 16.9555H8.21986C8.10077 16.9555 7.98476 16.9177 7.88852 16.8475C7.79229 16.7774 7.72081 16.6785 7.68436 16.5651L7.06674 14.6436C6.80757 14.5169 6.55759 14.3721 6.31861 14.2105L4.34424 14.6369C4.22776 14.6617 4.1064 14.649 3.99763 14.6005C3.88886 14.552 3.7983 14.4702 3.73899 14.3669L2.17974 11.668C2.1202 11.5648 2.09498 11.4453 2.10772 11.3268C2.12045 11.2083 2.17049 11.097 2.25061 11.0088L3.60624 9.51026C3.5866 9.22409 3.5866 8.93692 3.60624 8.65076L2.25061 7.15226C2.17049 7.06404 2.12045 6.95267 2.10772 6.83418C2.09498 6.7157 2.1202 6.59623 2.17974 6.49301L3.73899 3.79301C3.79846 3.68993 3.88909 3.60836 3.99785 3.56005C4.1066 3.51174 4.22788 3.49916 4.34424 3.52413L6.31861 3.95051C6.55711 3.78963 6.80686 3.64451 7.06674 3.51738L7.68549 1.59588C7.72181 1.48287 7.79296 1.38424 7.88874 1.31412C7.98452 1.244 8.10003 1.20598 8.21874 1.20551H11.3372H11.3384ZM10.9266 2.33051H8.63161L7.99261 4.31838L7.56174 4.52876C7.34992 4.6324 7.14544 4.75043 6.94974 4.88201L6.55149 5.15201L4.50849 4.71101L3.36099 6.70001L4.76161 8.25026L4.72786 8.72726C4.71169 8.96248 4.71169 9.19853 4.72786 9.43376L4.76161 9.91076L3.35874 11.461L4.50736 13.45L6.55036 13.0101L6.94861 13.279C7.14432 13.4106 7.34879 13.5286 7.56061 13.6323L7.99149 13.8426L8.63161 15.8305H10.9289L11.5701 13.8415L11.9999 13.6323C12.2115 13.5289 12.4156 13.4108 12.6107 13.279L13.0079 13.0101L15.052 13.45L16.1995 11.461L14.7977 9.91076L14.8315 9.43376C14.8477 9.19816 14.8477 8.96173 14.8315 8.72613L14.7977 8.24913L16.2006 6.70001L15.052 4.71101L13.0079 5.14976L12.6107 4.88201C12.4156 4.75019 12.2115 4.63215 11.9999 4.52876L11.5701 4.31951L10.9277 2.33051H10.9266ZM9.77911 5.70551C10.6742 5.70551 11.5327 6.06108 12.1656 6.69402C12.7985 7.32696 13.1541 8.1854 13.1541 9.08051C13.1541 9.97561 12.7985 10.8341 12.1656 11.467C11.5327 12.0999 10.6742 12.4555 9.77911 12.4555C8.88401 12.4555 8.02556 12.0999 7.39263 11.467C6.75969 10.8341 6.40411 9.97561 6.40411 9.08051C6.40411 8.1854 6.75969 7.32696 7.39263 6.69402C8.02556 6.06108 8.88401 5.70551 9.77911 5.70551ZM9.77911 6.83051C9.18238 6.83051 8.61008 7.06756 8.18812 7.48951C7.76617 7.91147 7.52911 8.48377 7.52911 9.08051C7.52911 9.67724 7.76617 10.2495 8.18812 10.6715C8.61008 11.0935 9.18238 11.3305 9.77911 11.3305C10.3759 11.3305 10.9481 11.0935 11.3701 10.6715C11.7921 10.2495 12.0291 9.67724 12.0291 9.08051C12.0291 8.48377 11.7921 7.91147 11.3701 7.48951C10.9481 7.06756 10.3759 6.83051 9.77911 6.83051Z" fill="black"/>
<path d="M35.4966 11.6176H36.9058C37.0264 12.4872 37.877 13.0395 39.1021 13.0395C40.2446 13.0395 41.0825 12.4492 41.0825 11.6367C41.0825 10.9384 40.5493 10.5195 39.3369 10.2338L38.1562 9.94818C36.4995 9.56097 35.7441 8.76117 35.7441 7.41547C35.7441 5.78412 37.0771 4.69867 39.0767 4.69867C40.9365 4.69867 42.2949 5.78412 42.3774 7.3266H40.9937C40.8604 6.48236 40.124 5.95551 39.0576 5.95551C37.9341 5.95551 37.1851 6.49506 37.1851 7.32025C37.1851 7.97406 37.6675 8.34857 38.8608 8.62787L39.8701 8.87543C41.749 9.31342 42.5234 10.0751 42.5234 11.4526C42.5234 13.2045 41.165 14.3027 38.9941 14.3027C36.9629 14.3027 35.5981 13.2553 35.4966 11.6176ZM47.0747 8.19623C46.0654 8.19623 45.3608 8.90717 45.2847 9.98627H48.7759C48.7441 8.90082 48.084 8.19623 47.0747 8.19623ZM48.7695 12.2143H50.0835C49.7725 13.4521 48.668 14.2138 47.0874 14.2138C45.1069 14.2138 43.8945 12.8554 43.8945 10.6464C43.8945 8.43744 45.1323 7.03461 47.0811 7.03461C49.0044 7.03461 50.166 8.34857 50.166 10.5195V10.9955H45.2847V11.0717C45.3291 12.2841 46.0337 13.0522 47.1255 13.0522C47.9507 13.0522 48.5156 12.7538 48.7695 12.2143ZM52.2861 5.44769H53.6509V7.19965H55.1489V8.34857H53.6509V11.9033C53.6509 12.6269 53.9492 12.9443 54.6284 12.9443C54.8379 12.9443 54.9585 12.9316 55.1489 12.9125V14.0488C54.9268 14.0869 54.6729 14.1186 54.4062 14.1186C52.8892 14.1186 52.2861 13.5854 52.2861 12.2524V8.34857H51.188V7.19965H52.2861V5.44769ZM57.2627 5.44769H58.6274V7.19965H60.1255V8.34857H58.6274V11.9033C58.6274 12.6269 58.9258 12.9443 59.605 12.9443C59.8145 12.9443 59.9351 12.9316 60.1255 12.9125V14.0488C59.9033 14.0869 59.6494 14.1186 59.3828 14.1186C57.8657 14.1186 57.2627 13.5854 57.2627 12.2524V8.34857H56.1646V7.19965H57.2627V5.44769ZM61.7568 14.0805V7.16791H63.1152V14.0805H61.7568ZM62.436 5.95551C61.9282 5.95551 61.5537 5.59369 61.5537 5.12396C61.5537 4.64789 61.9282 4.28607 62.436 4.28607C62.9438 4.28607 63.3184 4.64789 63.3184 5.12396C63.3184 5.59369 62.9438 5.95551 62.436 5.95551ZM65.1211 14.0805V7.16791H66.4351V8.26605H66.5366C66.873 7.49799 67.5586 7.03461 68.5996 7.03461C70.1421 7.03461 70.9927 7.96136 70.9927 9.60541V14.0805H69.6279V9.94818C69.6279 8.83734 69.1455 8.2851 68.1362 8.2851C67.127 8.2851 66.4858 8.95795 66.4858 10.037V14.0805H65.1211ZM75.8105 12.7983C76.9785 12.7983 77.6831 11.9223 77.6831 10.5385C77.6831 9.16107 76.9722 8.27875 75.8105 8.27875C74.6362 8.27875 73.9761 9.16107 73.9761 10.5385C73.9761 11.916 74.6362 12.7983 75.8105 12.7983ZM75.8296 16.7211C74.103 16.7211 72.9858 15.9467 72.8398 14.7724H74.2363C74.3506 15.2739 74.9282 15.5976 75.8486 15.5976C76.9849 15.5976 77.6577 15.058 77.6577 14.144V12.8173H77.5562C77.1372 13.5663 76.3755 13.9789 75.4233 13.9789C73.6587 13.9789 72.5669 12.6142 72.5669 10.5449C72.5669 8.43744 73.6714 7.05365 75.436 7.05365C76.3882 7.05365 77.2197 7.52338 77.6069 8.2724H77.7148V7.16791H79.0225V14.1376C79.0225 15.7182 77.7847 16.7211 75.8296 16.7211ZM80.8442 9.12299C80.8442 7.89789 81.9678 7.03461 83.5293 7.03461C85.0845 7.03461 86.1001 7.75824 86.2334 8.97699H84.9258C84.7988 8.46918 84.3037 8.14545 83.5293 8.14545C82.7676 8.14545 82.1899 8.50726 82.1899 9.04681C82.1899 9.45941 82.5391 9.71967 83.2881 9.89105L84.437 10.1577C85.751 10.4623 86.3667 11.0273 86.3667 12.0429C86.3667 13.3442 85.1543 14.2138 83.5039 14.2138C81.8599 14.2138 80.7871 13.4711 80.6665 12.246H82.0312C82.2026 12.7792 82.7104 13.1093 83.5356 13.1093C84.3862 13.1093 84.9893 12.7285 84.9893 12.1762C84.9893 11.7636 84.6655 11.497 83.9736 11.332L82.7676 11.0527C81.4536 10.7416 80.8442 10.1513 80.8442 9.12299Z" fill="#5A5A5A"/>
</svg>
