<svg width="388" height="102" viewBox="0 0 388 102" fill="none" xmlns="http://www.w3.org/2000/svg">
<path d="M22.0625 10.8906L15.6406 34H8.96094L0.0078125 0.179688H7.34375L12.6641 24.6719H12.8516L19.1797 0.179688H25.1562L31.4844 24.6719H31.6719L37.0156 0.179688H44.3516L35.375 34H28.6953L22.2734 10.8906H22.0625ZM56.0469 13.3984C53.0469 13.3984 50.8906 15.6719 50.6562 18.8125H61.3203C61.1797 15.6016 59.0938 13.3984 56.0469 13.3984ZM61.4141 26.3125H67.6953C66.9453 31.2344 62.4453 34.5391 56.2344 34.5391C48.5 34.5391 43.8594 29.5938 43.8594 21.5547C43.8594 13.5391 48.5469 8.33594 55.9766 8.33594C63.2891 8.33594 67.9062 13.2812 67.9062 20.9219V23.0078H50.5859V23.4297C50.5859 27.0156 52.8594 29.4766 56.3516 29.4766C58.8594 29.4766 60.7812 28.2344 61.4141 26.3125ZM75.8516 13.375H70.7422L72.5 0.179688H78.9922L75.8516 13.375ZM82.8828 34V8.875H89.4922V13.3984H89.6328C90.5234 10.2109 92.6562 8.47656 95.6094 8.47656C96.4062 8.47656 97.0859 8.59375 97.5547 8.73438V14.7578C96.9922 14.5234 96.0547 14.3594 95.0703 14.3594C91.6953 14.3594 89.7266 16.4219 89.7266 19.9609V34H82.8828ZM110.797 13.3984C107.797 13.3984 105.641 15.6719 105.406 18.8125H116.07C115.93 15.6016 113.844 13.3984 110.797 13.3984ZM116.164 26.3125H122.445C121.695 31.2344 117.195 34.5391 110.984 34.5391C103.25 34.5391 98.6094 29.5938 98.6094 21.5547C98.6094 13.5391 103.297 8.33594 110.727 8.33594C118.039 8.33594 122.656 13.2812 122.656 20.9219V23.0078H105.336V23.4297C105.336 27.0156 107.609 29.4766 111.102 29.4766C113.609 29.4766 115.531 28.2344 116.164 26.3125ZM135.289 16.2578C135.289 11.4766 139.438 8.33594 145.883 8.33594C152.188 8.33594 156.289 11.5234 156.383 16.3984H150.078C149.938 14.3828 148.32 13.1406 145.789 13.1406C143.422 13.1406 141.875 14.2188 141.875 15.8359C141.875 17.0781 142.953 17.9219 145.156 18.4375L149.961 19.4688C155 20.5938 157.039 22.5859 157.039 26.3359C157.039 31.2812 152.492 34.5391 145.859 34.5391C139.156 34.5391 135.031 31.3047 134.656 26.4062H141.336C141.664 28.5156 143.328 29.7344 146.047 29.7344C148.648 29.7344 150.219 28.7031 150.219 27.0625C150.219 25.7969 149.375 25.0938 147.125 24.5547L142.484 23.5234C137.727 22.4453 135.289 19.9609 135.289 16.2578ZM171.992 34.5391C164.398 34.5391 159.547 29.6641 159.547 21.4141C159.547 13.2812 164.469 8.33594 171.992 8.33594C179.516 8.33594 184.438 13.2578 184.438 21.4141C184.438 29.6875 179.586 34.5391 171.992 34.5391ZM171.992 29.3125C175.344 29.3125 177.477 26.4766 177.477 21.4375C177.477 16.4453 175.32 13.5625 171.992 13.5625C168.664 13.5625 166.484 16.4453 166.484 21.4375C166.484 26.4766 168.617 29.3125 171.992 29.3125ZM187.977 34V8.875H194.586V13.3984H194.727C195.617 10.2109 197.75 8.47656 200.703 8.47656C201.5 8.47656 202.18 8.59375 202.648 8.73438V14.7578C202.086 14.5234 201.148 14.3594 200.164 14.3594C196.789 14.3594 194.82 16.4219 194.82 19.9609V34H187.977ZM205.461 34V8.875H212.07V13.3984H212.211C213.102 10.2109 215.234 8.47656 218.188 8.47656C218.984 8.47656 219.664 8.59375 220.133 8.73438V14.7578C219.57 14.5234 218.633 14.3594 217.648 14.3594C214.273 14.3594 212.305 16.4219 212.305 19.9609V34H205.461ZM226.156 43.3047C225.922 43.3047 223.789 43.2812 223.578 43.2344V37.9609C223.789 38.0078 225.031 38.0078 225.289 38.0078C227.797 38.0078 229.039 37.2109 229.508 35.2188C229.508 35.125 229.766 34.1172 229.719 34.0234L220.977 8.875H228.5L233.844 28.5156H233.961L239.305 8.875H246.523L237.875 34.5625C235.719 41.0078 232.578 43.3047 226.156 43.3047ZM260.352 3.08594H267.195V8.875H271.836V14.0312H267.195V26.0547C267.195 27.9766 268.133 28.8906 270.148 28.8906C270.758 28.8906 271.391 28.8438 271.812 28.7734V33.8125C271.109 33.9766 269.938 34.0938 268.555 34.0938C262.648 34.0938 260.352 32.125 260.352 27.2266V14.0312H256.812V8.875H260.352V3.08594ZM286.742 34.5391C279.148 34.5391 274.297 29.6641 274.297 21.4141C274.297 13.2812 279.219 8.33594 286.742 8.33594C294.266 8.33594 299.188 13.2578 299.188 21.4141C299.188 29.6875 294.336 34.5391 286.742 34.5391ZM286.742 29.3125C290.094 29.3125 292.227 26.4766 292.227 21.4375C292.227 16.4453 290.07 13.5625 286.742 13.5625C283.414 13.5625 281.234 16.4453 281.234 21.4375C281.234 26.4766 283.367 29.3125 286.742 29.3125ZM114.992 74.2578C114.992 69.4766 119.141 66.3359 125.586 66.3359C131.891 66.3359 135.992 69.5234 136.086 74.3984H129.781C129.641 72.3828 128.023 71.1406 125.492 71.1406C123.125 71.1406 121.578 72.2188 121.578 73.8359C121.578 75.0781 122.656 75.9219 124.859 76.4375L129.664 77.4688C134.703 78.5938 136.742 80.5859 136.742 84.3359C136.742 89.2812 132.195 92.5391 125.562 92.5391C118.859 92.5391 114.734 89.3047 114.359 84.4062H121.039C121.367 86.5156 123.031 87.7344 125.75 87.7344C128.352 87.7344 129.922 86.7031 129.922 85.0625C129.922 83.7969 129.078 83.0938 126.828 82.5547L122.188 81.5234C117.43 80.4453 114.992 77.9609 114.992 74.2578ZM151.438 71.3984C148.438 71.3984 146.281 73.6719 146.047 76.8125H156.711C156.57 73.6016 154.484 71.3984 151.438 71.3984ZM156.805 84.3125H163.086C162.336 89.2344 157.836 92.5391 151.625 92.5391C143.891 92.5391 139.25 87.5938 139.25 79.5547C139.25 71.5391 143.938 66.3359 151.367 66.3359C158.68 66.3359 163.297 71.2812 163.297 78.9219V81.0078H145.977V81.4297C145.977 85.0156 148.25 87.4766 151.742 87.4766C154.25 87.4766 156.172 86.2344 156.805 84.3125ZM178.109 71.3984C175.109 71.3984 172.953 73.6719 172.719 76.8125H183.383C183.242 73.6016 181.156 71.3984 178.109 71.3984ZM183.477 84.3125H189.758C189.008 89.2344 184.508 92.5391 178.297 92.5391C170.562 92.5391 165.922 87.5938 165.922 79.5547C165.922 71.5391 170.609 66.3359 178.039 66.3359C185.352 66.3359 189.969 71.2812 189.969 78.9219V81.0078H172.648V81.4297C172.648 85.0156 174.922 87.4766 178.414 87.4766C180.922 87.4766 182.844 86.2344 183.477 84.3125ZM206.234 101.305C206 101.305 203.867 101.281 203.656 101.234V95.9609C203.867 96.0078 205.109 96.0078 205.367 96.0078C207.875 96.0078 209.117 95.2109 209.586 93.2188C209.586 93.125 209.844 92.1172 209.797 92.0234L201.055 66.875H208.578L213.922 86.5156H214.039L219.383 66.875H226.602L217.953 92.5625C215.797 99.0078 212.656 101.305 206.234 101.305ZM239.914 92.5391C232.32 92.5391 227.469 87.6641 227.469 79.4141C227.469 71.2812 232.391 66.3359 239.914 66.3359C247.438 66.3359 252.359 71.2578 252.359 79.4141C252.359 87.6875 247.508 92.5391 239.914 92.5391ZM239.914 87.3125C243.266 87.3125 245.398 84.4766 245.398 79.4375C245.398 74.4453 243.242 71.5625 239.914 71.5625C236.586 71.5625 234.406 74.4453 234.406 79.4375C234.406 84.4766 236.539 87.3125 239.914 87.3125ZM279.102 66.875V92H272.492V87.4766H272.352C271.109 90.6406 268.625 92.4688 264.828 92.4688C259.391 92.4688 255.781 88.9297 255.781 83.0703V66.875H262.625V81.6406C262.625 84.9922 264.289 86.7734 267.312 86.7734C270.359 86.7734 272.258 84.5938 272.258 81.2656V66.875H279.102ZM304.672 86.6562C308.094 86.6562 310.273 83.9375 310.273 79.3906C310.273 74.8672 308.094 71.9609 304.672 71.9609C301.297 71.9609 299.164 74.8203 299.164 79.3906C299.164 83.9844 301.273 86.6562 304.672 86.6562ZM304.555 101.469C297.945 101.469 293.469 98.2578 292.93 93.7812H299.633C300.172 95.5156 302.141 96.7109 304.742 96.7109C308.281 96.7109 310.25 94.7422 310.25 91.8359V87.4297H310.109C308.938 90.1016 305.984 91.9297 302.352 91.9297C296.211 91.9297 292.156 87.1953 292.156 79.3438C292.156 71.375 296.094 66.4766 302.469 66.4766C306.078 66.4766 308.914 68.375 310.227 71.2578H310.344V66.875H317.094V91.6484C317.094 97.6484 312.078 101.469 304.555 101.469ZM333.102 92.5391C325.508 92.5391 320.656 87.6641 320.656 79.4141C320.656 71.2812 325.578 66.3359 333.102 66.3359C340.625 66.3359 345.547 71.2578 345.547 79.4141C345.547 87.6875 340.695 92.5391 333.102 92.5391ZM333.102 87.3125C336.453 87.3125 338.586 84.4766 338.586 79.4375C338.586 74.4453 336.43 71.5625 333.102 71.5625C329.773 71.5625 327.594 74.4453 327.594 79.4375C327.594 84.4766 329.727 87.3125 333.102 87.3125ZM363.055 92.2812C360.945 92.2812 359.281 90.5938 359.281 88.5078C359.281 86.3984 360.945 84.7344 363.055 84.7344C365.141 84.7344 366.828 86.3984 366.828 88.5078C366.828 90.5938 365.141 92.2812 363.055 92.2812ZM363.055 75.5234C360.945 75.5234 359.281 73.8359 359.281 71.75C359.281 69.6406 360.945 67.9766 363.055 67.9766C365.141 67.9766 366.828 69.6406 366.828 71.75C366.828 73.8359 365.141 75.5234 363.055 75.5234ZM374 78.7109C374 70.4609 376.18 63.875 380.961 58.1797H387.242C383.797 62.2109 381.055 70.8828 381.055 78.6875C381.055 86.4922 383.797 95.1875 387.242 99.2656H380.961C376.156 93.5 374 86.9141 374 78.7109Z" fill="black"/>
</svg>
