<svg width="153" height="17" viewBox="0 0 153 17" fill="none" xmlns="http://www.w3.org/2000/svg">
<path d="M0.767578 8.50007H5.57414L9.62168 15.3492C9.84397 15.7254 10.4078 15.6555 10.5316 15.2365L14.5995 1.46849C14.7069 1.10477 15.1644 0.988432 15.4325 1.25661L22.676 8.50007H26.2388" stroke="black" stroke-width="2"/>
<path d="M38.2435 14V3.81818H42.0617C42.8439 3.81818 43.5001 3.95407 44.0305 4.22585C44.5641 4.49763 44.9668 4.87879 45.2385 5.36932C45.5136 5.85653 45.6512 6.42495 45.6512 7.07457C45.6512 7.72751 45.512 8.29427 45.2336 8.77486C44.9585 9.25213 44.5525 9.62169 44.0155 9.88352C43.4786 10.142 42.819 10.2713 42.0368 10.2713H39.3174V8.74006H41.7883C42.2456 8.74006 42.6202 8.67708 42.9118 8.55114C43.2035 8.42187 43.4189 8.23461 43.5581 7.98935C43.7007 7.74077 43.7719 7.43584 43.7719 7.07457C43.7719 6.7133 43.7007 6.40507 43.5581 6.14986C43.4156 5.89134 43.1985 5.69579 42.9069 5.56321C42.6152 5.42732 42.239 5.35938 41.7783 5.35938H40.088V14H38.2435ZM43.5035 9.38636L46.0241 14H43.9658L41.49 9.38636H43.5035ZM50.5407 14.1491C49.7751 14.1491 49.1139 13.9901 48.5571 13.6719C48.0036 13.3504 47.5777 12.8963 47.2794 12.3097C46.9811 11.7197 46.8319 11.0253 46.8319 10.2266C46.8319 9.44105 46.9811 8.75166 47.2794 8.15838C47.581 7.56179 48.0019 7.09777 48.5422 6.76633C49.0824 6.43158 49.7171 6.2642 50.4463 6.2642C50.9169 6.2642 51.3611 6.34044 51.7787 6.4929C52.1996 6.64205 52.5708 6.87405 52.8923 7.18892C53.2171 7.50379 53.4723 7.90483 53.6579 8.39205C53.8435 8.87595 53.9363 9.45265 53.9363 10.1222V10.674H47.6771V9.46094H52.2112C52.2079 9.11624 52.1333 8.80966 51.9875 8.54119C51.8416 8.26941 51.6378 8.05563 51.376 7.89986C51.1175 7.74408 50.8158 7.66619 50.4711 7.66619C50.1032 7.66619 49.7801 7.75568 49.5017 7.93466C49.2233 8.11032 49.0062 8.34233 48.8504 8.63068C48.6979 8.91572 48.6201 9.22893 48.6167 9.57031V10.6293C48.6167 11.0734 48.6979 11.4545 48.8604 11.7727C49.0228 12.0876 49.2498 12.3295 49.5415 12.4986C49.8331 12.6643 50.1745 12.7472 50.5656 12.7472C50.8274 12.7472 51.0644 12.7107 51.2765 12.6378C51.4887 12.5616 51.6726 12.4505 51.8284 12.3047C51.9842 12.1589 52.1018 11.9782 52.1814 11.7628L53.8618 11.9517C53.7557 12.3958 53.5535 12.7836 53.2552 13.1151C52.9603 13.4432 52.5824 13.6984 52.1217 13.8807C51.661 14.0597 51.134 14.1491 50.5407 14.1491ZM61.4944 8.3821L59.8538 8.56108C59.8074 8.39536 59.7262 8.23958 59.6102 8.09375C59.4975 7.94792 59.345 7.83026 59.1528 7.74077C58.9606 7.65128 58.7252 7.60653 58.4468 7.60653C58.0723 7.60653 57.7574 7.68774 57.5022 7.85014C57.2503 8.01255 57.126 8.22301 57.1294 8.48153C57.126 8.7036 57.2072 8.88423 57.373 9.02344C57.542 9.16264 57.8204 9.27699 58.2082 9.36648L59.5107 9.64489C60.2333 9.80066 60.7702 10.0476 61.1215 10.3857C61.4762 10.7237 61.6552 11.1662 61.6585 11.7131C61.6552 12.1937 61.5143 12.6179 61.2359 12.9858C60.9608 13.3504 60.578 13.6354 60.0874 13.8409C59.5969 14.0464 59.0335 14.1491 58.3971 14.1491C57.4624 14.1491 56.7101 13.9536 56.14 13.5625C55.5699 13.1681 55.2302 12.6196 55.1208 11.9169L56.8758 11.7479C56.9553 12.0926 57.1244 12.3527 57.3829 12.5284C57.6414 12.7041 57.9778 12.7919 58.3921 12.7919C58.8197 12.7919 59.1627 12.7041 59.4213 12.5284C59.6831 12.3527 59.814 12.1357 59.814 11.8771C59.814 11.6584 59.7295 11.4777 59.5605 11.3352C59.3947 11.1927 59.1362 11.0833 58.7849 11.0071L57.4823 10.7337C56.7499 10.5812 56.2079 10.3243 55.8566 9.96307C55.5053 9.59848 55.3313 9.13778 55.3346 8.58097C55.3313 8.11032 55.4589 7.70265 55.7174 7.35795C55.9793 7.00994 56.3422 6.74148 56.8062 6.55256C57.2735 6.36032 57.8121 6.2642 58.422 6.2642C59.3169 6.2642 60.0212 6.45478 60.5349 6.83594C61.0519 7.21709 61.3718 7.73248 61.4944 8.3821ZM63.1425 16.8636V6.36364H64.9124V7.62642H65.0168C65.1096 7.44081 65.2405 7.24361 65.4095 7.0348C65.5786 6.82268 65.8073 6.64205 66.0956 6.4929C66.384 6.34044 66.7519 6.2642 67.1993 6.2642C67.7893 6.2642 68.3212 6.41501 68.7952 6.71662C69.2725 7.01491 69.6503 7.45739 69.9287 8.04403C70.2104 8.62737 70.3513 9.34328 70.3513 10.1918C70.3513 11.0303 70.2137 11.7429 69.9387 12.3295C69.6636 12.9162 69.289 13.3636 68.8151 13.6719C68.3411 13.9801 67.8042 14.1342 67.2043 14.1342C66.7668 14.1342 66.4039 14.0613 66.1155 13.9155C65.8271 13.7696 65.5951 13.594 65.4195 13.3885C65.2471 13.1797 65.1129 12.9825 65.0168 12.7969H64.9422V16.8636H63.1425ZM64.9074 10.1818C64.9074 10.6757 64.977 11.1082 65.1162 11.4794C65.2587 11.8506 65.4626 12.1406 65.7277 12.3494C65.9962 12.5549 66.321 12.6577 66.7021 12.6577C67.0999 12.6577 67.433 12.5516 67.7014 12.3395C67.9699 12.1241 68.1721 11.8307 68.308 11.4595C68.4472 11.085 68.5168 10.6591 68.5168 10.1818C68.5168 9.70786 68.4488 9.28693 68.3129 8.91903C68.1771 8.55114 67.9749 8.26278 67.7064 8.05398C67.4379 7.84517 67.1032 7.74077 66.7021 7.74077C66.3177 7.74077 65.9912 7.84186 65.7227 8.04403C65.4543 8.24621 65.2504 8.52959 65.1112 8.89418C64.9753 9.25876 64.9074 9.68797 64.9074 10.1818ZM75.2235 14.1491C74.4777 14.1491 73.8314 13.9851 73.2845 13.657C72.7377 13.3288 72.3134 12.8698 72.0118 12.2798C71.7135 11.6899 71.5644 11.0005 71.5644 10.2116C71.5644 9.42282 71.7135 8.73177 72.0118 8.13849C72.3134 7.54522 72.7377 7.08452 73.2845 6.75639C73.8314 6.42827 74.4777 6.2642 75.2235 6.2642C75.9692 6.2642 76.6155 6.42827 77.1624 6.75639C77.7093 7.08452 78.1318 7.54522 78.4301 8.13849C78.7317 8.73177 78.8825 9.42282 78.8825 10.2116C78.8825 11.0005 78.7317 11.6899 78.4301 12.2798C78.1318 12.8698 77.7093 13.3288 77.1624 13.657C76.6155 13.9851 75.9692 14.1491 75.2235 14.1491ZM75.2334 12.7074C75.6378 12.7074 75.9758 12.5964 76.2476 12.3743C76.5194 12.1489 76.7216 11.8473 76.8541 11.4695C76.99 11.0916 77.058 10.6707 77.058 10.2067C77.058 9.73935 76.99 9.31676 76.8541 8.93892C76.7216 8.55777 76.5194 8.2545 76.2476 8.02912C75.9758 7.80374 75.6378 7.69105 75.2334 7.69105C74.8191 7.69105 74.4744 7.80374 74.1993 8.02912C73.9275 8.2545 73.7237 8.55777 73.5878 8.93892C73.4552 9.31676 73.3889 9.73935 73.3889 10.2067C73.3889 10.6707 73.4552 11.0916 73.5878 11.4695C73.7237 11.8473 73.9275 12.1489 74.1993 12.3743C74.4744 12.5964 74.8191 12.7074 75.2334 12.7074ZM82.2098 9.52557V14H80.4101V6.36364H82.1302V7.66122H82.2197C82.3954 7.23366 82.6755 6.89394 83.0599 6.64205C83.4477 6.39015 83.9266 6.2642 84.4967 6.2642C85.0237 6.2642 85.4827 6.37689 85.8738 6.60227C86.2683 6.82765 86.5732 7.15412 86.7886 7.58168C87.0074 8.00923 87.1151 8.52794 87.1118 9.13778V14H85.3121V9.41619C85.3121 8.90578 85.1795 8.50639 84.9143 8.21804C84.6525 7.92969 84.2896 7.78551 83.8256 7.78551C83.5107 7.78551 83.2306 7.85511 82.9854 7.99432C82.7434 8.13021 82.5528 8.32741 82.4136 8.58594C82.2777 8.84446 82.2098 9.15767 82.2098 9.52557ZM94.9768 8.3821L93.3362 8.56108C93.2898 8.39536 93.2086 8.23958 93.0926 8.09375C92.9799 7.94792 92.8274 7.83026 92.6352 7.74077C92.443 7.65128 92.2077 7.60653 91.9292 7.60653C91.5547 7.60653 91.2398 7.68774 90.9846 7.85014C90.7327 8.01255 90.6085 8.22301 90.6118 8.48153C90.6085 8.7036 90.6897 8.88423 90.8554 9.02344C91.0244 9.16264 91.3028 9.27699 91.6906 9.36648L92.9932 9.64489C93.7157 9.80066 94.2526 10.0476 94.604 10.3857C94.9586 10.7237 95.1376 11.1662 95.1409 11.7131C95.1376 12.1937 94.9967 12.6179 94.7183 12.9858C94.4432 13.3504 94.0604 13.6354 93.5699 13.8409C93.0793 14.0464 92.5159 14.1491 91.8795 14.1491C90.9449 14.1491 90.1925 13.9536 89.6224 13.5625C89.0523 13.1681 88.7126 12.6196 88.6032 11.9169L90.3582 11.7479C90.4378 12.0926 90.6068 12.3527 90.8653 12.5284C91.1238 12.7041 91.4603 12.7919 91.8746 12.7919C92.3021 12.7919 92.6452 12.7041 92.9037 12.5284C93.1655 12.3527 93.2964 12.1357 93.2964 11.8771C93.2964 11.6584 93.2119 11.4777 93.0429 11.3352C92.8772 11.1927 92.6186 11.0833 92.2673 11.0071L90.9648 10.7337C90.2323 10.5812 89.6904 10.3243 89.339 9.96307C88.9877 9.59848 88.8137 9.13778 88.817 8.58097C88.8137 8.11032 88.9413 7.70265 89.1998 7.35795C89.4617 7.00994 89.8246 6.74148 90.2886 6.55256C90.7559 6.36032 91.2945 6.2642 91.9044 6.2642C92.7993 6.2642 93.5036 6.45478 94.0173 6.83594C94.5344 7.21709 94.8542 7.73248 94.9768 8.3821ZM100.006 14.1491C99.24 14.1491 98.5787 13.9901 98.0219 13.6719C97.4684 13.3504 97.0425 12.8963 96.7442 12.3097C96.4459 11.7197 96.2968 11.0253 96.2968 10.2266C96.2968 9.44105 96.4459 8.75166 96.7442 8.15838C97.0458 7.56179 97.4668 7.09777 98.007 6.76633C98.5473 6.43158 99.182 6.2642 99.9111 6.2642C100.382 6.2642 100.826 6.34044 101.244 6.4929C101.664 6.64205 102.036 6.87405 102.357 7.18892C102.682 7.50379 102.937 7.90483 103.123 8.39205C103.308 8.87595 103.401 9.45265 103.401 10.1222V10.674H97.142V9.46094H101.676C101.673 9.11624 101.598 8.80966 101.452 8.54119C101.306 8.26941 101.103 8.05563 100.841 7.89986C100.582 7.74408 100.281 7.66619 99.936 7.66619C99.5681 7.66619 99.2449 7.75568 98.9665 7.93466C98.6881 8.11032 98.471 8.34233 98.3153 8.63068C98.1628 8.91572 98.0849 9.22893 98.0816 9.57031V10.6293C98.0816 11.0734 98.1628 11.4545 98.3252 11.7727C98.4876 12.0876 98.7146 12.3295 99.0063 12.4986C99.298 12.6643 99.6394 12.7472 100.03 12.7472C100.292 12.7472 100.529 12.7107 100.741 12.6378C100.954 12.5616 101.137 12.4505 101.293 12.3047C101.449 12.1589 101.567 11.9782 101.646 11.7628L103.327 11.9517C103.221 12.3958 103.018 12.7836 102.72 13.1151C102.425 13.4432 102.047 13.6984 101.587 13.8807C101.126 14.0597 100.599 14.1491 100.006 14.1491ZM114.009 6.61719C113.963 6.183 113.767 5.84493 113.423 5.60298C113.081 5.36103 112.637 5.24006 112.09 5.24006C111.706 5.24006 111.376 5.29806 111.101 5.41406C110.826 5.53007 110.615 5.6875 110.47 5.88636C110.324 6.08523 110.249 6.31226 110.246 6.56747C110.246 6.77959 110.294 6.96354 110.39 7.11932C110.489 7.27509 110.624 7.40767 110.793 7.51705C110.962 7.62311 111.149 7.71259 111.354 7.78551C111.56 7.85843 111.767 7.91974 111.976 7.96946L112.93 8.2081C113.315 8.29758 113.685 8.41856 114.039 8.57102C114.397 8.72348 114.717 8.91572 114.999 9.14773C115.284 9.37973 115.509 9.6598 115.675 9.98793C115.841 10.3161 115.923 10.7005 115.923 11.1413C115.923 11.7379 115.771 12.2633 115.466 12.7173C115.161 13.1681 114.72 13.5211 114.144 13.7763C113.57 14.0282 112.876 14.1541 112.06 14.1541C111.268 14.1541 110.581 14.0315 109.997 13.7862C109.417 13.541 108.963 13.183 108.635 12.7124C108.31 12.2417 108.135 11.6683 108.108 10.9922H109.923C109.949 11.3468 110.059 11.6418 110.251 11.8771C110.443 12.1125 110.693 12.2881 111.002 12.4041C111.313 12.5201 111.661 12.5781 112.046 12.5781C112.447 12.5781 112.798 12.5185 113.1 12.3991C113.404 12.2765 113.643 12.1075 113.815 11.892C113.988 11.6733 114.076 11.4181 114.079 11.1264C114.076 10.8613 113.998 10.6425 113.845 10.4702C113.693 10.2945 113.479 10.1487 113.204 10.0327C112.932 9.91335 112.614 9.80729 112.249 9.71449L111.091 9.41619C110.252 9.20076 109.59 8.87429 109.102 8.43679C108.618 7.99598 108.377 7.41098 108.377 6.68182C108.377 6.08191 108.539 5.55658 108.864 5.10582C109.192 4.65507 109.638 4.3054 110.201 4.05682C110.765 3.80492 111.403 3.67898 112.115 3.67898C112.838 3.67898 113.471 3.80492 114.014 4.05682C114.561 4.3054 114.99 4.65175 115.302 5.09588C115.613 5.53669 115.774 6.0438 115.784 6.61719H114.009ZM121.301 6.36364V7.75568H116.911V6.36364H121.301ZM117.995 4.53409H119.795V11.7031C119.795 11.9451 119.831 12.1307 119.904 12.2599C119.981 12.3859 120.08 12.4721 120.203 12.5185C120.325 12.5649 120.461 12.5881 120.61 12.5881C120.723 12.5881 120.826 12.5798 120.919 12.5632C121.015 12.5466 121.088 12.5317 121.137 12.5185L121.441 13.9254C121.344 13.9586 121.207 13.995 121.028 14.0348C120.852 14.0746 120.637 14.0978 120.382 14.1044C119.931 14.1177 119.525 14.0497 119.164 13.9006C118.802 13.7481 118.516 13.5128 118.304 13.1946C118.095 12.8764 117.992 12.4787 117.995 12.0014V4.53409ZM125.004 14.1541C124.52 14.1541 124.084 14.0679 123.696 13.8956C123.312 13.7199 123.007 13.4614 122.782 13.12C122.56 12.7786 122.449 12.3577 122.449 11.8572C122.449 11.4264 122.528 11.0701 122.687 10.7884C122.846 10.5066 123.063 10.2812 123.339 10.1122C123.614 9.94318 123.924 9.81558 124.268 9.7294C124.616 9.63991 124.976 9.57528 125.347 9.53551C125.794 9.48911 126.157 9.44768 126.436 9.41122C126.714 9.37145 126.916 9.31179 127.042 9.23224C127.172 9.14938 127.236 9.02178 127.236 8.84943V8.8196C127.236 8.44508 127.125 8.15507 126.903 7.94957C126.681 7.74408 126.361 7.64134 125.944 7.64134C125.503 7.64134 125.153 7.73745 124.895 7.92969C124.639 8.12192 124.467 8.34896 124.378 8.6108L122.697 8.37216C122.83 7.90814 123.049 7.52036 123.353 7.20881C123.658 6.89394 124.031 6.65862 124.472 6.50284C124.913 6.34375 125.4 6.2642 125.934 6.2642C126.302 6.2642 126.668 6.30729 127.032 6.39347C127.397 6.47964 127.73 6.62216 128.032 6.82102C128.333 7.01657 128.575 7.28338 128.758 7.62145C128.943 7.95952 129.036 8.3821 129.036 8.8892V14H127.306V12.951H127.246C127.137 13.1631 126.983 13.362 126.784 13.5476C126.588 13.7299 126.341 13.8774 126.043 13.9901C125.748 14.0994 125.402 14.1541 125.004 14.1541ZM125.471 12.8317C125.833 12.8317 126.146 12.7604 126.411 12.6179C126.676 12.4721 126.88 12.2798 127.022 12.0412C127.168 11.8026 127.241 11.5424 127.241 11.2607V10.3608C127.185 10.4072 127.089 10.4503 126.953 10.4901C126.82 10.5298 126.671 10.5646 126.505 10.5945C126.34 10.6243 126.176 10.6508 126.013 10.674C125.851 10.6972 125.71 10.7171 125.591 10.7337C125.322 10.7701 125.082 10.8298 124.87 10.9126C124.658 10.9955 124.49 11.1115 124.368 11.2607C124.245 11.4065 124.184 11.5954 124.184 11.8274C124.184 12.1589 124.305 12.4091 124.547 12.5781C124.789 12.7472 125.097 12.8317 125.471 12.8317ZM134.659 6.36364V7.75568H130.269V6.36364H134.659ZM131.353 4.53409H133.152V11.7031C133.152 11.9451 133.189 12.1307 133.262 12.2599C133.338 12.3859 133.437 12.4721 133.56 12.5185C133.683 12.5649 133.819 12.5881 133.968 12.5881C134.08 12.5881 134.183 12.5798 134.276 12.5632C134.372 12.5466 134.445 12.5317 134.495 12.5185L134.798 13.9254C134.702 13.9586 134.564 13.995 134.385 14.0348C134.21 14.0746 133.994 14.0978 133.739 14.1044C133.288 14.1177 132.882 14.0497 132.521 13.9006C132.16 13.7481 131.873 13.5128 131.661 13.1946C131.452 12.8764 131.349 12.4787 131.353 12.0014V4.53409ZM141.031 10.7884V6.36364H142.831V14H141.086V12.6428H141.006C140.834 13.0703 140.551 13.42 140.156 13.6918C139.765 13.9635 139.283 14.0994 138.709 14.0994C138.209 14.0994 137.766 13.9884 137.382 13.7663C137.001 13.541 136.703 13.2145 136.487 12.7869C136.272 12.3561 136.164 11.8357 136.164 11.2259V6.36364H137.964V10.9474C137.964 11.4313 138.096 11.8158 138.361 12.1009C138.627 12.3859 138.975 12.5284 139.405 12.5284C139.671 12.5284 139.927 12.4638 140.176 12.3345C140.425 12.2053 140.628 12.013 140.788 11.7578C140.95 11.4993 141.031 11.1761 141.031 10.7884ZM150.717 8.3821L149.076 8.56108C149.03 8.39536 148.949 8.23958 148.833 8.09375C148.72 7.94792 148.568 7.83026 148.375 7.74077C148.183 7.65128 147.948 7.60653 147.669 7.60653C147.295 7.60653 146.98 7.68774 146.725 7.85014C146.473 8.01255 146.349 8.22301 146.352 8.48153C146.349 8.7036 146.43 8.88423 146.596 9.02344C146.765 9.16264 147.043 9.27699 147.431 9.36648L148.733 9.64489C149.456 9.80066 149.993 10.0476 150.344 10.3857C150.699 10.7237 150.878 11.1662 150.881 11.7131C150.878 12.1937 150.737 12.6179 150.459 12.9858C150.183 13.3504 149.801 13.6354 149.31 13.8409C148.82 14.0464 148.256 14.1491 147.62 14.1491C146.685 14.1491 145.933 13.9536 145.363 13.5625C144.793 13.1681 144.453 12.6196 144.343 11.9169L146.098 11.7479C146.178 12.0926 146.347 12.3527 146.606 12.5284C146.864 12.7041 147.2 12.7919 147.615 12.7919C148.042 12.7919 148.385 12.7041 148.644 12.5284C148.906 12.3527 149.037 12.1357 149.037 11.8771C149.037 11.6584 148.952 11.4777 148.783 11.3352C148.617 11.1927 148.359 11.0833 148.008 11.0071L146.705 10.7337C145.973 10.5812 145.431 10.3243 145.079 9.96307C144.728 9.59848 144.554 9.13778 144.557 8.58097C144.554 8.11032 144.682 7.70265 144.94 7.35795C145.202 7.00994 145.565 6.74148 146.029 6.55256C146.496 6.36032 147.035 6.2642 147.645 6.2642C148.54 6.2642 149.244 6.45478 149.758 6.83594C150.275 7.21709 150.594 7.73248 150.717 8.3821Z" fill="black"/>
</svg>
