<svg width="484" height="59" viewBox="0 0 484 59" fill="none" xmlns="http://www.w3.org/2000/svg">
<circle cx="20.5" cy="27" r="20" fill="#143567"/>
<path d="M27.2051 22.185C27.1121 22.0912 27.0015 22.0168 26.8796 21.9661C26.7578 21.9153 26.6271 21.8892 26.4951 21.8892C26.3631 21.8892 26.2323 21.9153 26.1105 21.9661C25.9886 22.0168 25.878 22.0912 25.7851 22.185L18.3351 29.645L15.2051 26.505C15.1085 26.4117 14.9946 26.3384 14.8697 26.2892C14.7449 26.24 14.6116 26.2159 14.4774 26.2182C14.3432 26.2205 14.2108 26.2492 14.0877 26.3027C13.9646 26.3562 13.8533 26.4334 13.7601 26.53C13.6668 26.6265 13.5935 26.7404 13.5443 26.8653C13.4951 26.9901 13.471 27.1235 13.4733 27.2576C13.4756 27.3918 13.5043 27.5242 13.5578 27.6473C13.6113 27.7704 13.6885 27.8817 13.7851 27.975L17.6251 31.815C17.718 31.9087 17.8286 31.9831 17.9505 32.0338C18.0723 32.0846 18.2031 32.1108 18.3351 32.1108C18.4671 32.1108 18.5978 32.0846 18.7196 32.0338C18.8415 31.9831 18.9521 31.9087 19.0451 31.815L27.2051 23.655C27.3066 23.5613 27.3876 23.4477 27.443 23.3212C27.4984 23.1947 27.527 23.0581 27.527 22.92C27.527 22.7819 27.4984 22.6453 27.443 22.5188C27.3876 22.3923 27.3066 22.2786 27.2051 22.185Z" fill="white"/>
<path d="M58.6616 34.7563C55.7246 34.7563 53.8936 32.6396 53.8936 29.2192C53.8936 25.7915 55.7173 23.6748 58.6543 23.6748C60.9834 23.6748 62.7852 25.1836 63.0488 27.3369H61.4155C61.1079 26.0405 60.0459 25.2056 58.6543 25.2056C56.7573 25.2056 55.5708 26.751 55.5708 29.2192C55.5708 31.6802 56.7573 33.2256 58.6616 33.2256C60.0605 33.2256 61.1226 32.4712 61.4155 31.2773H63.0488C62.7559 33.3647 61.02 34.7563 58.6616 34.7563ZM68.3955 34.6538C66.0591 34.6538 64.6309 33.0938 64.6309 30.5083C64.6309 27.9375 66.0664 26.3701 68.3955 26.3701C70.7173 26.3701 72.1528 27.9375 72.1528 30.5083C72.1528 33.0938 70.7246 34.6538 68.3955 34.6538ZM68.3955 33.2549C69.7578 33.2549 70.5342 32.2441 70.5342 30.5083C70.5342 28.7798 69.7578 27.769 68.3955 27.769C67.0259 27.769 66.2568 28.7798 66.2568 30.5083C66.2568 32.2515 67.0259 33.2549 68.3955 33.2549ZM74.0498 34.5V26.5239H75.5659V27.8057H75.6831C76.0347 26.9048 76.8403 26.3701 77.9023 26.3701C78.9937 26.3701 79.748 26.9341 80.0996 27.8057H80.2241C80.627 26.9341 81.5425 26.3701 82.6484 26.3701C84.2598 26.3701 85.1973 27.3442 85.1973 29.0068V34.5H83.6226V29.417C83.6226 28.3403 83.1099 27.813 82.0771 27.813C81.0591 27.813 80.3926 28.5454 80.3926 29.4829V34.5H78.8472V29.2632C78.8472 28.3623 78.2466 27.813 77.3091 27.813C76.3496 27.813 75.6245 28.5967 75.6245 29.6221V34.5H74.0498ZM91.5474 26.3921C93.5762 26.3921 94.8579 27.9741 94.8579 30.5083C94.8579 33.0425 93.5762 34.6318 91.562 34.6318C90.4268 34.6318 89.5259 34.1338 89.1084 33.2915H88.9839V37.1514H87.4092V26.5239H88.9253V27.8423H89.0425C89.5259 26.9341 90.4634 26.3921 91.5474 26.3921ZM91.1006 33.2183C92.4409 33.2183 93.2393 32.2002 93.2393 30.5083C93.2393 28.8237 92.4409 27.8057 91.1079 27.8057C89.7822 27.8057 88.9546 28.8457 88.9546 30.5156C88.9546 32.1782 89.7822 33.2183 91.1006 33.2183ZM99.3623 33.3062C100.549 33.3062 101.428 32.5518 101.428 31.563V30.8965L99.4795 31.021C98.3809 31.0942 97.8828 31.4678 97.8828 32.1709C97.8828 32.8887 98.5054 33.3062 99.3623 33.3062ZM98.9595 34.6318C97.4214 34.6318 96.3008 33.7017 96.3008 32.2441C96.3008 30.8086 97.3701 29.981 99.2671 29.8638L101.428 29.7393V29.0508C101.428 28.2085 100.871 27.7324 99.7944 27.7324C98.9155 27.7324 98.3076 28.0547 98.1318 28.6187H96.6084C96.7695 27.249 98.0586 26.3701 99.8677 26.3701C101.867 26.3701 102.995 27.3662 102.995 29.0508V34.5H101.479V33.3794H101.354C100.878 34.1777 100.007 34.6318 98.9595 34.6318ZM105.236 34.5V26.5239H106.752V27.791H106.87C107.258 26.9048 108.049 26.3701 109.25 26.3701C111.03 26.3701 112.011 27.4395 112.011 29.3364V34.5H110.437V29.7319C110.437 28.4502 109.88 27.813 108.715 27.813C107.551 27.813 106.811 28.5894 106.811 29.8345V34.5H105.236ZM114.758 37.3931C114.626 37.3931 114.252 37.3784 114.106 37.3564V36.0015C114.23 36.0234 114.472 36.0308 114.619 36.0308C115.366 36.0308 115.791 35.7231 116.062 34.9175L116.179 34.5293L113.293 26.5239H115.007L117.006 32.8594H117.131L119.123 26.5239H120.793L117.819 34.8296C117.138 36.7705 116.384 37.3931 114.758 37.3931ZM128.33 34.5H126.689V23.9312H128.33V34.5ZM130.798 34.5V26.5239H132.314V27.791H132.431C132.819 26.9048 133.61 26.3701 134.812 26.3701C136.591 26.3701 137.573 27.4395 137.573 29.3364V34.5H135.998V29.7319C135.998 28.4502 135.441 27.813 134.277 27.813C133.112 27.813 132.373 28.5894 132.373 29.8345V34.5H130.798ZM140.356 34.5V27.8862H139.045V26.5605H140.356V25.7036C140.356 24.1216 141.162 23.3379 142.817 23.3379C143.176 23.3379 143.483 23.3672 143.754 23.4185V24.6562C143.608 24.627 143.396 24.6123 143.146 24.6123C142.268 24.6123 141.909 25.0078 141.909 25.7988V26.5605H143.688V27.8862H141.931V34.5H140.356ZM148.537 34.6538C146.201 34.6538 144.772 33.0938 144.772 30.5083C144.772 27.9375 146.208 26.3701 148.537 26.3701C150.859 26.3701 152.294 27.9375 152.294 30.5083C152.294 33.0938 150.866 34.6538 148.537 34.6538ZM148.537 33.2549C149.899 33.2549 150.676 32.2441 150.676 30.5083C150.676 28.7798 149.899 27.769 148.537 27.769C147.167 27.769 146.398 28.7798 146.398 30.5083C146.398 32.2515 147.167 33.2549 148.537 33.2549ZM154.191 34.5V26.5239H155.708V27.7471H155.825C156.052 26.9634 156.938 26.3921 157.978 26.3921C158.212 26.3921 158.513 26.4141 158.681 26.458V28.0107C158.549 27.9668 158.081 27.9155 157.802 27.9155C156.608 27.9155 155.766 28.6699 155.766 29.7905V34.5H154.191ZM160.314 34.5V26.5239H161.831V27.8057H161.948C162.299 26.9048 163.105 26.3701 164.167 26.3701C165.258 26.3701 166.013 26.9341 166.364 27.8057H166.489C166.892 26.9341 167.807 26.3701 168.913 26.3701C170.524 26.3701 171.462 27.3442 171.462 29.0068V34.5H169.887V29.417C169.887 28.3403 169.375 27.813 168.342 27.813C167.324 27.813 166.657 28.5454 166.657 29.4829V34.5H165.112V29.2632C165.112 28.3623 164.511 27.813 163.574 27.813C162.614 27.813 161.889 28.5967 161.889 29.6221V34.5H160.314ZM176.281 33.3062C177.468 33.3062 178.347 32.5518 178.347 31.563V30.8965L176.398 31.021C175.3 31.0942 174.802 31.4678 174.802 32.1709C174.802 32.8887 175.424 33.3062 176.281 33.3062ZM175.878 34.6318C174.34 34.6318 173.22 33.7017 173.22 32.2441C173.22 30.8086 174.289 29.981 176.186 29.8638L178.347 29.7393V29.0508C178.347 28.2085 177.79 27.7324 176.713 27.7324C175.834 27.7324 175.227 28.0547 175.051 28.6187H173.527C173.688 27.249 174.978 26.3701 176.787 26.3701C178.786 26.3701 179.914 27.3662 179.914 29.0508V34.5H178.398V33.3794H178.273C177.797 34.1777 176.926 34.6318 175.878 34.6318ZM182.712 24.5391H184.287V26.5605H186.015V27.8862H184.287V31.9878C184.287 32.8228 184.631 33.189 185.415 33.189C185.656 33.189 185.795 33.1743 186.015 33.1523V34.4634C185.759 34.5073 185.466 34.5439 185.158 34.5439C183.408 34.5439 182.712 33.9287 182.712 32.3906V27.8862H181.445V26.5605H182.712V24.5391ZM187.897 34.5V26.5239H189.465V34.5H187.897ZM188.681 25.125C188.095 25.125 187.663 24.7075 187.663 24.1655C187.663 23.6162 188.095 23.1987 188.681 23.1987C189.267 23.1987 189.699 23.6162 189.699 24.1655C189.699 24.7075 189.267 25.125 188.681 25.125ZM195.148 34.6538C192.812 34.6538 191.384 33.0938 191.384 30.5083C191.384 27.9375 192.819 26.3701 195.148 26.3701C197.47 26.3701 198.906 27.9375 198.906 30.5083C198.906 33.0938 197.478 34.6538 195.148 34.6538ZM195.148 33.2549C196.511 33.2549 197.287 32.2441 197.287 30.5083C197.287 28.7798 196.511 27.769 195.148 27.769C193.779 27.769 193.01 28.7798 193.01 30.5083C193.01 32.2515 193.779 33.2549 195.148 33.2549ZM200.803 34.5V26.5239H202.319V27.791H202.436C202.824 26.9048 203.615 26.3701 204.816 26.3701C206.596 26.3701 207.578 27.4395 207.578 29.3364V34.5H206.003V29.7319C206.003 28.4502 205.446 27.813 204.282 27.813C203.117 27.813 202.377 28.5894 202.377 29.8345V34.5H200.803Z" fill="#484848"/>
<circle cx="324.5" cy="27" r="19" stroke="#0146B1" stroke-width="2"/>
<path d="M320.07 24.5234C320.07 22.4141 321.688 20.9453 324 20.9453C326.227 20.9453 327.836 22.3047 327.836 24.1875C327.836 25.3984 327.219 26.3984 325.305 28.2891L322.945 30.6562V30.7891H328.008V32.5H320.18V31.1016L323.938 27.2578C325.477 25.6953 325.859 25.1094 325.859 24.3125C325.859 23.3203 325.047 22.6016 323.938 22.6016C322.758 22.6016 321.961 23.375 321.961 24.5234V24.5547H320.07V24.5234Z" fill="#0146B1"/>
<path d="M363.662 34.7563C360.725 34.7563 358.894 32.6396 358.894 29.2192C358.894 25.7915 360.717 23.6748 363.654 23.6748C365.983 23.6748 367.785 25.1836 368.049 27.3369H366.416C366.108 26.0405 365.046 25.2056 363.654 25.2056C361.757 25.2056 360.571 26.751 360.571 29.2192C360.571 31.6802 361.757 33.2256 363.662 33.2256C365.061 33.2256 366.123 32.4712 366.416 31.2773H368.049C367.756 33.3647 366.02 34.7563 363.662 34.7563ZM373.396 34.6538C371.059 34.6538 369.631 33.0938 369.631 30.5083C369.631 27.9375 371.066 26.3701 373.396 26.3701C375.717 26.3701 377.153 27.9375 377.153 30.5083C377.153 33.0938 375.725 34.6538 373.396 34.6538ZM373.396 33.2549C374.758 33.2549 375.534 32.2441 375.534 30.5083C375.534 28.7798 374.758 27.769 373.396 27.769C372.026 27.769 371.257 28.7798 371.257 30.5083C371.257 32.2515 372.026 33.2549 373.396 33.2549ZM379.05 34.5V26.5239H380.566V27.8057H380.683C381.035 26.9048 381.84 26.3701 382.902 26.3701C383.994 26.3701 384.748 26.9341 385.1 27.8057H385.224C385.627 26.9341 386.542 26.3701 387.648 26.3701C389.26 26.3701 390.197 27.3442 390.197 29.0068V34.5H388.623V29.417C388.623 28.3403 388.11 27.813 387.077 27.813C386.059 27.813 385.393 28.5454 385.393 29.4829V34.5H383.847V29.2632C383.847 28.3623 383.247 27.813 382.309 27.813C381.35 27.813 380.625 28.5967 380.625 29.6221V34.5H379.05ZM396.547 26.3921C398.576 26.3921 399.858 27.9741 399.858 30.5083C399.858 33.0425 398.576 34.6318 396.562 34.6318C395.427 34.6318 394.526 34.1338 394.108 33.2915H393.984V37.1514H392.409V26.5239H393.925V27.8423H394.042C394.526 26.9341 395.463 26.3921 396.547 26.3921ZM396.101 33.2183C397.441 33.2183 398.239 32.2002 398.239 30.5083C398.239 28.8237 397.441 27.8057 396.108 27.8057C394.782 27.8057 393.955 28.8457 393.955 30.5156C393.955 32.1782 394.782 33.2183 396.101 33.2183ZM404.362 33.3062C405.549 33.3062 406.428 32.5518 406.428 31.563V30.8965L404.479 31.021C403.381 31.0942 402.883 31.4678 402.883 32.1709C402.883 32.8887 403.505 33.3062 404.362 33.3062ZM403.959 34.6318C402.421 34.6318 401.301 33.7017 401.301 32.2441C401.301 30.8086 402.37 29.981 404.267 29.8638L406.428 29.7393V29.0508C406.428 28.2085 405.871 27.7324 404.794 27.7324C403.916 27.7324 403.308 28.0547 403.132 28.6187H401.608C401.77 27.249 403.059 26.3701 404.868 26.3701C406.867 26.3701 407.995 27.3662 407.995 29.0508V34.5H406.479V33.3794H406.354C405.878 34.1777 405.007 34.6318 403.959 34.6318ZM410.236 34.5V26.5239H411.752V27.791H411.87C412.258 26.9048 413.049 26.3701 414.25 26.3701C416.03 26.3701 417.011 27.4395 417.011 29.3364V34.5H415.437V29.7319C415.437 28.4502 414.88 27.813 413.715 27.813C412.551 27.813 411.811 28.5894 411.811 29.8345V34.5H410.236ZM419.758 37.3931C419.626 37.3931 419.252 37.3784 419.106 37.3564V36.0015C419.23 36.0234 419.472 36.0308 419.619 36.0308C420.366 36.0308 420.791 35.7231 421.062 34.9175L421.179 34.5293L418.293 26.5239H420.007L422.006 32.8594H422.131L424.123 26.5239H425.793L422.819 34.8296C422.138 36.7705 421.384 37.3931 419.758 37.3931ZM431.689 23.9312H435.505C438.64 23.9312 440.478 25.8574 440.478 29.1826C440.478 32.5591 438.654 34.5 435.505 34.5H431.689V23.9312ZM433.33 25.4253V33.0059H435.322C437.534 33.0059 438.808 31.6289 438.808 29.2046C438.808 26.8169 437.512 25.4253 435.322 25.4253H433.33ZM445.781 27.7104C444.616 27.7104 443.803 28.5308 443.715 29.7759H447.744C447.707 28.5234 446.945 27.7104 445.781 27.7104ZM447.736 32.3467H449.252C448.894 33.7749 447.619 34.6538 445.795 34.6538C443.51 34.6538 442.111 33.0864 442.111 30.5376C442.111 27.9888 443.54 26.3701 445.788 26.3701C448.007 26.3701 449.348 27.8862 449.348 30.3911V30.9404H443.715V31.0283C443.767 32.4272 444.58 33.3135 445.839 33.3135C446.792 33.3135 447.443 32.9692 447.736 32.3467ZM451.794 24.5391H453.369V26.5605H455.097V27.8862H453.369V31.9878C453.369 32.8228 453.713 33.189 454.497 33.189C454.738 33.189 454.877 33.1743 455.097 33.1523V34.4634C454.841 34.5073 454.548 34.5439 454.24 34.5439C452.49 34.5439 451.794 33.9287 451.794 32.3906V27.8862H450.527V26.5605H451.794V24.5391ZM459.558 33.3062C460.744 33.3062 461.623 32.5518 461.623 31.563V30.8965L459.675 31.021C458.576 31.0942 458.078 31.4678 458.078 32.1709C458.078 32.8887 458.701 33.3062 459.558 33.3062ZM459.155 34.6318C457.617 34.6318 456.496 33.7017 456.496 32.2441C456.496 30.8086 457.565 29.981 459.462 29.8638L461.623 29.7393V29.0508C461.623 28.2085 461.066 27.7324 459.99 27.7324C459.111 27.7324 458.503 28.0547 458.327 28.6187H456.804C456.965 27.249 458.254 26.3701 460.063 26.3701C462.062 26.3701 463.19 27.3662 463.19 29.0508V34.5H461.674V33.3794H461.55C461.074 34.1777 460.202 34.6318 459.155 34.6318ZM465.461 34.5V26.5239H467.028V34.5H465.461ZM466.245 25.125C465.659 25.125 465.227 24.7075 465.227 24.1655C465.227 23.6162 465.659 23.1987 466.245 23.1987C466.831 23.1987 467.263 23.6162 467.263 24.1655C467.263 24.7075 466.831 25.125 466.245 25.125ZM469.416 34.5V23.4111H470.991V34.5H469.416ZM473.173 28.7798C473.173 27.3662 474.47 26.3701 476.271 26.3701C478.066 26.3701 479.238 27.2051 479.392 28.6113H477.883C477.736 28.0254 477.165 27.6519 476.271 27.6519C475.393 27.6519 474.726 28.0693 474.726 28.6919C474.726 29.168 475.129 29.4683 475.993 29.666L477.319 29.9736C478.835 30.3252 479.545 30.9771 479.545 32.1489C479.545 33.6504 478.146 34.6538 476.242 34.6538C474.345 34.6538 473.107 33.7969 472.968 32.3833H474.543C474.741 32.9985 475.327 33.3794 476.279 33.3794C477.26 33.3794 477.956 32.9399 477.956 32.3027C477.956 31.8267 477.583 31.519 476.784 31.3286L475.393 31.0063C473.876 30.6475 473.173 29.9663 473.173 28.7798Z" fill="black"/>
<path d="M225.423 29.5L291.577 29.5" stroke="#BABABA" stroke-linecap="round"/>
</svg>
