<svg width="517" height="43" viewBox="0 0 517 43" fill="none" xmlns="http://www.w3.org/2000/svg">
<rect y="0.430176" width="517" height="10.1292" rx="5" fill="#D1D1D1"/>
<rect y="0.430176" width="517" height="10.1292" rx="5" fill="#39AA69"/>
<path d="M0.772461 35.907H2.29004C2.41992 36.8435 3.33594 37.4382 4.65527 37.4382C5.88574 37.4382 6.78809 36.8025 6.78809 35.9275C6.78809 35.1755 6.21387 34.7244 4.9082 34.4167L3.63672 34.1091C1.85254 33.6921 1.03906 32.8308 1.03906 31.3816C1.03906 29.6248 2.47461 28.4558 4.62793 28.4558C6.63086 28.4558 8.09375 29.6248 8.18262 31.2859H6.69238C6.54883 30.3767 5.75586 29.8093 4.60742 29.8093C3.39746 29.8093 2.59082 30.3904 2.59082 31.2791C2.59082 31.9832 3.11035 32.3865 4.39551 32.6873L5.48242 32.9539C7.50586 33.4255 8.33984 34.2458 8.33984 35.7292C8.33984 37.616 6.87695 38.7986 4.53906 38.7986C2.35156 38.7986 0.881836 37.6707 0.772461 35.907ZM10.7051 29.2625H12.1748V31.1492H13.7881V32.3865H12.1748V36.2146C12.1748 36.9939 12.4961 37.3357 13.2275 37.3357C13.4531 37.3357 13.583 37.322 13.7881 37.3015V38.5251C13.5488 38.5662 13.2754 38.6003 12.9883 38.6003C11.3545 38.6003 10.7051 38.0261 10.7051 36.5906V32.3865H9.52246V31.1492H10.7051V29.2625ZM15.5176 38.5593V31.115H16.9326V32.2566H17.042C17.2539 31.5251 18.0811 30.9919 19.0518 30.9919C19.2705 30.9919 19.5508 31.0125 19.708 31.0535V32.5027C19.585 32.4617 19.1475 32.4138 18.8877 32.4138C17.7734 32.4138 16.9873 33.1179 16.9873 34.1638V38.5593H15.5176ZM23.9873 32.2224C22.9004 32.2224 22.1416 32.988 22.0596 34.1501H25.8193C25.7852 32.9812 25.0742 32.2224 23.9873 32.2224ZM25.8125 36.5496H27.2275C26.8926 37.8826 25.7031 38.7029 24.001 38.7029C21.8682 38.7029 20.5625 37.24 20.5625 34.8611C20.5625 32.4822 21.8955 30.9714 23.9941 30.9714C26.0654 30.9714 27.3164 32.3865 27.3164 34.7244V35.2371H22.0596V35.3191C22.1074 36.6248 22.8662 37.4519 24.042 37.4519C24.9307 37.4519 25.5391 37.1306 25.8125 36.5496ZM29.0801 38.5593V31.115H30.4951V32.2976H30.6045C30.9668 31.4705 31.7051 30.9714 32.8262 30.9714C34.4873 30.9714 35.4033 31.9695 35.4033 33.74V38.5593H33.9336V34.1091C33.9336 32.9128 33.4141 32.3181 32.3271 32.3181C31.2402 32.3181 30.5498 33.0427 30.5498 34.2048V38.5593H29.0801ZM40.5918 37.1785C41.8496 37.1785 42.6084 36.2351 42.6084 34.7449C42.6084 33.2615 41.8428 32.3113 40.5918 32.3113C39.3271 32.3113 38.6162 33.2615 38.6162 34.7449C38.6162 36.2283 39.3271 37.1785 40.5918 37.1785ZM40.6123 41.4031C38.7529 41.4031 37.5498 40.5691 37.3926 39.3044H38.8965C39.0195 39.8445 39.6416 40.1931 40.6328 40.1931C41.8564 40.1931 42.5811 39.6121 42.5811 38.6277V37.199H42.4717C42.0205 38.0056 41.2002 38.45 40.1748 38.45C38.2744 38.45 37.0986 36.9802 37.0986 34.7517C37.0986 32.4822 38.2881 30.9919 40.1885 30.9919C41.2139 30.9919 42.1094 31.4978 42.5264 32.3044H42.6426V31.115H44.0508V38.6208C44.0508 40.323 42.7178 41.4031 40.6123 41.4031ZM46.7031 29.2625H48.1729V31.1492H49.7861V32.3865H48.1729V36.2146C48.1729 36.9939 48.4941 37.3357 49.2256 37.3357C49.4512 37.3357 49.5811 37.322 49.7861 37.3015V38.5251C49.5469 38.5662 49.2734 38.6003 48.9863 38.6003C47.3525 38.6003 46.7031 38.0261 46.7031 36.5906V32.3865H45.5205V31.1492H46.7031V29.2625ZM51.584 38.5593V28.2097H53.04V32.3113H53.1562C53.5186 31.4773 54.3047 30.9783 55.4258 30.9783C57.0117 30.9783 57.9893 31.9832 57.9893 33.7537V38.5593H56.5195V34.116C56.5195 32.9265 55.9658 32.325 54.9268 32.325C53.7236 32.325 53.0537 33.0837 53.0537 34.2117V38.5593H51.584Z" fill="black"/>
<path d="M63.7178 33.2205C63.7178 31.9011 64.9277 30.9714 66.6094 30.9714C68.2842 30.9714 69.3779 31.7507 69.5215 33.0632H68.1133C67.9766 32.5164 67.4434 32.1677 66.6094 32.1677C65.7891 32.1677 65.167 32.5574 65.167 33.1384C65.167 33.5828 65.543 33.863 66.3496 34.0476L67.5869 34.3347C69.002 34.6628 69.665 35.2712 69.665 36.365C69.665 37.7664 68.3594 38.7029 66.582 38.7029C64.8115 38.7029 63.6562 37.9031 63.5264 36.5837H64.9961C65.1807 37.158 65.7275 37.5134 66.6162 37.5134C67.5322 37.5134 68.1816 37.1033 68.1816 36.5085C68.1816 36.0642 67.833 35.7771 67.0879 35.5994L65.7891 35.2986C64.374 34.9636 63.7178 34.3279 63.7178 33.2205ZM71.9004 29.2625H73.3701V31.1492H74.9834V32.3865H73.3701V36.2146C73.3701 36.9939 73.6914 37.3357 74.4229 37.3357C74.6484 37.3357 74.7783 37.322 74.9834 37.3015V38.5251C74.7441 38.5662 74.4707 38.6003 74.1836 38.6003C72.5498 38.6003 71.9004 38.0261 71.9004 36.5906V32.3865H70.7178V31.1492H71.9004V29.2625ZM76.7129 38.5593V31.115H78.1279V32.2566H78.2373C78.4492 31.5251 79.2764 30.9919 80.2471 30.9919C80.4658 30.9919 80.7461 31.0125 80.9033 31.0535V32.5027C80.7803 32.4617 80.3428 32.4138 80.083 32.4138C78.9688 32.4138 78.1826 33.1179 78.1826 34.1638V38.5593H76.7129ZM85.2715 38.7029C83.0908 38.7029 81.7578 37.2468 81.7578 34.8337C81.7578 32.4343 83.0977 30.9714 85.2715 30.9714C87.4385 30.9714 88.7783 32.4343 88.7783 34.8337C88.7783 37.2468 87.4453 38.7029 85.2715 38.7029ZM85.2715 37.3972C86.543 37.3972 87.2676 36.4539 87.2676 34.8337C87.2676 33.2205 86.543 32.2771 85.2715 32.2771C83.9932 32.2771 83.2754 33.2205 83.2754 34.8337C83.2754 36.4607 83.9932 37.3972 85.2715 37.3972ZM90.5488 38.5593V31.115H91.9639V32.2976H92.0732C92.4355 31.4705 93.1738 30.9714 94.2949 30.9714C95.9561 30.9714 96.8721 31.9695 96.8721 33.74V38.5593H95.4023V34.1091C95.4023 32.9128 94.8828 32.3181 93.7959 32.3181C92.709 32.3181 92.0186 33.0427 92.0186 34.2048V38.5593H90.5488ZM102.061 37.1785C103.318 37.1785 104.077 36.2351 104.077 34.7449C104.077 33.2615 103.312 32.3113 102.061 32.3113C100.796 32.3113 100.085 33.2615 100.085 34.7449C100.085 36.2283 100.796 37.1785 102.061 37.1785ZM102.081 41.4031C100.222 41.4031 99.0186 40.5691 98.8613 39.3044H100.365C100.488 39.8445 101.11 40.1931 102.102 40.1931C103.325 40.1931 104.05 39.6121 104.05 38.6277V37.199H103.94C103.489 38.0056 102.669 38.45 101.644 38.45C99.7432 38.45 98.5674 36.9802 98.5674 34.7517C98.5674 32.4822 99.7568 30.9919 101.657 30.9919C102.683 30.9919 103.578 31.4978 103.995 32.3044H104.111V31.115H105.52V38.6208C105.52 40.323 104.187 41.4031 102.081 41.4031Z" fill="#39AA69"/>
</svg>
