<svg width="56" height="56" viewBox="0 0 56 56" fill="none" xmlns="http://www.w3.org/2000/svg">
<rect width="56" height="56" rx="4" fill="#F5F5F5"/>
<g clip-path="url(#clip0_1_421)">
<path d="M28 21.362L30.475 18.336C33.576 18.505 36.464 19.244 39.094 20.451L38.947 20.39C38.1236 21.4676 37.0251 22.3036 35.767 22.81L35.716 22.828C35.57 21.389 34.562 21.038 31.362 21.038L28.001 40L24.62 21.034C21.44 21.034 20.432 21.388 20.285 22.826C19.0146 22.3291 17.903 21.4965 17.069 20.417L17.056 20.4C19.537 19.252 22.425 18.511 25.465 18.343L25.526 18.34L28 21.362ZM28 17.462C28.107 17.46 28.233 17.46 28.359 17.46C32.326 17.46 36.097 18.3 39.503 19.812L39.328 19.743C39.5809 19.318 39.7983 18.8728 39.978 18.412L40 18.349C36.449 16.886 32.329 16.026 28.01 16.001H28C23.8091 16.0175 19.6607 16.8419 15.782 18.429L16 18.35C16.224 18.905 16.449 19.365 16.703 19.808L16.672 19.75C19.91 18.302 23.689 17.459 27.666 17.459L28.018 17.461L28 17.462Z" fill="#DD2124"/>
</g>
<defs>
<clipPath id="clip0_1_421">
<rect width="24" height="24" fill="white" transform="translate(16 16)"/>
</clipPath>
</defs>
</svg>
