<svg width="72" height="73" viewBox="0 0 72 73" fill="none" xmlns="http://www.w3.org/2000/svg">
<rect y="0.419434" width="72" height="72" rx="36" fill="#143567"/>
<g clip-path="url(#clip0_1_537)">
<path opacity="0.2" d="M30.0001 36.4175C30.0001 34.4397 30.5866 32.5063 31.6854 30.8618C32.7842 29.2173 34.346 27.9356 36.1732 27.1787C38.0005 26.4218 40.0112 26.2238 41.951 26.6096C43.8908 26.9955 45.6726 27.9479 47.0711 29.3464C48.4697 30.7449 49.4221 32.5268 49.8079 34.4666C50.1938 36.4064 49.9957 38.4171 49.2389 40.2443C48.482 42.0716 47.2003 43.6334 45.5558 44.7322C43.9113 45.831 41.9779 46.4175 40.0001 46.4175H29.0001C28.0074 46.4165 27.0262 46.2044 26.1217 45.7953C25.2173 45.3861 24.4102 44.7893 23.754 44.0443C23.0979 43.2994 22.6077 42.4234 22.3159 41.4746C22.0242 40.5257 21.9377 39.5256 22.062 38.5407C22.1863 37.5559 22.5187 36.6087 23.0371 35.7621C23.5555 34.9155 24.248 34.1888 25.0687 33.6303C25.8894 33.0718 26.8196 32.6943 27.7973 32.5228C28.7751 32.3512 29.7782 32.3896 30.74 32.6354" fill="#F1F2F4"/>
<path d="M31.9993 46.4175H28.9993C28.0066 46.4165 27.0255 46.2044 26.121 45.7953C25.2166 45.3861 24.4095 44.7893 23.7533 44.0443C23.0971 43.2994 22.6069 42.4234 22.3152 41.4746C22.0235 40.5257 21.9369 39.5256 22.0613 38.5407C22.1856 37.5558 22.518 36.6087 23.0364 35.7621C23.5548 34.9155 24.2473 34.1888 25.068 33.6303C25.8887 33.0718 26.8188 32.6943 27.7966 32.5228C28.7744 32.3512 29.7774 32.3896 30.7392 32.6354" stroke="#F1F2F4" stroke-width="2" stroke-linecap="round" stroke-linejoin="round"/>
<path d="M29.9993 36.4175C29.9994 34.833 30.3761 33.2713 31.0982 31.8609C31.8203 30.4506 32.8672 29.2321 34.1527 28.3057C35.4381 27.3793 36.9253 26.7716 38.4916 26.5328C40.0579 26.2939 41.6586 26.4306 43.1618 26.9317C44.6649 27.4328 46.0275 28.2839 47.1372 29.4148C48.2468 30.5458 49.0719 31.9243 49.5444 33.4367C50.0168 34.949 50.1231 36.552 49.8546 38.1136C49.586 39.6751 48.9502 41.1505 47.9996 42.4181" stroke="#F1F2F4" stroke-width="2" stroke-linecap="round" stroke-linejoin="round"/>
<path d="M34.7566 40.6602L38.9992 36.4175L43.2418 40.6602" stroke="#F1F2F4" stroke-width="2" stroke-linecap="round" stroke-linejoin="round"/>
<path d="M38.9993 46.4175V36.4175" stroke="#F1F2F4" stroke-width="2" stroke-linecap="round" stroke-linejoin="round"/>
</g>
<defs>
<clipPath id="clip0_1_537">
<rect width="32" height="32" fill="white" transform="translate(20 20.4194)"/>
</clipPath>
</defs>
</svg>
