<svg width="24" height="25" viewBox="0 0 24 25" fill="none" xmlns="http://www.w3.org/2000/svg">
<path fill-rule="evenodd" clip-rule="evenodd" d="M8 7.95026C8 6.88939 8.42143 5.87197 9.17157 5.12183C9.92172 4.37168 10.9391 3.95026 12 3.95026C13.0609 3.95026 14.0783 4.37168 14.8284 5.12183C15.5786 5.87197 16 6.88939 16 7.95026C16 9.01112 15.5786 10.0285 14.8284 10.7787C14.0783 11.5288 13.0609 11.9503 12 11.9503C10.9391 11.9503 9.92172 11.5288 9.17157 10.7787C8.42143 10.0285 8 9.01112 8 7.95026ZM8 13.9503C6.67392 13.9503 5.40215 14.477 4.46447 15.4147C3.52678 16.3524 3 17.6242 3 18.9503C3 19.7459 3.31607 20.509 3.87868 21.0716C4.44129 21.6342 5.20435 21.9503 6 21.9503H18C18.7956 21.9503 19.5587 21.6342 20.1213 21.0716C20.6839 20.509 21 19.7459 21 18.9503C21 17.6242 20.4732 16.3524 19.5355 15.4147C18.5979 14.477 17.3261 13.9503 16 13.9503H8Z" fill="black"/>
</svg>
