<svg width="327" height="95" viewBox="0 0 327 95" fill="none" xmlns="http://www.w3.org/2000/svg">
<path d="M307.718 50.1897C307.271 50.2685 306.819 50.3227 306.381 50.4409C306.096 50.5148 305.974 50.2981 305.784 50.1848C305.721 50.1454 305.653 50.0666 305.594 50.0764C305.152 50.1552 304.709 50.2439 304.266 50.3326C304.13 50.5247 304.045 50.7808 303.837 50.8744C303.633 50.963 303.394 50.963 303.168 51.0074C302.87 51.0616 302.572 51.1158 302.273 51.165C302.124 51.1897 302.002 51.2832 301.952 51.4606C301.943 51.4901 302.043 51.564 302.097 51.6083C302.278 51.7561 302.454 51.9235 302.653 52.0368C302.843 52.1452 303.078 51.9679 303.281 52.1058C303.737 52.4161 303.742 52.4112 304.09 52.3521C304.388 52.2979 304.686 52.2388 304.984 52.1994C305.043 52.1896 305.111 52.2634 305.174 52.3028C305.364 52.4112 305.486 52.6575 305.766 52.5639C305.978 52.49 306.213 52.4752 306.435 52.4358C306.62 52.5787 306.792 52.7412 306.991 52.8545C307.176 52.9629 307.23 53.0466 307.131 53.1895C307.04 53.3225 306.914 53.3766 306.747 53.3865C306.597 53.3914 306.448 53.4357 306.299 53.4603C306.222 53.4751 306.15 53.485 306.078 53.4998C305.793 53.554 305.793 53.5539 305.274 53.2387C305.07 53.1156 304.84 53.288 304.646 53.1697C304.514 53.0909 304.401 52.9727 304.275 52.889C304.221 52.8545 304.135 52.8496 304.067 52.8594C303.841 52.8939 303.615 52.9185 303.398 52.9826C303.245 53.0269 303.154 53.1648 303.172 53.3027C303.177 53.3569 303.285 53.4357 303.349 53.4407C303.493 53.4505 303.647 53.3815 303.787 53.416C303.922 53.4505 304.063 53.549 304.162 53.6574C304.365 53.884 304.596 53.682 304.79 53.7411C304.993 53.8052 305.161 54.0022 305.355 54.1204C305.405 54.15 305.499 54.1007 305.576 54.0859C305.798 54.0514 306.019 54.0219 306.241 53.9874C306.426 54.1303 306.625 54.2583 306.792 54.4209C307.095 54.7164 307.42 54.8297 307.813 54.6868C308.034 54.608 308.251 54.6376 308.427 54.8297C308.608 55.0267 308.816 55.007 309.047 54.9676C309.259 54.9282 309.476 54.8198 309.693 54.9577C310.163 55.2631 310.167 55.2779 310.723 55.1597C310.89 55.1252 311.017 55.1154 311.143 55.2287C311.261 55.3321 311.387 55.4208 311.509 55.5193C311.73 55.4848 311.956 55.4503 312.178 55.4109C312.462 55.3567 312.621 55.4257 312.688 55.7015C312.729 55.869 312.747 56.0217 312.847 56.135C312.964 56.2729 313.091 56.2679 313.262 56.2285C313.425 56.1941 313.542 56.1399 313.61 55.9626C313.637 55.8887 313.691 55.8197 313.741 55.7606C313.782 55.7163 313.845 55.6474 313.881 55.6572C313.949 55.6769 314.039 55.731 314.062 55.7951C314.283 56.3911 314.283 56.396 314.509 56.5684C314.758 56.7605 315.015 56.9329 315.241 57.1496C315.445 57.3417 315.648 57.258 315.869 57.258C316.037 57.258 316.145 57.3861 316.132 57.5142C316.122 57.5881 316.059 57.6964 316.005 57.7062C315.562 57.8047 315.115 57.8885 314.668 57.9574C314.613 57.9673 314.546 57.8786 314.482 57.8343C314.356 57.7456 314.243 57.6077 314.107 57.5782C313.972 57.5486 313.814 57.6225 313.664 57.6471C313.515 57.6718 313.357 57.7358 313.222 57.6964C313.086 57.657 312.978 57.5142 312.851 57.4206C312.792 57.3762 312.711 57.3122 312.661 57.327C312.331 57.4452 312.087 57.2827 311.853 57.0659C311.803 57.0216 311.717 56.992 311.654 57.0019C311.13 57.0856 310.61 57.1841 310.086 57.2777C309.873 57.3171 309.702 57.1447 309.656 56.8541C309.634 56.6916 309.589 56.529 309.589 56.3665C309.589 56.0709 309.34 55.9084 309.159 55.9429C308.861 55.9921 308.559 56.0315 308.265 56.1054C308.025 56.1645 307.822 56.1054 307.659 55.9281C307.47 55.7261 307.253 55.7656 307.036 55.8197C306.873 55.8591 306.828 56.0217 306.837 56.4305C306.846 56.7605 306.769 56.864 306.475 56.9181C306.105 56.9871 305.73 57.0561 305.355 57.1102C305.296 57.1201 305.228 57.0364 305.17 56.992C305.043 56.9034 304.93 56.7605 304.795 56.731C304.659 56.6965 304.501 56.7704 304.352 56.7999C304.203 56.8246 304.044 56.8935 303.909 56.859C303.773 56.8246 303.66 56.6768 303.538 56.5832C303.48 56.5389 303.407 56.4748 303.349 56.4847C303.05 56.5241 302.752 56.5832 302.454 56.6374C302.12 56.6965 302.12 56.6965 301.645 56.3911C301.428 56.2532 301.211 56.3616 300.999 56.401C300.773 56.4404 300.561 56.4601 300.384 56.2631C300.267 56.135 300.136 56.0562 299.996 56.0808C299.621 56.1399 299.25 56.2138 298.875 56.2729C298.812 56.2828 298.726 56.2581 298.677 56.2138C298.437 56.0069 298.202 55.8444 297.868 55.9478C297.579 56.0365 297.267 56.0414 296.978 56.1251C296.819 56.1695 296.747 56.3271 296.779 56.4502C296.797 56.5143 296.892 56.5882 296.955 56.5882C297.1 56.5931 297.258 56.5192 297.393 56.5487C297.673 56.6078 297.814 57.0216 298.18 56.9083C298.396 56.8393 298.622 56.8147 298.848 56.795C298.907 56.7901 298.97 56.8837 299.033 56.9329C299.214 57.0659 299.372 57.2383 299.634 57.1496C299.851 57.0807 300.082 57.061 300.303 57.0216C300.656 56.9576 300.656 56.9625 301.112 57.263C301.329 57.4058 301.546 57.2925 301.758 57.258C301.916 57.2334 302.065 57.1842 302.192 57.2531C302.386 57.3565 302.526 57.5929 302.766 57.5782C302.992 57.5634 303.213 57.4944 303.439 57.4698C303.579 57.455 303.71 57.5339 303.823 57.6668C303.941 57.7998 304.067 57.8589 304.221 57.8294C304.442 57.79 304.668 57.7407 304.894 57.7161C304.957 57.7112 305.03 57.7555 305.088 57.7949C305.215 57.8836 305.337 57.987 305.459 58.0806C305.68 58.051 305.906 58.0412 306.123 57.9821C306.29 57.9378 306.408 57.9575 306.543 58.056C306.715 58.189 306.855 58.4254 307.135 58.3121C307.275 58.258 307.438 58.2727 307.578 58.2234C307.75 58.1594 307.867 58.184 307.989 58.3318C308.22 58.6126 308.509 58.6175 308.807 58.5091C309.132 58.3909 309.376 58.5289 309.62 58.7456C309.878 58.9722 309.878 58.9672 310.077 59.514C310.135 59.6716 310.303 59.7455 310.443 59.7159C310.678 59.6667 310.881 59.6913 311.053 59.8785C311.233 60.0804 311.45 60.0558 311.672 60.0016C311.965 59.9277 312.259 59.8637 312.499 60.1494C312.616 60.2873 312.743 60.3217 312.901 60.2873C313.348 60.1986 313.8 60.1445 314.238 60.0361C314.505 59.9671 314.658 60.1247 314.839 60.2577C315.083 60.44 315.35 60.6025 315.35 60.9917C315.35 61.0557 315.413 61.1296 315.467 61.1788C315.585 61.2823 315.711 61.3709 315.833 61.4694C316.014 61.6172 316.19 61.7403 316.439 61.6615C316.656 61.5975 316.886 61.5778 317.107 61.5335C317.329 61.4891 317.532 61.4645 317.731 61.6517C317.962 61.8635 318.205 62.0654 318.468 62.2231C318.653 62.3363 318.897 62.1443 319.096 62.297C319.218 62.3905 319.335 62.4989 319.466 62.5777C319.52 62.6122 319.606 62.5875 319.679 62.5777C319.828 62.558 319.981 62.5433 320.126 62.494C320.293 62.4398 320.42 62.4497 320.546 62.563C320.664 62.6664 320.781 62.8092 320.917 62.8388C321.12 62.8831 321.346 62.6861 321.549 62.9127C321.653 63.026 321.784 63.1343 321.92 63.1688C322.055 63.2033 322.213 63.1294 322.358 63.1343C322.421 63.1343 322.498 63.2131 322.534 63.2772C322.557 63.3116 322.525 63.4052 322.494 63.4545C322.453 63.5136 322.394 63.5924 322.335 63.6023C321.888 63.6909 321.441 63.7648 320.993 63.8485C320.727 63.8978 320.727 63.8978 320.189 63.5875C320.063 63.5136 319.923 63.5283 319.764 63.5628C319.552 63.6072 319.335 63.6909 319.114 63.6023C318.825 63.2673 318.468 63.2377 318.088 63.3658C317.93 63.42 317.785 63.42 317.668 63.3264C317.419 63.1392 317.157 62.9669 316.936 62.7452C316.764 62.5728 316.683 62.558 316.611 62.7945C316.588 62.8683 316.565 62.9471 316.57 63.0161C316.597 63.2624 316.647 63.5037 316.674 63.75C316.683 63.819 316.647 63.8978 316.624 63.9717C316.552 64.1786 316.457 64.1637 316.299 63.9913C316.141 63.819 315.951 63.7057 315.698 63.7845C315.481 63.8535 315.246 63.8436 315.029 63.9175C314.695 64.0259 314.46 63.8682 314.22 63.6564C314.17 63.6121 314.085 63.5875 314.021 63.5973C313.348 63.7106 312.679 63.8387 312.006 63.952C311.862 63.9766 311.73 63.9027 311.618 63.7697C311.5 63.6367 311.369 63.5678 311.224 63.5924C310.628 63.6958 310.031 63.7894 309.435 63.9175C309.191 63.9717 308.997 63.9076 308.83 63.7352C308.703 63.6071 308.586 63.5678 308.427 63.5825C308.256 63.5973 308.134 63.6466 308.048 63.7894C307.967 63.9274 308.025 64.0111 308.206 64.1194C308.4 64.2376 308.581 64.3904 308.766 64.5283C308.915 64.5086 309.065 64.4691 309.209 64.4741C309.272 64.4741 309.331 64.5627 309.394 64.612C309.575 64.7548 309.742 64.8977 310 64.8189C310.217 64.7499 310.447 64.7351 310.669 64.6908C310.976 64.6366 310.976 64.6366 311.473 64.947C311.599 65.0258 311.735 65.0208 311.898 64.9765C312.038 64.942 312.182 65.0109 312.282 65.1587C312.322 65.2178 312.309 65.3164 312.223 65.6415C312.223 65.8828 312.318 65.7745 312.349 65.6168C312.399 65.3903 312.304 65.3164 312.124 65.4395C311.997 65.5282 311.934 65.6563 311.965 65.7597C311.984 65.8139 312.069 65.8828 312.223 65.6415C312.621 65.3459 312.923 65.3114 313.213 65.2326C313.384 65.1883 313.493 65.208 313.628 65.336C313.791 65.4887 313.954 65.6513 314.22 65.5725C314.509 65.4839 314.817 65.474 315.11 65.4001C315.381 65.3311 315.522 65.5479 315.693 65.6759C315.901 65.8286 316.131 65.6562 316.321 65.7449C316.52 65.8336 316.66 66.0503 316.891 66.0897C317.225 65.9567 317.437 66.203 317.69 66.3655C317.889 66.4887 318.124 66.3803 318.336 66.3261C318.576 66.267 318.775 66.3212 318.942 66.4985C319.132 66.7005 319.344 66.6562 319.561 66.6118C320.067 66.5133 320.085 66.4985 320.379 66.7694C320.591 66.9664 320.795 66.8778 321.007 66.8532C321.192 66.9862 321.373 67.129 321.567 67.2472C321.617 67.2767 321.712 67.2275 321.789 67.2127C322.01 67.1733 322.236 67.1339 322.457 67.0945C322.607 67.0699 322.765 66.996 322.9 67.0256C323.036 67.06 323.149 67.2029 323.271 67.2965C323.393 67.3901 323.519 67.4836 323.637 67.5822C323.818 67.7299 323.989 67.8531 324.242 67.7792C324.459 67.7152 324.685 67.6954 324.911 67.6511C325.196 67.5969 325.187 67.6117 325.715 67.9073C326 68.0698 326.294 67.8728 326.583 67.8531C326.727 67.8432 326.867 67.8974 326.967 68.0403C327.008 68.0994 326.994 68.1979 327.008 68.2816C326.262 68.4146 325.512 68.5279 324.775 68.6904C324.491 68.7545 324.342 68.5771 324.188 68.4294C323.935 68.1929 323.601 68.5377 323.361 68.2323C323.217 68.0501 323.009 67.9467 322.76 68.0353C322.616 68.0846 322.462 68.0796 322.313 68.124C321.933 68.2323 321.585 68.2373 321.283 67.8974C321.179 67.7792 321.03 67.7152 320.921 67.6019C320.795 67.4787 320.673 67.4097 320.523 67.4344C319.85 67.5526 319.182 67.6708 318.513 67.7989C318.454 67.8087 318.395 67.8826 318.346 67.9368C318.219 68.0747 318.26 68.1831 318.463 68.2718C318.531 68.3013 318.585 68.3653 318.648 68.4146C318.77 68.5081 318.883 68.6559 319.019 68.6904C319.154 68.7249 319.313 68.6559 319.462 68.6313C319.611 68.6067 319.769 68.5328 319.905 68.5624C320.04 68.5968 320.153 68.7397 320.279 68.8284C320.338 68.8727 320.411 68.9466 320.469 68.9416C320.768 68.9121 321.061 68.8579 321.359 68.8136C321.545 68.9466 321.703 69.1387 321.924 69.183C322.064 69.2125 322.213 69.1583 322.358 69.1682C322.421 69.1731 322.503 69.247 322.534 69.3111C322.552 69.3505 322.494 69.449 322.448 69.4982C322.277 69.6854 322.042 69.6509 321.829 69.71C321.599 69.774 321.391 69.7544 321.215 69.5623C321.097 69.4342 320.966 69.3653 320.822 69.3899C320.447 69.4539 320.076 69.5278 319.701 69.582C319.638 69.5918 319.561 69.5475 319.502 69.513C319.028 69.2126 319.028 69.2027 318.693 69.2667C318.201 69.3603 318.201 69.3603 317.871 69.0992C317.808 69.05 317.74 68.9564 317.686 68.9614C317.162 69.0402 316.642 69.1189 316.122 69.2322C315.951 69.2667 315.833 69.2667 315.707 69.1387C315.598 69.0303 315.472 68.9072 315.336 68.8776C315.196 68.848 315.043 68.9219 314.893 68.9466C314.744 68.9712 314.586 69.0352 314.455 68.9958C314.32 68.9564 314.202 68.8185 314.085 68.72C313.963 68.6166 313.832 68.6214 313.664 68.6608C313.149 68.7741 313.145 68.7594 312.634 68.454C312.575 68.4195 312.499 68.3801 312.435 68.39C312.06 68.4491 311.69 68.523 311.315 68.5821C311.17 68.6067 311.03 68.5427 310.931 68.3998C310.89 68.3407 310.904 68.2422 310.877 68.0501C310.845 68.0057 310.881 68.0846 310.89 68.1585C310.958 68.1486 311.039 68.1584 311.089 68.119C311.215 68.0254 311.279 67.9023 311.247 67.7989C311.229 67.7447 311.143 67.6757 311.089 67.6757C310.99 67.6757 310.904 67.7841 310.877 68.0501C310.592 68.2126 310.289 68.2471 309.995 68.3259C309.824 68.3752 309.715 68.3506 309.58 68.2225C309.417 68.0649 309.25 67.9122 308.983 67.991C308.694 68.0796 308.387 68.0944 308.089 68.1634C307.745 68.2422 307.596 67.7989 307.307 67.8087C307.009 67.8186 306.71 67.9023 306.412 67.9614C306.15 68.0107 306.15 68.0107 305.608 67.6905C305.409 67.5723 305.174 67.7447 304.98 67.6215C304.849 67.5427 304.736 67.4245 304.609 67.3408C304.555 67.3063 304.469 67.3063 304.401 67.3162C304.026 67.3753 303.647 67.4147 303.285 67.523C302.874 67.6511 302.562 67.5132 302.269 67.2226C301.898 67.2768 301.523 67.3063 301.157 67.3999C300.891 67.4689 300.737 67.3063 300.556 67.1733C300.493 67.129 300.439 67.0551 300.371 67.0354C300.303 67.0157 300.222 67.0551 300.15 67.0699C299.851 67.1241 299.544 67.1487 299.255 67.2374C298.898 67.3507 298.762 66.9467 298.487 66.8975C298.301 67.1388 298.202 67.4688 297.836 67.4935C297.538 67.5132 297.24 67.592 296.941 67.6462C296.792 67.6708 296.643 67.7004 296.494 67.725C296.255 67.7693 296.142 67.9614 296.191 68.257C296.219 68.4195 296.241 68.5821 296.264 68.7446C296.309 69.0352 296.196 69.2815 296.006 69.316C295.482 69.4096 294.962 69.5081 294.438 69.5918C294.298 69.6164 294.162 69.5327 294.05 69.3997C293.932 69.2667 293.801 69.2076 293.656 69.2322C293.132 69.3258 292.613 69.4244 292.089 69.5081C292.03 69.5179 291.953 69.4687 291.894 69.4293C291.768 69.3406 291.646 69.2372 291.524 69.1436C291.226 69.1879 290.932 69.2174 290.638 69.2765C290.164 69.3652 290.164 69.3701 289.816 69.0992C289.752 69.05 289.689 68.9564 289.631 68.9614C289.405 68.9811 289.183 69.0303 288.957 69.0746C288.293 69.2027 288.293 69.2027 288.099 69.0549C287.922 68.917 287.764 68.7495 287.498 68.8284C287.208 68.917 286.901 68.9466 286.603 68.9958C286.382 69.0303 286.16 69.0697 285.939 69.0796C285.88 69.0845 285.817 68.9909 285.754 68.9416C285.573 68.7889 285.397 68.6658 285.148 68.7495C285.004 68.7988 284.85 68.8087 284.701 68.8333C284.312 68.9022 284.312 68.9022 283.675 68.6067C283.612 68.5771 283.535 68.5426 283.472 68.5574C282.948 68.6461 282.428 68.7446 281.904 68.8284C281.841 68.8382 281.764 68.8086 281.701 68.784C280.987 68.4983 280.987 68.4983 280.227 68.6362C279.938 68.6855 279.929 68.7052 279.626 68.4441C279.491 68.3308 279.378 68.2767 279.22 68.3111C278.623 68.4294 278.022 68.5082 277.431 68.6461C277.164 68.7052 277.01 68.5574 276.83 68.4244C276.766 68.3801 276.699 68.2816 276.644 68.2865C276.048 68.3801 275.451 68.4934 274.855 68.587C274.801 68.5969 274.733 68.4983 274.67 68.454C274.548 68.3653 274.43 68.2323 274.295 68.2028C274.155 68.1732 274.001 68.2471 273.847 68.2718C273.472 68.3358 273.472 68.3309 273.038 68.0403C272.98 68.0009 272.903 67.9467 272.844 67.9565C272.248 68.055 271.647 68.1388 271.055 68.2816C270.716 68.3604 270.486 68.2176 270.246 68.0107C270.196 67.9664 270.111 67.9467 270.047 67.9565C269.374 68.0698 268.705 68.1979 268.032 68.3111C267.892 68.3358 267.756 68.252 267.643 68.124C267.463 67.922 267.25 67.9466 267.024 67.991C266.505 68.0944 266.5 68.0895 266.193 67.8531C266.13 67.8038 266.076 67.7398 266.008 67.7152C265.945 67.6905 265.863 67.7053 265.795 67.7152C265.497 67.7644 265.199 67.8186 264.901 67.8727C264.603 67.9269 264.3 67.9565 264.006 68.0403C263.645 68.1437 263.473 67.8235 263.22 67.6757C262.849 67.7397 262.47 67.7792 262.104 67.8826C261.824 67.9614 261.693 67.7447 261.507 67.6314C261.444 67.592 261.376 67.5083 261.318 67.5181C260.644 67.6265 259.971 67.7447 259.302 67.8777C259.14 67.9072 259.031 67.8678 258.896 67.7496C258.593 67.4836 258.579 67.4935 258.073 67.592C257.852 67.6363 257.639 67.6758 257.45 67.4738C257.282 67.2916 257.079 67.2472 256.84 67.3063C256.546 67.3802 256.243 67.4196 255.945 67.4689C255.647 67.5231 255.349 67.5969 255.05 67.6215C254.811 67.6462 254.666 67.4147 254.477 67.2965C254.418 67.262 254.336 67.2571 254.269 67.2669C253.97 67.3112 253.663 67.3457 253.374 67.4294C253.022 67.5329 252.827 67.262 252.579 67.1044C252.525 67.0699 252.434 67.0896 252.366 67.1044C251.842 67.193 251.323 67.2915 250.798 67.3851C250.613 67.2521 250.423 67.1241 250.238 66.9911C249.94 67.0404 249.642 67.0945 249.343 67.1438C249.118 67.1832 248.887 67.198 248.675 67.2718C248.399 67.3704 248.264 67.1388 248.078 67.0256C248.015 66.9862 247.947 66.9024 247.889 66.9123C247.513 66.9665 247.138 67.0256 246.768 67.1093C246.415 67.193 246.275 66.7497 245.986 66.7546C245.688 66.7595 245.381 66.8236 245.092 66.9123C244.757 67.0157 244.522 66.8581 244.283 66.6463C244.233 66.6019 244.147 66.5773 244.084 66.5872C243.709 66.6463 243.338 66.7202 242.963 66.7793C242.9 66.7891 242.823 66.7645 242.76 66.735C242.046 66.4444 242.046 66.4394 241.734 66.4985C241.513 66.5379 241.287 66.5872 241.061 66.6118C240.998 66.6217 240.921 66.5773 240.862 66.5379C240.392 66.2375 240.392 66.2325 240.053 66.2916C239.755 66.3458 239.457 66.4 239.159 66.4542C238.973 66.3212 238.784 66.1931 238.598 66.0602C238.228 66.1242 237.848 66.1734 237.482 66.2621C237.311 66.3015 237.198 66.2867 237.067 66.1636C236.904 66.0158 236.741 65.8434 236.47 65.9271C236.181 66.0158 235.874 66.0257 235.58 66.0995C235.228 66.1882 235.083 65.74 234.798 65.7449C234.5 65.7498 234.193 65.8138 233.904 65.9025C233.569 66.0059 233.334 65.8484 233.095 65.6366C233.045 65.5922 232.959 65.5676 232.896 65.5774C232.074 65.7203 231.256 65.8631 230.434 66.0158C229.928 66.1094 229.928 66.1143 228.965 65.8434C228.897 65.8237 228.825 65.804 228.757 65.8139C228.459 65.8582 228.152 65.8927 227.862 65.9764C227.51 66.0798 227.316 65.8138 227.067 65.6513C227.013 65.6168 226.927 65.6365 226.855 65.6464C226.629 65.6808 226.408 65.7252 226.182 65.7646C225.883 65.8188 225.585 65.873 225.287 65.9271C225.102 65.7991 224.912 65.6661 224.727 65.538C224.356 65.602 223.977 65.6365 223.611 65.74C223.33 65.8188 223.199 65.6119 223.014 65.4937C222.951 65.4543 222.883 65.3706 222.824 65.3755C222.151 65.4838 221.478 65.5971 220.809 65.735C220.534 65.7942 220.407 65.5725 220.222 65.4592C220.158 65.4247 220.086 65.3607 220.027 65.3706C219.58 65.4395 219.133 65.5232 218.685 65.607C218.432 65.6562 218.432 65.6562 217.881 65.3508C217.818 65.3163 217.746 65.2819 217.682 65.2917C216.264 65.538 214.849 65.7991 213.43 66.0454C213.286 66.07 213.155 65.9961 213.042 65.8631C212.924 65.7301 212.793 65.6612 212.649 65.6858C212.052 65.7892 211.451 65.8828 210.859 66.0109C210.615 66.0651 210.421 66.001 210.254 65.8286C210.127 65.7005 210.01 65.6513 209.852 65.6809C209.554 65.74 209.255 65.7892 208.957 65.8434C208.659 65.8976 208.361 65.9518 208.062 66.006C207.764 66.0602 207.462 66.0897 207.168 66.1734C206.806 66.2769 206.63 65.9715 206.382 65.8188C205.934 65.8927 205.487 65.9666 205.044 66.0454C204.448 66.1488 203.851 66.2621 203.255 66.3606C203.2 66.3705 203.133 66.2818 203.069 66.2375C202.884 66.1143 202.749 65.9419 202.473 65.9961C201.136 66.2572 199.789 66.4788 198.447 66.735C198.167 66.7891 198.045 66.5773 197.855 66.464C197.792 66.4296 197.72 66.3606 197.661 66.3705C196.915 66.4936 196.17 66.6315 195.424 66.7645C195.121 66.8187 195.121 66.8187 194.615 66.5133C194.557 66.4788 194.48 66.4345 194.416 66.4443C193.445 66.6118 192.478 66.7891 191.507 66.9615C191.362 66.9861 191.231 66.9172 191.114 66.7842C191.001 66.6512 190.865 66.5773 190.725 66.602C189.83 66.7596 188.931 66.9123 188.041 67.0847C187.801 67.1339 187.603 67.0896 187.431 66.9123C187.309 66.7842 187.187 66.73 187.033 66.7596C185.691 67.0009 184.349 67.2325 183.007 67.4886C182.75 67.5379 182.569 67.4442 182.406 67.2817C182.275 67.1536 182.162 67.129 182 67.1487C181.828 67.1733 181.724 67.2275 181.629 67.3753C181.507 67.5674 181.43 67.8087 181.141 67.8235C180.843 67.8383 180.54 67.8974 180.247 67.9812C179.966 68.0649 179.835 67.8432 179.659 67.7102C179.528 67.6166 179.406 67.6019 179.239 67.6462C179.085 67.6856 178.99 67.7693 178.9 67.9269C178.701 68.2619 178.683 68.2619 178.439 68.0501C178.308 67.9368 178.191 67.8481 178.046 67.8678C177.45 67.9663 176.853 68.0747 176.257 68.188C175.913 68.252 175.909 68.2619 175.651 68.0156C175.525 67.8925 175.403 67.8333 175.254 67.8629C173.613 68.1584 171.973 68.4441 170.333 68.7545C170.08 68.8037 169.908 68.7003 169.727 68.5525C169.669 68.5032 169.61 68.4343 169.542 68.4146C169.474 68.3949 169.398 68.4146 169.325 68.4244C168.132 68.6362 166.935 68.8382 165.747 69.0746C165.475 69.1288 165.331 68.9712 165.146 68.8431C165.082 68.7988 165.028 68.7299 164.96 68.7101C164.893 68.6954 164.811 68.7298 164.739 68.7446C163.546 68.9564 162.349 69.1584 161.16 69.3948C160.876 69.449 160.754 69.2421 160.568 69.1337C160.505 69.0943 160.437 69.0204 160.379 69.0303C160.004 69.0844 159.633 69.1583 159.258 69.2224C158.363 69.3849 157.469 69.5377 156.574 69.7051C156.231 69.7692 156.082 69.3307 155.792 69.3504C155.417 69.3751 155.047 69.4736 154.672 69.5425C154.374 69.5967 154.075 69.646 153.777 69.7051C153.483 69.7593 153.483 69.7593 152.751 69.4736C152.688 69.449 152.611 69.4145 152.548 69.4243C151.504 69.6066 150.456 69.7888 149.417 69.9859C149.177 70.0302 148.978 70.0056 148.807 69.8233C148.685 69.6953 148.558 69.6312 148.409 69.6608C146.841 69.9415 145.278 70.2223 143.71 70.4982C143.651 70.508 143.574 70.4587 143.516 70.4193C143.389 70.3307 143.267 70.2272 143.145 70.1337C143.055 70.2469 142.937 70.3504 142.879 70.4784C142.797 70.6508 142.689 70.7001 142.517 70.7296C142.345 70.7592 142.237 70.7494 142.101 70.6213C141.939 70.4637 141.771 70.3405 141.505 70.3897C139.865 70.7001 138.224 70.9809 136.584 71.2862C136.313 71.3355 136.187 71.1187 135.997 71.0054C135.934 70.971 135.861 70.9168 135.802 70.9267C135.129 71.04 134.46 71.1631 133.787 71.2813C131.921 71.6163 130.055 71.9364 128.193 72.2911C127.854 72.3551 127.624 72.232 127.385 72.0202C127.335 71.9758 127.249 71.9512 127.186 71.9611C124.574 72.4241 121.962 72.892 119.355 73.3599C119.215 73.3845 119.079 73.3057 118.967 73.1777C118.849 73.0447 118.718 72.9807 118.573 73.0053C117.381 73.2171 116.188 73.4289 114.995 73.6456C114.697 73.6998 114.692 73.7047 114.385 73.4683C114.322 73.419 114.254 73.3255 114.204 73.3353C114.1 73.36 114.001 73.483 113.928 73.6505C113.856 73.8278 113.743 73.8771 113.576 73.9116C113.404 73.9461 113.291 73.9313 113.16 73.8131C112.993 73.6653 112.839 73.5225 112.568 73.5717C109.139 74.2022 105.709 74.808 102.28 75.4336C102.004 75.4828 101.878 75.276 101.688 75.1627C101.624 75.1282 101.561 75.0789 101.493 75.0691C101.421 75.0592 101.344 75.0888 101.272 75.1036C95.6782 76.1035 90.0843 77.1083 84.4904 78.1082C84.156 78.1673 84.1605 78.1674 83.7945 78.6205C83.7494 78.6747 83.6906 78.7485 83.6273 78.7584C81.9148 79.0736 80.1978 79.379 78.4808 79.6844C77.7352 79.8174 76.9897 79.9554 76.2441 80.0834C75.9775 80.1278 75.9775 80.1278 75.3404 80.6597C75.2862 80.7041 75.2229 80.7632 75.1596 80.773C72.1774 81.3099 69.1952 81.8468 66.2084 82.3739C65.9735 82.4133 65.7837 82.5019 65.6753 82.7383C65.5985 82.9058 65.4991 83.0043 65.35 83.0339C63.2624 83.4082 61.1749 83.7875 59.0829 84.152C58.8343 84.1963 58.6852 84.3343 58.5632 84.5411C58.5225 84.6101 58.4863 84.6889 58.4276 84.7381C58.3734 84.7825 58.2921 84.7972 58.2243 84.812C56.435 85.1322 54.6457 85.4622 52.8518 85.7676C52.5852 85.812 52.4767 85.9942 52.3457 86.1863C52.3005 86.2503 52.2689 86.339 52.2101 86.3833C52.1514 86.4227 52.0655 86.4227 51.9932 86.4326C50.5021 86.6986 49.0111 86.9695 47.52 87.2355C47.2308 87.2108 47.1675 87.4965 47.0274 87.6689C46.9777 87.728 46.9416 87.8068 46.8829 87.8462C46.8196 87.8856 46.7382 87.8807 46.6614 87.8905C45.4685 88.1023 44.2756 88.3289 43.0782 88.526C42.8026 88.5703 42.7484 88.8215 42.5993 88.9939C42.5496 89.0481 42.4999 89.1318 42.4412 89.1466C41.6956 89.2894 40.9501 89.4224 40.2045 89.5505C39.956 89.5948 39.956 89.5899 39.5177 90.0776C39.468 90.1317 39.4092 90.1908 39.346 90.2056C38.2299 90.4125 37.1093 90.6095 35.9887 90.8115C35.8441 90.8361 35.7448 90.9543 35.6725 91.1218C35.6002 91.2893 35.4963 91.3976 35.3517 91.4222C34.457 91.5848 33.5623 91.7523 32.6676 91.9C32.4191 91.9394 32.2565 92.0626 32.148 92.2842C32.0667 92.4517 31.9673 92.5354 31.8091 92.565C30.9145 92.7226 30.0198 92.895 29.1206 93.0329C28.8586 93.0723 28.7229 93.2398 28.6145 93.4467C28.5287 93.6141 28.4292 93.6733 28.262 93.7028C26.6218 93.9885 24.9771 94.2742 23.3414 94.5894C23.0658 94.6436 22.9257 94.4712 22.745 94.348C22.4874 94.1756 22.248 93.9885 22.248 93.6043C22.248 93.5452 22.1712 93.4762 22.1169 93.4269C21.7148 93.0575 21.7148 93.0576 21.6515 92.6635C21.6154 92.4222 21.5747 92.1759 21.5431 91.9296C21.4843 91.5257 21.3397 91.4223 20.924 91.4961C20.7749 91.5208 20.6258 91.5552 20.4767 91.5749C20.2553 91.6094 20.0881 91.4468 20.0474 91.1513C20.0248 90.9888 19.9978 90.8262 19.9752 90.6637C20.2011 90.6243 20.1965 90.6194 20.5942 90.0234C20.7613 89.7722 20.7614 89.7722 20.4406 89.521C20.3186 89.4274 20.2011 89.3239 20.0701 89.2352C20.0113 89.1958 19.9345 89.1712 19.8713 89.1811C19.4962 89.2402 19.1257 89.3091 18.7552 89.3781C18.1588 89.4865 18.1587 89.4864 17.5532 88.984C17.5035 88.9446 17.4267 88.8708 17.4357 88.8314C17.4854 88.6491 17.6074 88.5703 17.761 88.5506C17.987 88.521 18.2084 88.4718 18.4298 88.4324C18.5789 88.4077 18.728 88.3782 18.8771 88.3536C19.0172 88.1664 19.1618 87.9842 19.2929 87.7921C19.5007 87.4965 19.5007 87.4866 19.216 87.2798C19.0353 87.1419 18.841 87.0187 18.6557 86.8906C18.4343 86.93 18.2084 86.9744 17.987 87.0088C17.7068 87.0532 17.5938 86.9596 17.5216 86.6394C17.4583 86.3587 17.5351 86.1173 17.752 86.0582C17.9734 85.9991 18.1813 85.9597 18.2943 85.7085C18.4028 85.4672 18.5925 85.3735 18.8275 85.3538C18.9766 85.3391 19.1257 85.3046 19.2748 85.2751C19.4691 85.2357 19.573 84.9844 19.5324 84.7037C19.5098 84.5214 19.4646 84.3687 19.2884 84.3293C18.5067 84.1569 18.4976 84.1618 18.109 83.8269C18.0728 83.7973 18.0458 83.7087 18.0593 83.6644C18.0819 83.5905 18.1316 83.4821 18.1859 83.4673C18.7055 83.359 19.2251 83.2605 19.7447 83.1866C19.9164 83.162 20.043 83.1274 20.1017 82.9452C20.183 82.694 20.1469 82.4625 19.9888 82.2901C19.939 82.2359 19.8576 82.167 19.8034 82.1719C19.207 82.2605 18.6151 82.3738 18.0186 82.4625C17.9644 82.4723 17.8651 82.3886 17.8425 82.3246C17.7973 82.2064 17.865 82.0488 18.0232 81.9946C18.231 81.9207 18.4434 81.9157 18.5834 81.6695C18.7777 81.3197 19.0172 80.9996 19.2341 80.6647C19.2702 80.6056 19.3291 80.4922 19.3155 80.4824C19.2025 80.374 19.0715 80.2903 18.954 80.1868C18.7552 80.0144 18.7551 79.7731 18.8003 79.5416C18.8365 79.3544 18.972 79.2805 19.1392 79.2805C19.2115 79.2805 19.3019 79.2806 19.3606 79.2362C19.5142 79.1279 19.564 78.9899 19.4871 78.8865C19.442 78.8274 19.3607 78.7437 19.3065 78.7535C18.3395 78.9161 17.3679 79.0737 16.4055 79.2756C16.1208 79.3347 15.9899 79.1475 15.8182 79.0145C15.6871 78.9111 15.5651 78.8717 15.4024 78.9456C15.2488 79.0145 15.0997 78.9752 15.0048 78.8126C14.928 78.6796 15.0635 78.5663 15.4295 78.4383C15.4973 78.4137 15.5741 78.3988 15.6238 78.3496C16.148 77.8176 16.1479 77.8127 16.5094 77.7437C16.8619 77.6797 16.8619 77.6748 17.0472 77.3891C17.1331 77.2561 17.2279 77.1231 17.3092 76.9852C17.3408 76.931 17.3951 76.8325 17.377 76.8029C17.2776 76.6502 17.142 76.6158 16.9839 76.6503C16.6314 76.734 16.2158 76.665 16.0305 77.133C15.9582 77.3103 15.8453 77.3596 15.6826 77.3891C14.0469 77.6748 12.4112 77.9802 10.7709 78.256C10.5043 78.3004 10.3824 78.4826 10.2785 78.6846C10.1881 78.852 10.0887 78.9013 9.91698 78.9308C9.74528 78.9604 9.60966 78.9752 9.51025 78.8126C9.45151 78.7141 9.50123 78.5762 9.63678 78.4383C9.83108 78.2412 9.79491 77.995 9.73166 77.7635C9.68647 77.6108 9.5464 77.5024 9.39729 77.5123C9.17588 77.532 8.96357 77.5861 8.77831 77.3891C8.66987 77.2758 8.53429 77.197 8.41229 77.0985C8.17733 76.8965 7.94235 76.6897 7.6125 76.8227C7.38658 76.7734 7.22843 76.5961 7.04769 76.4582C6.74495 76.2316 6.71784 76.1971 6.93473 75.9557C7.17873 75.6848 6.98891 75.3302 7.12447 75.0642C7.26906 74.7785 7.46794 74.5273 7.64416 74.2613C7.68935 74.1924 7.73003 74.1283 7.77522 74.0594C7.67129 73.9609 7.57642 73.8377 7.45442 73.7688C7.29627 73.6801 7.21494 73.5717 7.22397 73.2664C7.19234 73.222 7.20581 73.3353 7.24196 73.3648C7.28262 73.3944 7.3821 73.3698 7.43181 73.3353C7.55833 73.2417 7.62152 73.1186 7.58989 73.0151C7.57181 72.961 7.48603 72.892 7.43181 72.892C7.3324 72.892 7.24656 73.0004 7.21945 73.2664C6.71338 73.4683 6.18915 73.5668 5.665 73.6456C5.61078 73.6555 5.54304 73.557 5.47978 73.5077C5.27193 73.3402 5.2719 73.3451 4.66191 73.2959C4.59865 73.291 4.51284 73.222 4.48121 73.1531C4.35017 72.8526 4.35473 72.5226 4.29147 72.2024C4.40895 71.9955 4.52634 71.7936 4.64834 71.5916C4.89234 71.1828 5.2087 70.8232 5.39848 70.375C5.35781 70.1337 5.30358 69.8923 5.5024 69.6953C6.06721 69.449 6.06273 69.449 6.21636 69.2126C6.65465 68.5427 7.0884 67.8678 7.54477 67.2078C7.66677 67.0354 7.66679 66.9418 7.4499 66.868C7.38212 66.8483 7.30973 66.8433 7.23743 66.8532C7.01151 66.8876 6.78559 66.9763 6.56418 66.9566C6.34277 66.9418 6.18011 66.7251 5.99937 66.5921C5.81411 66.4542 5.62886 66.3113 5.4436 66.1685C5.23123 66.1833 5.0189 66.3212 4.80653 66.0995C4.64386 65.9271 4.44054 65.804 4.25529 65.6611C4.39536 65.2868 4.65747 65.0011 4.8608 64.6711C5.04606 64.3706 5.05048 64.3756 5.54752 64.1441C5.78248 64.0357 5.86382 63.4791 5.665 63.3165C5.42552 63.1195 5.17254 62.9373 4.92854 62.7501C4.71617 62.7649 4.49932 62.8979 4.29599 62.6762C4.13784 62.5088 3.95707 62.3955 3.695 62.4595C3.25218 62.5678 2.80034 62.622 2.35301 62.7107C2.19938 62.7402 2.03215 62.7206 1.96437 62.5531C1.91919 62.4349 2.05023 62.2723 2.19934 62.2379C2.42527 62.1886 2.62858 62.1295 2.74154 61.8832C2.84999 61.6369 3.04878 61.563 3.28374 61.5285C3.347 61.5187 3.41935 61.4596 3.45098 61.4005C3.61364 61.1148 3.7944 60.8685 4.14232 60.8784C4.28691 60.7799 4.36368 60.6567 4.3185 60.5385C4.29138 60.4744 4.19654 60.3907 4.14232 60.4006C3.76729 60.4499 3.39226 60.4991 3.02627 60.5878C2.85456 60.6272 2.72345 60.637 2.61501 60.4892C2.5382 60.3907 2.57886 60.2577 2.72345 60.1149C2.84997 59.9917 2.88616 59.8489 2.87712 59.6814C2.85453 59.2923 2.71895 59.179 2.28517 59.2036C1.97339 59.2233 1.89657 59.1593 1.8288 58.8244C1.81072 58.7456 1.76562 58.6372 1.79725 58.583C1.99154 58.2481 2.11807 57.8343 2.48407 57.6767C2.62866 57.6176 2.78223 57.6176 2.8726 57.4895C2.96297 57.3615 3.04434 57.2137 3.13923 57.0905C3.25671 56.9428 3.33796 56.8049 3.28374 56.7113C3.19337 56.5438 3.04883 56.5291 2.88164 56.5882C2.73705 56.6374 2.58343 56.6423 2.43431 56.6719C2.16772 56.726 1.95088 56.598 1.91925 56.3813C1.8334 55.8099 1.74301 55.2435 1.66619 54.6721C1.65715 54.6031 1.67968 54.5144 1.71583 54.4553C1.84235 54.2484 1.97796 54.0514 2.109 53.8495C2.26262 53.618 2.50666 53.6623 2.71451 53.618C3.00822 53.554 3.00812 53.5588 3.40123 53.086C3.55486 52.8988 3.82146 52.9727 3.97961 52.8052C4.02931 52.7511 4.10613 52.6624 4.09257 52.6131C4.0745 52.5491 3.98417 52.4998 3.9164 52.4703C3.85314 52.4407 3.77634 52.426 3.70856 52.4408C2.8862 52.5836 2.06837 52.7363 1.246 52.8742C1.10593 52.8988 0.952294 52.7905 0.90259 52.6378C0.852886 52.4949 0.866398 52.3225 0.857361 52.16C0.988397 51.958 1.13745 51.7708 1.25041 51.5541C1.33626 51.3866 1.43569 51.3128 1.60739 51.3029C1.83332 51.2881 2.05475 51.229 2.30778 51.1847C2.77771 50.4656 3.23856 49.712 3.74464 48.9928C3.94797 48.7022 3.89835 48.4066 3.93901 48.0963C3.97968 47.8106 4.2824 47.855 4.48573 47.7713C4.6484 47.7023 4.70255 47.5447 4.63929 47.4363C4.60314 47.3723 4.52185 47.2984 4.4586 47.2984C4.30949 47.2984 4.16038 47.3427 4.01127 47.3673C3.86216 47.392 3.69046 47.3772 3.56846 47.4609C3.45098 47.5398 3.37412 47.7072 3.29731 47.85C3.21146 48.0076 3.09857 48.0619 2.92687 48.0717C2.70546 48.0816 2.48407 48.1259 2.26266 48.1603C2.01867 47.9682 1.76558 47.7811 1.53061 47.5792C1.48543 47.5397 1.47634 47.4265 1.48086 47.3526C1.4899 47.1605 1.42214 47.0422 1.27303 46.9487C1.14651 46.8699 1.04258 46.7566 0.925094 46.6581C1.01546 46.5251 1.11491 46.397 1.1872 46.2541C1.34535 45.9537 1.54419 45.737 1.88759 45.7468C2.02315 45.5547 2.13156 45.3183 2.30778 45.1853C2.47497 45.0572 2.75965 45.1853 2.88617 44.8946C2.94942 44.7518 3.04437 44.5893 3.16637 44.5302C3.36066 44.4366 3.61369 44.4859 3.72666 44.21C3.79443 44.0524 3.8938 43.9095 4.02484 43.8701C4.17395 43.8258 4.32754 43.816 4.43598 43.7224C4.49472 43.6731 4.55799 43.5943 4.55799 43.5254C4.55799 43.481 4.46769 43.4121 4.40443 43.3825C4.34569 43.348 4.26879 43.3234 4.20101 43.3333C3.97509 43.3628 3.75368 43.417 3.52776 43.4465C3.4645 43.4564 3.39222 43.4219 3.32445 43.3924C3.12563 43.3136 3.13916 43.2151 3.29731 43.0377C3.45546 42.8653 3.56848 42.6436 3.69952 42.4417C3.84411 42.4072 4.02482 42.422 4.12423 42.3284C4.29142 42.1757 4.40887 41.9541 4.54442 41.762C4.69353 41.7324 4.84715 41.7226 4.98723 41.6684C5.04597 41.6487 5.0731 41.5403 5.1228 41.4763C5.21317 41.3531 5.29005 41.1758 5.41205 41.1167C5.61086 41.0281 5.85486 41.0625 5.97234 40.7916C6.04012 40.634 6.144 40.4666 6.27052 40.4567C6.62296 40.437 6.77208 40.166 6.95282 39.9099C7.08837 39.7178 7.37757 39.8163 7.52668 39.6242C7.62609 39.5011 7.69843 39.3484 7.79783 39.2302C7.8385 39.1809 7.92432 39.1563 7.9921 39.1415C8.36261 39.0677 8.73764 39.0135 9.10816 38.9346C9.1669 38.9199 9.22116 38.846 9.26635 38.7869C9.36124 38.6588 9.41991 38.4815 9.53739 38.3978C9.65487 38.314 9.82203 38.314 9.96663 38.2894C10.432 38.2155 10.4682 38.2352 10.6806 37.8165C10.8523 37.4766 11.2726 37.718 11.4126 37.3437C11.494 37.1269 11.643 36.9496 11.9096 36.925C12.2846 36.8905 12.6552 36.7969 13.0302 36.7329C13.3646 36.6738 13.3601 36.6738 13.7215 36.2157C13.8842 36.0088 14.1237 36.0384 14.3361 35.999C14.562 35.9596 14.7698 35.9005 14.8783 35.6542C14.9867 35.4129 15.1855 35.334 15.416 35.2995C15.6283 35.265 15.8679 35.2897 16.0351 35.0927C16.4417 34.6198 16.4372 34.6149 16.7219 34.5656C17.1692 34.4868 17.6165 34.408 18.0639 34.3243C18.3621 34.2701 18.6738 34.2602 18.954 34.1519C19.1573 34.0731 19.2477 33.7972 19.3787 33.6051C19.7492 33.5312 20.1197 33.4573 20.4902 33.3884C21.0099 33.2899 21.534 33.2012 22.0581 33.1076C22.2841 32.9205 22.3158 32.5067 22.6953 32.487C22.9213 32.4771 23.1427 32.4131 23.3686 32.3737C23.7436 32.3048 24.1141 32.2161 24.4892 32.1816C24.7738 32.157 24.8235 31.891 24.9726 31.7235C25.0223 31.6644 25.0675 31.5807 25.1262 31.5659C25.7136 31.428 26.3191 31.3984 26.8929 31.1965C26.9517 31.1768 27.0059 31.0733 27.0195 30.9995C27.0285 30.96 26.9517 30.8862 26.902 30.8517C26.8432 30.8123 26.7664 30.7729 26.7032 30.7828C24.837 31.1128 22.9709 31.4477 21.1048 31.7777C20.8427 31.827 20.8427 31.822 20.2056 32.3639C20.1514 32.4082 20.0881 32.4574 20.0203 32.4722C19.7221 32.5313 19.4193 32.5658 19.1256 32.6397C18.8862 32.6988 18.6874 32.6397 18.5157 32.4623C18.3937 32.3343 18.2671 32.2949 18.1135 32.3048C17.9418 32.3195 17.8289 32.3737 17.7295 32.5067C17.5985 32.689 17.5307 32.9254 17.255 32.9746C15.9853 33.1864 14.7156 33.4229 13.4504 33.6494C13.2742 33.5805 13.1883 33.4771 13.2335 33.3539C13.2606 33.28 13.3149 33.1815 13.3691 33.1717C13.8887 33.0682 14.4128 32.9796 14.9325 32.8811C15.0048 32.8663 15.1041 32.8761 15.1448 32.8268C15.3436 32.6052 15.416 32.2456 15.791 32.221C16.0079 32.2062 16.2293 32.1324 16.4372 32.0634C16.4959 32.0437 16.5501 31.9403 16.5637 31.8664C16.5682 31.827 16.4959 31.7531 16.4417 31.7186C16.2429 31.5757 16.0125 31.7482 15.8137 31.6497C15.7459 31.6152 15.6509 31.5659 15.6374 31.5068C15.6283 31.4526 15.7052 31.364 15.7594 31.3098C15.8091 31.2605 15.8768 31.2162 15.9446 31.2014C16.541 31.0881 17.1376 30.9699 17.734 30.8812C17.978 30.8468 18.1497 30.7236 18.2581 30.497C18.3395 30.3296 18.4389 30.2409 18.5925 30.2163C19.6363 30.034 20.68 29.8321 21.7283 29.6646C21.9904 29.6252 22.126 29.4627 22.2344 29.2509C22.3203 29.0834 22.4197 29.0243 22.5869 28.9947C24.0825 28.7386 25.5691 28.4529 27.0647 28.2067C27.3403 28.1623 27.4217 27.9505 27.5618 27.7683C27.6115 27.7042 27.643 27.6254 27.7063 27.586C27.7695 27.5466 27.8509 27.5515 27.9277 27.5416C29.1206 27.3298 30.3135 27.1033 31.5109 26.9063C31.7911 26.8619 31.8452 26.6156 31.9898 26.4432C32.0395 26.3891 32.0847 26.3004 32.1435 26.2856C33.0381 26.1182 33.9328 25.9606 34.8274 25.798C35.4239 25.6896 36.0203 25.5813 36.6168 25.4778C36.9105 25.4286 36.9105 25.4236 37.3081 24.9557C37.3533 24.9015 37.4166 24.8375 37.4753 24.8227C39.1924 24.5074 40.9048 24.207 42.6219 23.8967C42.7665 23.8721 42.8704 23.7587 42.9427 23.5913C43.015 23.4238 43.119 23.3105 43.259 23.2859C44.601 23.0396 45.943 22.7983 47.2895 22.5668C47.5335 22.5274 47.7052 22.4091 47.8136 22.1875C47.895 22.02 47.9944 21.9314 48.148 21.9067C49.49 21.6703 50.8321 21.4191 52.1786 21.1925C52.4361 21.1482 52.5626 20.9807 52.6891 20.7837C52.7343 20.7147 52.7705 20.6014 52.8247 20.5916C53.4934 20.4537 54.1576 20.3108 54.8309 20.2172C55.111 20.1778 55.2059 19.9709 55.3189 19.7739C55.4093 19.6163 55.5132 19.5621 55.6849 19.5424C56.06 19.4981 56.4305 19.4144 56.7965 19.3306C56.8507 19.3159 56.9185 19.2075 56.923 19.1385C56.932 19.0105 56.8281 18.9218 56.6564 18.8775C54.867 19.1976 53.0732 19.5178 51.2839 19.8379C50.9902 19.8921 50.9902 19.8922 50.5926 20.3601C50.5474 20.4143 50.4841 20.4783 50.4208 20.4931C48.7038 20.8034 46.9913 21.1088 45.2743 21.4191C45.1297 21.4437 45.0258 21.557 44.9535 21.7245C44.8812 21.892 44.7772 22.0053 44.6371 22.0299C42.9969 22.3254 41.3567 22.6259 39.712 22.9067C39.468 22.9461 39.2963 23.0593 39.1879 23.2859C39.1065 23.4534 39.0071 23.5421 38.8535 23.5667C37.2856 23.8425 35.7221 24.1331 34.1497 24.3991C33.9915 24.4237 33.8741 24.2809 33.8832 24.1479C33.8877 24.0789 33.9553 23.9657 34.0096 23.9558C34.8274 23.7933 35.6408 23.6258 36.4632 23.5026C36.7388 23.4632 36.8201 23.2465 36.9602 23.0643C37.0054 23.0002 37.0415 22.9165 37.1003 22.882C37.1635 22.8426 37.2449 22.8475 37.3217 22.8377C39.2601 22.488 41.1986 22.1333 43.1416 21.8033C43.4217 21.7541 43.4758 21.5127 43.6204 21.3403C43.6701 21.2812 43.7154 21.1925 43.7741 21.1827C44.3706 21.0645 44.967 20.961 45.5634 20.8576C46.6072 20.6704 47.6509 20.4832 48.6992 20.2961C49.002 20.2419 49.002 20.2418 49.3906 19.7788C49.4358 19.7247 49.4991 19.6557 49.5578 19.6459C52.3186 19.1484 55.0795 18.6509 57.8403 18.1583C57.9849 18.1337 58.0888 18.0204 58.1611 17.853C58.2334 17.6904 58.3373 17.5722 58.4773 17.5426C62.2096 16.8728 65.9374 16.2028 69.6697 15.5428C69.9137 15.4985 70.0854 15.395 70.1938 15.1635C70.2706 14.996 70.3745 14.9074 70.5282 14.8779C74.631 14.1439 78.7338 13.41 82.8411 12.6712C85.6019 12.1786 88.3627 11.6762 91.1235 11.1935C91.3766 11.1492 91.5121 10.9964 91.6386 10.7945C91.6793 10.7255 91.72 10.6122 91.7742 10.6024C92.3661 10.4792 92.958 10.366 93.5499 10.2527C93.7352 10.3857 93.9204 10.5138 94.1057 10.6468C94.2458 10.4596 94.3814 10.2675 94.5215 10.0803C95.4161 9.93745 96.2972 9.71579 97.2009 9.64683C97.2596 9.64191 97.3229 9.73551 97.3861 9.78476C97.8063 10.0951 98.0458 10.0704 98.3124 9.65669C98.4073 9.50892 98.4886 9.37593 98.6332 9.35131C99.0806 9.26264 99.5325 9.20353 99.9753 9.10009C100.215 9.04591 100.414 9.09516 100.585 9.27248C100.707 9.40055 100.834 9.45476 100.983 9.4252C101.805 9.27743 102.623 9.13457 103.446 8.97695C103.504 8.9671 103.558 8.88334 103.604 8.82423C103.698 8.69616 103.78 8.55828 103.87 8.42528C103.992 8.50902 104.128 8.57306 104.227 8.68143C104.354 8.80949 104.471 8.80946 104.643 8.77498C107.923 8.17898 111.208 7.59776 114.489 6.99684C114.769 6.94758 114.891 7.15448 115.081 7.26284C115.144 7.30225 115.207 7.35148 115.275 7.36133C115.347 7.37118 115.424 7.34165 115.496 7.32688C117.959 6.88357 120.422 6.44516 122.884 6.00185C123.209 5.94274 123.209 5.94274 123.693 6.24813C123.752 6.28754 123.828 6.33187 123.892 6.3171C125.012 6.125 126.133 5.91814 127.249 5.72111C127.394 5.69649 127.516 5.77528 127.647 5.88857C127.904 6.11022 127.922 6.11024 128.112 5.78515C128.202 5.63246 128.297 5.53883 128.446 5.49449C128.609 5.44524 128.74 5.46007 128.867 5.54873C129.047 5.67187 129.178 5.87872 129.454 5.82453C130.647 5.59303 131.844 5.40095 133.033 5.16452C133.304 5.11033 133.448 5.2778 133.629 5.40094C133.692 5.44527 133.751 5.51423 133.819 5.52901C133.887 5.54378 133.968 5.50927 134.04 5.49449C135.531 5.22851 137.027 4.9675 138.514 4.68181C138.794 4.62763 138.916 4.83939 139.106 4.94776C139.169 4.98716 139.241 5.05616 139.3 5.04631C140.194 4.89361 141.094 4.73102 141.988 4.56847C142.309 4.50937 142.309 4.51429 142.797 4.81475C142.856 4.85416 142.933 4.89357 142.996 4.88372C144.04 4.70147 145.088 4.5143 146.132 4.32712C146.453 4.26801 146.453 4.26803 147.379 4.52416C147.447 4.54386 147.519 4.57345 147.587 4.5636C148.78 4.3518 149.977 4.14489 151.17 3.91832C151.409 3.87398 151.608 3.91338 151.78 4.0907C151.902 4.21877 152.028 4.27298 152.178 4.24342C153.52 4.00207 154.866 3.77057 156.204 3.51444C156.461 3.46518 156.628 3.5735 156.809 3.71635C156.868 3.7656 156.927 3.83458 156.994 3.85428C157.062 3.87398 157.139 3.85426 157.211 3.83949C158.553 3.59813 159.9 3.37156 161.237 3.1105C161.508 3.05632 161.653 3.22378 161.834 3.34692C161.897 3.39126 161.965 3.47992 162.019 3.475C162.543 3.39126 163.067 3.3174 163.587 3.19426C163.867 3.1253 163.989 3.35184 164.179 3.4602C164.242 3.49468 164.314 3.5686 164.373 3.55875C165.494 3.36665 166.614 3.16472 167.73 2.95784C167.888 2.92829 168.006 2.97258 168.132 3.10064C168.3 3.27304 168.494 3.342 168.738 3.28782C169.258 3.17453 169.782 3.09574 170.306 3.00215C170.613 2.94797 170.613 2.94799 171.553 3.20412C171.621 3.22382 171.693 3.25336 171.761 3.24351C172.655 3.08589 173.555 2.9332 174.445 2.7608C174.684 2.71155 174.883 2.75587 175.055 2.93319C175.177 3.06125 175.299 3.11547 175.452 3.08591C176.275 2.93814 177.093 2.79036 177.915 2.64259C178.213 2.58841 178.511 2.4948 178.81 2.4948C179.027 2.49972 179.185 2.73615 179.379 2.85436C179.433 2.88884 179.524 2.84948 179.596 2.83963C180.64 2.65246 181.688 2.48004 182.727 2.26824C182.998 2.21406 183.143 2.38152 183.324 2.50466C183.387 2.54899 183.455 2.63766 183.509 2.63273C183.884 2.57855 184.254 2.50466 184.629 2.44062C185.077 2.36181 185.529 2.30271 185.971 2.19434C186.333 2.10568 186.468 2.5342 186.758 2.54897C186.979 2.56375 187.205 2.48003 187.426 2.44062C187.874 2.36181 188.321 2.27316 188.768 2.2042C188.927 2.17958 189.049 2.10073 189.098 1.92341C189.107 1.88893 189.031 1.81508 188.981 1.77075C188.38 1.26833 188.38 1.26831 187.774 1.37667C187.399 1.44563 187.029 1.5146 186.654 1.57371C186.59 1.58356 186.518 1.54416 186.455 1.5146C186.274 1.43087 186.292 1.33236 186.446 1.15504C186.6 0.977718 186.717 0.761009 186.848 0.559058C187.033 0.687124 187.214 0.815145 187.399 0.943212C187.548 0.918584 187.698 0.889073 187.847 0.864445C188.592 0.736378 189.338 0.603377 190.083 0.485161C190.138 0.47531 190.205 0.573837 190.269 0.623094C190.449 0.765937 190.612 0.889044 190.874 0.834862C191.543 0.692019 192.216 0.58858 192.885 0.46544C193.178 0.411258 193.178 0.411262 193.694 0.716652C193.752 0.751131 193.829 0.790539 193.892 0.780687C194.566 0.667398 195.234 0.544271 195.908 0.426056C196.052 0.401428 196.192 0.465459 196.296 0.608302C196.337 0.66741 196.328 0.765903 196.5 1.57371C197.033 2.22882 197.399 2.15989 197.769 2.10078C197.927 2.07616 198.067 2.0515 198.171 1.95299C198.226 1.89881 198.293 1.81999 198.293 1.75595C198.293 1.7067 198.194 1.62787 198.131 1.61802C197.683 1.51951 197.259 1.72641 196.82 1.77075C196.617 1.79045 196.441 1.61805 196.405 1.33729C196.396 1.25848 196.382 1.17475 196.369 1.09594C196.355 1.01713 196.346 0.933394 196.332 0.854584C196.156 0.829956 196.052 0.918603 195.975 1.08607C195.912 1.22399 195.822 1.38161 195.7 1.4555C195.578 1.53431 195.411 1.51956 195.262 1.54419C195.117 1.56881 194.959 1.63284 194.823 1.59836C194.688 1.55895 194.579 1.41609 194.453 1.32743C194.394 1.2831 194.322 1.21909 194.263 1.22894C193.743 1.31267 193.228 1.39638 192.713 1.50474C192.442 1.56385 192.306 1.357 192.135 1.22894C191.999 1.13042 191.864 1.15502 191.841 1.3816C191.782 1.92342 191.99 2.14999 192.451 2.04655C192.831 1.95789 193.174 1.94316 193.472 2.2781C193.513 2.32243 193.608 2.34213 193.666 2.33227C194.037 2.27317 194.403 2.19928 194.773 2.14017C194.841 2.13032 194.914 2.14999 194.977 2.16969C195.899 2.43567 195.899 2.44063 196.21 2.38152C196.36 2.35197 196.504 2.32733 196.491 1.57864C196.775 0.775759 197.227 0.721587 197.665 0.603372C197.95 0.529487 198.072 0.746225 198.257 0.859515C198.32 0.89892 198.388 0.977715 198.447 0.967864C199.419 0.805318 200.385 0.632897 201.352 0.450648C201.515 0.421094 201.633 0.450653 201.759 0.57872C201.922 0.741266 202.103 0.844726 202.36 0.785618C202.875 0.667403 203.399 0.593535 203.923 0.495022C204.19 0.445766 204.19 0.445715 204.728 0.751105C204.786 0.785584 204.863 0.824992 204.927 0.81514C205.451 0.731405 205.97 0.627998 206.49 0.539336C206.635 0.514708 206.766 0.58366 206.879 0.716652C206.992 0.849644 207.127 0.918596 207.267 0.893968C207.791 0.805306 208.311 0.706825 208.831 0.618163C208.894 0.608312 208.971 0.642789 209.029 0.677268C209.581 0.982658 209.581 0.982607 209.834 0.933351C210.204 0.859466 210.584 0.825025 210.95 0.726513C211.307 0.628 211.492 0.913663 211.736 1.07128C212.405 0.957994 213.078 0.864431 213.742 0.726513C214.013 0.667405 214.158 0.829937 214.339 0.958003C214.402 1.00233 214.465 1.09593 214.524 1.091C214.75 1.0713 214.971 1.01713 215.193 0.977725C215.414 0.93832 215.64 0.89892 215.861 0.859515C216.114 1.00236 216.282 1.3373 216.643 1.22401C216.86 1.15505 217.09 1.14027 217.312 1.10087C217.533 1.06146 217.759 1.02206 217.981 0.982655C218.13 0.958027 218.283 0.943229 218.428 0.898898C218.694 0.825013 218.826 1.0664 219.015 1.17476C219.079 1.20924 219.151 1.26831 219.21 1.25846C219.657 1.1895 220.109 1.1304 220.547 1.01711C220.886 0.928447 221.116 1.07624 221.356 1.28311C221.406 1.32744 221.491 1.35207 221.555 1.34222C222.079 1.25848 222.598 1.15501 223.118 1.06635C223.258 1.04172 223.394 1.12053 223.507 1.2486C223.624 1.38159 223.755 1.44567 223.9 1.42104C224.419 1.33238 224.944 1.23384 225.463 1.14518C225.526 1.13533 225.603 1.17474 225.662 1.21415C226.168 1.51954 226.168 1.52447 226.466 1.46536C226.539 1.45058 226.615 1.44069 226.688 1.42591C227.058 1.35696 227.442 1.33236 227.804 1.21415C228.219 1.08115 228.522 1.24863 228.816 1.52939C229.186 1.47029 229.566 1.4358 229.927 1.33729C230.199 1.2634 230.343 1.45057 230.524 1.57371C230.587 1.61804 230.655 1.7067 230.709 1.69685C231.233 1.61311 231.757 1.53925 232.273 1.41611C232.553 1.34715 232.675 1.56877 232.864 1.68206C232.928 1.72146 232.995 1.79046 233.054 1.78061C233.352 1.7412 233.651 1.68206 233.949 1.62788C234.297 1.56385 234.297 1.56877 234.758 1.86923C234.975 2.01208 235.192 1.89878 235.404 1.8643C235.63 1.8249 235.842 1.79535 236.023 1.99731C236.136 2.12537 236.271 2.20418 236.412 2.18448C236.71 2.14015 237.013 2.09584 237.306 2.02196C237.541 1.96285 237.744 2.00223 237.916 2.18448C238.038 2.31255 238.165 2.37662 238.314 2.34707C238.983 2.22885 239.656 2.10566 240.325 1.99237C240.383 1.98252 240.465 2.02687 240.519 2.0712C240.645 2.15986 240.767 2.25835 240.889 2.35687C241.183 2.31254 241.486 2.29288 241.775 2.22393C242.082 2.15497 242.362 2.13033 242.602 2.40124C242.652 2.46035 242.724 2.54404 242.783 2.53911C243.009 2.51941 243.23 2.47017 243.451 2.43076C243.673 2.39136 243.899 2.35196 244.12 2.31255C244.378 2.43569 244.54 2.79033 244.902 2.67705C245.119 2.60809 245.349 2.59331 245.571 2.5539C245.792 2.5145 246.018 2.47017 246.239 2.43569C246.312 2.42584 246.393 2.4012 246.456 2.4209C246.524 2.44061 246.583 2.50958 246.641 2.55883C246.822 2.70168 246.989 2.84454 247.247 2.7608C247.464 2.69184 247.694 2.67706 247.916 2.63273C248.218 2.57855 248.218 2.57856 248.72 2.88887C248.923 3.01694 249.154 2.84948 249.348 2.95784C249.479 3.03172 249.592 3.15484 249.719 3.23857C249.773 3.27305 249.859 3.28781 249.922 3.27796C250.22 3.23363 250.523 3.18932 250.816 3.11543C251.056 3.05633 251.255 3.11543 251.422 3.29275C251.544 3.42082 251.666 3.47503 251.82 3.44547C252.565 3.30756 253.311 3.1893 254.052 3.03661C254.305 2.98243 254.508 3.06618 254.648 3.24351C254.888 3.54889 255.227 3.18933 255.475 3.43561C255.629 3.58831 255.782 3.76564 256.063 3.69176C256.578 3.56369 257.102 3.49469 257.621 3.40603C257.807 3.53902 257.992 3.67204 258.182 3.80504C258.48 3.75085 258.778 3.69664 259.076 3.64738C259.298 3.60798 259.524 3.56365 259.745 3.52917C259.817 3.51932 259.894 3.49961 259.962 3.52424C260.03 3.54887 260.084 3.61292 260.147 3.66217C260.459 3.90353 260.459 3.90848 260.974 3.80997C261.195 3.76563 261.408 3.73608 261.593 3.93311C261.765 4.11536 261.968 4.14981 262.203 4.09563C262.646 3.99712 263.093 3.92324 263.545 3.85428C263.685 3.82965 263.816 3.91339 263.934 4.04146C264.11 4.24341 264.327 4.22371 264.548 4.16953C264.842 4.10057 265.131 4.03162 265.38 4.30746C265.429 4.36657 265.506 4.45026 265.56 4.44533C265.931 4.40593 266.306 4.37639 266.667 4.28281C267.029 4.18922 267.205 4.4946 267.454 4.64237C267.824 4.57834 268.199 4.5143 268.57 4.45026C268.642 4.43549 268.728 4.39118 268.791 4.41581C269.058 4.51925 269.211 4.88866 269.577 4.77537C269.79 4.71134 270.02 4.69166 270.242 4.67688C270.3 4.67196 270.377 4.75565 270.418 4.81968C270.44 4.85416 270.418 4.94774 270.391 4.997C270.309 5.13492 270.21 5.26302 270.138 5.40587C270.129 5.42557 270.214 5.51419 270.264 5.5536C270.386 5.64226 270.526 5.62752 270.689 5.58811C270.829 5.55363 270.974 5.62259 271.073 5.77036C271.114 5.82947 271.1 5.92797 271.014 6.25306C271.014 6.49442 271.109 6.38603 271.141 6.22841C271.19 6.00183 271.096 5.92795 270.915 6.05109C270.788 6.13976 270.725 6.26783 270.757 6.37127C270.775 6.42545 270.861 6.49442 271.014 6.25306C271.412 5.95752 271.71 5.90337 272.008 5.84919C272.085 5.83441 272.176 5.78512 272.23 5.81467C272.424 5.93289 272.605 6.07576 272.795 6.20875C273.011 6.17919 273.215 6.10528 273.427 6.29738C273.725 6.56829 273.739 6.54366 274.028 6.48948C274.177 6.45993 274.326 6.43534 274.475 6.41072C274.625 6.38609 274.742 6.45995 274.873 6.57324C275.14 6.80474 275.162 6.80472 275.338 6.48948C275.442 6.29738 275.515 6.23337 275.646 6.32203C276.079 6.62249 276.084 6.64218 276.454 6.55352C276.762 6.47963 277.051 6.45993 277.277 6.74069C277.431 6.93772 277.48 6.8934 277.602 6.68652C277.928 6.13977 278.077 6.14961 278.687 6.54366C278.971 6.73083 279.265 6.5289 279.554 6.50427C279.798 6.48457 279.97 6.60277 279.988 6.91308C280.002 7.10518 280.042 7.24312 280.205 7.30716C280.268 7.33178 280.345 7.36625 280.408 7.3564C280.783 7.29729 281.154 7.22832 281.529 7.15936C281.719 7.12488 281.823 6.89342 281.786 6.58803C281.746 6.26294 281.818 6.14468 282.089 6.05109C282.252 5.99691 282.383 6.00681 282.514 6.09547C282.658 6.19398 282.618 6.28264 282.491 6.45996C282.189 6.89342 282.225 7.15935 282.613 7.45982C282.749 7.56326 282.857 7.65688 282.889 7.80958C282.907 7.88839 282.889 7.99182 282.93 8.05093C283.151 8.38095 283.458 8.59277 283.802 8.75039C284.131 8.6174 284.357 8.83901 284.61 9.01634C284.809 9.15425 285.044 9.03607 285.257 8.98681C285.496 8.93263 285.695 8.97202 285.867 9.15427C285.989 9.28234 286.115 9.34142 286.264 9.31679C286.562 9.26261 286.865 9.22815 287.159 9.14934C287.412 9.08038 287.602 9.1789 287.76 9.34638C287.959 9.55818 288.18 9.41531 288.388 9.44486C288.668 9.47934 288.808 9.91771 289.174 9.7995C289.391 9.73054 289.617 9.70592 289.843 9.68622C289.902 9.68129 289.974 9.76504 290.024 9.82415C290.263 10.0951 290.543 10.0803 290.85 10.0015C291.063 9.94728 291.271 9.89805 291.479 10.0852C291.822 10.4005 292.202 10.6763 292.563 10.9669C292.613 11.1935 292.577 11.4594 292.834 11.5924C292.97 11.6614 293.096 11.7649 293.2 11.8782C293.327 12.0112 293.444 12.0456 293.607 12.0112C293.9 11.9422 294.208 11.9274 294.497 11.8387C294.764 11.7599 294.931 11.9225 295.093 12.0752C295.224 12.1983 295.346 12.2574 295.505 12.1688C295.667 12.085 295.785 12.1392 295.916 12.2722C296.101 12.4544 296.115 12.4348 296.729 12.4889C296.792 12.4939 296.869 12.5677 296.905 12.6317C296.923 12.6662 296.883 12.7648 296.851 12.814C296.81 12.8731 296.747 12.9421 296.688 12.9568C296.02 13.0849 295.346 13.1982 294.678 13.3263C294.61 13.341 294.538 13.3756 294.488 13.4248C294.434 13.479 294.366 13.5528 294.366 13.6218C294.366 13.6711 294.456 13.7302 294.519 13.7647C294.718 13.8779 294.953 13.7056 295.148 13.8336C295.279 13.9174 295.387 14.0355 295.518 14.1144C295.572 14.1488 295.658 14.1439 295.726 14.1341C295.952 14.0996 296.173 14.0504 296.399 14.0208C296.462 14.0159 296.535 14.0652 296.594 14.1046C297.027 14.4001 297.027 14.4001 297.402 14.336C297.551 14.3114 297.71 14.2375 297.85 14.2671C297.985 14.2966 298.103 14.4296 298.225 14.5134C298.478 14.6907 298.717 14.8631 298.735 15.2473C298.744 15.395 298.893 15.5231 299.042 15.5329C299.187 15.5428 299.341 15.4887 299.49 15.4591C299.842 15.4 299.842 15.4 300.299 15.7005C300.425 15.7842 300.561 15.794 300.723 15.7448C300.787 15.7251 300.864 15.7448 300.931 15.7694C301.153 15.8433 301.153 15.9369 301.008 16.1142C300.805 16.3753 300.823 16.3999 301.392 16.6215C301.609 16.7053 301.776 16.8629 301.957 17.0008C302.251 17.2225 302.246 17.2224 302.052 17.5131C302.007 17.5771 301.966 17.6461 301.921 17.715C301.79 17.9071 301.686 18.114 301.415 18.1337C301.116 18.1534 300.818 18.2322 300.52 18.2864C300.231 18.3406 300.154 18.4588 300.181 18.7937C300.213 19.1976 300.272 19.242 300.791 19.237C300.94 19.237 301.071 19.2764 301.184 19.4094C301.13 19.567 301.031 19.6902 300.886 19.7197C300.516 19.7936 300.141 19.8577 299.77 19.9217C299.472 19.9759 299.174 20.03 298.875 20.0842C298.69 20.1187 298.573 20.3749 298.622 20.6605C298.649 20.8231 298.672 20.9856 298.695 21.1482C298.744 21.4733 298.839 21.557 299.142 21.5423C299.219 21.5373 299.291 21.4979 299.363 21.5077C299.657 21.5422 299.797 21.951 300.15 21.8673C300.443 21.7983 300.751 21.7836 301.04 21.6949C301.306 21.6161 301.455 21.7935 301.641 21.9265C301.704 21.9708 301.772 22.0643 301.826 22.0594C302.201 22.0052 302.576 21.9511 302.942 21.8575C303.114 21.8181 303.218 21.8476 303.353 21.9659C303.678 22.2515 303.688 22.2368 304.171 22.1481C304.523 22.0791 304.528 22.089 304.98 22.3895C305.106 22.4732 305.242 22.4732 305.405 22.4338C305.617 22.3845 305.838 22.3057 306.06 22.3796C306.128 22.3993 306.213 22.4584 306.236 22.5225C306.25 22.5668 306.186 22.6751 306.132 22.7096C305.734 22.9658 305.269 22.9214 304.835 23.0249C304.7 23.0544 304.564 22.9608 304.451 22.8278C304.334 22.6948 304.207 22.6407 304.054 22.6653C303.755 22.7195 303.453 22.754 303.159 22.8328C302.906 22.9017 302.73 22.7884 302.553 22.6357C302.495 22.5865 302.427 22.4929 302.368 22.4978C301.699 22.5963 301.026 22.6949 300.362 22.8328C300.095 22.8919 299.942 22.7343 299.761 22.6013C299.698 22.5569 299.634 22.4634 299.576 22.4683C299.35 22.488 299.128 22.5422 298.902 22.5816C298.08 22.7293 297.262 22.8771 296.44 23.015C296.386 23.0249 296.318 22.9214 296.255 22.8771C296.133 22.7884 296.006 22.7047 295.88 22.6209C295.654 22.6603 295.432 22.7096 295.206 22.7392C295.044 22.7589 294.899 22.8278 294.876 23.015C294.863 23.1382 295.012 23.2514 295.17 23.2416C295.324 23.2317 295.477 23.1726 295.604 23.2366C296.232 23.5519 296.232 23.5568 296.625 23.4928C296.969 23.4337 296.932 23.3844 297.235 23.6553C297.366 23.7735 297.484 23.8425 297.633 23.813C298.003 23.744 298.378 23.675 298.753 23.6159C298.812 23.6061 298.889 23.6553 298.948 23.6948C299.39 23.9903 299.39 24.0001 299.756 23.9262C300.235 23.8376 300.254 23.813 300.574 24.1134C300.796 24.3203 300.999 24.1774 301.211 24.1676C301.455 24.3597 301.722 24.5321 301.943 24.7488C302.206 25.005 302.481 24.9606 302.779 24.8867C303.001 24.8325 303.218 24.8128 303.398 25.0148C303.57 25.202 303.778 25.2217 304.013 25.1724C304.225 25.1281 304.442 25.0345 304.664 25.1429C304.722 25.1724 304.813 25.2463 304.808 25.2907C304.804 25.3596 304.745 25.4581 304.686 25.4877C304.27 25.6896 303.814 25.6847 303.376 25.7783C303.317 25.7931 303.24 25.7389 303.182 25.6995C303.055 25.6108 302.933 25.5074 302.811 25.4138C302.59 25.4433 302.364 25.4532 302.147 25.5123C301.98 25.5566 301.853 25.5517 301.731 25.4335C301.618 25.3252 301.496 25.1921 301.361 25.1577C301.225 25.1232 301.067 25.1971 300.918 25.2266C300.769 25.2562 300.597 25.2414 300.479 25.3202C300.362 25.399 300.29 25.5714 300.213 25.7093C300.127 25.862 300.009 25.9113 299.838 25.9261C299.68 25.9409 299.553 25.9211 299.436 25.7832C299.386 25.7241 299.318 25.6798 299.25 25.6404C299.187 25.6059 299.115 25.5517 299.056 25.5615C298.383 25.6748 297.714 25.798 297.041 25.9162C296.706 25.9753 296.711 25.9753 296.015 25.6847C295.952 25.66 295.875 25.6256 295.812 25.6354C295.437 25.6945 295.066 25.7635 294.691 25.8325C294.312 25.9014 294.316 25.8916 293.67 25.5813C293.553 25.5221 293.381 25.601 293.241 25.5911C292.947 25.5665 292.803 25.1527 292.459 25.2316C292.165 25.3005 291.858 25.3153 291.564 25.4039C291.298 25.4827 291.144 25.3104 290.963 25.1774C290.9 25.133 290.832 25.0345 290.778 25.0444C290.105 25.1527 289.436 25.2759 288.542 25.2907C288.32 25.2907 288.42 25.3941 288.564 25.4286C288.772 25.4828 288.84 25.3793 288.727 25.1823C288.645 25.0444 288.528 24.9754 288.433 25.0099C288.383 25.0296 288.32 25.1232 288.542 25.2907C288.776 25.4778 288.763 25.5812 288.804 25.6404C288.903 25.7832 289.043 25.8423 289.188 25.8226C289.414 25.7881 289.635 25.7389 289.861 25.7093C289.924 25.6995 290.001 25.734 290.06 25.7734C290.557 26.0787 290.561 26.0985 291.09 25.9803C291.257 25.9458 291.379 25.9458 291.51 26.0394C291.691 26.1674 291.822 26.3841 292.098 26.3152C292.464 26.2216 292.839 26.1674 293.214 26.1133C293.272 26.1034 293.336 26.1921 293.403 26.2315C293.589 26.3497 293.724 26.5713 294 26.4778C294.212 26.4039 294.443 26.3841 294.669 26.3693C294.727 26.3644 294.818 26.4432 294.845 26.5073C294.899 26.6206 294.831 26.7536 294.678 26.8472C294.614 26.8866 294.529 26.8767 294.456 26.8915C294.158 26.9457 293.86 27.0048 293.562 27.0491C293.403 27.0737 293.254 27.1476 293.236 27.3299C293.223 27.453 293.385 27.5614 293.539 27.5515C293.765 27.5367 293.991 27.4973 294.208 27.4333C294.592 27.3249 294.926 27.3545 295.238 27.6648C295.459 27.8815 295.446 27.8027 295.681 28.4431C295.74 28.6056 295.916 28.6204 296.069 28.6105C296.44 28.5859 296.612 28.6598 296.58 28.8125C296.539 28.9997 296.408 29.0587 296.241 29.0834C295.943 29.1228 295.645 29.1868 295.346 29.241C295.274 29.2558 295.193 29.2853 295.125 29.2755C295.057 29.2656 294.994 29.2065 294.935 29.1622C294.809 29.0686 294.7 28.9257 294.565 28.8913C294.429 28.8568 294.271 28.9307 294.122 28.9602C293.973 28.9849 293.815 29.0587 293.679 29.0243C293.544 28.9898 293.431 28.8421 293.309 28.7534C293.25 28.7091 293.178 28.6401 293.119 28.645C292.821 28.6844 292.522 28.7484 292.224 28.7977C291.858 28.8617 291.858 28.8617 291.415 28.5564C291.289 28.4677 291.158 28.4726 290.991 28.512C290.629 28.5909 290.625 28.576 289.965 28.2904C289.902 28.2608 289.825 28.2263 289.761 28.2411C289.088 28.3544 288.419 28.4775 287.751 28.5957C287.177 28.6992 287.177 28.6992 286.861 29.1918C286.626 29.5563 286.621 29.5563 286.852 29.7237C287.037 29.8616 287.204 30.0636 287.407 30.1375C287.597 30.2064 287.832 29.9848 288.04 30.2114C288.144 30.3247 288.279 30.4478 288.41 30.4675C288.618 30.4921 288.84 30.3493 289.039 30.566C289.138 30.6744 289.287 30.7877 289.414 30.7926C289.635 30.8025 289.861 30.7236 290.082 30.6891C290.15 30.6793 290.227 30.6793 290.29 30.7039C290.358 30.7335 290.417 30.7926 290.475 30.8419C290.656 31.0093 290.85 31.0881 291.085 31.0044C291.47 30.8665 291.813 30.9354 292.111 31.2507C292.152 31.295 292.251 31.2999 292.314 31.2802C292.477 31.231 292.617 31.226 292.739 31.3196C292.789 31.359 292.861 31.428 292.852 31.4723C292.839 31.5462 292.784 31.6447 292.726 31.6693C292.301 31.8368 291.845 31.8565 291.406 31.9452C291.348 31.955 291.275 31.891 291.217 31.8466C291.09 31.758 290.982 31.6103 290.846 31.5758C290.71 31.5413 290.552 31.6053 290.403 31.6299C290.254 31.6546 290.096 31.7285 289.96 31.6989C289.825 31.6644 289.698 31.5413 289.59 31.4329C289.463 31.3098 289.341 31.295 289.174 31.3443C288.957 31.4083 288.731 31.4182 288.51 31.4526C288.388 31.359 288.266 31.2556 288.139 31.1669C288.081 31.1226 288.008 31.0684 287.945 31.0733C287.647 31.1128 287.349 31.1718 287.05 31.226C286.752 31.2802 286.752 31.2802 286.246 30.9749C286.187 30.9404 286.111 30.901 286.047 30.9108C285.672 30.9699 285.302 31.0438 284.927 31.1029C284.782 31.1275 284.651 31.0585 284.534 30.9256C284.421 30.7926 284.285 30.7187 284.145 30.7433C283.549 30.8467 282.952 30.9453 282.356 31.0684C282.116 31.1177 281.913 31.0734 281.75 30.896C281.56 30.6941 281.348 30.7433 281.127 30.7828C280.625 30.8813 280.621 30.8763 280.3 30.6251C280.236 30.5758 280.173 30.4822 280.115 30.4872C279.595 30.5611 279.071 30.63 278.556 30.7482C278.285 30.8123 278.14 30.6399 277.959 30.5118C277.896 30.4675 277.828 30.3739 277.774 30.3837C277.399 30.4379 277.024 30.4872 276.658 30.5857C276.292 30.6842 276.152 30.2262 275.876 30.2311C275.501 30.236 275.131 30.3493 274.76 30.4183C274.462 30.4724 274.164 30.5266 273.865 30.5808C273.567 30.635 273.269 30.6793 272.971 30.7433C272.813 30.7778 272.695 30.7334 272.564 30.6103C272.397 30.4478 272.198 30.3197 272.017 30.172C271.742 29.9602 271.742 29.9601 271.407 30.0193C271.335 30.034 271.258 30.0439 271.186 30.0586C270.639 30.167 270.639 30.1572 269.943 29.8469C269.912 29.8321 269.83 29.8863 269.799 29.9257C269.704 30.0538 269.618 30.1916 269.532 30.3246C269.41 30.2458 269.261 30.2015 269.18 30.0882C268.949 29.7681 268.588 30.2064 268.353 29.8912C268.267 29.773 268.118 29.6695 267.982 29.64C267.842 29.6104 267.684 29.6794 267.539 29.7089C267.164 29.7828 267.164 29.7779 266.844 30.2163C266.681 30.433 266.446 30.3936 266.234 30.4429C266.012 30.497 265.8 30.5266 265.615 30.3246C265.447 30.1424 265.244 30.0981 265.005 30.1572C264.711 30.2311 264.408 30.2754 264.11 30.3197C264.047 30.3296 263.97 30.305 263.907 30.2754C263.215 29.9848 263.215 29.9799 262.881 30.0439C262.732 30.0735 262.578 30.0833 262.434 30.1276C262.19 30.2064 262.004 30.103 261.828 29.9454C261.769 29.8961 261.702 29.8026 261.643 29.8075C261.345 29.8321 261.051 29.8764 260.757 29.9208C260.531 29.9552 260.305 29.9749 260.088 30.0439C259.727 30.1572 259.551 29.837 259.302 29.6892C258.932 29.7532 258.557 29.7976 258.186 29.8863C258.014 29.9257 257.902 29.9109 257.771 29.7927C257.603 29.6449 257.45 29.4775 257.179 29.5513C256.817 29.6499 256.438 29.6843 256.067 29.7435C255.819 29.5908 255.638 29.2804 255.281 29.3937C255.064 29.4626 254.834 29.4774 254.612 29.5168C254.314 29.571 254.016 29.6203 253.717 29.6794C253.397 29.7385 253.401 29.7237 252.909 29.4331C252.624 29.2607 252.33 29.4528 252.041 29.4824C251.815 29.507 251.702 29.7336 251.756 30.0242C251.811 30.3148 251.689 30.5414 251.481 30.5808C250.961 30.6744 250.437 30.7729 249.917 30.8566C249.854 30.8664 249.777 30.832 249.719 30.7975C249.163 30.4872 249.163 30.4921 248.914 30.5365C248.544 30.6104 248.164 30.6497 247.798 30.7433C247.545 30.8073 247.36 30.7039 247.197 30.5365C247.071 30.4084 246.953 30.3788 246.791 30.4084C245.001 30.7384 243.212 31.0438 241.427 31.3837C241.16 31.4329 241.007 31.2901 240.826 31.1571C240.763 31.1128 240.704 31.0192 240.641 31.0192C240.492 31.0192 240.343 31.0635 240.193 31.0931C239.525 31.2113 238.856 31.3541 238.183 31.4428C237.898 31.4822 237.821 31.7088 237.699 31.896C237.604 32.0388 237.496 32.0979 237.329 32.1176C237.166 32.1373 237.049 32.1126 236.922 31.9846C236.759 31.8171 236.574 31.7137 236.321 31.7826C236.028 31.8614 235.729 31.8959 235.426 31.9501C235.273 31.9748 235.155 32.0634 235.106 32.2407C235.097 32.2703 235.192 32.3442 235.246 32.3885C235.426 32.5363 235.598 32.7087 235.802 32.8121C236.009 32.9155 236.235 32.7973 236.452 32.7677C236.529 32.7579 236.601 32.7284 236.674 32.7333C236.741 32.7382 236.823 32.7628 236.872 32.8072C237.107 33.0288 237.356 33.1815 237.681 33.0485C237.961 33.1126 238.106 33.5214 238.463 33.413C238.68 33.349 238.906 33.3194 239.132 33.2948C239.19 33.2899 239.254 33.3786 239.317 33.4229C239.498 33.546 239.642 33.743 239.913 33.6593C240.203 33.5706 240.51 33.5559 240.804 33.4869C240.966 33.4475 241.084 33.482 241.21 33.6101C241.373 33.7726 241.558 33.8957 241.811 33.8169C242.028 33.7479 242.258 33.7332 242.48 33.6888C242.769 33.6346 242.769 33.6396 243.284 33.945C243.343 33.9795 243.42 34.0189 243.483 34.009C243.858 33.9499 244.229 33.876 244.604 33.8169C244.748 33.7923 244.888 33.8563 244.988 33.9991C245.028 34.0583 245.015 34.1568 245.028 34.2406C244.283 34.3735 243.537 34.4868 242.796 34.6494C242.516 34.7134 242.389 34.5114 242.204 34.3982C242.141 34.3587 242.073 34.275 242.014 34.2849C241.49 34.3686 240.971 34.4572 240.451 34.5656C240.288 34.6001 240.166 34.5804 240.044 34.4375C239.733 34.0583 239.353 34.2651 239.001 34.3193C238.73 34.3587 238.644 34.5114 238.675 34.8365C238.716 35.2207 238.879 35.339 239.294 35.27C239.443 35.2454 239.593 35.2109 239.742 35.1912C239.886 35.1715 240.017 35.2355 240.135 35.3685C240.248 35.5015 240.383 35.5704 240.523 35.5507C240.822 35.5064 241.124 35.4621 241.413 35.3882C241.653 35.3291 241.852 35.3783 242.019 35.5606C242.204 35.7625 242.421 35.7182 242.638 35.6739C243.144 35.5754 243.149 35.5803 243.465 35.8266C243.528 35.8759 243.591 35.9695 243.65 35.9645C244.17 35.8906 244.694 35.8266 245.205 35.7084C245.471 35.6493 245.625 35.8069 245.801 35.9349C245.864 35.9793 245.928 36.0778 245.986 36.0679C246.361 36.0138 246.736 35.9596 247.102 35.866C247.274 35.8216 247.378 35.8512 247.518 35.9694C247.852 36.26 247.861 36.2502 248.336 36.1566C248.48 36.127 248.639 36.0729 248.774 36.1123C248.91 36.1517 249.018 36.2945 249.145 36.3832C249.203 36.4226 249.276 36.4767 249.339 36.4669C249.637 36.4275 249.935 36.3684 250.234 36.3142C250.514 36.26 250.514 36.265 251.038 36.5704C251.25 36.6984 251.472 36.5901 251.684 36.5507C251.915 36.5063 252.122 36.5063 252.299 36.6984C252.475 36.8905 252.687 36.8806 252.913 36.8412C253.126 36.8018 253.342 36.6935 253.559 36.8265C254.056 37.1319 254.056 37.1368 254.364 37.0777C254.811 36.9939 255.254 36.9151 255.706 36.8412C255.764 36.8314 255.841 36.8905 255.9 36.9299C256.026 37.0186 256.135 37.1663 256.27 37.2008C256.406 37.2402 256.564 37.1811 256.709 37.1516C257.174 37.058 257.206 37.0235 257.517 37.3486C257.78 37.6146 258.105 37.2304 258.349 37.5358C258.489 37.7082 258.679 37.8461 258.941 37.7623C259.158 37.6934 259.384 37.6737 259.609 37.6343C259.966 37.5702 259.966 37.5752 260.418 37.8707C260.477 37.9102 260.554 37.9594 260.613 37.9495C260.911 37.9101 261.214 37.8757 261.503 37.787C261.842 37.6836 262.059 37.8707 262.312 38.053C262.51 38.1958 262.745 38.0776 262.958 38.0283C263.188 37.9791 263.396 37.9938 263.568 38.1859C263.748 38.383 263.961 38.3583 264.187 38.3189C264.399 38.2845 264.616 38.1712 264.833 38.3091C265.298 38.6145 265.298 38.6145 265.637 38.5554C265.935 38.5012 266.234 38.4421 266.532 38.4027C266.591 38.3928 266.663 38.4569 266.722 38.5012C266.848 38.5898 266.957 38.7376 267.092 38.7721C267.228 38.8066 267.386 38.7426 267.535 38.7179C267.684 38.6933 267.842 38.6194 267.978 38.649C268.113 38.6785 268.24 38.8017 268.348 38.91C268.475 39.0381 268.592 39.0529 268.764 39.0036C268.981 38.9396 269.207 38.9248 269.428 38.8903C269.55 38.9839 269.677 39.0775 269.794 39.1809C269.916 39.2893 270.047 39.2794 270.214 39.245C270.77 39.1267 270.775 39.1415 271.24 39.4469C271.452 39.5848 271.674 39.4715 271.886 39.4371C272.112 39.3977 272.325 39.378 272.501 39.575C272.673 39.7622 272.885 39.7868 273.111 39.7277C273.255 39.6883 273.409 39.6637 273.558 39.6489C273.626 39.644 273.707 39.6637 273.757 39.7031C273.996 39.9099 274.231 40.0971 274.561 39.9641C274.85 40.0035 274.995 40.4074 275.343 40.3286C275.637 40.2597 275.944 40.2449 276.233 40.1562C276.5 40.0774 276.689 40.2153 276.825 40.3877C277.069 40.6931 277.412 40.2794 277.656 40.5798C277.797 40.7522 277.977 40.8902 278.248 40.8163C278.547 40.7375 278.641 40.8409 278.727 41.1512C278.777 41.3285 278.768 41.4714 278.678 41.6093C278.587 41.7521 278.488 41.7275 278.343 41.565C278.176 41.3827 277.977 41.3482 277.738 41.3876C277.503 41.427 277.358 41.1709 277.164 41.0724C276.97 40.969 276.739 41.1414 276.536 41.0084C276.057 40.6981 276.057 40.6981 275.732 40.7572C275.51 40.7966 275.28 40.8163 275.063 40.8852C274.805 40.969 274.638 40.8163 274.462 40.6783C274.399 40.6291 274.335 40.5355 274.281 40.5404C273.761 40.6143 273.237 40.6833 272.722 40.8064C272.451 40.8704 272.307 40.6931 272.126 40.57C272.063 40.5257 271.995 40.437 271.941 40.4468C271.493 40.5158 271.05 40.6045 270.603 40.6882C270.517 40.8212 270.422 40.9492 270.341 41.0921C270.255 41.2398 270.138 41.3039 269.966 41.299C269.681 41.299 269.401 41.5059 269.116 41.2448C268.823 40.9788 268.8 40.9936 268.516 41.0576C268.154 41.1414 267.77 41.1217 267.431 41.3138C267.372 41.3482 267.309 41.4418 267.309 41.5107C267.305 41.5551 267.399 41.6191 267.458 41.6585C267.657 41.7767 267.887 41.6044 268.086 41.7275C268.217 41.8063 268.326 41.9245 268.457 42.0082C268.511 42.0427 268.592 42.0378 268.665 42.0329C268.741 42.028 268.814 41.9935 268.886 41.9984C268.954 42.0034 269.026 42.0329 269.08 42.0772C269.329 42.2644 269.591 42.4368 269.812 42.6585C270.029 42.8752 270.232 42.7274 270.449 42.7176C271.317 43.0624 271.317 43.0673 271.9 42.9589C272.044 42.9343 272.194 42.9047 272.343 42.9097C272.406 42.9097 272.465 42.9983 272.528 43.0475C272.709 43.1953 272.88 43.3283 273.133 43.2495C273.35 43.1805 273.581 43.1658 273.802 43.1214C274.1 43.0672 274.1 43.0673 274.607 43.3776C274.733 43.4564 274.869 43.4466 275.031 43.4072C275.171 43.3727 275.316 43.4466 275.415 43.5894C275.456 43.6485 275.442 43.747 275.456 43.8308C275.009 43.9096 274.557 43.9638 274.123 44.082C273.843 44.1558 273.716 43.944 273.531 43.8308C273.468 43.7913 273.4 43.7076 273.341 43.7175C272.898 43.7914 272.456 43.875 272.013 43.9736C271.959 43.9834 271.891 44.0967 271.886 44.1657C271.877 44.2937 271.99 44.4169 272.153 44.4119C272.37 44.407 272.582 44.3233 272.776 44.5252C272.939 44.7025 273.142 44.7814 273.382 44.7026C273.526 44.6583 273.68 44.6582 273.825 44.6188C274.209 44.5006 274.557 44.5253 274.846 44.8602C275.067 44.9489 275.284 44.8651 275.497 44.8208C275.655 44.7863 275.808 44.7518 275.921 44.8454C276.161 45.0424 276.396 45.2395 276.726 45.1065C277.083 45.2444 277.354 45.535 277.652 45.7714C277.792 45.8847 277.9 45.9488 278.063 45.8749C278.131 45.8454 278.212 45.8453 278.285 45.8305C278.434 45.8059 278.592 45.732 278.727 45.7616C278.863 45.796 278.976 45.9389 279.098 46.0276C279.157 46.0719 279.224 46.1458 279.283 46.1409C279.509 46.1162 279.73 46.067 279.952 46.0276C280.173 45.9931 280.395 45.9586 280.616 45.9241C280.801 46.0522 280.991 46.1803 281.176 46.3084C281.475 46.2542 281.773 46.2 282.067 46.1507C282.396 46.0916 282.396 46.0965 282.871 46.4019C283.083 46.5398 283.309 46.4512 283.512 46.3871C283.851 46.2837 284.077 46.4709 284.317 46.6679C284.366 46.7073 284.457 46.7319 284.516 46.7122C284.751 46.6433 284.954 46.6974 285.125 46.8797C285.247 47.0078 285.37 47.0669 285.519 47.0423C286.038 46.9487 286.558 46.8502 287.077 46.7664C287.141 46.7566 287.213 46.8009 287.272 46.8403C287.733 47.1408 287.737 47.1555 288.076 47.0767C288.379 47.0078 288.659 46.9782 288.898 47.2491C288.948 47.3082 289.025 47.392 289.079 47.3871C289.45 47.3378 289.825 47.2836 290.191 47.1999C290.358 47.1605 290.475 47.1753 290.606 47.2886C290.774 47.4314 290.923 47.6038 291.198 47.5398C291.962 47.3575 291.967 47.387 292.87 47.7269C292.934 47.7515 293.019 47.7121 293.092 47.6924C293.245 47.6432 293.358 47.7121 293.494 47.8254C293.796 48.0816 293.806 48.0668 294.095 48.0126C294.316 47.9683 294.547 47.9584 294.763 47.8845C295.098 47.7762 295.319 47.9683 295.568 48.1505C295.767 48.2934 295.997 48.1752 296.209 48.1308C296.44 48.0816 296.648 48.0963 296.819 48.2835C296.937 48.4116 297.063 48.4806 297.212 48.4559C297.732 48.3673 298.252 48.2687 298.771 48.1801C298.835 48.1702 298.911 48.2096 298.97 48.2441C299.485 48.5495 299.485 48.5643 299.996 48.451C300.159 48.4165 300.294 48.4067 300.416 48.5101C300.534 48.6086 300.66 48.7022 300.782 48.7958C301.004 48.7613 301.229 48.7515 301.446 48.6924C301.614 48.648 301.731 48.6677 301.862 48.7712C302.034 48.9042 302.178 49.1356 302.449 49.0223C302.59 48.9682 302.752 48.983 302.892 48.9337C303.059 48.8697 303.172 48.9091 303.304 49.0371C303.466 49.1898 303.633 49.3474 303.895 49.2686C304.185 49.18 304.492 49.1652 304.785 49.0962C304.948 49.0568 305.061 49.0962 305.192 49.2243C305.355 49.3868 305.54 49.4903 305.793 49.4263C306.308 49.3031 306.313 49.3277 306.814 49.638C306.941 49.7168 307.076 49.707 307.239 49.6676C307.379 49.6331 307.524 49.707 307.623 49.8499C307.718 50.0075 307.709 50.106 307.718 50.1897ZM267.454 5.76543C267.305 5.79006 267.155 5.81961 266.939 5.39108C266.925 5.31719 266.934 5.22855 266.902 5.16452C266.83 5.03152 266.717 4.93794 266.582 4.92316C266.338 4.90346 266.044 5.0709 266.048 5.19897C266.053 5.30733 266.13 5.4009 266.279 5.48956C266.342 5.52404 266.392 5.58316 266.451 5.62257C266.622 5.73586 266.758 5.95755 267.006 5.84426C266.961 5.53887 266.984 5.69156 267.006 5.84426C266.984 6.03143 267.052 6.16443 267.214 6.21861C267.259 6.23339 267.327 6.22351 267.363 6.19396C267.503 6.08559 267.526 5.93785 267.422 5.54873C267.404 5.61276 267.418 5.72601 267.458 5.75557C267.499 5.78512 267.598 5.76052 267.648 5.72605C267.774 5.63246 267.838 5.50931 267.806 5.40587C267.788 5.35168 267.702 5.28273 267.648 5.28273C267.553 5.28273 267.467 5.39108 267.454 5.76543ZM303.99 62.888C303.66 62.9816 303.281 62.9471 302.951 63.1392C302.892 63.1737 302.834 63.2624 302.829 63.3313C302.825 63.3757 302.915 63.4397 302.969 63.4742C303.091 63.553 303.227 63.5283 303.385 63.5037C303.624 63.4692 303.764 63.6958 303.95 63.8091C304.008 63.8436 304.085 63.8682 304.148 63.8583C304.514 63.7992 304.876 63.7353 305.242 63.6663C305.305 63.6515 305.373 63.617 305.427 63.5727C305.608 63.4298 305.59 63.3363 305.414 63.2279C305.219 63.1097 305.066 62.9126 304.867 62.819C304.582 62.6861 304.293 62.8634 303.99 62.888ZM278.33 66.4837C278.108 66.5232 277.891 66.5626 277.67 66.602C277.598 66.6167 277.521 66.6216 277.453 66.6413C277.313 66.6758 277.209 66.7793 277.141 66.9418C277.245 67.0699 277.372 67.1438 277.512 67.129C277.733 67.0994 277.95 67.0354 278.172 67.0206C278.411 67.0009 278.551 67.2226 278.736 67.3359C278.795 67.3704 278.867 67.3753 278.935 67.3802C279.27 67.3999 279.473 67.1438 279.41 66.7842C279.364 66.5034 279.193 66.336 278.985 66.3705C278.768 66.4049 278.547 66.4443 278.33 66.4837ZM305.536 55.6079C305.59 55.5242 305.649 55.4651 305.676 55.3912C305.757 55.14 305.725 54.9528 305.576 54.7558C305.395 54.5144 305.174 54.677 304.971 54.7016C304.921 54.7065 304.867 54.81 304.84 54.874C304.822 54.9183 304.822 55.0119 304.849 55.0366C305.07 55.2336 305.305 55.4158 305.536 55.6079ZM266.338 41.0576C266.121 41.097 265.899 41.1266 265.682 41.1808C265.628 41.1955 265.578 41.2891 265.547 41.3531C265.488 41.4714 265.551 41.6339 265.737 41.6487C265.949 41.6684 266.17 41.5847 266.392 41.5453C266.672 41.496 266.839 41.3137 266.735 41.1561C266.636 41.0034 266.5 40.9739 266.338 41.0576ZM28.488 30.5315C28.6326 30.5069 28.7817 30.4872 28.9263 30.4527C29.0618 30.4182 29.1658 30.3099 29.2336 30.1473C29.1206 30.0193 28.9941 29.9503 28.854 29.9651C28.6326 29.9946 28.4157 30.034 28.1988 30.0833C28.0633 30.1128 27.9323 30.2212 27.9007 30.3887C27.869 30.5167 28.1717 30.5906 28.488 30.5315ZM247.229 29.773C247.288 29.8173 247.346 29.906 247.405 29.906C247.55 29.906 247.699 29.8764 247.834 29.8271C247.893 29.8074 247.938 29.7188 247.965 29.6498C247.983 29.6055 247.979 29.5267 247.952 29.4873C247.821 29.2509 247.297 29.3346 247.211 29.6055C247.202 29.6548 247.224 29.7188 247.229 29.773ZM232.973 2.80019C232.986 2.879 232.991 2.9578 233.009 3.03661C233.045 3.18438 233.145 3.29276 233.289 3.36665C233.402 3.24351 233.461 3.10561 233.456 2.95784C233.452 2.87903 233.438 2.80017 233.42 2.72136C233.384 2.57359 233.285 2.46526 233.14 2.39138C233.027 2.5096 232.973 2.64749 232.973 2.80019ZM315.978 67.3408C315.937 67.4048 315.896 67.4689 315.851 67.528C315.973 67.6708 316.086 67.7151 316.172 67.6363C316.226 67.5871 316.258 67.5132 316.299 67.4492C316.177 67.3063 316.068 67.2669 315.978 67.3408ZM313.167 68.0107C313.226 68.055 313.28 68.1141 313.344 68.1437C313.448 68.1929 313.542 68.1092 313.615 67.9319C313.556 67.8875 313.502 67.8284 313.439 67.7989C313.335 67.7496 313.24 67.8334 313.167 68.0107ZM314.948 67.1093C314.916 67.2275 314.979 67.326 315.147 67.4098C315.187 67.3457 315.241 67.2866 315.269 67.2177C315.314 67.1044 315.237 67.0009 315.074 66.9221C315.029 66.9812 314.988 67.0453 314.948 67.1093ZM305.409 61.7995C305.377 61.9177 305.441 62.0162 305.608 62.0999C305.649 62.0359 305.703 61.9768 305.73 61.9078C305.775 61.7945 305.698 61.6911 305.536 61.6123C305.49 61.6714 305.45 61.7354 305.409 61.7995ZM292.414 26.9457C292.373 27.0097 292.333 27.0737 292.287 27.1328C292.409 27.2757 292.522 27.32 292.608 27.2412C292.662 27.1919 292.694 27.118 292.735 27.054C292.613 26.9112 292.504 26.8718 292.414 26.9457ZM279.965 8.45481C280.074 8.48929 280.164 8.42036 280.241 8.23811C280.182 8.19378 280.128 8.13466 280.065 8.10511C279.961 8.05585 279.866 8.13961 279.794 8.31693C279.852 8.36619 279.911 8.41048 279.965 8.45481ZM273.355 7.29729C273.314 7.36133 273.273 7.42536 273.228 7.48447C273.35 7.62731 273.463 7.67163 273.549 7.59282C273.603 7.54356 273.635 7.46968 273.676 7.40564C273.554 7.2628 273.445 7.22834 273.355 7.29729ZM228.527 2.79526C228.486 2.85929 228.445 2.92332 228.4 2.98243C228.522 3.12528 228.635 3.16959 228.721 3.09078C228.775 3.04153 228.807 2.96764 228.848 2.90361C228.726 2.76076 228.617 2.7263 228.527 2.79526ZM5.31707 42.8702C5.25833 42.8259 5.19964 42.7816 5.14542 42.7323C5.01438 42.8653 4.97373 42.9885 5.04602 43.082C5.09121 43.1412 5.15893 43.1756 5.21767 43.22C5.35323 43.087 5.38485 42.9687 5.31707 42.8702Z" fill="#FFC857"/>
</svg>
