<svg width="517" height="43" viewBox="0 0 517 43" fill="none" xmlns="http://www.w3.org/2000/svg">
<rect y="0.209717" width="517" height="10.1292" rx="5" fill="#D1D1D1"/>
<rect y="0.209717" width="44.3276" height="10.1292" rx="5" fill="#CF6660"/>
<path d="M0.772461 35.6865H2.29004C2.41992 36.623 3.33594 37.2178 4.65527 37.2178C5.88574 37.2178 6.78809 36.582 6.78809 35.707C6.78809 34.9551 6.21387 34.5039 4.9082 34.1963L3.63672 33.8887C1.85254 33.4717 1.03906 32.6104 1.03906 31.1611C1.03906 29.4043 2.47461 28.2354 4.62793 28.2354C6.63086 28.2354 8.09375 29.4043 8.18262 31.0654H6.69238C6.54883 30.1562 5.75586 29.5889 4.60742 29.5889C3.39746 29.5889 2.59082 30.1699 2.59082 31.0586C2.59082 31.7627 3.11035 32.166 4.39551 32.4668L5.48242 32.7334C7.50586 33.2051 8.33984 34.0254 8.33984 35.5088C8.33984 37.3955 6.87695 38.5781 4.53906 38.5781C2.35156 38.5781 0.881836 37.4502 0.772461 35.6865ZM10.7051 29.042H12.1748V30.9287H13.7881V32.166H12.1748V35.9941C12.1748 36.7734 12.4961 37.1152 13.2275 37.1152C13.4531 37.1152 13.583 37.1016 13.7881 37.0811V38.3047C13.5488 38.3457 13.2754 38.3799 12.9883 38.3799C11.3545 38.3799 10.7051 37.8057 10.7051 36.3701V32.166H9.52246V30.9287H10.7051V29.042ZM15.5176 38.3389V30.8945H16.9326V32.0361H17.042C17.2539 31.3047 18.0811 30.7715 19.0518 30.7715C19.2705 30.7715 19.5508 30.792 19.708 30.833V32.2822C19.585 32.2412 19.1475 32.1934 18.8877 32.1934C17.7734 32.1934 16.9873 32.8975 16.9873 33.9434V38.3389H15.5176ZM23.9873 32.002C22.9004 32.002 22.1416 32.7676 22.0596 33.9297H25.8193C25.7852 32.7607 25.0742 32.002 23.9873 32.002ZM25.8125 36.3291H27.2275C26.8926 37.6621 25.7031 38.4824 24.001 38.4824C21.8682 38.4824 20.5625 37.0195 20.5625 34.6406C20.5625 32.2617 21.8955 30.751 23.9941 30.751C26.0654 30.751 27.3164 32.166 27.3164 34.5039V35.0166H22.0596V35.0986C22.1074 36.4043 22.8662 37.2314 24.042 37.2314C24.9307 37.2314 25.5391 36.9102 25.8125 36.3291ZM29.0801 38.3389V30.8945H30.4951V32.0771H30.6045C30.9668 31.25 31.7051 30.751 32.8262 30.751C34.4873 30.751 35.4033 31.749 35.4033 33.5195V38.3389H33.9336V33.8887C33.9336 32.6924 33.4141 32.0977 32.3271 32.0977C31.2402 32.0977 30.5498 32.8223 30.5498 33.9844V38.3389H29.0801ZM40.5918 36.958C41.8496 36.958 42.6084 36.0146 42.6084 34.5244C42.6084 33.041 41.8428 32.0908 40.5918 32.0908C39.3271 32.0908 38.6162 33.041 38.6162 34.5244C38.6162 36.0078 39.3271 36.958 40.5918 36.958ZM40.6123 41.1826C38.7529 41.1826 37.5498 40.3486 37.3926 39.084H38.8965C39.0195 39.624 39.6416 39.9727 40.6328 39.9727C41.8564 39.9727 42.5811 39.3916 42.5811 38.4072V36.9785H42.4717C42.0205 37.7852 41.2002 38.2295 40.1748 38.2295C38.2744 38.2295 37.0986 36.7598 37.0986 34.5312C37.0986 32.2617 38.2881 30.7715 40.1885 30.7715C41.2139 30.7715 42.1094 31.2773 42.5264 32.084H42.6426V30.8945H44.0508V38.4004C44.0508 40.1025 42.7178 41.1826 40.6123 41.1826ZM46.7031 29.042H48.1729V30.9287H49.7861V32.166H48.1729V35.9941C48.1729 36.7734 48.4941 37.1152 49.2256 37.1152C49.4512 37.1152 49.5811 37.1016 49.7861 37.0811V38.3047C49.5469 38.3457 49.2734 38.3799 48.9863 38.3799C47.3525 38.3799 46.7031 37.8057 46.7031 36.3701V32.166H45.5205V30.9287H46.7031V29.042ZM51.584 38.3389V27.9893H53.04V32.0908H53.1562C53.5186 31.2568 54.3047 30.7578 55.4258 30.7578C57.0117 30.7578 57.9893 31.7627 57.9893 33.5332V38.3389H56.5195V33.8955C56.5195 32.7061 55.9658 32.1045 54.9268 32.1045C53.7236 32.1045 53.0537 32.8633 53.0537 33.9912V38.3389H51.584Z" fill="black"/>
<path d="M70.1914 30.8945L67.5117 38.3389H65.9326L63.2461 30.8945H64.8184L66.6709 36.7666H66.7871L68.6328 30.8945H70.1914ZM74.4502 32.002C73.3633 32.002 72.6045 32.7676 72.5225 33.9297H76.2822C76.248 32.7607 75.5371 32.002 74.4502 32.002ZM76.2754 36.3291H77.6904C77.3555 37.6621 76.166 38.4824 74.4639 38.4824C72.3311 38.4824 71.0254 37.0195 71.0254 34.6406C71.0254 32.2617 72.3584 30.751 74.457 30.751C76.5283 30.751 77.7793 32.166 77.7793 34.5039V35.0166H72.5225V35.0986C72.5703 36.4043 73.3291 37.2314 74.5049 37.2314C75.3936 37.2314 76.002 36.9102 76.2754 36.3291ZM79.543 38.3389V30.8945H80.958V32.0361H81.0674C81.2793 31.3047 82.1064 30.7715 83.0771 30.7715C83.2959 30.7715 83.5762 30.792 83.7334 30.833V32.2822C83.6104 32.2412 83.1729 32.1934 82.9131 32.1934C81.7988 32.1934 81.0127 32.8975 81.0127 33.9434V38.3389H79.543ZM85.9277 41.0391C85.8047 41.0391 85.4561 41.0254 85.3193 41.0049V39.7402C85.4355 39.7607 85.6611 39.7676 85.7979 39.7676C86.4951 39.7676 86.8916 39.4805 87.1445 38.7285L87.2539 38.3662L84.5605 30.8945H86.1602L88.0264 36.8076H88.1426L90.002 30.8945H91.5605L88.7852 38.6465C88.1494 40.458 87.4453 41.0391 85.9277 41.0391ZM100.755 30.7715C102.648 30.7715 103.845 32.248 103.845 34.6133C103.845 36.9785 102.648 38.4619 100.769 38.4619C99.709 38.4619 98.8682 37.9971 98.4785 37.2109H98.3623V40.8135H96.8926V30.8945H98.3076V32.125H98.417C98.8682 31.2773 99.7432 30.7715 100.755 30.7715ZM100.338 37.1426C101.589 37.1426 102.334 36.1924 102.334 34.6133C102.334 33.041 101.589 32.0908 100.345 32.0908C99.1074 32.0908 98.335 33.0615 98.335 34.6201C98.335 36.1719 99.1074 37.1426 100.338 37.1426ZM108.76 38.4824C106.579 38.4824 105.246 37.0264 105.246 34.6133C105.246 32.2139 106.586 30.751 108.76 30.751C110.927 30.751 112.267 32.2139 112.267 34.6133C112.267 37.0264 110.934 38.4824 108.76 38.4824ZM108.76 37.1768C110.031 37.1768 110.756 36.2334 110.756 34.6133C110.756 33 110.031 32.0566 108.76 32.0566C107.481 32.0566 106.764 33 106.764 34.6133C106.764 36.2402 107.481 37.1768 108.76 37.1768ZM117.182 38.4824C115.001 38.4824 113.668 37.0264 113.668 34.6133C113.668 32.2139 115.008 30.751 117.182 30.751C119.349 30.751 120.688 32.2139 120.688 34.6133C120.688 37.0264 119.355 38.4824 117.182 38.4824ZM117.182 37.1768C118.453 37.1768 119.178 36.2334 119.178 34.6133C119.178 33 118.453 32.0566 117.182 32.0566C115.903 32.0566 115.186 33 115.186 34.6133C115.186 36.2402 115.903 37.1768 117.182 37.1768ZM122.459 38.3389V30.8945H123.874V32.0361H123.983C124.195 31.3047 125.022 30.7715 125.993 30.7715C126.212 30.7715 126.492 30.792 126.649 30.833V32.2822C126.526 32.2412 126.089 32.1934 125.829 32.1934C124.715 32.1934 123.929 32.8975 123.929 33.9434V38.3389H122.459Z" fill="#CF6660"/>
</svg>
